<svg width="160" height="124" fill="none" xmlns="http://www.w3.org/2000/svg"><path opacity=".06" d="M43.833.088C58.147.088 69 5.427 76.393 16.104c7.392 10.56 11.088 25.813 11.088 45.76S83.726 97.123 76.217 107.8c-7.392 10.677-18.187 16.016-32.384 16.016-14.198 0-24.992-5.339-32.384-16.016C4.057 97.123.36 81.81.36 61.864c0-19.947 3.696-35.2 11.088-45.76C18.84 5.427 29.635.088 43.833.088zm0 18.656c-4.224 0-7.627 1.408-10.208 4.224-2.582 2.699-4.518 7.216-5.808 13.552-1.174 6.219-1.76 14.667-1.76 25.344 0 10.677.586 19.184 1.76 25.52 1.29 6.219 3.226 10.736 5.808 13.552 2.581 2.699 5.984 4.048 10.208 4.048s7.626-1.349 10.208-4.048c2.581-2.699 4.517-7.157 5.808-13.376 1.29-6.336 1.936-14.901 1.936-25.696 0-10.912-.646-19.477-1.936-25.696-1.29-6.336-3.227-10.795-5.808-13.376-2.582-2.699-5.984-4.048-10.208-4.048zM159.358 2.376V121h-24.464V27.016l-26.048 16.016-10.912-16.896 39.424-23.76h22z" fill="#001B34"/></svg>