<svg width="181" height="124" fill="none" xmlns="http://www.w3.org/2000/svg"><path opacity=".06" d="M43.817.088c14.315 0 25.168 5.339 32.56 16.016 7.392 10.56 11.088 25.813 11.088 45.76S83.71 97.123 76.201 107.8c-7.392 10.677-18.186 16.016-32.384 16.016-14.197 0-24.992-5.339-32.384-16.016C4.041 97.123.345 81.81.345 61.864c0-19.947 3.696-35.2 11.088-45.76C18.825 5.427 29.62.088 43.817.088zm0 18.656c-4.224 0-7.627 1.408-10.208 4.224-2.581 2.699-4.517 7.216-5.808 13.552-1.173 6.219-1.76 14.667-1.76 25.344 0 10.677.587 19.184 1.76 25.52 1.29 6.219 3.227 10.736 5.808 13.552 2.581 2.699 5.984 4.048 10.208 4.048s7.627-1.349 10.208-4.048c2.581-2.699 4.517-7.157 5.808-13.376 1.29-6.336 1.936-14.901 1.936-25.696 0-10.912-.645-19.477-1.936-25.696-1.29-6.336-3.227-10.795-5.808-13.376-2.581-2.699-5.984-4.048-10.208-4.048zM138.52.088c8.214 0 15.312 1.525 21.296 4.576 5.984 2.933 10.502 6.981 13.552 12.144 3.168 5.045 4.752 10.677 4.752 16.896 0 6.453-1.408 12.672-4.224 18.656-2.698 5.984-7.392 12.73-14.08 20.24-6.57 7.51-16.192 17.19-28.864 29.04h49.808L177.944 121H102.44v-18.128c14.784-14.784 25.462-25.813 32.032-33.088 6.571-7.275 11.206-13.435 13.904-18.48 2.699-5.045 4.048-10.208 4.048-15.488 0-5.045-1.466-9.035-4.4-11.968-2.933-2.933-6.864-4.4-11.792-4.4-4.341 0-8.213.997-11.616 2.992-3.402 1.877-6.981 5.045-10.736 9.504L98.92 19.976C109.011 6.717 122.211.088 138.52.088z" fill="#001B34"/></svg>