<svg width="181" height="124" fill="none" xmlns="http://www.w3.org/2000/svg"><path opacity=".06" d="M43.473.088c14.315 0 25.168 5.339 32.56 16.016 7.392 10.56 11.088 25.813 11.088 45.76S83.367 97.123 75.857 107.8c-7.392 10.677-18.186 16.016-32.384 16.016-14.197 0-24.992-5.339-32.384-16.016C3.697 97.123.001 81.81.001 61.864c0-19.947 3.696-35.2 11.088-45.76C18.481 5.427 29.276.088 43.473.088zm0 18.656c-4.224 0-7.626 1.408-10.208 4.224-2.581 2.699-4.517 7.216-5.808 13.552-1.173 6.219-1.76 14.667-1.76 25.344 0 10.677.587 19.184 1.76 25.52 1.291 6.219 3.227 10.736 5.808 13.552 2.582 2.699 5.984 4.048 10.208 4.048s7.627-1.349 10.208-4.048c2.582-2.699 4.518-7.157 5.808-13.376 1.291-6.336 1.936-14.901 1.936-25.696 0-10.912-.645-19.477-1.936-25.696-1.29-6.336-3.226-10.795-5.808-13.376-2.581-2.699-5.984-4.048-10.208-4.048zm94.7-18.656c8.096 0 15.018 1.35 20.768 4.048 5.866 2.581 10.266 6.16 13.2 10.736 3.05 4.576 4.576 9.68 4.576 15.312 0 7.157-2.054 13.141-6.16 17.952-4.107 4.693-9.798 8.037-17.072 10.032 7.978.821 14.49 3.696 19.536 8.624 5.045 4.928 7.568 11.792 7.568 20.592 0 6.805-1.76 12.965-5.28 18.48-3.403 5.515-8.448 9.915-15.136 13.2-6.688 3.168-14.608 4.752-23.76 4.752-16.779 0-29.92-5.867-39.425-17.6l13.553-13.024c3.989 3.99 7.92 6.864 11.792 8.624 3.872 1.76 8.096 2.64 12.672 2.64 6.101 0 10.912-1.643 14.432-4.928 3.637-3.285 5.456-7.861 5.456-13.728 0-6.336-1.702-10.912-5.104-13.728-3.403-2.816-8.507-4.224-15.312-4.224h-9.68l2.992-17.6h6.512c5.514 0 9.914-1.467 13.2-4.4 3.285-2.933 4.928-7.04 4.928-12.32 0-4.576-1.526-8.155-4.576-10.736-2.934-2.581-6.982-3.872-12.144-3.872-4.459 0-8.566.821-12.32 2.464-3.755 1.643-7.451 4.224-11.088 7.744L99.805 15.576C110.717 5.251 123.506.088 138.173.088z" fill="#001B34"/></svg>