<svg width="193" height="125" fill="none" xmlns="http://www.w3.org/2000/svg"><path opacity=".06" d="M43.919 1.088c14.314 0 25.168 5.339 32.56 16.016 7.392 10.56 11.088 25.813 11.088 45.76S83.812 98.123 76.303 108.8c-7.392 10.677-18.187 16.016-32.384 16.016-14.198 0-24.992-5.339-32.384-16.016C4.143 98.123.447 82.81.447 62.864c0-19.947 3.696-35.2 11.088-45.76C18.927 6.427 29.72 1.088 43.919 1.088zm0 18.656c-4.224 0-7.627 1.408-10.208 4.224-2.582 2.699-4.518 7.216-5.808 13.552-1.174 6.219-1.76 14.667-1.76 25.344 0 10.677.586 19.184 1.76 25.52 1.29 6.219 3.226 10.736 5.808 13.552 2.581 2.699 5.984 4.048 10.208 4.048s7.626-1.349 10.208-4.048c2.581-2.699 4.517-7.157 5.808-13.376 1.29-6.336 1.936-14.901 1.936-25.696 0-10.912-.646-19.477-1.936-25.696-1.291-6.336-3.227-10.795-5.808-13.376-2.582-2.699-5.984-4.048-10.208-4.048zM192.96 76.592V95.6h-13.904V122h-24.288l-.176-26.4h-50.16V78.704L138.577.736l21.12 7.92-29.392 67.936h24.64l2.64-29.04h21.472v29.04h13.904z" fill="#001B34"/></svg>