<svg width="82" height="82" fill="none" xmlns="http://www.w3.org/2000/svg"><path d="M41 82c22.644 0 41-18.356 41-41S63.644 0 41 0 0 18.356 0 41s18.356 41 41 41z" fill="#324A5E"/><path d="M23.221 38.159l-2.03-1.56L34.49 19.357 47.448 31.89l12.291-9.824 1.592 1.997L47.285 35.3 34.766 23.186 23.221 38.16z" fill="#CED5E0"/><path d="M7.047 63.992C14.419 74.855 26.873 82 41 82c14.127 0 26.58-7.145 33.953-18.008H7.047z" fill="#2B3B4E"/><path d="M64.108 62.58h-8.005a.333.333 0 01-.341-.341V33.222c0-.195.146-.341.34-.341h8.006c.195 0 .34.146.34.34V62.24a.343.343 0 01-.34.34zm-12.731-.002h-8.005a.333.333 0 01-.34-.34V41.744c0-.195.145-.34.34-.34h8.005c.195 0 .341.145.341.34v20.492c-.016.179-.162.341-.34.341zm-12.746.001h-8.005a.333.333 0 01-.34-.341V31.37c0-.195.145-.34.34-.34h8.005c.195 0 .341.145.341.34v30.868a.343.343 0 01-.34.341zM25.9 62.578h-8.004a.333.333 0 01-.341-.34V47.022c0-.195.146-.341.34-.341h8.006c.195 0 .34.146.34.34v15.215a.354.354 0 01-.34.341z" fill="#54C0EB"/><path d="M70.098 61.217H11.902v2.776h58.196v-2.776z" fill="#CED5E0"/><path d="M60.536 27.849a4.774 4.774 0 100-9.548 4.774 4.774 0 000 9.548z" fill="#E6E9EE"/><path d="M60.534 25.85a2.777 2.777 0 100-5.553 2.777 2.777 0 000 5.553z" fill="#FF7058"/><path d="M47.364 37.9a4.774 4.774 0 100-9.549 4.774 4.774 0 000 9.548z" fill="#E6E9EE"/><path d="M47.367 35.9a2.777 2.777 0 100-5.552 2.777 2.777 0 000 5.553z" fill="#FF7058"/><path d="M34.633 26.046a4.774 4.774 0 100-9.548 4.774 4.774 0 000 9.548z" fill="#E6E9EE"/><path d="M34.636 24.047a2.777 2.777 0 100-5.553 2.777 2.777 0 000 5.553z" fill="#FF7058"/><path d="M21.887 42.153a4.774 4.774 0 100-9.547 4.774 4.774 0 000 9.547z" fill="#E6E9EE"/><path d="M21.89 40.155a2.777 2.777 0 100-5.553 2.777 2.777 0 000 5.553z" fill="#FF7058"/></svg>