<svg width="81" height="82" fill="none" xmlns="http://www.w3.org/2000/svg"><path d="M40.5 82C62.867 82 81 63.644 81 41S62.867 0 40.5 0 0 18.356 0 41s18.133 41 40.5 41z" fill="#FD8469"/><path d="M52.226 13.98v8.704h8.582v45.335H20.195V13.98h32.031z" fill="#fff"/><path d="M52.227 13.98l8.58 8.704h-8.58V13.98z" fill="#E6E9EE"/><path d="M39.088 35.999a7.627 7.627 0 00-.978-2.387l.673-1.413-1.604-1.624-1.395.682a7.59 7.59 0 00-2.358-.99l-.513-1.478h-2.278l-.513 1.478a7.679 7.679 0 00-2.374.99l-1.395-.682-1.604 1.624.673 1.413a7.791 7.791 0 00-.978 2.387l-1.46.52v2.305l1.46.52c.193.86.53 1.672.978 2.403l-.673 1.412 1.604 1.624 1.395-.682a7.52 7.52 0 002.374.99l.513 1.478h2.278l.513-1.477a7.432 7.432 0 002.358-.99l1.395.681 1.604-1.624-.673-1.412a7.715 7.715 0 00.978-2.404l1.46-.52v-2.305l-1.46-.52zm-7.33 5.05c-1.845 0-3.32-1.51-3.32-3.362 0-1.867 1.492-3.36 3.32-3.36 1.845 0 3.32 1.51 3.32 3.36a3.327 3.327 0 01-3.32 3.361z" fill="#4CDBC4"/><path d="M56.811 58.164l1.22-3.215-2.214-1.12a9.634 9.634 0 00-.112-3.654l2.165-1.25-1.38-3.134-2.357.795a9.727 9.727 0 00-2.615-2.517l.658-2.419L49 40.416l-1.107 2.24a9.292 9.292 0 00-3.609.114l-1.235-2.192-3.095 1.397.786 2.387a9.743 9.743 0 00-2.487 2.646l-2.39-.665-1.218 3.215 2.213 1.12a9.634 9.634 0 00.112 3.654l-2.165 1.25 1.38 3.134 2.357-.796a9.727 9.727 0 002.615 2.517l-.658 2.42 3.176 1.234 1.107-2.241a9.292 9.292 0 003.609-.114l1.235 2.192 3.095-1.396-.786-2.387a9.744 9.744 0 002.486-2.647l2.39.666zm-12.286-1.072c-2.63-1.023-3.946-3.994-2.935-6.657 1.01-2.663 3.945-3.995 6.576-2.972 2.63 1.023 3.946 3.995 2.935 6.658-1.01 2.646-3.946 3.978-6.576 2.971z" fill="#84DBFF"/></svg>