<svg width="12" height="13" fill="none" xmlns="http://www.w3.org/2000/svg"><path fill-rule="evenodd" clip-rule="evenodd" d="M.75.833c0-.39.336-.708.75-.708h6c.995 0 1.948.373 2.652 1.037a3.445 3.445 0 011.098 2.505c0 .939-.395 1.84-1.098 2.504A3.865 3.865 0 017.5 7.208h-6c-.414 0-.75-.317-.75-.708V.833zm1.5.709v4.25H7.5c.597 0 1.169-.224 1.591-.623.422-.398.659-.939.659-1.502 0-.564-.237-1.104-.659-1.503A2.319 2.319 0 007.5 1.542H2.25z" fill="#000"/><path fill-rule="evenodd" clip-rule="evenodd" d="M.75 6.5c0-.391.336-.708.75-.708h6.75c.995 0 1.948.373 2.652 1.037A3.445 3.445 0 0112 9.333c0 .94-.395 1.84-1.098 2.505a3.865 3.865 0 01-2.652 1.037H1.5c-.414 0-.75-.317-.75-.708V6.5zm1.5.708v4.25h6a2.32 2.32 0 001.591-.622c.422-.399.659-.94.659-1.503s-.237-1.104-.659-1.502a2.319 2.319 0 00-1.591-.623h-6z" fill="#000"/></svg>