<svg width="1356" height="1164" fill="#fff" xmlns="http://www.w3.org/2000/svg"><path d="M62.959 6.27a5.035 5.035 0 118.78 4.93 5.035 5.035 0 01-8.78-4.93zm8.822 83.238a5.035 5.035 0 01-10.07 0 5.036 5.036 0 1110.07 0zM351.786 37.89a5.033 5.033 0 11-10.067 0 5.033 5.033 0 1110.067 0zm-234.238 87.311a5.035 5.035 0 11-10.07.001 5.035 5.035 0 0110.07-.001zm-99.773-21.964a5.034 5.034 0 11-10.068-.002 5.034 5.034 0 0110.068.002zM74.06 320.326a5.035 5.035 0 01-10.07 0 5.035 5.035 0 0110.07 0zM10.068 17.789A5.034 5.034 0 110 17.788a5.034 5.034 0 0110.068 0zm114.8 39.68a5.034 5.034 0 01-5.034 5.033 5.034 5.034 0 115.034-5.033zm71.127 35.686a5.035 5.035 0 11-10.07.002 5.035 5.035 0 0110.07-.002zm-48.082 118.128a5.034 5.034 0 01-5.035 5.03 5.033 5.033 0 110-10.066 5.035 5.035 0 015.035 5.036zm195.052-47.579a5.036 5.036 0 016.855-1.925 5.034 5.034 0 11-6.855 1.925zm8.821 83.235a5.035 5.035 0 01-5.034 5.036 5.035 5.035 0 010-10.069 5.033 5.033 0 015.034 5.033zm201.01 343.728a5.037 5.037 0 01-5.033 5.036 5.034 5.034 0 110-10.067 5.034 5.034 0 015.033 5.031zM88.463 452.966a5.036 5.036 0 01-5.034 5.036 5.036 5.036 0 010-10.07 5.034 5.034 0 015.034 5.034zm309.089-170.33a5.035 5.035 0 11-10.07.003 5.035 5.035 0 0110.07-.003zm-199.942 26.25a5.035 5.035 0 11-10.07.002 5.035 5.035 0 0110.07-.002zm65.731 342.085a5.034 5.034 0 11-5.033-5.037 5.035 5.035 0 015.033 5.037zM82.431 530.364a5.035 5.035 0 01-5.033 5.036 5.036 5.036 0 010-10.07 5.035 5.035 0 015.033 5.034zm215.351-269.697a5.035 5.035 0 01-5.034 5.036 5.035 5.035 0 010-10.069 5.033 5.033 0 015.034 5.033zm-34.441 163.162a5.034 5.034 0 11-10.067 0 5.034 5.034 0 0110.067 0zm26.736-248.605a5.033 5.033 0 01-5.034 5.033 5.033 5.033 0 110-10.066 5.033 5.033 0 015.034 5.033zm114.796 39.68a5.033 5.033 0 11-10.066 0 5.033 5.033 0 1110.066 0zM252.93 226.803a5.035 5.035 0 01-10.069 0 5.035 5.035 0 0110.069 0zm780.61-193.978a5.03 5.03 0 11-10.06 0 5.03 5.03 0 1110.06 0zm190.58-16.529a5.029 5.029 0 016.85-1.926 5.029 5.029 0 011.93 6.852 5.029 5.029 0 01-6.85 1.926 5.03 5.03 0 01-1.93-6.852zm-153.32 118.34a5.03 5.03 0 01-5.03 5.033 5.039 5.039 0 01-5.04-5.033 5.039 5.039 0 015.04-5.034 5.03 5.03 0 015.03 5.034zm108.14-21.378c0 2.78-2.26 5.036-5.04 5.036a5.033 5.033 0 01-5.03-5.036 5.03 5.03 0 015.03-5.034c2.78 0 5.04 2.253 5.04 5.034zm-16.36 165.467a5.03 5.03 0 11-10.06 0 5.03 5.03 0 1110.06 0zm8.65-250.915a5.03 5.03 0 01-5.03 5.034 5.039 5.039 0 01-5.04-5.033 5.04 5.04 0 015.04-5.034 5.03 5.03 0 015.03 5.034zm127.63-2.5a5.034 5.034 0 01-5.04 5.034 5.032 5.032 0 01-5.03-5.034 5.03 5.03 0 015.03-5.036c2.79 0 5.04 2.253 5.04 5.036zm-164.78 54.083a5.03 5.03 0 11-10.06 0c0-2.78 2.25-5.036 5.03-5.036 2.78 0 5.03 2.256 5.03 5.036zM404.183 41.908a5.035 5.035 0 11-10.07.002 5.035 5.035 0 0110.07-.002zm-19.221 71.852a5.035 5.035 0 01-10.069 0 5.035 5.035 0 0110.069 0zm46.227-42.102a5.035 5.035 0 01-10.07 0 5.035 5.035 0 0110.07 0zm78.4-48.856a5.035 5.035 0 11-10.068.002 5.035 5.035 0 0110.068-.002zM700.159 6.27a5.036 5.036 0 016.855-1.926 5.034 5.034 0 11-6.855 1.925zm8.822 83.238a5.032 5.032 0 01-5.034 5.031 5.033 5.033 0 115.034-5.03zm280.01-51.618a5.035 5.035 0 11-10.07-.002 5.035 5.035 0 0110.07.002zm-234.242 87.311a5.034 5.034 0 11-10.069.003 5.034 5.034 0 0110.069-.003zM613.102 307.243a5.033 5.033 0 11-10.067 0 5.033 5.033 0 1110.067 0zm-136.15-172.887a5.034 5.034 0 11-10.069-.003 5.034 5.034 0 0110.069.003zm77.856 17.095a5.035 5.035 0 01-10.07 0 5.036 5.036 0 0110.07 0zm-542.624 83.93a5.033 5.033 0 01-5.034 5.033 5.034 5.034 0 115.034-5.033zm208.223 92.338a5.035 5.035 0 11-10.07.002 5.035 5.035 0 0110.07-.002zM84.26 154.833a5.034 5.034 0 11-10.07 0 5.034 5.034 0 0110.07 0zm77.852 17.096a5.033 5.033 0 11-10.067 0 5.035 5.035 0 015.033-5.036 5.035 5.035 0 015.034 5.036zM889.219 20.957a5.034 5.034 0 11-10.069-.002 5.034 5.034 0 0110.069.002zm-234.238 87.314a5.035 5.035 0 01-5.034 5.036 5.035 5.035 0 010-10.069 5.033 5.033 0 015.034 5.033zm7.323-67.734a5.035 5.035 0 11-10.07-.004 5.035 5.035 0 0110.07.004zm122.39-23.602a5.035 5.035 0 01-10.069 0 5.035 5.035 0 0110.069 0zm-51.265 59.288a5.036 5.036 0 11-10.068 0 5.036 5.036 0 0110.068 0zm-48.086 118.124a5.035 5.035 0 11-10.07-.005 5.035 5.035 0 0110.07.005zm195.052-47.576a5.035 5.035 0 118.78 4.924 5.035 5.035 0 01-8.78-4.924zm8.824 83.237a5.033 5.033 0 01-5.033 5.033 5.033 5.033 0 115.033-5.033zm-16.734 36.73a5.033 5.033 0 01-5.034 5.033 5.033 5.033 0 110-10.066 5.033 5.033 0 015.034 5.033zm-197.262 11.717a5.033 5.033 0 11-5.033-5.033 5.033 5.033 0 015.033 5.033zm159.995-34.719a5.035 5.035 0 11-10.07.001 5.035 5.035 0 0110.07-.001zm38.855-142.826a5.035 5.035 0 11-10.07.002 5.035 5.035 0 0110.07-.002zm68.235 97.06a5.035 5.035 0 11-10.07-.004 5.035 5.035 0 0110.07.004zm-210.276 66.867a5.033 5.033 0 01-5.034 5.033 5.033 5.033 0 01-5.033-5.033 5.033 5.033 0 1110.067 0zM941.616 24.976a5.035 5.035 0 01-10.069 0 5.035 5.035 0 0110.069 0zM922.395 96.83a5.033 5.033 0 11-10.067 0 5.035 5.035 0 015.034-5.036 5.035 5.035 0 015.033 5.036zm46.225-42.105a5.033 5.033 0 01-5.036 5.033 5.033 5.033 0 01-5.033-5.033 5.033 5.033 0 015.033-5.034 5.033 5.033 0 015.036 5.034zM728.485 358.643a5.033 5.033 0 11-10.067 0 5.035 5.035 0 015.033-5.036 5.035 5.035 0 015.034 5.036zM699.55 154.996a5.035 5.035 0 01-10.07 0 5.035 5.035 0 0110.07 0z"/><path d="M68.655 318.665a5.035 5.035 0 11-10.07.002 5.035 5.035 0 0110.07-.002zM1069.4 425.838a5.041 5.041 0 01-5.04 5.037 5.033 5.033 0 01-5.03-5.037 5.03 5.03 0 015.03-5.033c2.78 0 5.04 2.253 5.04 5.033zm143.73-49.255a5.039 5.039 0 01-5.04 5.034 5.03 5.03 0 01-5.03-5.034 5.03 5.03 0 015.03-5.033c2.78 0 5.04 2.253 5.04 5.033zM616.629 119.249a5.032 5.032 0 01-5.033 5.031 5.033 5.033 0 110-10.067 5.033 5.033 0 015.033 5.036zm94.632 201.077a5.035 5.035 0 01-10.07 0 5.035 5.035 0 0110.07 0zm-19.764-111.577a5.033 5.033 0 11-10.067 0 5.033 5.033 0 1110.067 0zm-44.224-190.96a5.035 5.035 0 01-10.07 0 5.035 5.035 0 0110.07 0zm114.798 39.68a5.033 5.033 0 11-10.067 0 5.033 5.033 0 1110.067 0zm122.39-23.601a5.033 5.033 0 11-10.066 0 5.033 5.033 0 1110.066 0zm-68.122 98.852a5.032 5.032 0 01-5.033 5.03 5.033 5.033 0 110-10.066 5.033 5.033 0 015.033 5.036zM610.128 69.37a5.035 5.035 0 01-10.069 0 5.035 5.035 0 0110.069 0zm179.465 110.87a5.034 5.034 0 01-5.033 5.033 5.037 5.037 0 01-5.037-5.033 5.035 5.035 0 1110.07 0zm45.219 128.646a5.035 5.035 0 11-10.07.003 5.035 5.035 0 0110.07-.003zm131.056 268.706a5.035 5.035 0 11-10.07.003 5.035 5.035 0 0110.07-.003zm106.552-78.394a5.039 5.039 0 01-5.04 5.034 5.03 5.03 0 01-5.03-5.034 5.03 5.03 0 015.03-5.033c2.78 0 5.04 2.253 5.04 5.033zm-282.433-35.166a5.035 5.035 0 01-10.069 0 5.035 5.035 0 0110.069 0zm-164.828 6.029a5.037 5.037 0 01-5.036 5.036 5.034 5.034 0 115.036-5.036zm306.063-173.594a5.035 5.035 0 01-10.07 0 5.035 5.035 0 0110.07 0zm-3.948-121.243a5.033 5.033 0 01-5.034 5.033 5.033 5.033 0 110-10.066 5.033 5.033 0 015.034 5.033zm-47.583 126.604a5.034 5.034 0 11-10.071.003 5.034 5.034 0 0110.071-.003zM584.957 407.749a5.035 5.035 0 01-5.033 5.036 5.035 5.035 0 010-10.07 5.033 5.033 0 015.033 5.034zM67.405 702.193a5.033 5.033 0 01-5.034 5.033 5.034 5.034 0 110-10.069 5.035 5.035 0 015.034 5.036zm60.302-283.424a5.033 5.033 0 11-10.066 0 5.033 5.033 0 1110.066 0zm276.122-77.238a5.034 5.034 0 01-10.069 0 5.034 5.034 0 0110.069 0zm-16.736 36.73a5.036 5.036 0 11-10.068 0 5.036 5.036 0 0110.068 0zm-197.268 11.717a5.036 5.036 0 11-10.071 0 5.036 5.036 0 0110.071 0zm159.996-34.72a5.034 5.034 0 11-10.07.003 5.034 5.034 0 0110.07-.003zm-103.179 21.101a5.034 5.034 0 11-10.067 0 5.034 5.034 0 0110.067 0zm-3.548 93.809a5.033 5.033 0 01-5.035 5.033 5.034 5.034 0 115.035-5.033zm-17.224-38.319a5.035 5.035 0 11-10.07.001 5.035 5.035 0 0110.07-.001zm123.547-11.442a5.035 5.035 0 11-10.07.002 5.035 5.035 0 0110.07-.002zm131.055 268.712a5.033 5.033 0 01-5.036 5.031 5.033 5.033 0 110-10.067 5.036 5.036 0 015.036 5.036zM304.594 575.556a5.033 5.033 0 01-5.033 5.033 5.033 5.033 0 110-10.067 5.033 5.033 0 015.033 5.034zm-164.827 6.028a5.036 5.036 0 01-10.07 0 5.035 5.035 0 0110.07 0zm306.064-173.593a5.036 5.036 0 01-5.034 5.036 5.035 5.035 0 010-10.07 5.034 5.034 0 015.034 5.034zm-51.533 5.36a5.038 5.038 0 01-5.036 5.036 5.036 5.036 0 010-10.07 5.037 5.037 0 015.036 5.034zm47.29 140.765a5.034 5.034 0 11-10.069.003 5.034 5.034 0 0110.069-.003zm-16.731 36.731a5.035 5.035 0 11-10.07.001 5.035 5.035 0 0110.07-.001zm-37.268-22.998a5.035 5.035 0 01-10.069 0 5.035 5.035 0 0110.069 0zm-.408 65.148a5.035 5.035 0 11-10.07-.003 5.035 5.035 0 0110.07.003zm96.413-12.418a5.035 5.035 0 11-10.07-.001 5.035 5.035 0 0110.07.001zm-51.534 5.362a5.035 5.035 0 01-10.07 0 5.035 5.035 0 0110.07 0zM99.565 519.271a5.036 5.036 0 01-5.035 5.036 5.035 5.035 0 115.035-5.036zm-38.036-53.482a5.034 5.034 0 11-5.033-5.036 5.035 5.035 0 015.033 5.036zM16.706 620.935a5.034 5.034 0 01-10.07 0 5.036 5.036 0 015.035-5.036 5.036 5.036 0 015.035 5.036zm89.703-162.204a5.034 5.034 0 11-10.069-.003 5.034 5.034 0 0110.069.003zm30.556 177.498a5.034 5.034 0 11-10.069-.003 5.034 5.034 0 0110.069.003zm-37.269-23.003a5.034 5.034 0 11-10.068 0 5.034 5.034 0 0110.068 0zm-.403 65.151a5.034 5.034 0 11-10.069-.001 5.034 5.034 0 0110.069.001zm44.88-7.059a5.035 5.035 0 11-10.068.002 5.035 5.035 0 0110.068-.002zm997.027-32.532a5.04 5.04 0 01-5.04 5.036 5.032 5.032 0 01-5.03-5.036 5.03 5.03 0 015.03-5.033c2.78 0 5.04 2.253 5.04 5.033zM945.254 690.01a5.03 5.03 0 01-5.033 5.031 5.03 5.03 0 01-5.033-5.031 5.035 5.035 0 015.033-5.036 5.035 5.035 0 015.033 5.036zm72.366-120.607a5.04 5.04 0 01-5.04 5.034 5.03 5.03 0 01-5.03-5.034 5.03 5.03 0 015.03-5.033c2.78 0 5.04 2.253 5.04 5.033zM853.308 684.167a5.035 5.035 0 01-10.07 0 5.035 5.035 0 0110.07 0zm41.247-75.413a5.033 5.033 0 01-5.033 5.033 5.035 5.035 0 115.033-5.033zm120.265 15.294a5.039 5.039 0 01-5.04 5.034 5.037 5.037 0 01-5.03-5.034c0-2.78 2.26-5.033 5.03-5.033 2.78 0 5.04 2.253 5.04 5.033zm-37.273-23.004a5.033 5.033 0 01-5.033 5.033 5.035 5.035 0 115.033-5.033zm-.399 65.148a5.038 5.038 0 01-5.036 5.037 5.037 5.037 0 01-5.034-5.037c0-2.78 2.256-5.03 5.034-5.03 2.78 0 5.036 2.25 5.036 5.03zm44.882-7.056a5.04 5.04 0 01-5.04 5.036 5.032 5.032 0 01-5.03-5.036c0-2.78 2.25-5.036 5.03-5.036 2.78 0 5.04 2.256 5.04 5.036zm207.26-305.294c0 2.78-2.25 5.036-5.03 5.036a5.041 5.041 0 01-5.04-5.036 5.039 5.039 0 015.04-5.034 5.03 5.03 0 015.03 5.034zm-197.26 11.717a5.04 5.04 0 01-5.04 5.036 5.03 5.03 0 01-5.03-5.036 5.03 5.03 0 015.03-5.033c2.78 0 5.04 2.253 5.04 5.033zm159.99-34.717a5.031 5.031 0 01-5.03 5.033 5.031 5.031 0 01-5.03-5.033c0-2.78 2.25-5.036 5.03-5.036 2.78 0 5.03 2.256 5.03 5.036zm-103.17 21.098a5.041 5.041 0 01-5.04 5.037 5.033 5.033 0 01-5.03-5.037 5.03 5.03 0 015.03-5.033c2.78 0 5.04 2.253 5.04 5.033zm-3.56 93.809a5.03 5.03 0 01-5.03 5.033 5.039 5.039 0 01-5.04-5.033 5.039 5.039 0 015.04-5.034 5.03 5.03 0 015.03 5.034zm-17.22-38.316a5.03 5.03 0 01-5.03 5.033 5.039 5.039 0 01-5.04-5.033c0-2.78 2.26-5.036 5.04-5.036 2.78 0 5.03 2.256 5.03 5.036zm123.55-11.442c0 2.78-2.25 5.036-5.04 5.036a5.033 5.033 0 01-5.03-5.036 5.03 5.03 0 015.03-5.034c2.79 0 5.04 2.253 5.04 5.034zM1322.67 664.7a5.039 5.039 0 01-5.04 5.034 5.03 5.03 0 01-5.03-5.034c0-2.78 2.25-5.036 5.03-5.036 2.78 0 5.04 2.256 5.04 5.036zM1146.8 551.137c0 2.78-2.26 5.033-5.04 5.033a5.03 5.03 0 01-5.03-5.033 5.03 5.03 0 015.03-5.033c2.78 0 5.04 2.253 5.04 5.033zm141.23-167.563c0 2.78-2.26 5.033-5.04 5.033a5.03 5.03 0 01-5.03-5.033 5.031 5.031 0 015.03-5.037 5.04 5.04 0 015.04 5.037zm-51.53 5.362a5.04 5.04 0 01-5.04 5.034 5.032 5.032 0 01-5.03-5.034c0-2.78 2.25-5.036 5.03-5.036 2.78 0 5.04 2.256 5.04 5.036zm-26.39 382.338c0 2.78-2.25 5.036-5.03 5.036a5.041 5.041 0 01-5.04-5.036 5.04 5.04 0 015.04-5.034c2.78 0 5.03 2.256 5.03 5.034zm41.25-75.415a5.03 5.03 0 11-10.06 0 5.03 5.03 0 1110.06 0zm82.99-7.706a5.03 5.03 0 11-10.06 0c0-2.78 2.25-5.036 5.03-5.036 2.78 0 5.03 2.256 5.03 5.036zm-.4 65.147c0 2.78-2.26 5.033-5.03 5.033a5.034 5.034 0 115.03-5.033zM321.551 769.025a5.033 5.033 0 11-10.067 0 5.035 5.035 0 015.034-5.036 5.035 5.035 0 015.033 5.036zM33.66 814.404a5.034 5.034 0 11-10.068 0 5.034 5.034 0 0110.068 0zm189.075-86.393a5.035 5.035 0 11-10.069 0 5.03 5.03 0 015.035-5.031 5.03 5.03 0 015.034 5.031zM157.5 796.43a5.034 5.034 0 11-10.069-.003 5.034 5.034 0 0110.069.003zm116.31 49.05a5.034 5.034 0 11-10.067-.003 5.034 5.034 0 0110.067.003zm775.7-60.822a5.03 5.03 0 11-10.06 0 5.03 5.03 0 1110.06 0zm-344.209-38.696a5.03 5.03 0 01-5.033 5.031 5.03 5.03 0 01-5.034-5.031 5.035 5.035 0 015.034-5.036 5.035 5.035 0 015.033 5.036zm296.549 34.733a5.038 5.038 0 01-10.073 0 5.033 5.033 0 015.034-5.034 5.038 5.038 0 015.039 5.034zm-69.867 99.326c0 5.172-4.192 9.361-9.364 9.361a9.362 9.362 0 010-18.722c5.172 0 9.364 4.191 9.364 9.361zm-19.364-196.467c0 5.169-4.191 9.361-9.363 9.361a9.362 9.362 0 01-9.361-9.361c0-5.169 4.191-9.364 9.361-9.364 5.172 0 9.363 4.195 9.363 9.364zM768.324 133.16a9.362 9.362 0 11-18.72-.001 9.362 9.362 0 0118.72.001zm78.12 143.811c0 5.17-4.192 9.362-9.361 9.362-5.172 0-9.364-4.192-9.364-9.362 0-5.169 4.192-9.361 9.364-9.361 5.169 0 9.361 4.192 9.361 9.361zM1139.39 142.04c0 5.169-4.19 9.358-9.36 9.358-5.17 0-9.36-4.189-9.36-9.358 0-5.172 4.19-9.364 9.36-9.364 5.17 0 9.36 4.192 9.36 9.364zm-106.52-26.151c0 5.172-4.2 9.361-9.37 9.361a9.359 9.359 0 01-9.36-9.361c0-5.169 4.19-9.361 9.36-9.361 5.17 0 9.37 4.192 9.37 9.361zm186.42 111.373a9.359 9.359 0 01-9.36 9.359c-5.17 0-9.36-4.19-9.36-9.359 0-5.172 4.19-9.364 9.36-9.364 5.17 0 9.36 4.192 9.36 9.364zM615.636 712.447c0 5.169-4.192 9.358-9.361 9.358-5.172 0-9.361-4.189-9.361-9.358 0-5.172 4.189-9.364 9.361-9.364 5.169 0 9.361 4.192 9.361 9.364zM409.68 486.476a9.362 9.362 0 01-9.361 9.361 9.363 9.363 0 110-18.724c5.169 0 9.361 4.191 9.361 9.363zm317.804-258.734a9.361 9.361 0 01-9.361 9.362 9.36 9.36 0 01-9.361-9.362 9.36 9.36 0 019.361-9.361c5.169 0 9.361 4.192 9.361 9.361zm126.059-89.255a9.361 9.361 0 01-9.362 9.361c-5.169 0-9.361-4.192-9.361-9.361 0-5.169 4.192-9.361 9.361-9.361a9.361 9.361 0 019.362 9.361zM83.477 257.442a9.36 9.36 0 01-9.361 9.361c-5.17 0-9.362-4.192-9.362-9.361a9.36 9.36 0 019.362-9.361 9.36 9.36 0 019.361 9.361zm111.373-120.73c0 5.17-4.191 9.359-9.361 9.359-5.171 0-9.362-4.189-9.362-9.359a9.362 9.362 0 019.362-9.363c5.17 0 9.361 4.191 9.361 9.363zm278.746-56.815a9.362 9.362 0 01-9.361 9.361c-5.172 0-9.364-4.191-9.364-9.36 0-5.17 4.192-9.362 9.364-9.362 5.169 0 9.361 4.192 9.361 9.361zM1356 521.986c0 5.169-4.19 9.361-9.36 9.361-5.17 0-9.36-4.192-9.36-9.361a9.36 9.36 0 1118.72 0zm-207.73-95.874c0 5.169-4.19 9.361-9.36 9.361-5.17 0-9.36-4.192-9.36-9.361 0-5.17 4.19-9.362 9.36-9.362 5.17 0 9.36 4.192 9.36 9.362zM757.668 310.706a9.361 9.361 0 01-9.362 9.361c-5.169 0-9.361-4.192-9.361-9.361 0-5.172 4.192-9.364 9.361-9.364 5.172 0 9.362 4.192 9.362 9.364zM528.636 122.508a9.36 9.36 0 01-9.361 9.361c-5.169 0-9.361-4.192-9.361-9.361 0-5.17 4.192-9.362 9.361-9.362a9.36 9.36 0 019.361 9.362zM201.951 511.333a9.361 9.361 0 01-9.362 9.361c-5.17 0-9.362-4.191-9.362-9.361 0-5.169 4.192-9.361 9.362-9.361 5.171 0 9.362 4.192 9.362 9.361zm311.994 294.726a9.36 9.36 0 01-9.361 9.361 9.362 9.362 0 01-9.361-9.361c0-5.169 4.192-9.363 9.361-9.363 5.172 0 9.361 4.194 9.361 9.363zm-390.113 85.224a9.362 9.362 0 01-18.723 0c0-5.169 4.191-9.364 9.361-9.364 5.17 0 9.362 4.195 9.362 9.364zm253.889-193.044c0 5.169-4.192 9.361-9.361 9.361-5.172 0-9.364-4.192-9.364-9.361 0-5.172 4.192-9.361 9.364-9.361a9.36 9.36 0 019.361 9.361zm369.298-21.788c0 5.169-4.189 9.363-9.361 9.363-5.169 0-9.361-4.194-9.361-9.363 0-5.17 4.192-9.364 9.361-9.364 5.172 0 9.361 4.194 9.361 9.364zM560.648 275.528c0 5.172-4.189 9.364-9.361 9.364-5.169 0-9.361-4.192-9.361-9.364 0-5.169 4.192-9.361 9.361-9.361a9.36 9.36 0 019.361 9.361zm248.51 244.682a9.363 9.363 0 11-18.724 0c0-5.169 4.191-9.361 9.363-9.361a9.362 9.362 0 019.361 9.361zM141.587 332.013c0 5.169-4.192 9.361-9.362 9.361s-9.362-4.192-9.362-9.361c0-5.172 4.192-9.364 9.362-9.364s9.362 4.192 9.362 9.364zm737.197 488.032a5.035 5.035 0 11-10.068.002 5.035 5.035 0 0110.068-.002zm-132.625 43.381a5.034 5.034 0 11-10.069 0 5.035 5.035 0 1110.069 0zm-96.961-43.336a5.034 5.034 0 11-10.069-.003 5.034 5.034 0 0110.069.003zm-231.416 79.777a5.03 5.03 0 01-5.034 5.03 5.03 5.03 0 01-5.033-5.03 5.034 5.034 0 1110.067 0zm514.795-115.603a5.034 5.034 0 11-10.069.003 5.034 5.034 0 0110.069-.003zm73.663 86.166a5.033 5.033 0 11-10.064 0 5.032 5.032 0 1110.064 0zm-566.442-78.577a5.035 5.035 0 11-10.068.002 5.035 5.035 0 0110.068-.002zM1251.89 39.004a5.031 5.031 0 016.85-1.926 5.032 5.032 0 011.93 6.855 5.031 5.031 0 01-6.85 1.926 5.032 5.032 0 01-1.93-6.855zm31.67 170.192a5.03 5.03 0 01-5.03 5.034 5.039 5.039 0 01-5.04-5.034c0-2.78 2.26-5.033 5.04-5.033a5.03 5.03 0 015.03 5.033zm48.42.405a5.032 5.032 0 01-5.03 5.033 5.04 5.04 0 01-5.04-5.033 5.04 5.04 0 015.04-5.036c2.78 0 5.03 2.255 5.03 5.036zm-99.76-21.968c0 2.78-2.26 5.033-5.04 5.033a5.03 5.03 0 01-5.03-5.033 5.03 5.03 0 015.03-5.034c2.78 0 5.04 2.253 5.04 5.034zm36.51 105.512a5.03 5.03 0 01-5.03 5.034 5.032 5.032 0 01-5.04-5.034c0-2.78 2.25-5.033 5.04-5.033a5.03 5.03 0 015.03 5.033zm-52.78-230.818a5.03 5.03 0 01-5.03 5.034 5.039 5.039 0 01-5.04-5.034 5.04 5.04 0 015.04-5.036c2.78 0 5.03 2.256 5.03 5.036zm-28.59 91.436a5.03 5.03 0 01-5.03 5.036 5.04 5.04 0 01-5.04-5.036c0-2.78 2.26-5.033 5.04-5.033a5.03 5.03 0 015.03 5.033zM622.337 401.436a2.518 2.518 0 01-5.036 0 2.518 2.518 0 015.036 0zM316.728 527.312a2.52 2.52 0 01-5.037 0 2.519 2.519 0 015.037 0zM27.622 466.058a2.517 2.517 0 11-5.034-.002 2.517 2.517 0 015.034.002zm152.098 7.989a2.516 2.516 0 11-5.033.001 2.516 2.516 0 015.033-.001zm151.505-39.946a2.515 2.515 0 01-2.514 2.517 2.52 2.52 0 01-2.52-2.517 2.52 2.52 0 012.52-2.517 2.515 2.515 0 012.514 2.517zm-313.961-50.6a2.517 2.517 0 11-5.034 0 2.517 2.517 0 015.034 0zm3.846-158.608a2.516 2.516 0 11-5.032 0 2.516 2.516 0 015.032 0zm93.21-13.022a2.517 2.517 0 11-5.035 0 2.517 2.517 0 015.035 0zm-98.68-54.742a2.516 2.516 0 11-5.035 0 2.518 2.518 0 015.034 0zm53.409-8.138a2.517 2.517 0 11-5.034 0 2.517 2.517 0 015.034 0zM51.885 23.97a2.517 2.517 0 11-5.034 0 2.517 2.517 0 015.034 0zm347.403 405.989a2.519 2.519 0 01-5.036 0 2.517 2.517 0 015.036 0zM158.264 536.487a2.516 2.516 0 01-2.518 2.516 2.516 2.516 0 110-5.033 2.517 2.517 0 012.518 2.517zm179.912 49.415a2.517 2.517 0 11-5.034 0 2.517 2.517 0 015.034 0zM676.897 405.25a2.517 2.517 0 11-5.034 0 2.517 2.517 0 015.034 0zM447.224 537.819a2.519 2.519 0 01-5.036 0 2.516 2.516 0 012.516-2.517 2.52 2.52 0 012.52 2.517zm-235.545 56.073a2.516 2.516 0 11-5.033 0 2.516 2.516 0 115.033 0zm309.964-354.498a2.517 2.517 0 11-5.034 0 2.52 2.52 0 012.52-2.517 2.515 2.515 0 012.514 2.517zm-270.165 9.177a2.518 2.518 0 11-5.036-.002 2.518 2.518 0 015.036.002zm-48.084-74.424a2.518 2.518 0 11-5.036.002 2.518 2.518 0 015.036-.002zm79.499-32.559a2.518 2.518 0 11-5.036.002 2.518 2.518 0 015.036-.002zM240.97 335.563a2.516 2.516 0 11-5.033.001 2.516 2.516 0 015.033-.001zm-43.941-66.874a2.517 2.517 0 11-5.035 0 2.517 2.517 0 015.035 0zm134.196 33.584a2.515 2.515 0 01-2.514 2.517 2.52 2.52 0 01-2.52-2.517 2.52 2.52 0 012.52-2.517 2.515 2.515 0 012.514 2.517zm129.168-110.815a2.516 2.516 0 11-5.034 0 2.52 2.52 0 012.52-2.517 2.515 2.515 0 012.514 2.517zm50.89-34.624c0 1.39-1.126 2.52-2.516 2.52a2.52 2.52 0 01-2.517-2.52 2.516 2.516 0 015.033 0zm24.711 53.412a2.516 2.516 0 11-5.033.001 2.516 2.516 0 015.033-.001zM250.001 96.913a2.52 2.52 0 01-2.517 2.52 2.517 2.517 0 112.517-2.52zM415.114 59.63a2.517 2.517 0 11-5.034 0 2.518 2.518 0 012.519-2.518 2.514 2.514 0 012.515 2.517zM327.38 98.1a2.518 2.518 0 11-5.036-.002 2.518 2.518 0 015.036.003zm-15.979 110.815a2.518 2.518 0 01-5.036 0 2.518 2.518 0 015.036 0zm45.274-14.648a2.52 2.52 0 01-5.036 0 2.52 2.52 0 015.036 0zm51.931-51.932a2.518 2.518 0 01-5.036 0 2.518 2.518 0 015.036 0zm78.567 156.835a2.518 2.518 0 11-5.036.002 2.518 2.518 0 015.036-.002zm602.917-116.887a2.52 2.52 0 01-5.04 0 2.52 2.52 0 015.04 0zm-42.66-107.441a2.51 2.51 0 01-2.51 2.516c-1.4 0-2.52-1.126-2.52-2.516 0-1.39 1.12-2.517 2.52-2.517a2.51 2.51 0 012.51 2.517zM819.924 191.458a2.516 2.516 0 11-5.033 0 2.519 2.519 0 012.519-2.517 2.515 2.515 0 012.514 2.517zM793.58 90.55a2.516 2.516 0 11-5.032 0 2.516 2.516 0 015.032 0zm19.684 170.15a2.515 2.515 0 01-2.514 2.517 2.52 2.52 0 01-2.52-2.517 2.52 2.52 0 012.52-2.517 2.515 2.515 0 012.514 2.517zm-47.79-49.122a2.52 2.52 0 01-2.52 2.517 2.516 2.516 0 010-5.034 2.52 2.52 0 012.52 2.517zm150.321-13.317a2.515 2.515 0 01-2.514 2.517 2.519 2.519 0 01-2.519-2.517 2.519 2.519 0 012.519-2.517 2.515 2.515 0 012.514 2.517zm113.045-63.915c0 1.39-1.13 2.516-2.52 2.516a2.519 2.519 0 01-2.52-2.516 2.52 2.52 0 012.52-2.517 2.52 2.52 0 012.52 2.517zm50.89-34.621a2.52 2.52 0 01-2.52 2.517 2.511 2.511 0 01-2.51-2.517 2.51 2.51 0 012.51-2.517 2.52 2.52 0 012.52 2.517zM818.444 39.804a2.52 2.52 0 01-2.52 2.516 2.514 2.514 0 01-2.514-2.516 2.514 2.514 0 012.514-2.517 2.52 2.52 0 012.52 2.517zM561.739 19.828a2.518 2.518 0 01-5.036 0 2.519 2.519 0 015.036 0zm-34.621 73.237a2.518 2.518 0 01-5.036 0 2.519 2.519 0 015.036 0zm-69.24-79.895a2.518 2.518 0 01-5.036 0 2.519 2.519 0 015.036 0zm-86.999-3.551a2.516 2.516 0 11-5.033 0 2.517 2.517 0 115.033 0zM138.291 57.112a2.517 2.517 0 11-5.034 0 2.517 2.517 0 015.034 0zm513.996 1.332a2.516 2.516 0 11-5.033 0 2.516 2.516 0 115.033 0zm77.237-21.16a2.519 2.519 0 01-5.036 0 2.518 2.518 0 015.036 0zm-70.578 141.15a2.519 2.519 0 01-5.036 0 2.517 2.517 0 015.036 0zM983.561 2.517a2.519 2.519 0 01-2.52 2.517 2.514 2.514 0 01-2.514-2.517A2.514 2.514 0 01981.041 0a2.519 2.519 0 012.52 2.517zm-87.739 38.471a2.516 2.516 0 11-5.033 0 2.518 2.518 0 012.519-2.516 2.514 2.514 0 012.514 2.516zM857.205 171.63a2.514 2.514 0 01-2.514 2.516 2.518 2.518 0 01-2.519-2.516 2.519 2.519 0 012.519-2.517 2.515 2.515 0 012.514 2.517zm67.914-34.477a2.515 2.515 0 01-2.514 2.517 2.519 2.519 0 01-2.519-2.517 2.519 2.519 0 012.519-2.517 2.515 2.515 0 012.514 2.517zM483.026 348.876a2.514 2.514 0 01-2.514 2.517 2.518 2.518 0 01-2.52-2.517 2.518 2.518 0 015.034 0zm46.756 76.049a2.518 2.518 0 01-5.036 0 2.517 2.517 0 015.036 0zm-13.17-54.888a2.516 2.516 0 11-5.033.001 2.516 2.516 0 015.033-.001zm71.613-75.754a2.515 2.515 0 01-2.514 2.517 2.52 2.52 0 01-2.52-2.517 2.52 2.52 0 012.52-2.517 2.515 2.515 0 012.514 2.517zm-50.451 45.573a2.518 2.518 0 01-5.036 0 2.518 2.518 0 015.036 0zm44.384-109.048a2.517 2.517 0 11-5.034.006 2.517 2.517 0 015.034-.006zm26.264 37.607a2.518 2.518 0 11-.756 4.978 2.518 2.518 0 01.756-4.978zm635.088 383.919a2.51 2.51 0 01-2.51 2.517 2.52 2.52 0 01-2.52-2.517c0-1.39 1.13-2.516 2.52-2.516a2.51 2.51 0 012.51 2.516zM543.389 477.749a2.516 2.516 0 11-5.033.001 2.516 2.516 0 015.033-.001zm332.754-107.712a2.516 2.516 0 11-5.033.001 2.516 2.516 0 015.033-.001zm-98.832-83.745a2.514 2.514 0 01-2.514 2.517 2.52 2.52 0 01-2.52-2.517c0-1.39 1.13-2.516 2.52-2.516a2.514 2.514 0 012.514 2.516zM375.795 155.493a2.516 2.516 0 11-5.032.002 2.516 2.516 0 015.032-.002zM869.483 439.28a2.517 2.517 0 11-5.034 0 2.517 2.517 0 015.034 0zm76.172-23.754a2.515 2.515 0 01-2.514 2.517 2.52 2.52 0 01-2.52-2.517 2.518 2.518 0 015.034 0zm-54.227-30.59a2.516 2.516 0 11-5.033.001 2.516 2.516 0 015.033-.001zm-21.723 194.676a2.516 2.516 0 11-2.516-2.517 2.516 2.516 0 012.516 2.517zm-48.011-189.455a2.517 2.517 0 11-5.034 0 2.517 2.517 0 015.034 0zm91.73-39.947a2.516 2.516 0 11-5.033.001 2.516 2.516 0 015.033-.001zM539.248 527.458a2.516 2.516 0 11-5.033 0 2.516 2.516 0 115.033 0zm151.578 19.057a2.515 2.515 0 01-2.514 2.516 2.518 2.518 0 01-2.519-2.516 2.518 2.518 0 012.519-2.517 2.515 2.515 0 012.514 2.517zm-53.343 40.049a2.516 2.516 0 11-5.033.001 2.516 2.516 0 015.033-.001zM146.279 686.957a2.52 2.52 0 01-2.517 2.52 2.518 2.518 0 112.517-2.52zm103.308 246.891a2.52 2.52 0 01-2.516 2.52 2.517 2.517 0 112.516-2.52zM19.247 1102.97a2.52 2.52 0 01-2.518 2.52 2.52 2.52 0 010-5.04 2.52 2.52 0 012.518 2.52zM401.68 941.838a2.519 2.519 0 01-2.517 2.519 2.519 2.519 0 010-5.036 2.517 2.517 0 012.517 2.517zm-326.383 7.99a2.52 2.52 0 01-2.518 2.519 2.518 2.518 0 112.518-2.519zm113.036-63.916a2.519 2.519 0 01-2.516 2.519 2.518 2.518 0 112.516-2.519zm50.89-34.621a2.52 2.52 0 01-2.517 2.52 2.52 2.52 0 010-5.037 2.517 2.517 0 012.517 2.517zM120.714 1019.07a2.52 2.52 0 01-2.518 2.52 2.519 2.519 0 01-2.516-2.52 2.51 2.51 0 012.516-2.51c1.39 0 2.518 1.12 2.518 2.51zM55.32 792.558a2.52 2.52 0 01-2.517 2.517 2.518 2.518 0 112.518-2.517zM16.703 923.196a2.52 2.52 0 01-2.518 2.52 2.517 2.517 0 112.518-2.52zm67.912-34.473a2.516 2.516 0 01-2.517 2.517 2.516 2.516 0 110-5.034 2.52 2.52 0 012.517 2.517zm51.932-51.933a2.516 2.516 0 01-2.518 2.517 2.516 2.516 0 110-5.033 2.52 2.52 0 012.518 2.516zm243.682 167.49a2.52 2.52 0 01-2.517 2.52 2.52 2.52 0 010-5.04 2.52 2.52 0 012.517 2.52zm-104.778 58.64c0 1.39-1.129 2.52-2.519 2.52a2.52 2.52 0 010-5.04c1.39 0 2.519 1.13 2.519 2.52zm-60.338-69.294a2.518 2.518 0 11-5.037-.003 2.518 2.518 0 015.037.003zm-5.058 162.364c0 1.39-1.128 2.51-2.518 2.51a2.511 2.511 0 01-2.517-2.51 2.52 2.52 0 012.517-2.52 2.52 2.52 0 012.518 2.52zm455.551-477.023a2.52 2.52 0 11-2.519-2.516 2.518 2.518 0 012.519 2.516zm169.068-148.289a2.514 2.514 0 01-2.514 2.516 2.518 2.518 0 01-2.519-2.516 2.518 2.518 0 012.519-2.517 2.514 2.514 0 012.514 2.517zm45.891-149.917a2.515 2.515 0 01-2.517 2.517 2.517 2.517 0 112.517-2.517zm253.995-196.376a2.52 2.52 0 01-5.04 0c0-1.39 1.13-2.519 2.52-2.519 1.39 0 2.52 1.129 2.52 2.519zm54.56 3.816a2.51 2.51 0 01-2.51 2.516 2.519 2.519 0 01-2.52-2.516 2.52 2.52 0 012.52-2.517 2.51 2.51 0 012.51 2.517zM890.494 55.928a2.514 2.514 0 01-2.514 2.517 2.519 2.519 0 01-2.519-2.517 2.519 2.519 0 012.519-2.516 2.514 2.514 0 012.514 2.517zm347.696 59.776a2.52 2.52 0 01-5.04 0 2.52 2.52 0 015.04 0zm-53.26 146.474a2.52 2.52 0 01-5.04 0 2.52 2.52 0 015.04 0zM1325.49 43.65c0 1.39-1.13 2.52-2.52 2.52-1.39 0-2.52-1.13-2.52-2.52a2.52 2.52 0 015.04 0zm-115.12 54.889a2.52 2.52 0 01-2.52 2.517 2.511 2.511 0 01-2.51-2.517 2.51 2.51 0 012.51-2.517 2.52 2.52 0 012.52 2.517zm123.55 74.569a2.52 2.52 0 01-5.04 0 2.52 2.52 0 015.04 0zm-130.87 156.355a2.52 2.52 0 01-2.52 2.517 2.511 2.511 0 01-2.51-2.517 2.51 2.51 0 012.51-2.516c1.39 0 2.52 1.126 2.52 2.516zm25.01 44.009a2.51 2.51 0 01-2.51 2.516 2.519 2.519 0 01-2.52-2.516 2.52 2.52 0 012.52-2.517 2.51 2.51 0 012.51 2.517z"/><path d="M1282.63 377.285a2.52 2.52 0 01-5.04 0 2.52 2.52 0 015.04 0zm12.82-144.256a2.52 2.52 0 01-5.04 0 2.52 2.52 0 015.04 0zm-239.69 150.324a2.52 2.52 0 01-2.52 2.517 2.51 2.51 0 01-2.51-2.517 2.51 2.51 0 012.51-2.516c1.39 0 2.52 1.126 2.52 2.516zm86.49 11.315a2.51 2.51 0 01-2.51 2.517 2.52 2.52 0 01-2.52-2.517c0-1.39 1.13-2.516 2.52-2.516a2.51 2.51 0 012.51 2.516zm-140.94 8.806a2.519 2.519 0 01-5.037 0 2.52 2.52 0 015.037 0zm-23.409-29.927a2.516 2.516 0 01-5.034 0 2.52 2.52 0 012.517-2.52 2.52 2.52 0 012.517 2.52zm-73.434 89.26a2.514 2.514 0 01-2.514 2.514 2.514 2.514 0 110-5.03 2.516 2.516 0 012.514 2.516zM1138.03 1084.2c0 1.39-1.13 2.52-2.52 2.52-1.39 0-2.51-1.13-2.51-2.52 0-1.39 1.12-2.52 2.51-2.52 1.39 0 2.52 1.13 2.52 2.52zm-442.614 72.61a2.51 2.51 0 01-2.514 2.52 2.515 2.515 0 110-5.03c1.39 0 2.514 1.12 2.514 2.51zm151.511-39.94c0 1.39-1.127 2.51-2.517 2.51a2.513 2.513 0 01-2.519-2.51c0-1.39 1.129-2.52 2.519-2.52a2.52 2.52 0 012.517 2.52zM630.026 894.637a2.516 2.516 0 11-5.034 0 2.514 2.514 0 012.514-2.519 2.52 2.52 0 012.52 2.519zm284.961 218.093c0 1.39-1.13 2.51-2.52 2.51a2.509 2.509 0 01-2.514-2.51 2.517 2.517 0 115.034 0zm277.613-24.71c0 1.39-1.13 2.51-2.52 2.51-1.39 0-2.51-1.12-2.51-2.51 0-1.39 1.12-2.52 2.51-2.52 1.39 0 2.52 1.13 2.52 2.52zm-155.25-165.858a2.52 2.52 0 01-5.04 0 2.52 2.52 0 015.04 0zm-270.168 9.172a2.518 2.518 0 01-2.52 2.517 2.514 2.514 0 01-2.514-2.517 2.516 2.516 0 012.514-2.516 2.52 2.52 0 012.52 2.516zm-48.087-74.421a2.518 2.518 0 01-5.036 0 2.518 2.518 0 015.036 0zm37.575 161.417c0 1.39-1.124 2.52-2.514 2.52a2.521 2.521 0 01-2.519-2.52c0-1.39 1.129-2.52 2.519-2.52 1.39 0 2.514 1.13 2.514 2.52zm-43.941-66.874a2.515 2.515 0 01-2.514 2.517 2.52 2.52 0 01-2.52-2.517 2.52 2.52 0 012.52-2.517 2.515 2.515 0 012.514 2.517zm134.198 33.583a2.517 2.517 0 11-5.034 0 2.517 2.517 0 015.034 0zm129.168-110.814a2.518 2.518 0 01-5.036 0 2.518 2.518 0 015.036 0zm75.595 18.786c0 1.39-1.12 2.517-2.51 2.517a2.52 2.52 0 01-2.52-2.517 2.52 2.52 0 012.52-2.517c1.39 0 2.51 1.127 2.51 2.517zM827.1 891.68a2.518 2.518 0 01-5.034 0 2.514 2.514 0 012.514-2.517 2.518 2.518 0 012.52 2.517zm45.273-14.646a2.519 2.519 0 01-2.519 2.517 2.515 2.515 0 01-2.514-2.517 2.515 2.515 0 012.514-2.517 2.519 2.519 0 012.519 2.517zm130.497 104.904a2.52 2.52 0 01-2.52 2.517 2.513 2.513 0 01-2.51-2.517 2.515 2.515 0 115.03 0zm332.75-107.713a2.51 2.51 0 01-2.51 2.516 2.519 2.519 0 01-2.52-2.516 2.52 2.52 0 012.52-2.517 2.51 2.51 0 012.51 2.517zm-6.65 69.241a2.52 2.52 0 01-5.04 0c0-1.39 1.13-2.516 2.52-2.516 1.39 0 2.52 1.126 2.52 2.516zm-47.8-49.121a2.52 2.52 0 01-2.52 2.517 2.511 2.511 0 01-2.51-2.517c0-1.39 1.12-2.517 2.51-2.517a2.52 2.52 0 012.52 2.517zm-106.52-33.144a2.52 2.52 0 01-5.04 0 2.52 2.52 0 015.04 0zM998.728 1031.65c0 1.39-1.127 2.51-2.517 2.51s-2.52-1.12-2.52-2.51c0-1.39 1.13-2.52 2.52-2.52a2.52 2.52 0 012.517 2.52zm46.752 76.04c0 1.39-1.13 2.52-2.52 2.52-1.39 0-2.51-1.13-2.51-2.52 0-1.39 1.12-2.52 2.51-2.52 1.39 0 2.52 1.13 2.52 2.52zm-13.17-54.89c0 1.39-1.13 2.52-2.52 2.52-1.39 0-2.52-1.13-2.52-2.52 0-1.39 1.13-2.51 2.52-2.51 1.39 0 2.52 1.12 2.52 2.51zm71.62-75.751a2.52 2.52 0 01-5.04 0 2.52 2.52 0 015.04 0zm-50.46 45.571c0 1.39-1.12 2.52-2.51 2.52-1.39 0-2.52-1.13-2.52-2.52 0-1.39 1.13-2.52 2.52-2.52 1.39 0 2.51 1.13 2.51 2.52zm44.39-109.045a2.518 2.518 0 01-2.52 2.517 2.518 2.518 0 01-2.52-2.517 2.522 2.522 0 012.52-2.517c1.39 0 2.52 1.13 2.52 2.517zm26.26 37.608a2.52 2.52 0 012.12 2.862 2.518 2.518 0 01-2.87 2.112 2.515 2.515 0 01.75-4.974zm-65.03 209.337c0 1.39-1.13 2.51-2.52 2.51-1.39 0-2.52-1.12-2.52-2.51 0-1.39 1.13-2.52 2.52-2.52 1.39 0 2.52 1.13 2.52 2.52zm233.92-191.461a2.51 2.51 0 01-2.51 2.517 2.52 2.52 0 01-2.52-2.517c0-1.39 1.13-2.516 2.52-2.516a2.51 2.51 0 012.51 2.516zm44.38 103.861c0 1.4-1.13 2.52-2.52 2.52-1.39 0-2.51-1.12-2.51-2.52 0-1.39 1.12-2.51 2.51-2.51 1.39 0 2.52 1.12 2.52 2.51zm-244.34-709.394c0 1.39-1.13 2.516-2.52 2.516a2.519 2.519 0 01-2.52-2.516 2.52 2.52 0 015.04 0zm47.28-252.53a2.51 2.51 0 01-2.51 2.517 2.52 2.52 0 110-5.036c1.39 0 2.51 1.127 2.51 2.519zm156.23 407.554c0 1.39-1.13 2.516-2.52 2.516a2.519 2.519 0 01-2.52-2.516 2.52 2.52 0 015.04 0zM235.543 712.773a2.517 2.517 0 11-5.035 0 2.517 2.517 0 015.035 0zm25.01 44.007a2.516 2.516 0 01-2.518 2.516 2.515 2.515 0 01-2.517-2.516 2.518 2.518 0 015.035 0zm54.573 3.815a2.518 2.518 0 11-5.036-.002 2.518 2.518 0 015.036.002zm-226.874 6.067a2.515 2.515 0 01-2.518 2.514 2.515 2.515 0 110-5.03 2.517 2.517 0 012.518 2.516zm86.49 11.315a2.515 2.515 0 01-2.517 2.517 2.516 2.516 0 110-5.034 2.518 2.518 0 012.517 2.517zm-49.205-31.141a2.52 2.52 0 01-2.518 2.517 2.52 2.52 0 010-5.037 2.519 2.519 0 012.518 2.52zm203.51 155.024a2.516 2.516 0 11-5.033 0c0-1.39 1.126-2.52 2.516-2.52a2.52 2.52 0 012.517 2.52zm345.186-168.195a2.514 2.514 0 01-2.514 2.519 2.519 2.519 0 01-2.52-2.519 2.518 2.518 0 015.034 0zm-87.016 91.633a2.517 2.517 0 11-5.034 0 2.517 2.517 0 015.034 0zm76.175-23.752a2.518 2.518 0 11-5.037-.003 2.518 2.518 0 015.037.003zm-54.234-30.595a2.516 2.516 0 11-5.033 0 2.518 2.518 0 015.033 0zm375.286 75.648a2.518 2.518 0 11-5.036-.004 2.518 2.518 0 015.036.004zm-48.006-189.457a2.52 2.52 0 01-5.036 0 2.517 2.517 0 015.036 0zm-224.92 56.699a2.513 2.513 0 01-2.514 2.514 2.516 2.516 0 01-2.52-2.514c0-1.39 1.13-2.516 2.52-2.516a2.516 2.516 0 012.514 2.516zm237.898 83.824a2.518 2.518 0 01-2.516 2.517 2.518 2.518 0 010-5.036 2.516 2.516 0 012.516 2.519zm-270.758-53.27a2.516 2.516 0 11-5.033.001 2.516 2.516 0 015.033-.001zM1317.8 596.448c0 1.39-1.13 2.519-2.52 2.519a2.521 2.521 0 01-2.52-2.519 2.52 2.52 0 015.04 0zm25 44.009a2.52 2.52 0 01-2.52 2.517 2.511 2.511 0 01-2.51-2.517c0-1.39 1.12-2.517 2.51-2.517a2.52 2.52 0 012.52 2.517zm-172.29 9.882c0 1.39-1.13 2.519-2.52 2.519a2.52 2.52 0 110-5.036 2.52 2.52 0 012.52 2.517zm86.48 11.314a2.51 2.51 0 01-2.51 2.516 2.519 2.519 0 01-2.52-2.516 2.52 2.52 0 012.52-2.517c1.39 0 2.51 1.127 2.51 2.517zM799.401 767.105a2.516 2.516 0 11-5.035-.005 2.516 2.516 0 015.035.005zm-23.407-29.928a2.516 2.516 0 11-2.516-2.517 2.516 2.516 0 012.516 2.517zM622.197 848.824a2.516 2.516 0 01-5.033 0 2.517 2.517 0 115.033 0zM1207.79 630.51a2.52 2.52 0 01-5.04 0 2.52 2.52 0 015.04 0zm-39.78 212.515a2.521 2.521 0 01-2.52 2.517 2.512 2.512 0 01-2.51-2.517 2.508 2.508 0 012.51-2.516c1.39 0 2.52 1.123 2.52 2.516zM917.526 912.12a2.517 2.517 0 11-5.034 0 2.517 2.517 0 015.034 0zm335.704 90.7a2.52 2.52 0 01-2.52 2.51c-1.39 0-2.51-1.13-2.51-2.51 0-1.4 1.12-2.52 2.51-2.52 1.39 0 2.52 1.12 2.52 2.52zM970.565 778.336a2.516 2.516 0 11-5.034 0 2.516 2.516 0 012.52-2.516 2.512 2.512 0 012.514 2.516zm174.805 331.224c0 1.39-1.13 2.52-2.52 2.52-1.39 0-2.52-1.13-2.52-2.52 0-1.39 1.13-2.51 2.52-2.51 1.39 0 2.52 1.12 2.52 2.51zM991.803 856.234a2.516 2.516 0 11-5.033 0 2.516 2.516 0 015.033 0zm25.007 44.007a2.511 2.511 0 01-2.51 2.519 2.52 2.52 0 01-2.52-2.519 2.521 2.521 0 012.52-2.517c1.39 0 2.51 1.129 2.51 2.517zm54.57 3.816a2.512 2.512 0 01-2.51 2.517 2.521 2.521 0 01-2.52-2.517 2.52 2.52 0 012.52-2.517c1.39 0 2.51 1.127 2.51 2.517zm144.79-15.093a2.512 2.512 0 01-2.51 2.517 2.517 2.517 0 110-5.033c1.39 0 2.51 1.123 2.51 2.516zM145.937 784.338a2.517 2.517 0 11-5.034-.002 2.517 2.517 0 015.034.002zM28.07 1139.6a2.52 2.52 0 01-2.517 2.52 2.52 2.52 0 010-5.04 2.52 2.52 0 012.517 2.52zm20.357-165.952a2.518 2.518 0 11-5.032-.002 2.518 2.518 0 015.032.002zm152.096 7.99a2.518 2.518 0 11-5.036-.004 2.518 2.518 0 015.036.004zm-162.457-90.55a2.519 2.519 0 01-2.517 2.517 2.52 2.52 0 010-5.036 2.517 2.517 0 012.517 2.519zm141.001 152.992a2.51 2.51 0 01-2.516 2.51 2.512 2.512 0 01-2.518-2.51 2.52 2.52 0 012.518-2.52c1.39 0 2.516 1.13 2.516 2.52zM74.29 1102.72c0 1.39-1.127 2.51-2.517 2.51a2.512 2.512 0 01-2.517-2.51 2.52 2.52 0 012.517-2.52 2.52 2.52 0 012.518 2.52zm-60.338-69.3a2.52 2.52 0 01-2.517 2.52 2.52 2.52 0 01-2.517-2.52c0-1.39 1.128-2.51 2.518-2.51a2.51 2.51 0 012.516 2.51zm113.936-91.765a2.516 2.516 0 11-5.033.001 2.516 2.516 0 015.033-.001zm716.626-31.534a2.516 2.516 0 11-5.033.001 2.516 2.516 0 015.033-.001zm86.492 11.317a2.516 2.516 0 11-5.033 0 2.518 2.518 0 015.033 0zm-49.207-31.143a2.518 2.518 0 01-2.517 2.517 2.518 2.518 0 010-5.034 2.515 2.515 0 012.517 2.517zM662.037 1034.52c0 1.39-1.126 2.52-2.516 2.52a2.52 2.52 0 01-2.517-2.52 2.52 2.52 0 012.517-2.52c1.39 0 2.516 1.13 2.516 2.52zm-35.031-48.933a2.515 2.515 0 01-2.514 2.517 2.519 2.519 0 01-2.519-2.517 2.519 2.519 0 012.519-2.517 2.515 2.515 0 012.514 2.517zM595.11 1100.04a2.519 2.519 0 11-5.036 0c0-1.39 1.129-2.51 2.52-2.51a2.51 2.51 0 012.516 2.51zm74.283-55.88a2.52 2.52 0 01-2.517 2.52 2.52 2.52 0 010-5.04 2.52 2.52 0 012.517 2.52zm25.01 44.01c0 1.39-1.129 2.51-2.519 2.51a2.511 2.511 0 01-2.517-2.51 2.52 2.52 0 012.517-2.52c1.39 0 2.519 1.13 2.519 2.52zm54.564 3.81a2.52 2.52 0 01-2.517 2.52 2.519 2.519 0 01-2.516-2.52c0-1.39 1.126-2.52 2.516-2.52a2.52 2.52 0 012.517 2.52zm-140.371 17.38a2.52 2.52 0 01-2.517 2.52 2.52 2.52 0 010-5.04 2.52 2.52 0 012.517 2.52zm-49.211-31.14a2.517 2.517 0 11-5.033 0 2.517 2.517 0 115.033 0zm525.925-32.9c0 1.39-1.13 2.52-2.52 2.52-1.39 0-2.52-1.13-2.52-2.52 0-1.39 1.13-2.52 2.52-2.52 1.39 0 2.52 1.13 2.52 2.52zM899.966 737.557a2.519 2.519 0 11-5.034.002 2.519 2.519 0 015.034-.002zm44.774 65.444a2.516 2.516 0 11-5.034-.004 2.516 2.516 0 015.034.004zm-373.812-72.725a2.516 2.516 0 11-5.033 0 2.516 2.516 0 015.033 0zm-35.031-48.934a2.516 2.516 0 01-5.034 0 2.515 2.515 0 012.517-2.514 2.515 2.515 0 012.517 2.514zm21.402 148.851a2.518 2.518 0 01-2.517 2.519 2.518 2.518 0 010-5.036 2.516 2.516 0 012.517 2.517zm12.987 140.52a2.517 2.517 0 01-2.519 2.517 2.515 2.515 0 01-2.517-2.517 2.518 2.518 0 015.036 0zm448.734-223.601a2.52 2.52 0 01-5.04 0 2.521 2.521 0 015.04 0zm25.01 44.009a2.52 2.52 0 01-2.52 2.517 2.511 2.511 0 01-2.51-2.517c0-1.39 1.12-2.517 2.51-2.517a2.52 2.52 0 012.52 2.517zm54.56 3.813a2.511 2.511 0 01-2.51 2.519 2.52 2.52 0 01-2.52-2.519 2.521 2.521 0 012.52-2.517c1.39 0 2.51 1.129 2.51 2.517zm-226.859 6.072a2.518 2.518 0 11-5.035-.001 2.518 2.518 0 015.035.001zm86.49 11.313a2.516 2.516 0 11-5.033 0 2.516 2.516 0 015.033 0zm-49.208-31.143a2.52 2.52 0 11-5.036 0 2.518 2.518 0 015.036 0zM591.431 951.385a2.518 2.518 0 11-5.036.004 2.518 2.518 0 015.036-.004zm-70.602-40.777a2.518 2.518 0 01-5.036 0 2.518 2.518 0 015.036 0zM289.838 529.893l.402.08c.277.114.49.338.591.62l5.832 16.405 5.833-16.405a1.06 1.06 0 011.448-.599l15.724 7.475-7.476-15.723a1.072 1.072 0 01-.021-.858 1.05 1.05 0 01.621-.588l16.405-5.835-16.405-5.832a1.065 1.065 0 01-.621-.592 1.07 1.07 0 01.021-.857l7.476-15.721-15.724 7.473c-.269.128-.58.136-.857.021a1.054 1.054 0 01-.591-.62l-5.833-16.403-5.832 16.403a1.045 1.045 0 01-.591.62 1.04 1.04 0 01-.855-.021l-15.724-7.473 7.473 15.721a1.058 1.058 0 01-.599 1.449l-16.404 5.832 16.404 5.835c.282.098.506.312.621.588a1.06 1.06 0 01-.022.858l-7.473 15.723 15.724-7.475.453-.101zm6.825 21.305c-.447 0-.841-.279-.993-.7l-6.437-18.096-17.345 8.245a1.053 1.053 0 01-1.405-1.406l8.246-17.346-18.097-6.437a1.053 1.053 0 010-1.986l18.097-6.435-8.246-17.348a1.054 1.054 0 011.405-1.406l17.348 8.248 6.434-18.099a1.055 1.055 0 011.987 0l6.437 18.099 17.345-8.248a1.05 1.05 0 011.198.208c.317.314.4.796.208 1.198l-8.245 17.348 18.096 6.435a1.053 1.053 0 010 1.986l-18.096 6.437 8.245 17.346a1.057 1.057 0 01-1.406 1.406l-17.345-8.245-6.437 18.096a1.05 1.05 0 01-.994.7z"/><path d="M296.668 482.009a1.05 1.05 0 01-.919-.535l-9.731-17.252a1.055 1.055 0 111.837-1.039l9.729 17.252a1.055 1.055 0 01-.4 1.438l-.516.136z"/><path d="M296.662 482.009l-.516-.136a1.056 1.056 0 01-.4-1.438l9.729-17.252a1.055 1.055 0 011.835 1.039l-9.729 17.252a1.051 1.051 0 01-.919.535zm9.732 84.279c-.368 0-.725-.192-.919-.536l-9.729-17.252a1.053 1.053 0 01.4-1.435 1.051 1.051 0 011.435.399l9.729 17.252a1.052 1.052 0 01-.4 1.436l-.516.136z"/><path d="M286.934 566.288l-.517-.136a1.053 1.053 0 01-.399-1.436l9.731-17.252a1.051 1.051 0 011.435-.399c.506.285.688.929.4 1.435l-9.729 17.252a1.057 1.057 0 01-.921.536zm43.245-50.766a1.05 1.05 0 01-.919-.535 1.051 1.051 0 01.399-1.435l17.252-9.732a1.055 1.055 0 011.036 1.835l-17.252 9.732-.516.135z"/><path d="M347.428 525.254l-.517-.136-17.252-9.731a1.053 1.053 0 111.036-1.835l17.252 9.729a1.056 1.056 0 01-.519 1.973zm-101.529 0a1.055 1.055 0 01-.519-1.973l17.253-9.729a1.053 1.053 0 111.035 1.835l-17.251 9.731-.518.136z"/><path d="M263.149 515.522l-.516-.135-17.253-9.732a1.053 1.053 0 111.037-1.835l17.251 9.732a1.053 1.053 0 01-.519 1.97zm76.295 29.015l-.285-.038-19.079-5.318a1.052 1.052 0 01-.73-1.297 1.047 1.047 0 011.297-.732l19.079 5.315a1.054 1.054 0 01-.282 2.07z"/><path d="M325.681 558.299c-.46 0-.884-.306-1.014-.773l-5.316-19.079a1.05 1.05 0 01.73-1.297 1.052 1.052 0 011.299.733l5.319 19.076a1.056 1.056 0 01-.733 1.3l-.285.04zm-52.716-66.476l-.284-.04-19.079-5.318a1.055 1.055 0 11.567-2.032l19.078 5.318c.562.157.889.738.732 1.3a1.053 1.053 0 01-1.014.772z"/><path d="M272.965 491.823c-.461 0-.884-.306-1.015-.772l-5.317-19.079a1.053 1.053 0 112.03-.567l5.318 19.079a1.051 1.051 0 01-.732 1.299l-.284.04zm-5.317 66.476l-.283-.04a1.054 1.054 0 01-.732-1.3l5.317-19.076c.157-.562.74-.892 1.299-.733.562.155.89.738.733 1.297l-5.318 19.079a1.057 1.057 0 01-1.016.773z"/><path d="M253.885 544.537a1.055 1.055 0 01-.282-2.07l19.079-5.315a1.05 1.05 0 011.299.732 1.053 1.053 0 01-.733 1.297l-19.078 5.318-.285.038zm66.48-52.714l-.285-.04a1.052 1.052 0 01-.73-1.299l5.316-19.079a1.055 1.055 0 112.032.567l-5.319 19.079c-.13.466-.554.772-1.014.772z"/><path d="M320.359 491.823a1.05 1.05 0 01-1.012-.772 1.05 1.05 0 01.73-1.3l19.079-5.318a1.054 1.054 0 11.567 2.032l-19.079 5.318-.285.04zm31.098 23.699H241.872a1.054 1.054 0 010-2.109h109.585a1.055 1.055 0 110 2.109z"/><path d="M296.664 570.313a1.055 1.055 0 01-1.055-1.055V459.674a1.055 1.055 0 012.11 0v109.584c0 .584-.472 1.055-1.055 1.055z"/><path d="M335.408 554.266c-.269 0-.538-.101-.746-.309l-77.488-77.488a1.054 1.054 0 111.491-1.491l77.488 77.488a1.052 1.052 0 010 1.491 1.041 1.041 0 01-.745.309z"/><path d="M257.92 554.266a1.054 1.054 0 01-.746-1.8l77.488-77.488a1.052 1.052 0 011.491 0 1.052 1.052 0 010 1.491l-77.488 77.488a1.04 1.04 0 01-.745.309zm432.281-59.88l.404.08c.275.112.488.338.589.62l5.835 16.406 5.832-16.406c.099-.282.315-.508.592-.62.274-.115.586-.109.854.021l15.724 7.473-7.476-15.723a1.067 1.067 0 01-.018-.858c.112-.274.338-.487.62-.589l16.403-5.832-16.403-5.835a1.037 1.037 0 01-.62-.589 1.065 1.065 0 01.018-.857l7.476-15.724-15.724 7.476a1.058 1.058 0 01-1.446-.599l-5.832-16.405-5.835 16.405a1.053 1.053 0 01-1.446.599l-15.724-7.476 7.473 15.724a1.047 1.047 0 01-.599 1.446l-16.403 5.835 16.403 5.832c.282.102.509.315.623.589.115.277.104.589-.024.858l-7.473 15.723 15.724-7.473.453-.101zm6.828 21.305c-.447 0-.844-.282-.996-.7l-6.434-18.099-17.348 8.248a1.053 1.053 0 01-1.196-.208 1.05 1.05 0 01-.208-1.198l8.245-17.348-18.096-6.435a1.055 1.055 0 01-.703-.993c0-.445.282-.844.703-.993l18.096-6.437-8.245-17.346a1.05 1.05 0 01.208-1.198c.314-.314.794-.4 1.196-.208l17.348 8.245 6.434-18.096a1.054 1.054 0 011.987 0l6.437 18.096 17.348-8.245a1.043 1.043 0 011.195.208c.317.314.4.794.208 1.198l-8.245 17.346 18.096 6.437a1.053 1.053 0 010 1.986l-18.096 6.435 8.245 17.348a1.05 1.05 0 01-.208 1.198 1.05 1.05 0 01-1.195.208l-17.348-8.248-6.437 18.099c-.149.418-.546.7-.991.7z"/><path d="M697.028 446.496a1.05 1.05 0 01-.919-.536l-9.731-17.252a1.053 1.053 0 01.402-1.435 1.053 1.053 0 011.435.399l9.732 17.252a1.053 1.053 0 01-.403 1.436l-.516.136z"/><path d="M697.026 446.496l-.517-.136a1.052 1.052 0 01-.399-1.436l9.728-17.252a1.055 1.055 0 011.838 1.036l-9.729 17.252a1.053 1.053 0 01-.921.536zm9.734 84.282a1.06 1.06 0 01-.922-.535l-9.728-17.252a1.055 1.055 0 111.837-1.036l9.729 17.249a1.057 1.057 0 01-.4 1.438l-.516.136z"/><path d="M687.297 530.778l-.517-.136a1.055 1.055 0 01-.402-1.438l9.731-17.249a1.053 1.053 0 011.435-.402c.509.287.688.929.403 1.438l-9.732 17.252a1.057 1.057 0 01-.918.535zm43.246-50.764a1.056 1.056 0 01-.517-1.974l17.249-9.731a1.057 1.057 0 011.439.402 1.053 1.053 0 01-.403 1.436l-17.252 9.731-.516.136z"/><path d="M747.792 489.743l-.517-.136-17.249-9.729a1.055 1.055 0 111.033-1.837l17.252 9.731a1.053 1.053 0 01-.519 1.971zm-101.529 0a1.05 1.05 0 01-.919-.536 1.051 1.051 0 01.399-1.435l17.253-9.731a1.054 1.054 0 011.036 1.837l-17.253 9.729-.516.136z"/><path d="M663.512 480.014l-.516-.136-17.253-9.731a1.052 1.052 0 01-.399-1.436 1.053 1.053 0 011.435-.402l17.253 9.731a1.055 1.055 0 01-.52 1.974zm76.293 29.014l-.285-.037-19.076-5.319a1.054 1.054 0 01.564-2.032l19.079 5.319a1.053 1.053 0 01-.282 2.069z"/><path d="M726.044 522.789c-.46 0-.887-.304-1.014-.77l-5.319-19.079a1.053 1.053 0 112.03-.567l5.318 19.079a1.054 1.054 0 01-.732 1.3l-.283.037zm-52.712-66.476l-.282-.037-19.079-5.318a1.053 1.053 0 01-.732-1.3 1.05 1.05 0 011.296-.732l19.08 5.318c.562.157.889.738.735 1.3a1.055 1.055 0 01-1.018.769z"/><path d="M673.329 456.313a1.05 1.05 0 01-1.014-.769l-5.319-19.079a1.055 1.055 0 012.03-.568l5.321 19.08a1.058 1.058 0 01-.735 1.299l-.283.037zm-5.318 66.476l-.282-.037a1.056 1.056 0 01-.733-1.3l5.319-19.079a1.052 1.052 0 011.297-.732c.561.157.889.737.735 1.299l-5.321 19.079c-.131.466-.554.77-1.015.77z"/><path d="M654.253 509.028a1.055 1.055 0 01-.282-2.069l19.079-5.319a1.053 1.053 0 11.564 2.032l-19.079 5.319-.282.037zm66.473-52.715l-.282-.037a1.054 1.054 0 01-.733-1.299l5.319-19.08a1.053 1.053 0 112.029.568l-5.318 19.079a1.054 1.054 0 01-1.015.769z"/><path d="M720.726 456.313a1.054 1.054 0 01-.282-2.069l19.076-5.318a1.054 1.054 0 11.567 2.032l-19.079 5.318-.282.037zm31.097 23.701H642.238a1.054 1.054 0 01-1.054-1.055c0-.583.471-1.055 1.054-1.055h109.585a1.056 1.056 0 010 2.11z"/><path d="M697.035 534.806a1.055 1.055 0 01-1.055-1.055V424.166a1.054 1.054 0 112.107 0v109.585c0 .583-.471 1.055-1.052 1.055z"/><path d="M735.774 518.757c-.272 0-.541-.104-.748-.309L657.54 440.96a1.053 1.053 0 111.489-1.492l77.491 77.489c.41.412.41 1.078 0 1.491a1.061 1.061 0 01-.746.309z"/><path d="M658.286 518.757a1.05 1.05 0 01-.746-.309 1.052 1.052 0 010-1.491l77.486-77.489a1.057 1.057 0 011.494 0c.41.411.41 1.079 0 1.492l-77.491 77.488a1.05 1.05 0 01-.743.309zm351.444-233.201a2.21 2.21 0 012.09 1.472l12.25 34.462 12.26-34.462a2.21 2.21 0 011.24-1.304 2.226 2.226 0 011.8.045l33.03 15.705-15.7-33.035a2.214 2.214 0 01-.05-1.8c.24-.578.72-1.028 1.31-1.238l34.46-12.254-34.46-12.256a2.219 2.219 0 01-1.31-1.238 2.214 2.214 0 01.05-1.8l15.7-33.032-33.03 15.702a2.216 2.216 0 01-3.04-1.257l-12.26-34.464-12.25 34.464a2.216 2.216 0 01-3.04 1.257l-33.031-15.702 15.702 33.032a2.21 2.21 0 01.045 1.8 2.21 2.21 0 01-1.302 1.238l-34.462 12.256 34.462 12.254a2.22 2.22 0 011.257 3.038l-15.702 33.035 33.031-15.705c.3-.141.63-.213.95-.213zm14.34 44.76a2.21 2.21 0 01-2.08-1.473l-13.52-38.02-36.445 17.325a2.213 2.213 0 01-2.516-.437 2.212 2.212 0 01-.434-2.517l17.321-36.44-38.017-13.519a2.216 2.216 0 010-4.176l38.02-13.521-17.324-36.44a2.215 2.215 0 012.95-2.951l36.445 17.322 13.52-38.017a2.21 2.21 0 014.17 0l13.52 38.017 36.44-17.322c.85-.41 1.86-.231 2.52.432.66.663.84 1.669.44 2.519l-17.33 36.44 38.02 13.521a2.219 2.219 0 010 4.176l-38.02 13.519 17.33 36.44a2.223 2.223 0 01-2.96 2.954l-36.44-17.325-13.52 38.02a2.214 2.214 0 01-2.09 1.473z"/><path d="M1024.08 184.955c-.78 0-1.53-.405-1.93-1.129l-20.45-36.243a2.211 2.211 0 01.85-3.015 2.207 2.207 0 013.01.841l20.44 36.244c.6 1.065.23 2.415-.84 3.014a2.16 2.16 0 01-1.08.288z"/><path d="M1024.07 184.955c-.37 0-.74-.093-1.08-.288a2.199 2.199 0 01-.84-3.014l20.44-36.244a2.207 2.207 0 013.01-.841 2.208 2.208 0 01.84 3.015L1026 183.826a2.193 2.193 0 01-1.93 1.129zm20.45 177.055c-.78 0-1.53-.405-1.93-1.126l-20.44-36.244a2.199 2.199 0 01.84-3.014 2.202 2.202 0 013.01.841l20.44 36.238a2.214 2.214 0 01-1.92 3.305z"/><path d="M1003.63 362.01a2.217 2.217 0 01-1.93-3.305l20.45-36.238a2.204 2.204 0 013.01-.841 2.207 2.207 0 01.84 3.014l-20.44 36.244a2.208 2.208 0 01-1.93 1.126zm90.85-106.646a2.216 2.216 0 01-1.09-4.144l36.24-20.443a2.214 2.214 0 013.02.842c.6 1.065.23 2.415-.84 3.014l-36.24 20.443c-.35.197-.72.288-1.09.288z"/><path d="M1130.72 275.804c-.37 0-.74-.094-1.09-.285l-36.24-20.443a2.215 2.215 0 112.18-3.856l36.24 20.437a2.214 2.214 0 01.84 3.02 2.219 2.219 0 01-1.93 1.127zm-213.287 0a2.208 2.208 0 01-1.931-1.127 2.215 2.215 0 01.841-3.02l36.241-20.437a2.213 2.213 0 112.176 3.856l-36.244 20.443a2.226 2.226 0 01-1.083.285z"/><path d="M953.671 255.364c-.371 0-.743-.091-1.087-.288l-36.241-20.443a2.208 2.208 0 01-.841-3.014 2.21 2.21 0 013.014-.842l36.244 20.443a2.213 2.213 0 01.841 3.015 2.21 2.21 0 01-1.93 1.129zm160.269 60.952l-.59-.08-40.08-11.172a2.213 2.213 0 01-1.54-2.729 2.213 2.213 0 012.73-1.537l40.08 11.172a2.212 2.212 0 011.54 2.727 2.228 2.228 0 01-2.14 1.619z"/><path d="M1085.04 345.227c-.97 0-1.86-.639-2.14-1.619l-11.17-40.081a2.21 2.21 0 011.54-2.727c1.18-.333 2.4.359 2.73 1.536l11.17 40.081a2.209 2.209 0 01-1.54 2.727l-.59.083zm-110.745-139.65l-.597-.083-40.081-11.175a2.21 2.21 0 01-1.539-2.727 2.212 2.212 0 012.73-1.536l40.08 11.172a2.215 2.215 0 01-.593 4.349z"/><path d="M974.285 205.577a2.213 2.213 0 01-2.13-1.62l-11.175-40.083c-.327-1.18.36-2.4 1.539-2.727 1.18-.333 2.4.359 2.727 1.536l11.175 40.084a2.214 2.214 0 01-1.539 2.727l-.597.083zm-11.172 139.65l-.594-.083a2.212 2.212 0 01-1.539-2.727l11.175-40.081a2.21 2.21 0 012.727-1.536 2.214 2.214 0 011.539 2.727l-11.175 40.081a2.21 2.21 0 01-2.133 1.619z"/><path d="M934.211 316.316a2.215 2.215 0 01-.594-4.346l40.081-11.172a2.213 2.213 0 111.19 4.266l-40.081 11.172-.596.08zm139.649-110.739l-.59-.083a2.21 2.21 0 01-1.54-2.727l11.17-40.084a2.212 2.212 0 012.73-1.536 2.21 2.21 0 011.54 2.727L1076 203.957a2.232 2.232 0 01-2.14 1.62z"/><path d="M1073.86 205.577a2.21 2.21 0 01-2.13-1.62 2.213 2.213 0 011.54-2.729l40.08-11.172a2.21 2.21 0 012.73 1.536 2.21 2.21 0 01-1.54 2.727l-40.08 11.175-.6.083zm65.32 49.787H908.967a2.215 2.215 0 010-4.432h230.213a2.215 2.215 0 110 4.432z"/><path d="M1024.07 370.469c-1.22 0-2.21-.99-2.21-2.216V138.039c0-1.225.99-2.215 2.21-2.215 1.23 0 2.22.99 2.22 2.215v230.214c0 1.226-.99 2.216-2.22 2.216z"/><path d="M1105.47 336.755c-.57 0-1.14-.215-1.57-.649L941.114 173.318a2.214 2.214 0 113.132-3.132l162.784 162.788c.87.865.87 2.266 0 3.132-.43.434-1 .649-1.56.649z"/><path d="M942.68 336.755a2.213 2.213 0 01-1.566-3.781L1103.9 170.186a2.212 2.212 0 013.13 0c.87.866.87 2.267 0 3.132L944.246 336.106a2.204 2.204 0 01-1.566.649zM649.857 192.593l.402.083c.274.114.487.338.591.618l5.833 16.408 5.832-16.408a1.062 1.062 0 011.446-.6l15.726 7.476-7.475-15.724a1.055 1.055 0 01.599-1.446l16.402-5.832-16.402-5.835a1.052 1.052 0 01-.599-1.446l7.475-15.724-15.726 7.476a1.048 1.048 0 01-.855.021 1.068 1.068 0 01-.591-.62l-5.832-16.403-5.833 16.403a1.077 1.077 0 01-.591.62 1.048 1.048 0 01-.855-.021l-15.726-7.476 7.475 15.724c.128.271.136.58.022.857-.115.275-.341.49-.621.589l-16.405 5.835L640.554 183c.28.099.506.315.621.589.114.277.106.588-.022.857l-7.475 15.724 15.726-7.476.453-.101zm6.826 21.308c-.445 0-.845-.282-.994-.7l-6.437-18.099-17.345 8.245a1.053 1.053 0 01-1.406-1.403l8.245-17.348-18.096-6.435a1.053 1.053 0 010-1.986l18.099-6.435-8.248-17.35a1.055 1.055 0 011.406-1.404l17.345 8.248 6.437-18.099a1.054 1.054 0 011.987 0l6.437 18.099 17.345-8.248a1.053 1.053 0 011.406 1.404l-8.248 17.35 18.1 6.435a1.055 1.055 0 010 1.986l-18.1 6.435 8.248 17.348a1.053 1.053 0 01-1.406 1.403l-17.345-8.245-6.437 18.099c-.149.418-.549.7-.993.7z"/><path d="M656.684 144.708c-.367 0-.724-.192-.919-.535l-9.731-17.252a1.056 1.056 0 011.838-1.036l9.731 17.252c.285.506.106 1.15-.402 1.435l-.517.136z"/><path d="M656.687 144.708l-.516-.136a1.053 1.053 0 01-.403-1.435l9.732-17.252a1.055 1.055 0 011.835 1.036l-9.729 17.252a1.053 1.053 0 01-.919.535zm9.731 84.283c-.367 0-.727-.192-.918-.538l-9.732-17.25a1.054 1.054 0 111.838-1.036l9.729 17.252a1.057 1.057 0 01-.4 1.436l-.517.136z"/><path d="M646.953 228.991l-.517-.136a1.055 1.055 0 01-.402-1.436l9.731-17.252a1.055 1.055 0 011.838 1.036l-9.731 17.25a1.05 1.05 0 01-.919.538zm43.246-50.767a1.055 1.055 0 01-.517-1.973l17.25-9.729a1.053 1.053 0 111.036 1.835l-17.25 9.731-.519.136z"/><path d="M707.451 187.952l-.519-.136-17.25-9.728a1.058 1.058 0 01-.402-1.439c.288-.506.93-.684 1.438-.399l17.25 9.731a1.054 1.054 0 01-.517 1.971zm-101.529 0a1.053 1.053 0 01-.52-1.971l17.252-9.731a1.055 1.055 0 111.036 1.838l-17.252 9.728-.516.136z"/><path d="M623.171 178.224l-.517-.136-17.252-9.731a1.055 1.055 0 01-.399-1.435 1.05 1.05 0 011.435-.4l17.252 9.729c.506.285.688.929.4 1.435a1.052 1.052 0 01-.919.538zm76.293 29.016l-.282-.04-19.079-5.316a1.058 1.058 0 01-.733-1.3 1.047 1.047 0 011.297-.729l19.079 5.315a1.055 1.055 0 01-.282 2.07z"/><path d="M685.7 221c-.46 0-.884-.304-1.014-.772l-5.319-19.077a1.05 1.05 0 01.733-1.297 1.05 1.05 0 011.299.73l5.316 19.079a1.05 1.05 0 01-.732 1.297l-.283.04zm-52.713-66.474l-.285-.04-19.079-5.321a1.053 1.053 0 01-.732-1.297c.157-.562.74-.892 1.299-.732l19.079 5.318a1.056 1.056 0 01-.282 2.072z"/><path d="M632.985 154.526c-.461 0-.885-.306-1.015-.772l-5.318-19.082a1.055 1.055 0 012.032-.564l5.318 19.079a1.055 1.055 0 01-.732 1.299l-.285.04zM627.67 221l-.285-.04a1.054 1.054 0 01-.733-1.297l5.319-19.079c.157-.562.74-.889 1.299-.73.56.152.89.735.733 1.297l-5.319 19.077c-.13.468-.553.772-1.014.772z"/><path d="M613.908 207.24a1.054 1.054 0 01-.282-2.07l19.079-5.315a1.05 1.05 0 011.3.729 1.056 1.056 0 01-.733 1.3l-19.079 5.316-.285.04zm66.477-52.714l-.282-.04a1.057 1.057 0 01-.733-1.299l5.319-19.079a1.052 1.052 0 112.029.564l-5.316 19.082a1.06 1.06 0 01-1.017.772z"/><path d="M680.382 154.526a1.057 1.057 0 01-.282-2.072l19.079-5.318c.562-.16 1.142.17 1.297.732a1.051 1.051 0 01-.732 1.297l-19.08 5.321-.282.04zm31.097 23.698H601.894a1.053 1.053 0 01-1.054-1.054c0-.584.471-1.055 1.054-1.055h109.585a1.055 1.055 0 010 2.109z"/><path d="M656.687 233.016a1.053 1.053 0 01-1.054-1.054V122.377a1.053 1.053 0 112.109 0v109.585c0 .583-.471 1.054-1.055 1.054z"/><path d="M695.43 216.969c-.269 0-.541-.104-.746-.309l-77.488-77.49a1.053 1.053 0 111.492-1.489l77.488 77.488c.41.413.41 1.078 0 1.491a1.061 1.061 0 01-.746.309z"/><path d="M617.942 216.969a1.056 1.056 0 01-.746-1.8l77.488-77.488a1.053 1.053 0 111.492 1.489l-77.488 77.49a1.061 1.061 0 01-.746.309zM586.499 348.3l.303.061.448.466 4.402 12.378 4.4-12.378.444-.466.648.016 11.864 5.64-5.641-11.864-.016-.647.469-.448 12.379-4.399-12.379-4.402-.469-.445.016-.647 5.641-11.865-11.864 5.641-.648.016-.444-.469-4.4-12.376-4.402 12.376-.448.469-.644-.016-11.865-5.641 5.641 11.865.016.647-.469.445-12.378 4.402 12.378 4.399.469.448-.016.647-5.641 11.864 11.865-5.64.341-.077zm5.153 16.075a.795.795 0 01-.751-.528l-4.855-13.657-13.089 6.224a.8.8 0 01-.906-.157.793.793 0 01-.155-.903l6.222-13.089-13.654-4.858a.796.796 0 010-1.499l13.654-4.855-6.222-13.09a.794.794 0 011.061-1.06l13.089 6.221 4.855-13.654a.796.796 0 011.499 0l4.855 13.654 13.09-6.221a.79.79 0 01.903.157c.239.237.301.6.157.903l-6.221 13.09 13.654 4.855a.795.795 0 010 1.499l-13.654 4.858 6.221 13.089a.796.796 0 01-1.06 1.06l-13.09-6.224-4.855 13.657a.795.795 0 01-.748.528z"/><path d="M591.656 312.165a.794.794 0 01-.695-.405l-7.343-13.017a.795.795 0 01.304-1.084.799.799 0 011.084.303l7.342 13.018a.798.798 0 01-.304 1.084l-.388.101z"/><path d="M591.65 312.165l-.388-.101a.795.795 0 01-.304-1.084l7.342-13.018a.799.799 0 011.084-.303c.381.215.517.7.301 1.084l-7.34 13.017a.791.791 0 01-.695.405zm7.343 63.596a.793.793 0 01-.693-.405l-7.342-13.017a.796.796 0 011.387-.781l7.34 13.015a.8.8 0 01-.301 1.087l-.391.101z"/><path d="M584.311 375.761l-.389-.101a.798.798 0 01-.304-1.087l7.343-13.015a.795.795 0 111.387.781l-7.342 13.017a.793.793 0 01-.695.405zm32.629-38.306a.797.797 0 01-.392-1.489l13.018-7.342a.796.796 0 11.78 1.385l-13.015 7.342-.391.104z"/><path d="M629.955 344.795l-.389-.101-13.018-7.342a.797.797 0 01-.301-1.084.797.797 0 011.084-.301l13.015 7.342a.793.793 0 01-.391 1.486zm-76.609 0a.795.795 0 01-.392-1.486l13.018-7.342a.795.795 0 11.78 1.385l-13.015 7.342-.391.101z"/><path d="M566.361 337.455l-.389-.104-13.018-7.342a.798.798 0 01-.301-1.084.792.792 0 011.084-.301l13.015 7.342a.795.795 0 01-.391 1.489zm57.572 21.895l-.213-.03-14.398-4.013a.798.798 0 01-.551-.98.792.792 0 01.98-.551l14.395 4.013a.794.794 0 01-.213 1.561z"/><path d="M613.546 369.733a.796.796 0 01-.764-.583l-4.014-14.394a.794.794 0 01.552-.98.794.794 0 01.982.551l4.011 14.397a.79.79 0 01-.551.977l-.216.032zm-39.779-50.16l-.213-.029-14.397-4.013a.796.796 0 11.429-1.532l14.395 4.014a.795.795 0 01-.214 1.56z"/><path d="M573.77 319.573a.797.797 0 01-.767-.58l-4.013-14.398a.797.797 0 011.534-.428l4.013 14.397a.795.795 0 01-.554.98l-.213.029zm-4.013 50.16l-.213-.032a.794.794 0 01-.554-.977l4.013-14.397a.795.795 0 01.98-.551.794.794 0 01.554.98l-4.013 14.394a.798.798 0 01-.767.583z"/><path d="M559.37 359.35a.794.794 0 01-.213-1.561l14.397-4.013a.796.796 0 11.427 1.531l-14.395 4.013-.216.03zm50.168-39.777l-.216-.029a.798.798 0 01-.551-.98l4.014-14.397a.795.795 0 111.531.428l-4.011 14.398a.8.8 0 01-.767.58z"/><path d="M609.533 319.573a.796.796 0 01-.213-1.56l14.397-4.014a.794.794 0 11.426 1.532l-14.395 4.013-.215.029zm23.468 17.882h-82.689a.797.797 0 010-1.593h82.689c.44 0 .794.357.794.797a.794.794 0 01-.794.796z"/><path d="M591.652 378.8a.797.797 0 01-.797-.796v-82.687a.795.795 0 111.59 0v82.687a.794.794 0 01-.793.796z"/><path d="M620.887 366.688l-.565-.231-58.467-58.47a.795.795 0 111.124-1.127l58.47 58.47a.795.795 0 010 1.127l-.562.231z"/><path d="M562.417 366.688l-.562-.231a.795.795 0 010-1.127l58.467-58.47a.795.795 0 011.127 0 .795.795 0 010 1.127l-58.47 58.47-.562.231zm-125.023-80.882l.405.082c.274.115.487.338.588.621l5.833 16.405 5.835-16.405a1.056 1.056 0 011.446-.602l15.723 7.478-7.475-15.726a1.053 1.053 0 01.599-1.446l16.405-5.833-16.405-5.835a1.052 1.052 0 01-.599-1.443l7.475-15.726-15.723 7.475a1.06 1.06 0 01-.858.022 1.065 1.065 0 01-.588-.621l-5.835-16.402-5.833 16.402c-.101.28-.314.506-.588.621a1.06 1.06 0 01-.858-.022l-15.723-7.475 7.473 15.726a1.056 1.056 0 01-.597 1.443l-16.405 5.835 16.405 5.833a1.057 1.057 0 01.597 1.446l-7.473 15.726 15.723-7.478.453-.101zm6.826 21.308c-.445 0-.842-.282-.991-.701l-6.437-18.099-17.348 8.246a1.052 1.052 0 01-1.403-1.404l8.245-17.348-18.099-6.434a1.056 1.056 0 010-1.987l18.099-6.437-8.245-17.345a1.054 1.054 0 011.403-1.406l17.348 8.247 6.437-18.099c.149-.42.546-.7.991-.7.447 0 .844.28.996.7l6.434 18.099 17.345-8.247a1.055 1.055 0 011.406 1.406l-8.245 17.345 18.097 6.437a1.055 1.055 0 010 1.987l-18.097 6.434 8.245 17.348a1.052 1.052 0 01-1.406 1.404l-17.345-8.246-6.434 18.099a1.061 1.061 0 01-.996.701z"/><path d="M444.225 237.919c-.367 0-.727-.191-.921-.535l-9.729-17.252a1.053 1.053 0 01.402-1.435 1.056 1.056 0 011.436.399l9.728 17.252a1.053 1.053 0 01-.399 1.436l-.517.135z"/><path d="M444.221 237.919l-.516-.135a1.057 1.057 0 01-.403-1.436l9.732-17.252a1.055 1.055 0 011.837 1.036l-9.731 17.252a1.05 1.05 0 01-.919.535zm9.731 84.283a1.05 1.05 0 01-.918-.538l-9.732-17.249a1.056 1.056 0 011.838-1.036l9.731 17.252a1.053 1.053 0 01-.402 1.435l-.517.136z"/><path d="M434.491 322.202l-.514-.136a1.054 1.054 0 01-.402-1.435l9.729-17.252a1.054 1.054 0 111.837 1.036l-9.728 17.249a1.054 1.054 0 01-.922.538zm43.247-50.766a1.055 1.055 0 01-.519-1.973l17.252-9.732a1.054 1.054 0 011.435.402 1.054 1.054 0 01-.399 1.436l-17.252 9.731-.517.136z"/><path d="M494.988 281.164l-.517-.136-17.252-9.729a1.055 1.055 0 011.036-1.837l17.252 9.728a1.055 1.055 0 01-.519 1.974zm-101.533 0a1.053 1.053 0 01-.519-1.974l17.25-9.728a1.056 1.056 0 011.038 1.837l-17.252 9.729-.517.136z"/><path d="M410.705 271.436l-.519-.136-17.25-9.731a1.055 1.055 0 111.036-1.838l17.252 9.732a1.055 1.055 0 01-.519 1.973zm76.293 29.015l-.285-.04-19.079-5.315a1.058 1.058 0 01-.732-1.3c.157-.562.737-.89 1.299-.733l19.079 5.319a1.053 1.053 0 01-.282 2.069z"/><path d="M473.237 314.212c-.463 0-.887-.303-1.017-.772l-5.318-19.076a1.058 1.058 0 01.732-1.3 1.053 1.053 0 011.3.732l5.318 19.079a1.051 1.051 0 01-.732 1.297l-.283.04zm-52.711-66.473l-.283-.04-19.079-5.321a1.051 1.051 0 01-.732-1.297c.154-.562.738-.89 1.297-.733l19.079 5.319a1.055 1.055 0 01-.282 2.072z"/><path d="M420.524 247.739c-.463 0-.884-.306-1.017-.773l-5.318-19.081a1.054 1.054 0 01.735-1.297c.562-.16 1.139.17 1.299.732l5.316 19.079a1.054 1.054 0 01-.732 1.3l-.283.04zm-5.318 66.473l-.282-.04a1.054 1.054 0 01-.735-1.297l5.318-19.079a1.055 1.055 0 112.032.568l-5.316 19.076a1.056 1.056 0 01-1.017.772z"/><path d="M401.447 300.451a1.05 1.05 0 01-1.015-.772c-.157-.559.17-1.14.732-1.297l19.079-5.319a1.05 1.05 0 011.297.733 1.054 1.054 0 01-.732 1.3l-19.079 5.315-.282.04zm66.472-52.712l-.285-.04a1.058 1.058 0 01-.732-1.3l5.318-19.079c.157-.562.74-.892 1.3-.732.561.154.889.737.732 1.297l-5.318 19.081a1.057 1.057 0 01-1.015.773z"/><path d="M467.919 247.739a1.055 1.055 0 01-.285-2.072l19.079-5.319a1.055 1.055 0 11.567 2.03l-19.079 5.321-.282.04zm31.094 23.697H389.428a1.055 1.055 0 010-2.109h109.585c.583 0 1.054.471 1.054 1.054 0 .584-.471 1.055-1.054 1.055z"/><path d="M444.22 326.228a1.053 1.053 0 01-1.052-1.055V215.588a1.053 1.053 0 112.107 0v109.585c0 .583-.472 1.055-1.055 1.055z"/><path d="M482.965 310.178c-.271 0-.54-.104-.748-.309l-77.486-77.491a1.051 1.051 0 010-1.489 1.051 1.051 0 011.489 0l77.488 77.488a1.053 1.053 0 01-.743 1.801z"/><path d="M405.475 310.178a1.055 1.055 0 01-.744-1.801l77.486-77.488a1.054 1.054 0 011.491 1.489l-77.488 77.491a1.055 1.055 0 01-.745.309zm752.755 217.091l.4.08c.28.114.49.34.6.623l5.83 16.402 5.83-16.402c.1-.283.31-.509.59-.623.28-.112.59-.107.86.021l15.72 7.475-7.47-15.723a1.022 1.022 0 01-.02-.855c.11-.277.33-.493.62-.591l16.4-5.835-16.4-5.833a1.023 1.023 0 01-.62-.588c-.12-.277-.11-.589.02-.858l7.47-15.723-15.72 7.473c-.27.128-.58.136-.86.024a1.046 1.046 0 01-.59-.623l-5.83-16.403-5.83 16.403c-.11.282-.32.508-.6.623-.27.114-.58.106-.85-.024l-15.73-7.473 7.48 15.723c.13.269.13.581.02.858a1.05 1.05 0 01-.62.588l-16.41 5.833 16.41 5.835a1.06 1.06 0 01.6 1.446l-7.48 15.723 15.73-7.475.45-.101zm6.83 21.305c-.45 0-.85-.279-1-.7l-6.43-18.097-17.35 8.246c-.4.191-.88.109-1.2-.208-.31-.314-.4-.794-.2-1.196l8.24-17.348-18.1-6.434a1.056 1.056 0 010-1.99l18.1-6.434-8.24-17.348a1.048 1.048 0 011.4-1.403l17.35 8.245 6.43-18.096a1.055 1.055 0 011.99 0l6.44 18.096 17.34-8.245c.41-.195.88-.11 1.2.205.32.317.4.796.21 1.198l-8.25 17.348 18.1 6.434a1.058 1.058 0 010 1.99l-18.1 6.434 8.25 17.348c.19.402.11.882-.21 1.196a1.05 1.05 0 01-1.2.208l-17.34-8.246-6.44 18.097c-.15.421-.55.7-.99.7z"/><path d="M1165.06 479.382c-.37 0-.73-.192-.92-.535l-9.73-17.253a1.05 1.05 0 01.4-1.438 1.06 1.06 0 011.44.402l9.73 17.253c.28.508.1 1.15-.4 1.435l-.52.136z"/><path d="M1165.06 479.382l-.52-.136a1.046 1.046 0 01-.4-1.435l9.73-17.253a1.06 1.06 0 011.44-.402c.5.288.68.93.4 1.438l-9.73 17.253c-.2.343-.55.535-.92.535zm9.73 84.281c-.37 0-.72-.192-.92-.536l-9.73-17.249a1.05 1.05 0 01.4-1.438 1.059 1.059 0 011.44.402l9.73 17.249c.28.509.1 1.151-.4 1.438l-.52.134z"/><path d="M1155.33 563.663l-.52-.134a1.05 1.05 0 01-.4-1.438l9.73-17.249c.29-.509.93-.687 1.44-.402.5.287.68.929.4 1.438l-9.73 17.249c-.2.344-.56.536-.92.536zm43.24-50.767c-.37 0-.72-.192-.92-.535a1.056 1.056 0 01.4-1.436l17.25-9.731a1.058 1.058 0 011.44.399c.29.509.11 1.151-.4 1.439l-17.25 9.731-.52.133z"/><path d="M1215.82 522.627l-.52-.136-17.25-9.728a1.06 1.06 0 01-.4-1.439 1.06 1.06 0 011.44-.399l17.25 9.729c.51.287.69.929.4 1.438-.19.341-.55.535-.92.535zm-101.53 0c-.36 0-.72-.194-.92-.535-.28-.509-.1-1.151.4-1.438l17.26-9.729c.5-.285 1.15-.107 1.43.399.29.509.11 1.151-.4 1.439l-17.25 9.728-.52.136z"/><path d="M1131.54 512.896l-.51-.133-17.26-9.731a1.07 1.07 0 01-.4-1.439 1.06 1.06 0 011.44-.399l17.25 9.731c.51.285.69.927.4 1.436-.19.343-.55.535-.92.535zm76.3 29.019l-.29-.04-19.08-5.319a1.054 1.054 0 01.57-2.029l19.08 5.318c.56.155.89.735.73 1.297-.13.466-.55.773-1.01.773z"/><path d="M1194.07 555.675c-.46 0-.89-.306-1.02-.772l-5.32-19.08c-.15-.559.18-1.142.74-1.297.56-.159 1.14.171 1.3.733l5.31 19.076c.16.562-.17 1.145-.73 1.3l-.28.04zm-52.71-66.477l-.29-.04-19.08-5.318a1.059 1.059 0 01-.73-1.3c.16-.559.74-.889 1.3-.729l19.08 5.318c.56.154.89.735.73 1.297-.13.469-.55.772-1.01.772z"/><path d="M1141.36 489.198c-.46 0-.88-.303-1.02-.772l-5.31-19.079a1.054 1.054 0 012.03-.567l5.32 19.081c.15.56-.17 1.143-.74 1.297l-.28.04zm-5.32 66.477l-.28-.04a1.051 1.051 0 01-.73-1.3l5.32-19.076a1.05 1.05 0 011.3-.733c.56.155.88.738.73 1.297l-5.32 19.08c-.13.466-.55.772-1.02.772z"/><path d="M1122.28 541.915a1.055 1.055 0 01-.29-2.07l19.08-5.318a1.054 1.054 0 01.57 2.029l-19.08 5.319-.28.04zm66.48-52.717l-.29-.04a1.056 1.056 0 01-.73-1.297l5.32-19.081a1.054 1.054 0 012.03.567l-5.32 19.079c-.13.469-.55.772-1.01.772z"/><path d="M1188.75 489.198c-.46 0-.88-.303-1.02-.772-.15-.562.18-1.143.74-1.297l19.08-5.318c.56-.16 1.14.17 1.3.729.15.562-.17 1.145-.74 1.3l-19.08 5.318-.28.04zm31.1 23.698h-109.58a1.054 1.054 0 110-2.107h109.58c.58 0 1.06.472 1.06 1.052a1.06 1.06 0 01-1.06 1.055z"/><path d="M1165.06 567.691c-.58 0-1.06-.474-1.06-1.055V457.049c0-.584.48-1.055 1.06-1.055.58 0 1.05.471 1.05 1.055v109.587c0 .581-.47 1.055-1.05 1.055z"/><path d="M1203.8 551.643c-.27 0-.54-.104-.74-.309l-77.49-77.491a1.04 1.04 0 010-1.491 1.05 1.05 0 011.49 0l77.49 77.488c.41.413.41 1.081 0 1.494-.21.205-.48.309-.75.309z"/><path d="M1126.31 551.643c-.27 0-.54-.104-.74-.309a1.043 1.043 0 010-1.494l77.49-77.488a1.05 1.05 0 011.49 0c.41.413.41 1.081 0 1.491l-77.49 77.491c-.21.205-.48.309-.75.309z"/></svg>