<svg width="1357" height="611" fill="none" xmlns="http://www.w3.org/2000/svg"><g opacity=".15" fill="#9BC9FF"><path d="M709.158 262.85v-28.447c4.78 4.542 8.13 9.643 8.13 16.374 0 4.734-1.623 10.141-8.13 12.073zm-17.309-69.958c0-4.701 1.513-10.06 7.537-12.111v27.901c-4.45-4.399-7.537-9.344-7.537-15.79zm42.073 56.818c0-15.317-11.489-23.545-22.597-31.498-.73-.523-1.446-1.042-2.167-1.562v-36.336c7.375 1.577 9.105 7.482 9.105 12.578v1.999h15.461v-.927c0-17.926-12.453-23.303-24.566-24.305v-10.732h-9.772v10.75c-11.991 1.088-24.18 6.559-24.18 24.287 0 15.311 11.489 23.539 22.597 31.492.535.382 1.054.761 1.583 1.143v36.584c-7.522-1.589-9.292-7.394-9.292-12.406v-5.215h-15.469v4.148c0 17.85 12.526 23.257 24.761 24.293v8.293h9.772v-8.293c12.235-1.03 24.764-6.434 24.764-24.293zm578.148-92.312v-28.447c4.77 4.542 8.13 9.644 8.13 16.374 0 4.735-1.63 10.142-8.13 12.073zm-17.32-69.958c0-4.701 1.52-10.06 7.55-12.11v27.9c-4.46-4.398-7.55-9.347-7.55-15.79zm42.08 56.815c0-15.316-11.49-23.541-22.6-31.495-.73-.522-1.44-1.042-2.16-1.564V74.859c7.37 1.58 9.1 7.486 9.1 12.58v2h15.46v-.926c0-17.927-12.45-23.303-24.56-24.306V53.476h-9.77v10.746c-12 1.092-24.18 6.56-24.18 24.29 0 15.311 11.48 23.539 22.59 31.493.54.382 1.06.761 1.59 1.14v36.587c-7.53-1.59-9.3-7.394-9.3-12.407v-5.214h-15.47v4.144c0 17.854 12.53 23.261 24.77 24.294v8.295h9.77v-8.292c12.23-1.033 24.76-6.437 24.76-24.297zm-367.332-16.1v-16.997c2.855 2.714 4.857 5.762 4.857 9.784 0 2.827-.972 6.058-4.857 7.213zm-10.343-41.798c0-2.809.904-6.01 4.505-7.235v16.67c-2.662-2.628-4.505-5.584-4.505-9.435zm25.137 33.946c0-9.151-6.865-14.066-13.501-18.819-.437-.312-.862-.621-1.293-.932V78.844c4.405.941 5.438 4.469 5.438 7.513v1.195h9.237V87c0-10.71-7.44-13.923-14.675-14.522v-6.41h-5.838v6.42c-7.165.653-14.448 3.92-14.448 14.512 0 9.148 6.865 14.063 13.501 18.813l.947.685v21.857c-4.496-.95-5.554-4.417-5.554-7.412v-3.115h-9.243v2.476c0 10.667 7.486 13.898 14.797 14.513v4.957h5.838v-4.954c7.308-.618 14.794-3.845 14.794-14.516zM1243.8 569.185v-21.313c3.58 3.401 6.09 7.225 6.09 12.266 0 3.548-1.21 7.598-6.09 9.047zm-12.97-52.414c0-3.521 1.14-7.537 5.65-9.075V528.6c-3.33-3.295-5.65-7-5.65-11.829zm31.52 42.569c0-11.478-8.6-17.64-16.93-23.6-.54-.391-1.08-.779-1.62-1.171v-27.221c5.53 1.183 6.82 5.605 6.82 9.423v1.498h11.58v-.694c0-13.431-9.32-17.459-18.4-18.211v-8.039h-7.32v8.054c-8.98.816-18.12 4.912-18.12 18.196 0 11.471 8.61 17.633 16.93 23.594.4.287.79.571 1.19.855v27.409c-5.64-1.189-6.96-5.539-6.96-9.295v-3.907h-11.59v3.109c0 13.372 9.38 17.425 18.55 18.199v6.213h7.32v-6.21c9.17-.774 18.55-4.824 18.55-18.202zM311.616 317.169v-18.217c3.06 2.909 5.207 6.174 5.207 10.487 0 3.029-1.041 6.492-5.207 7.73zm-11.086-44.8c0-3.011.969-6.444 4.828-7.755v17.866c-2.851-2.815-4.828-5.982-4.828-10.111zm26.944 36.385c0-9.809-7.358-15.075-14.471-20.17-.468-.336-.925-.67-1.387-1v-23.269c4.722 1.008 5.83 4.792 5.83 8.054v1.28h9.899v-.593c0-11.48-7.973-14.922-15.729-15.564v-6.871h-6.258v6.881c-7.68.7-15.486 4.202-15.486 15.554 0 9.806 7.359 15.072 14.472 20.165l1.014.733v23.429c-4.817-1.018-5.952-4.735-5.952-7.944v-3.341H289.5v2.656c0 11.431 8.021 14.895 15.858 15.558v5.309h6.258v-5.309c7.835-.66 15.858-4.123 15.858-15.558zm87.237-194.615c5.071 0 9.913 2.045 13.996 5.912l.752.709.85-.584a462.876 462.876 0 017.277-4.857l1.74-1.146-.923-1.097c-6.398-7.62-14.812-11.817-23.692-11.817-15.273 0-28.233 12.422-32.604 29.505h-10.316v9.329h8.87c-.07 1.103-.134 2.213-.134 3.341 0 1.127.064 2.234.134 3.34h-8.87v9.329h10.316c4.371 17.08 17.331 29.505 32.604 29.505 7.455 0 14.559-2.947 20.546-8.519l1.009-.935-1.009-.935c-2.671-2.476-5.086-4.57-7.387-6.404l-.761-.605-.789.572c-3.555 2.582-7.568 3.946-11.609 3.946-9.243 0-17.227-6.807-20.995-16.625h28.771v-9.329h-30.935a36.383 36.383 0 01-.165-3.34c0-1.131.064-2.244.165-3.341h30.935v-9.329h-28.771c3.768-9.818 11.752-16.625 20.995-16.625zm393.431-96.934c3.683 0 7.201 1.486 10.172 4.298l.544.513.617-.422a358.193 358.193 0 015.291-3.533l1.266-.831-.673-.798c-4.649-5.539-10.765-8.59-17.217-8.59-11.105 0-20.522 9.03-23.701 21.446h-7.498v6.78h6.45a37.5 37.5 0 00-.101 2.43c0 .818.049 1.622.101 2.43h-6.45v6.776h7.498c3.179 12.415 12.596 21.447 23.701 21.447 5.416 0 10.578-2.14 14.931-6.19l.734-.684-.734-.678c-1.941-1.798-3.698-3.323-5.37-4.655l-.554-.44-.571.415c-2.583 1.877-5.502 2.87-8.436 2.87-6.722 0-12.523-4.948-15.265-12.086h20.913v-6.776h-22.484a26.68 26.68 0 01-.119-2.43c0-.822.046-1.632.119-2.43h22.484v-6.78h-20.913c2.742-7.133 8.543-12.082 15.265-12.082zm419.488 258.111c5.21 0 10.18 2.1 14.38 6.077l.77.727.88-.599c2.53-1.736 5.03-3.384 7.47-4.991l1.79-1.177-.95-1.128c-6.57-7.831-15.21-12.141-24.34-12.141-15.69 0-29 12.765-33.49 30.312h-10.6v9.583h9.11c-.07 1.137-.14 2.274-.14 3.432 0 1.159.07 2.299.14 3.436h-9.11v9.579h10.6c4.49 17.548 17.8 30.312 33.49 30.312 7.66 0 14.96-3.026 21.11-8.748l1.04-.966-1.04-.957c-2.74-2.546-5.23-4.698-7.59-6.58l-.78-.621-.81.587c-3.65 2.65-7.78 4.053-11.93 4.053-9.49 0-17.69-6.993-21.57-17.08h29.56v-9.579h-31.78c-.1-1.131-.17-2.271-.17-3.436 0-1.161.07-2.305.17-3.432h31.78v-9.583h-29.56c3.88-10.083 12.08-17.08 21.57-17.08zM591.231 409.467c0 .831-.37 1.537-1.113 2.109-.742.571-1.656.859-2.735.859s-1.993-.288-2.736-.859c-.743-.572-1.112-1.278-1.112-2.109v-18.648c0-.835.369-1.538 1.112-2.109.743-.575 1.657-.862 2.736-.862 1.079 0 1.993.287 2.735.862.743.571 1.113 1.274 1.113 2.109v18.648zm3.815-24.3c-2.048-1.614-4.536-2.424-7.462-2.424-2.925 0-5.422.801-7.494 2.396-2.069 1.599-3.106 3.525-3.106 5.784v18.648c0 2.222 1.037 4.123 3.106 5.703 2.072 1.58 4.569 2.372 7.494 2.372 2.883 0 5.359-.782 7.428-2.347 2.069-1.562 3.105-3.47 3.105-5.728v-18.648c0-2.226-1.024-4.142-3.071-5.756zm-48.01-7.138c-.743-.575-1.116-1.275-1.116-2.109v-18.648c0-.835.373-1.538 1.116-2.113.743-.571 1.653-.858 2.735-.858 1.079 0 1.99.287 2.733.858.743.575 1.116 1.278 1.116 2.113v18.648c0 .834-.373 1.534-1.116 2.109-.743.571-1.654.858-2.733.858-1.082 0-1.992-.287-2.735-.858zm10.395 3.723c2.094-1.596 3.142-3.506 3.142-5.728v-18.649c0-2.222-1.036-4.141-3.105-5.755-2.072-1.614-4.57-2.424-7.495-2.424-2.928 0-5.425.801-7.494 2.396-2.07 1.599-3.106 3.525-3.106 5.783v18.649c0 2.222 1.036 4.132 3.106 5.728 2.069 1.598 4.566 2.399 7.494 2.399 2.879 0 5.367-.801 7.458-2.399zm29.209-32.396l-43.22 69.069h7.495l43.143-69.069h-7.418zm-449.309-17.832c0 .832-.37 1.538-1.113 2.109-.743.572-1.657.859-2.736.859-1.079 0-1.992-.287-2.735-.859-.743-.571-1.113-1.277-1.113-2.109v-18.648c0-.834.37-1.537 1.113-2.109.743-.574 1.656-.862 2.735-.862s1.993.288 2.736.862c.743.572 1.113 1.275 1.113 2.109v18.648zm3.814-24.299c-2.048-1.614-4.536-2.424-7.461-2.424-2.925 0-5.422.801-7.495 2.396-2.069 1.599-3.105 3.524-3.105 5.783v18.648c0 2.222 1.036 4.123 3.105 5.704 2.073 1.58 4.57 2.372 7.495 2.372 2.882 0 5.358-.783 7.428-2.348 2.069-1.562 3.105-3.469 3.105-5.728V312.98c0-2.225-1.024-4.142-3.072-5.755zm-48.01-7.139c-.742-.574-1.115-1.274-1.115-2.109v-18.648c0-.834.373-1.537 1.115-2.112.743-.571 1.654-.859 2.736-.859 1.079 0 1.99.288 2.733.859.742.575 1.115 1.278 1.115 2.112v18.648c0 .835-.373 1.535-1.115 2.109-.743.572-1.654.859-2.733.859-1.082 0-1.993-.287-2.736-.859zm10.396 3.723c2.094-1.595 3.142-3.506 3.142-5.728v-18.648c0-2.222-1.036-4.142-3.106-5.755-2.072-1.614-4.57-2.424-7.494-2.424-2.928 0-5.426.801-7.495 2.396-2.07 1.599-3.105 3.524-3.105 5.783v18.648c0 2.222 1.036 4.133 3.105 5.728 2.07 1.599 4.567 2.399 7.495 2.399 2.88 0 5.367-.8 7.458-2.399zm29.21-32.396l-43.22 69.069h7.495l43.143-69.069h-7.418zM584.68 77.146c0 .74-.33 1.364-.99 1.871-.657.508-1.467.764-2.427.764s-1.77-.257-2.43-.764c-.66-.507-.987-1.13-.987-1.87V60.588c0-.743.327-1.366.987-1.874.66-.51 1.47-.767 2.43-.767.96 0 1.77.257 2.427.767.66.508.99 1.131.99 1.874v16.557zm3.387-21.576c-1.819-1.433-4.028-2.152-6.623-2.152-2.599 0-4.818.71-6.658 2.128-1.837 1.421-2.757 3.13-2.757 5.135v16.557c0 1.975.92 3.659 2.757 5.065 1.84 1.403 4.059 2.103 6.658 2.103 2.555 0 4.755-.694 6.592-2.082 1.837-1.384 2.758-3.08 2.758-5.086V60.681c0-1.975-.908-3.677-2.727-5.11zm-42.624-6.338c-.661-.508-.991-1.131-.991-1.87V30.803c0-.743.33-1.366.991-1.874.66-.51 1.47-.764 2.426-.764.96 0 1.77.254 2.43.764.658.508.988 1.131.988 1.874V47.36c0 .74-.33 1.364-.988 1.87-.66.511-1.47.765-2.43.765-.956 0-1.766-.254-2.426-.764zm9.23 3.31c1.859-1.418 2.788-3.118 2.788-5.09V30.897c0-1.975-.92-3.678-2.757-5.111-1.837-1.434-4.056-2.152-6.654-2.152s-4.814.71-6.654 2.128c-1.837 1.42-2.757 3.13-2.757 5.134v16.558c0 1.971.92 3.67 2.757 5.09 1.84 1.417 4.056 2.126 6.654 2.126 2.558 0 4.768-.709 6.623-2.127zm25.931-28.769L542.229 85.1h6.654l38.311-61.327h-6.59zm-24.446 580.185c0 .636-.284 1.177-.853 1.614-.568.437-1.268.657-2.093.657-.829 0-1.529-.22-2.097-.657-.569-.437-.853-.978-.853-1.614v-14.28c0-.642.284-1.18.853-1.617.568-.44 1.268-.661 2.097-.661.825 0 1.525.221 2.093.661.569.437.853.975.853 1.617v14.28zm2.919-18.612c-1.568-1.234-3.472-1.855-5.713-1.855-2.24 0-4.154.614-5.74 1.837-1.583 1.223-2.378 2.699-2.378 4.429v14.28c0 1.703.795 3.158 2.378 4.365 1.586 1.213 3.5 1.819 5.74 1.819 2.207 0 4.102-.599 5.689-1.798 1.583-1.195 2.377-2.659 2.377-4.386v-14.28c0-1.705-.785-3.173-2.353-4.411zm-36.759-5.463c-.569-.44-.853-.975-.853-1.613v-14.281c0-.638.284-1.176.853-1.617.568-.44 1.268-.66 2.094-.66.828 0 1.525.22 2.093.66.572.441.853.979.853 1.617v14.281c0 .638-.281 1.173-.853 1.613-.568.441-1.265.661-2.093.661-.826 0-1.526-.22-2.094-.661zm7.962 2.852c1.605-1.222 2.406-2.683 2.406-4.386v-14.28c0-1.703-.795-3.173-2.378-4.408-1.587-1.238-3.5-1.855-5.741-1.855-2.24 0-4.153.611-5.74 1.834-1.586 1.226-2.378 2.699-2.378 4.429v14.28c0 1.703.792 3.164 2.378 4.386 1.587 1.226 3.5 1.837 5.74 1.837 2.207 0 4.112-.611 5.713-1.837zm22.371-24.81l-33.096 52.893h5.737l33.041-52.893h-5.682zm570.509-88.088c0 .639-.28 1.177-.85 1.614-.57.44-1.27.66-2.1.66-.82 0-1.52-.22-2.09-.66-.57-.437-.86-.975-.86-1.614v-14.28c0-.642.29-1.177.86-1.617.57-.44 1.27-.66 2.09-.66.83 0 1.53.22 2.1.66.57.44.85.975.85 1.617v14.28zm2.92-18.608c-1.57-1.238-3.47-1.858-5.71-1.858-2.24 0-4.16.614-5.74 1.837-1.59 1.225-2.38 2.698-2.38 4.428v14.281c0 1.702.79 3.157 2.38 4.368 1.58 1.21 3.5 1.815 5.74 1.815 2.2 0 4.1-.599 5.69-1.797 1.58-1.195 2.37-2.656 2.37-4.386v-14.281c0-1.702-.78-3.172-2.35-4.407zm-36.76-5.465c-.56-.44-.85-.978-.85-1.616v-14.281c0-.639.29-1.176.85-1.617.58-.437 1.27-.657 2.1-.657.83 0 1.52.22 2.09.657.57.441.86.978.86 1.617v14.281c0 .638-.29 1.176-.86 1.616-.57.438-1.26.658-2.09.658-.83 0-1.52-.22-2.1-.658zm7.97 2.852c1.6-1.222 2.4-2.686 2.4-4.389v-14.28c0-1.703-.79-3.173-2.38-4.408-1.58-1.238-3.5-1.855-5.74-1.855s-4.15.611-5.74 1.834c-1.58 1.226-2.37 2.699-2.37 4.429v14.28c0 1.703.79 3.167 2.37 4.389 1.59 1.223 3.5 1.834 5.74 1.834 2.21 0 4.11-.611 5.72-1.834zm22.36-24.814l-33.1 52.894h5.74l33.04-52.894h-5.68zm-288.936 41.862c0 1.069-.477 1.977-1.434 2.711-.954.736-2.127 1.106-3.515 1.106-1.391 0-2.564-.37-3.518-1.106-.957-.734-1.434-1.642-1.434-2.711v-23.979c0-1.073.477-1.978 1.434-2.711.954-.74 2.127-1.11 3.518-1.11 1.388 0 2.561.37 3.515 1.11.957.733 1.434 1.638 1.434 2.711v23.979zm4.902-31.248c-2.634-2.075-5.832-3.114-9.591-3.114-3.763 0-6.978 1.03-9.637 3.081-2.663 2.057-3.995 4.533-3.995 7.436v23.979c0 2.858 1.332 5.3 3.995 7.333 2.659 2.035 5.874 3.05 9.637 3.05 3.701 0 6.886-1.005 9.548-3.017 2.663-2.008 3.992-4.462 3.992-7.366v-23.979c0-2.861-1.314-5.324-3.949-7.403zm-61.732-9.176c-.954-.74-1.431-1.642-1.431-2.711V398.55c0-1.076.477-1.978 1.431-2.717.956-.734 2.127-1.104 3.518-1.104 1.387 0 2.561.37 3.515 1.104.956.739 1.433 1.641 1.433 2.717v23.979c0 1.069-.477 1.971-1.433 2.711-.954.736-2.128 1.103-3.515 1.103-1.391 0-2.562-.367-3.518-1.103zm13.369 4.789c2.693-2.054 4.038-4.511 4.038-7.369v-23.979c0-2.858-1.333-5.324-3.992-7.4-2.662-2.075-5.878-3.114-9.637-3.114-3.763 0-6.976 1.027-9.638 3.081-2.662 2.054-3.995 4.533-3.995 7.433v23.979c0 2.858 1.333 5.315 3.995 7.369 2.662 2.054 5.875 3.081 9.638 3.081 3.701 0 6.901-1.027 9.591-3.081zm37.564-41.658l-55.575 88.815h9.638l55.476-88.815h-9.539zm507.243-9.337c-7.53 0-13.64-6.11-13.64-13.644 0-7.538 6.11-13.645 13.64-13.645 7.54 0 13.65 6.107 13.65 13.645 0 7.534-6.11 13.644-13.65 13.644zm20.04-16.132l4.9-4.423-2.42-5.835-6.59.336-3.52-3.518.34-6.593-5.84-2.418-4.42 4.9h-4.97l-4.43-4.9-5.83 2.418.33 6.593-3.51 3.518-6.6-.336-2.42 5.835 4.91 4.423v4.976l-4.91 4.423 2.42 5.835 6.6-.337 3.51 3.519-.33 6.589 5.83 2.418 4.43-4.899h4.97l4.42 4.899 5.84-2.418-.34-6.589 3.52-3.519 6.59.337 2.42-5.835-4.9-4.423v-4.976zM887.138 584.536c-7.538 0-13.645-6.11-13.645-13.645 0-7.537 6.107-13.644 13.645-13.644 7.534 0 13.644 6.107 13.644 13.644 0 7.535-6.11 13.645-13.644 13.645zm20.035-16.133l4.9-4.423-2.415-5.835-6.593.337-3.518-3.518.337-6.593-5.835-2.418-4.423 4.903h-4.976l-4.423-4.903-5.835 2.418.336 6.593-3.518 3.518-6.593-.337-2.418 5.835 4.903 4.423v4.976l-4.903 4.423 2.418 5.835 6.593-.336 3.518 3.518-.336 6.593 5.835 2.415 4.423-4.9h4.976l4.423 4.9 5.835-2.415-.337-6.593 3.518-3.518 6.593.336 2.415-5.835-4.9-4.423v-4.976zm85.756-280.561c-8.97 4.686-20.041 1.211-24.726-7.757-4.685-8.971-1.212-20.042 7.759-24.728 8.97-4.685 20.04-1.21 24.728 7.758 4.68 8.971 1.21 20.042-7.761 24.727zm13.821-31.659l3.08-8.314-6.5-5.444-7.641 4.502-6.375-2.002-3.698-8.057-8.448.752-2.22 8.583-5.921 3.093-8.312-3.081-5.442 6.505 4.499 7.638-2 6.373-8.057 3.698.751 8.449 8.583 2.219 3.093 5.92-3.082 8.314 6.505 5.444 7.638-4.503 6.374 2.002 3.699 8.058 8.447-.752 2.22-8.583 5.921-3.093 8.316 3.081 5.44-6.505-4.5-7.638 2-6.373 8.06-3.698-.75-8.449-8.59-2.219-3.09-5.92zm4.16 215.895c-8.97 4.686-20.04 1.211-24.726-7.757-4.685-8.971-1.21-20.042 7.758-24.728s20.038-1.21 24.728 7.758c4.69 8.971 1.21 20.042-7.76 24.727zm13.82-31.66l3.08-8.313-6.5-5.444-7.64 4.502-6.37-2.002-3.7-8.057-8.451.752-2.219 8.583-5.92 3.093-8.314-3.081-5.441 6.504 4.499 7.639-2.002 6.373-8.057 3.698.752 8.448 8.583 2.219 3.093 5.924-3.081 8.311 6.505 5.444 7.638-4.503 6.373 2.002 3.702 8.057 8.44-.752 2.22-8.582 5.93-3.094 8.31 3.081 5.44-6.504-4.5-7.638 2-6.373 8.06-3.699-.75-8.448-8.59-2.219-3.09-5.921zM71.047 564.691c-15.654 8.176-34.974 2.115-43.15-13.54-8.176-15.653-2.114-34.973 13.54-43.15 15.654-8.176 34.974-2.115 43.15 13.538 8.176 15.655 2.114 34.976-13.54 43.152zm38.732-48.437l-6.46-12.37-14.447 2.03-8.432-7.055-.548-14.577-13.316-4.178-8.78 11.652-10.95.972-10.696-9.919-12.37 6.462 2.031 14.445-7.055 8.43-14.578.55L0 526.01l11.65 8.782.974 10.949-9.92 10.697 6.46 12.37 14.448-2.032 8.432 7.057.548 14.577 13.316 4.178 8.78-11.651 10.95-.975 10.696 9.921 12.37-6.461-2.031-14.446 7.056-8.433 14.577-.547 4.178-13.317-11.651-8.779-.974-10.951 9.92-10.695zM232.813 146.64l-16.587-4.445v2.531H65.242l30.863-31.479c.604.29 1.27.464 1.984.464 2.433 0 4.406-1.886 4.586-4.273l28.024-6.752c.846 1.076 2.146 1.782 3.621 1.782a4.621 4.621 0 004.622-4.621 4.58 4.58 0 00-.279-1.528l27.749-26.74a4.593 4.593 0 001.695.334 4.615 4.615 0 004.197-2.711h31.45a4.615 4.615 0 004.197 2.71 4.624 4.624 0 000-9.245 4.618 4.618 0 00-4.198 2.71h-31.448a4.618 4.618 0 00-4.198-2.71 4.624 4.624 0 00-4.622 4.621c0 .538.11 1.049.28 1.529l-27.749 26.738a4.602 4.602 0 00-1.696-.33 4.615 4.615 0 00-4.533 3.748l-28.43 6.849a4.622 4.622 0 00-7.89 3.268c0 .419.075.819.18 1.204L67.93 136.522l17.441-34.6.18.019a4.622 4.622 0 004.621-4.622l-.012-.12 31.64-15.41a4.57 4.57 0 002.924 1.07 4.622 4.622 0 004.253-6.428l24.668-26.91c.447.143.918.241 1.413.241a4.617 4.617 0 004.5-3.598l44.689-9.506a4.607 4.607 0 003.703 1.88 4.622 4.622 0 004.622-4.621 4.622 4.622 0 00-4.622-4.625 4.622 4.622 0 00-4.509 3.628l-44.664 9.5a4.603 4.603 0 00-3.719-1.901 4.623 4.623 0 00-4.25 6.437L126.143 73.86a4.641 4.641 0 00-1.418-.245 4.622 4.622 0 00-4.621 4.622l.011.12-31.638 15.41a4.586 4.586 0 00-2.924-1.07 4.622 4.622 0 00-4.623 4.622c0 1.091.396 2.085 1.031 2.876l-19.359 38.403V43.56h2.532L60.69 26.975 56.244 43.56h2.532v104.993h157.45v2.534l16.587-4.447zm957.787-43.628l-14.27-3.827v2.179h-129.97l26.56-27.1c.52.251 1.1.401 1.71.401 2.1 0 3.79-1.623 3.95-3.68l24.12-5.81a3.965 3.965 0 003.12 1.53c2.2 0 3.98-1.778 3.98-3.976 0-.464-.1-.901-.24-1.314l23.88-23.016c.46.177.95.284 1.47.284 1.6 0 2.98-.96 3.61-2.332h27.07a3.981 3.981 0 003.61 2.332 3.979 3.979 0 100-7.959c-1.6 0-2.98.96-3.61 2.332h-27.07a3.981 3.981 0 00-3.61-2.332c-2.2 0-3.98 1.782-3.98 3.98 0 .464.09.901.24 1.314l-23.89 23.019c-.45-.18-.94-.287-1.46-.287a3.97 3.97 0 00-3.9 3.224l-24.48 5.9a3.953 3.953 0 00-2.81-1.168 3.985 3.985 0 00-3.98 3.98c0 .36.07.702.16 1.036L1048.67 94.3l15.01-29.787.16.019c2.2 0 3.98-1.782 3.98-3.98l-.01-.1 27.23-13.266c.69.565 1.56.92 2.52.92a3.978 3.978 0 003.66-5.536l21.24-23.165c.38.125.79.21 1.21.21 1.9 0 3.47-1.326 3.88-3.099l38.47-8.182a3.936 3.936 0 003.18 1.617 3.979 3.979 0 100-7.956c-1.9 0-3.48 1.338-3.88 3.12l-38.44 8.18a3.984 3.984 0 00-3.21-1.636 3.974 3.974 0 00-3.97 3.977c0 .556.11 1.082.31 1.562l-21.23 23.162c-.39-.125-.79-.21-1.22-.21a3.983 3.983 0 00-3.98 3.98l.01.097-27.23 13.268a3.948 3.948 0 00-2.52-.923c-2.2 0-3.98 1.782-3.98 3.98 0 .941.34 1.794.89 2.476l-16.67 33.056V14.277h2.18L1042.44 0l-3.83 14.277h2.18v90.379h135.54v2.179l14.27-3.823zM386.196 555.939l-10.897-2.919v1.663h-99.188l20.274-20.681c.398.189.838.306 1.305.306a3.026 3.026 0 003.014-2.809l18.41-4.436a3.007 3.007 0 002.378 1.171 3.035 3.035 0 003.035-3.035c0-.355-.07-.688-.183-1.003l18.229-17.566c.345.138.721.217 1.115.217a3.03 3.03 0 002.757-1.779h20.66a3.028 3.028 0 002.757 1.779 3.035 3.035 0 003.035-3.035 3.035 3.035 0 00-3.035-3.038 3.033 3.033 0 00-2.757 1.782h-20.66a3.035 3.035 0 00-2.757-1.782 3.038 3.038 0 00-3.038 3.038c0 .352.074.688.184 1.003l-18.23 17.566a2.98 2.98 0 00-1.112-.217 3.03 3.03 0 00-2.977 2.46l-18.679 4.5a3.033 3.033 0 00-5.181 2.148c0 .275.046.535.116.789l-16.893 17.233 11.458-22.732.118.012a3.037 3.037 0 003.036-3.035l-.008-.079 20.785-10.124a2.999 2.999 0 001.922.704 3.035 3.035 0 002.794-4.225l16.203-17.676c.296.095.605.159.929.159a3.038 3.038 0 002.959-2.366l29.355-6.244a3.022 3.022 0 002.433 1.235 3.035 3.035 0 003.035-3.035 3.036 3.036 0 00-3.035-3.039 3.035 3.035 0 00-2.962 2.384l-29.34 6.242a3.022 3.022 0 00-2.445-1.25 3.037 3.037 0 00-2.791 4.227l-16.206 17.676a3 3 0 00-.929-.162 3.035 3.035 0 00-3.035 3.038l.006.077-20.785 10.123a3.015 3.015 0 00-1.921-.703 3.037 3.037 0 00-3.036 3.038c0 .719.26 1.37.677 1.889l-12.717 25.226v-62.43h1.663l-2.919-10.897-2.921 10.897h1.663v68.971h103.435v1.666l10.897-2.922z"/><path d="M386.196 555.939l-10.897-2.919v1.663h-99.188l20.274-20.681c.398.189.838.306 1.305.306a3.026 3.026 0 003.014-2.809l18.41-4.436a3.007 3.007 0 002.378 1.171 3.035 3.035 0 003.035-3.035c0-.355-.07-.688-.183-1.003l18.229-17.566c.345.138.721.217 1.115.217a3.03 3.03 0 002.757-1.779h20.66a3.028 3.028 0 002.757 1.779 3.035 3.035 0 003.035-3.035 3.035 3.035 0 00-3.035-3.038 3.033 3.033 0 00-2.757 1.782h-20.66a3.035 3.035 0 00-2.757-1.782 3.038 3.038 0 00-3.038 3.038c0 .352.074.688.184 1.003l-18.23 17.566a2.98 2.98 0 00-1.112-.217 3.03 3.03 0 00-2.977 2.46l-18.679 4.5a3.033 3.033 0 00-5.181 2.148c0 .275.046.535.116.789l-16.893 17.233 11.458-22.732.118.012a3.037 3.037 0 003.036-3.035l-.008-.079 20.785-10.124a2.999 2.999 0 001.922.704 3.035 3.035 0 002.794-4.225l16.203-17.676c.296.095.605.159.929.159a3.038 3.038 0 002.959-2.366l29.355-6.244a3.022 3.022 0 002.433 1.235 3.035 3.035 0 003.035-3.035 3.036 3.036 0 00-3.035-3.039 3.035 3.035 0 00-2.962 2.384l-29.34 6.242a3.022 3.022 0 00-2.445-1.25 3.037 3.037 0 00-2.791 4.227l-16.206 17.676a3 3 0 00-.929-.162 3.035 3.035 0 00-3.035 3.038l.006.077-20.785 10.123a3.015 3.015 0 00-1.921-.703 3.037 3.037 0 00-3.036 3.038c0 .719.26 1.37.677 1.889l-12.717 25.226v-62.43h1.663l-2.919-10.897-2.921 10.897h1.663v68.971h103.435v1.666l10.897-2.922z"/></g></svg>