<svg width="239" height="34" fill="none" xmlns="http://www.w3.org/2000/svg"><path d="M10.74 26.318c-3.28 0-5.789-.974-7.525-2.923C1.478 21.426.609 18.744.609 15.348c0-2.239.454-4.188 1.36-5.848.927-1.679 2.191-2.971 3.793-3.878 1.602-.907 3.416-1.36 5.442-1.36.849 0 1.67.057 2.46.173a76.09 76.09 0 012.808.405c.81.135 1.255.203 1.332.203l-.319 5.963h-2.663l-.897-4.14c-.212-.212-.58-.386-1.1-.52-.521-.136-1.187-.203-1.997-.203-1.64 0-2.963.762-3.966 2.286C5.878 9.935 5.386 12.125 5.386 15c0 2.78.472 5.047 1.418 6.803.946 1.756 2.325 2.634 4.14 2.634.868 0 1.533-.077 1.997-.232a3.453 3.453 0 001.215-.723L15.43 20.5l2.432.232-.58 4.486c-.405.039-.81.116-1.215.232a22.37 22.37 0 01-.724.174c-.772.212-1.495.376-2.17.492-.657.135-1.467.202-2.432.202zm33.13-.839c-.231 3.338-.414 5.413-.55 6.224h-2.2a101.03 101.03 0 00-.463-3.156c-.231-1.466-.405-2.315-.52-2.547H29.628c-.116.25-.338 1.139-.666 2.663-.328 1.525-.53 2.538-.608 3.04h-2.46l.231-7.613h1.679c.83-.348 1.505-1.486 2.026-3.416.54-1.95.81-4.844.81-8.684l-2.72-.377V9.906h16.007v1.707l-2.518.377v12.157h2.547l-.087 1.332zM32.813 13.495c0 2.412-.184 4.603-.55 6.57-.367 1.95-.801 3.31-1.303 4.082h6.34V11.903h-4.487v1.592zm21.313-3.59v1.709l-2.113.376v4.718h6.831V11.99l-2.113-.377V9.906h8.221v1.707l-1.997.377v12.013l2.026.26V26h-8.308v-1.737l2.171-.26v-5.384h-6.831v5.384l2.142.26V26h-8.279v-1.737l2.056-.26V11.99l-2.056-.377V9.906h8.25zm20.728 16.413c-2.547 0-4.448-.743-5.703-2.229-1.235-1.505-1.852-3.55-1.852-6.136 0-1.737.318-3.242.955-4.516.656-1.273 1.573-2.248 2.75-2.923 1.177-.676 2.538-1.014 4.081-1.014 1.93 0 3.416.512 4.458 1.535 1.042 1.003 1.583 2.44 1.621 4.313 0 1.273-.077 2.219-.231 2.836h-9.408c.077 1.756.492 3.127 1.245 4.11.752.966 1.823 1.448 3.213 1.448.752 0 1.524-.125 2.316-.376.81-.251 1.447-.55 1.91-.898l.724 1.593c-.521.56-1.37 1.08-2.548 1.563a9.436 9.436 0 01-3.531.694zm2.258-9.87c.038-.54.058-.956.058-1.245 0-2.567-.86-3.85-2.577-3.85-.945 0-1.678.376-2.2 1.129-.52.753-.81 2.074-.868 3.966h5.587zm14.612-6.542l3.01 8.655.84 2.692.753-2.692 2.865-8.655h8.106v1.707l-2.693.377 1.969 12.013 2.113.26V26h-8.51v-1.737l2.2-.26-.956-8.366-.521-4.081-1.244 4.023-3.271 9.379h-3.04l-3.502-9.437-1.332-3.965-.405 3.994-1.1 8.482 2.46.231V26H82.23v-1.737l2.2-.26 1.94-12.013-2.722-.377V9.906h8.076zm38.827-6.108c-.077.54-.251.946-.521 1.216-.251.27-.637.415-1.158.434a26.752 26.752 0 00-4.313.492c-1.312.27-2.277.646-2.895 1.129-1.061.849-1.669 2.509-1.823 4.979.559-.656 1.322-1.235 2.286-1.737a6.796 6.796 0 013.127-.753c2.238 0 3.859.647 4.863 1.94 1.003 1.273 1.505 3.213 1.505 5.818 0 2.779-.656 4.96-1.968 6.542-1.293 1.582-3.136 2.374-5.529 2.374-2.49 0-4.41-.927-5.761-2.78-1.331-1.871-1.997-4.66-1.997-8.365 0-2.45.386-4.477 1.158-6.079.791-1.62 1.775-2.914 2.953-3.879.771-.617 1.717-1.119 2.836-1.505 1.12-.405 2.2-.656 3.242-.752.618-.039 1.071-.116 1.361-.232.289-.135.492-.367.608-.695L128.93.76h2.084l-.463 3.039zm-6.368 7.96c-.849 0-1.583.203-2.2.608-.618.386-1.042.791-1.274 1.216 0 2.72.106 4.873.319 6.455.212 1.563.559 2.711 1.042 3.445.482.714 1.148 1.07 1.997 1.07 1.235 0 2.094-.617 2.576-1.852.483-1.235.724-3.059.724-5.47 0-1.429-.116-2.539-.348-3.33-.212-.79-.55-1.34-1.013-1.65-.444-.328-1.051-.492-1.823-.492zm25.616 5.674c0 1.62-.337 3.107-1.013 4.458a7.764 7.764 0 01-2.923 3.242c-1.274.79-2.799 1.186-4.574 1.186-.386 0-.791-.038-1.216-.115a4.645 4.645 0 01-.984-.232l.087 2.403v2.634l2.692.347v1.65h-8.597v-1.65l1.881-.347V12.656l-1.881-.522v-1.997l4.776-.608h.058l.724.58v1.62c.482-.598 1.138-1.119 1.968-1.563a5.679 5.679 0 012.721-.666c1.833 0 3.338.656 4.516 1.969 1.177 1.293 1.765 3.28 1.765 5.963zm-7.786-5.529c-.579 0-1.129.125-1.65.376-.521.251-.917.531-1.187.84v10.739c.135.193.405.357.81.492.425.135.888.203 1.39.203 1.254 0 2.248-.54 2.981-1.621.753-1.1 1.129-2.818 1.129-5.153 0-1.968-.318-3.435-.955-4.4-.637-.984-1.476-1.476-2.518-1.476zm10.153 6.079c0-1.814.357-3.358 1.071-4.632.734-1.273 1.708-2.229 2.924-2.865a8.217 8.217 0 013.966-.985c2.431 0 4.303.753 5.615 2.258 1.332 1.486 1.997 3.512 1.997 6.079 0 1.833-.366 3.396-1.099 4.69-.714 1.273-1.679 2.228-2.895 2.865-1.197.618-2.519.926-3.966.926-2.412 0-4.284-.743-5.615-2.229-1.332-1.505-1.998-3.54-1.998-6.107zm7.845 6.455c2.18 0 3.271-2.104 3.271-6.31 0-2.2-.261-3.87-.782-5.008-.521-1.158-1.37-1.737-2.547-1.737-2.239 0-3.358 2.103-3.358 6.31 0 2.2.27 3.88.811 5.037.559 1.139 1.428 1.708 2.605 1.708zm21.649-7.41c.772.328 1.447.878 2.026 1.65.579.752 1.207 1.727 1.882 2.923.405.733.743 1.293 1.013 1.679.27.367.531.598.782.695l1.244.26V26h-4.197c-.54 0-1.023-.3-1.447-.897-.425-.618-.936-1.544-1.534-2.78-.599-1.273-1.129-2.238-1.592-2.894-.464-.656-.994-.984-1.593-.984h-1.823v5.558l2.373.26V26h-8.481v-1.737l2.026-.26V11.99l-1.968-.377V9.906h8.018v1.707l-1.968.377v4.747h2.837l3.213-4.747-2.142-.377V9.906h7.468v1.707l-2.229.377-3.908 5.036zm15.482 9.291c-2.547 0-4.448-.743-5.702-2.229-1.235-1.505-1.853-3.55-1.853-6.136 0-1.737.319-3.242.955-4.516.657-1.273 1.573-2.248 2.75-2.923 1.178-.676 2.538-1.014 4.082-1.014 1.93 0 3.416.512 4.458 1.535 1.042 1.003 1.582 2.44 1.621 4.313 0 1.273-.078 2.219-.232 2.836h-9.408c.078 1.756.493 3.127 1.245 4.11.753.966 1.824 1.448 3.213 1.448a7.64 7.64 0 002.316-.376c.81-.251 1.447-.55 1.91-.898l.724 1.593c-.521.56-1.37 1.08-2.547 1.563a9.436 9.436 0 01-3.532.694zm2.258-9.87c.039-.54.058-.956.058-1.245 0-2.567-.859-3.85-2.576-3.85-.946 0-1.679.376-2.2 1.129-.521.753-.811 2.074-.869 3.966h5.587zm22.37.984c0 1.62-.337 3.107-1.013 4.458a7.77 7.77 0 01-2.923 3.242c-1.274.79-2.799 1.186-4.574 1.186-.386 0-.791-.038-1.216-.115a4.645 4.645 0 01-.984-.232l.087 2.403v2.634l2.692.347v1.65h-8.597v-1.65l1.881-.347V12.656l-1.881-.522v-1.997l4.776-.608h.058l.723.58v1.62c.483-.598 1.139-1.119 1.969-1.563a5.679 5.679 0 012.721-.666c1.833 0 3.338.656 4.516 1.969 1.177 1.293 1.765 3.28 1.765 5.963zm-7.786-5.529c-.579 0-1.129.125-1.65.376-.521.251-.917.531-1.187.84v10.739c.135.193.405.357.81.492.425.135.888.203 1.39.203 1.254 0 2.248-.54 2.981-1.621.753-1.1 1.129-2.818 1.129-5.153 0-1.968-.318-3.435-.955-4.4-.637-.984-1.476-1.476-2.518-1.476zm9.835 9.581c0-1.756.878-3.078 2.634-3.965 1.775-.888 4.062-1.342 6.86-1.36v-.667c0-.79-.087-1.408-.26-1.852a1.67 1.67 0 00-.898-.984c-.424-.232-1.051-.348-1.881-.348-.946 0-1.795.126-2.548.377a17.24 17.24 0 00-2.344.926l-.898-1.853c.29-.25.772-.55 1.448-.897.695-.348 1.515-.647 2.46-.897.946-.27 1.92-.406 2.924-.406 1.486 0 2.644.193 3.473.58a3.493 3.493 0 011.824 1.852c.367.849.55 1.987.55 3.415v8.858h1.563v1.621c-.386.097-.936.193-1.65.29-.714.096-1.341.144-1.881.144-.656 0-1.1-.096-1.332-.29-.212-.192-.318-.588-.318-1.186v-.781c-.521.579-1.197 1.1-2.027 1.563-.829.463-1.765.694-2.807.694a5.544 5.544 0 01-2.461-.55 4.537 4.537 0 01-1.766-1.65c-.443-.733-.665-1.61-.665-2.634zm6.744 2.432c.406 0 .869-.116 1.39-.348.521-.25.974-.55 1.36-.897v-4.747c-1.737 0-3.039.299-3.908.897-.849.58-1.273 1.332-1.273 2.258 0 .926.212 1.63.637 2.113.443.483 1.042.724 1.794.724z" fill="#fff"/></svg>