<svg width="42" height="42" fill="none" xmlns="http://www.w3.org/2000/svg"><g clip-path="url(#clip0)"><path d="M32.842 38.411c4.784-4.783 4.784-12.54 0-17.325L13.038 1.282A4.376 4.376 0 006.85 7.47l19.804 19.804a3.5 3.5 0 11-4.95 4.95l-.62-.619a4.375 4.375 0 10-6.186 6.189l.617.617c4.785 4.785 12.543 4.785 17.327 0z" fill="#ED5564"/><path d="M17.883 6.126H5.935c.213.488.518.945.916 1.344l6.082 6.081H25.31l-7.426-7.425zm9.573 22.385h8.915a12.195 12.195 0 00-3.525-7.424v-.001H20.47l6.188 6.188c.363.363.629.786.798 1.237zm-5.749 3.713l-.618-.619a4.375 4.375 0 10-6.187 6.189l.618.617a12.202 12.202 0 007.425 3.526v-8.914a3.497 3.497 0 01-1.238-.799z" fill="#E6E9ED"/></g><defs><clipPath id="clip0"><path transform="rotate(90 42 0)" fill="#fff" d="M42 0h42v42H42z"/></clipPath></defs></svg>