<svg width="246" height="115" fill="none" xmlns="http://www.w3.org/2000/svg"><path d="M245.812 25.813s-6.327-6.451-25.989-2.494c-8.884 1.787-16.412-4.863-22.982-11.512-7.969-8.068-14.528-16.136-20.384-9.135-10.682 12.771-14.178 5.36-27.509 5.207 0 0-8.892-10.477-23.041-5.67-14.151 4.805-8.584 15.105-8.584 15.105s-24.038 2.612-33.018-6.203C75.325 2.298 73.781-.008 62.165 9.38c-6.929 5.6-13.886 4.275-21.593 2.948-5.21-.896-10.764-1.792-16.883-.548C8.52 14.863 0 18.3 0 18.3s20.83-5.005 32.58 3.956c11.752 8.962 23.072 5.118 37.947 7.575 14.876 2.459 4.722 5.253 14.876 2.459 3.769-1.037 6.554 3.465 9.021 7.97 4.175 7.625 7.432 15.25 13-4.02 4.643-16.074 4.631 3.67 4.512 23.414-.107 17.908-.301 35.817 2.812 26.994 6.544-18.547-.291-57.26 11.696-52.731 11.987 4.526 5.696 39.206 10.407 13.335 4.709-25.872.542 21.148 6.137 30.895 5.596 9.745-1.107 52.184 3.923 30.776 5.028-21.408 4.432-52.008 14.442-62.59 10.011-10.584 5.495-19.718 15.7-13.06 5.46 3.56 10.914 1.235 16.646-1.087 4.982-2.021 10.176-4.041 15.765-2.194 6.488 2.146 15.299.203 22.717-1.74 6.322-1.657 11.632-3.313 13.631-2.44z" fill="#D0ECF5"/></svg>