<svg width="264" height="103" fill="none" xmlns="http://www.w3.org/2000/svg"><path d="M0 10.623s4.225-3.38 10.774 8.03c3.86 6.72 7.645 5.447 10.968 4.175 2.317-.886 4.41-1.773 6.145.05 4.226 4.436 6.55 6.76 5.705 11.618-.845 4.86.422 15.635 1.901 10.564 1.48-5.07-.634-20.07 3.803-21.55 4.437-1.478 5.07-.633 9.93 5.494 2.81 3.543 6.184 1.081 9.307-1.381 2.278-1.795 4.422-3.59 6.115-3.056 1.668.526 3.19.07 4.686-.388 2.107-.645 4.165-1.29 6.512.81 4.014 3.592 2.112 28.311 5.492 23.451 3.38-4.858 1.902-20.493 4.226-17.746 2.324 2.746 5.282 8.662 7.183-2.535 1.901-11.197 5.07-6.55 9.93-2.536 4.859 4.014 8.662 3.381 11.62-1.056 2.958-4.436 9.93 3.802 12.464 20.916 2.536 17.112 3.38 2.747 4.648-5.07 1.268-7.818 3.803-13.522 7.818-9.085 4.014 4.436 2.324 10.352 5.281 12.676 2.959 2.324 2.536 21.76 4.648 17.958 2.113-3.803.635-23.662 3.592-25.565 2.957-1.9 1.689-10.14 7.605-8.66 5.916 1.478 6.972 14.576 10.775 11.197 1.985-1.766 3.396 2.576 4.861 6.916 1.34 3.973 2.728 7.945 4.647 7.238 4.013-1.479.211 45.845 5.281 48.804 5.071 2.957.846-49.014 4.648-52.817 3.803-3.804 10.14-6.339 11.408-14.579 1.268-8.239 10.987-23.028 13.311-12.676 2.324 10.352 8.873 10.775 8.661 19.648-.21 8.873 1.691 17.113 3.17 10.775 1.478-6.337-.846-17.324 5.493-21.127 6.337-3.802 4.013-13.31 11.197-14.154 7.183-.846 16.902-6.973 19.436-5.282 0 0-3.59-5.705-13.521-5.705-9.929 0-16.901-10.352-31.689-3.803-7.578 3.356-20.258 2.108-32.043.862-11.219-1.188-21.627-2.375-26.057.406-4.418 2.773-6.088 1.102-10.016-.572-4.148-1.768-10.815-3.535-25.9-.061-14.191 3.266-21.475 1.55-27.598-.166-6.547-1.836-11.767-3.67-22.684.587-11.376 4.437-20.486 3.3-28.417 2.163-6.799-.976-12.732-1.95-18.485.584-5.532 2.438-10.73 1.754-15.117 1.072C6.218 6.19 1.997 5.335 0 10.623z" fill="#D0ECF5"/></svg>