<svg width="22" height="22" fill="none" xmlns="http://www.w3.org/2000/svg"><path fill-rule="evenodd" clip-rule="evenodd" d="M11 2a9 9 0 100 18 9 9 0 000-18zM0 11C0 4.925 4.925 0 11 0s11 4.925 11 11-4.925 11-11 11S0 17.075 0 11z" fill="url(#paint0_linear)"/><path fill-rule="evenodd" clip-rule="evenodd" d="M11 4a1 1 0 011 1v5.382l3.447 1.724a1 1 0 11-.894 1.788l-4-2A1 1 0 0110 11V5a1 1 0 011-1z" fill="url(#paint1_linear)"/><defs><linearGradient id="paint0_linear" x1="11" y1="0" x2="11" y2="22" gradientUnits="userSpaceOnUse"><stop stop-color="#00FF0A"/><stop offset="0" stop-color="#00FF75"/><stop offset="1" stop-color="#00E0FF"/></linearGradient><linearGradient id="paint1_linear" x1="11" y1="0" x2="11" y2="22" gradientUnits="userSpaceOnUse"><stop stop-color="#00FF0A"/><stop offset="0" stop-color="#00FF75"/><stop offset="1" stop-color="#00E0FF"/></linearGradient></defs></svg>