<svg width="360" height="377" fill="none" xmlns="http://www.w3.org/2000/svg"><path d="M251.471 377h53.294l23.8-23.8v-83.855h-77.094V377z" fill="#8BB5F3"/><path d="M304.764 377l23.8-23.8h-23.8V377z" fill="#0099C4"/><path d="M261.062 284.99h58.027v-3.088h-58.027v3.088zm0 12.783h58.027v-3.077h-58.027v3.077zm0 12.788h58.027v-3.072h-58.027v3.072zm0 12.796h58.027v-3.084h-58.027v3.084zm0 12.78h58.027v-3.068h-58.027v3.068zm0 12.791h29.011v-3.072h-29.011v3.072z" fill="#57667F"/><path d="M141.346 376.744h77.1V269.093h-77.1v107.651z" fill="#8BB5F3"/><path d="M149.086 368.133h61.804v-92.057h-61.804v92.057z" fill="#fff"/><path d="M195.854 323.23c-1.485 0-13.083 6.713-14.473 6.506-1.396-.201-17.45-31.779-19.116-31.526-1.666.244-13.179 22.65-13.179 22.65v47.273h61.804v-11.519s-13.545-33.384-15.036-33.384z" fill="#0099C4"/><path d="M188.666 285.038c-6.791 0-12.293 5.5-12.293 12.286 0 6.791 5.502 12.287 12.293 12.287 6.786 0 12.288-5.496 12.288-12.287 0-6.786-5.502-12.286-12.288-12.286z" fill="#ED4313"/><path d="M31.219 376.744h77.1V269.093h-77.1v107.651z" fill="#8BB5F3"/><path d="M61.495 334.779c-8.924 0-16.155 4.833-16.155 10.769 0 5.958 7.231 10.77 16.155 10.77 8.913 0 16.15-4.812 16.15-10.77 0-5.936-7.237-10.769-16.15-10.769z" fill="#57667F"/><path d="M73.582 345.549h4.064v-54.848h-4.064v54.848z" fill="#57667F"/><path d="M77.646 290.698c-3.247-1.83-4.064-5.227-4.064-5.227v5.227s0 1.826 2.032 6.102c2.032 4.26 6.292 4.26 10.155 6.291 3.857 2.023 5.894 9.296 5.894 9.296s2.027-8.891-.785-13.455c-2.812-4.561-9.985-6.408-13.232-8.234z" fill="#57667F"/><path d="M276.169 69.41C246.437 69.41 250.188 0 179.29 0c-37.192 0-65.704 23.385-79.912 44.454-6.6 9.782-19.96 14.176-35.35 14.005C34.257 58.13 0 82.478 0 115.442c0 43.245 37.123 68.296 71.752 68.296h235.714c40.2 0 55.215-37.36 51.856-59.575-5.937-39.165-47.442-54.752-83.153-54.752z" fill="#8BB5F3"/><path d="M117.594 169.943c-2.308 0-3.836-2.456-3.836-8.196 0-5.724 1.528-8.058 3.836-8.058 2.265 0 3.798 2.334 3.798 8.058 0 5.74-1.533 8.196-3.798 8.196zm-65.179 0c-2.297 0-3.825-2.456-3.825-8.196 0-5.724 1.528-8.058 3.825-8.058 2.276 0 3.81 2.334 3.81 8.058 0 5.74-1.534 8.196-3.81 8.196zm98.078-34.511c-2.297 0-3.83-2.457-3.83-8.181 0-5.735 1.533-8.065 3.83-8.065 2.271 0 3.799 2.33 3.799 8.065 0 5.724-1.528 8.181-3.799 8.181zm-98.078 0c-2.297 0-3.825-2.457-3.825-8.181 0-1.242.069-2.32.207-3.252a51.873 51.873 0 007.046-.966c.249 1.129.381 2.524.381 4.218 0 5.724-1.533 8.181-3.809 8.181z" fill="#72A4EC"/><path d="M179.889 183.738H71.752C37.122 183.738 0 158.687 0 115.442c0-32.747 33.801-56.983 63.428-56.983h.6c.29.007.577.007.864.007 15.025 0 28.013-4.41 34.486-14.012C113.586 23.385 142.098-.001 179.29-.001l.599.015v15.433a1.785 1.785 0 00-.148.028v1.618h.148v1.66c-8.244.276-16.007 1.486-23.19 3.449-.35-5.57-2.632-8.537-6.208-8.537-3.926 0-6.281 3.517-6.281 10.08 0 .998.053 1.926.159 2.786-12.484 5.444-22.581 13.322-29.573 22.375-1.226.748-2.165 2.051-2.759 3.881-5.327 8.162-8.208 17.08-8.181 25.914.026 7.656 5.035 14.734 12.993 17.534v4.267h-4.473v2.089h11.031v-2.089h-4.043v-3.544c1.623.36 3.348.551 5.151.551 4.961 0 10.558-1.455 16.517-4.887A31.53 31.53 0 01144.273 91c-.042.556-.063 1.14-.063 1.75 0 6.553 2.355 10.208 6.281 10.208 3.895 0 6.256-3.655 6.256-10.209 0-2.163-.255-4-.743-5.486 6.934-1.606 15.179-2.677 23.864-2.816-.042.01-.085.017-.127.027v1.623h.148v14.406h-1.066v2.089h1.066v16.505c-1.379 1.677-2.138 4.425-2.138 8.155 0 3.731.759 6.516 2.138 8.224v17.98c-.047.005-.101.017-.148.021v1.635h.148v14.404h-1.066v2.075h1.066v12.148zm-29.398-32.065c-3.926 0-6.281 3.523-6.281 10.074 0 6.564 2.355 10.214 6.281 10.214 3.895 0 6.256-3.65 6.256-10.214 0-6.551-2.361-10.074-6.256-10.074zm-32.899 0c-3.926 0-6.293 3.523-6.293 10.074 0 6.564 2.367 10.214 6.293 10.214 3.883 0 6.244-3.65 6.244-10.214 0-6.551-2.361-10.074-6.244-10.074zm-65.179 0c-3.92 0-6.276 3.523-6.276 10.074 0 6.564 2.355 10.214 6.276 10.214 3.9 0 6.256-3.65 6.256-10.214 0-6.551-2.356-10.074-6.256-10.074zm26.098 17.842v2.075h11.036v-2.075h-4.043v-17.482h-1.931c-1.077.647-2.361 1.147-4.144 1.443v1.635h3.56v14.404h-4.478zm71.98-52.344c-3.926 0-6.281 3.516-6.281 10.08 0 6.557 2.355 10.209 6.281 10.209 3.895 0 6.256-3.652 6.256-10.209 0-6.564-2.361-10.08-6.256-10.08zm-104.147 6.928a22.19 22.19 0 00-.207 3.152c0 6.557 2.355 10.209 6.276 10.209 3.9 0 6.256-3.652 6.256-10.209 0-1.819-.18-3.405-.526-4.748 13.12-3.322 23.212-11.121 26.745-19.661 3.194-.68 5.088-4.22 5.088-10.094 0-6.56-2.36-10.09-6.255-10.09-1.427 0-2.647.468-3.623 1.38-4.934-4.01-12.405-6.288-20.851-6.288-3.89 0-7.985.483-12.14 1.496-11.12 2.728-20.118 8.67-24.86 15.583V83.031H20.31c-1.067.64-2.356 1.134-4.133 1.442v1.623h3.554v13.471c-.117.307-.228.622-.329.935H15.26v2.089h3.607c-.419 2.176-.392 4.367.138 6.515 2.271 9.279 13.195 14.999 26.586 14.999.25 0 .504 0 .754-.006zm-25.875-6.928c-3.921 0-6.282 3.516-6.282 10.08 0 6.557 2.361 10.209 6.282 10.209 3.889 0 6.25-3.652 6.25-10.209 0-6.564-2.361-10.08-6.25-10.08zm91.907 17.838v2.078h11.031v-2.078h-4.043v-17.482h-1.931c-1.072.647-2.361 1.146-4.144 1.447v1.628h3.56v14.407h-4.473zm-33.865 0v2.078h11.036v-2.078h-4.043v-17.482h-1.931c-1.077.647-2.361 1.146-4.144 1.447v1.628h3.56v14.407h-4.478zm71.98 34.935c-2.297 0-3.83-2.456-3.83-8.197 0-5.724 1.533-8.057 3.83-8.057 2.271 0 3.799 2.333 3.799 8.057 0 5.741-1.528 8.197-3.799 8.197zM20.469 135.433c-2.303 0-3.83-2.458-3.83-8.182 0-5.734 1.527-8.064 3.83-8.064 2.265 0 3.804 2.33 3.804 8.064 0 5.724-1.539 8.182-3.804 8.182zm130.022-34.502c-2.297 0-3.83-2.452-3.83-8.183 0-1.034.048-1.956.143-2.772a69.785 69.785 0 016.924-2.156c.36 1.232.562 2.86.562 4.928 0 5.73-1.528 8.183-3.799 8.183zm-64.669-.96c.568-2.41.594-4.845.016-7.223-.674-2.742-2.1-5.177-4.128-7.247.568-.555 1.247-.81 2.011-.81 2.266 0 3.804 2.329 3.804 8.057 0 3.7-.642 6.033-1.703 7.223zM146.72 25.55a27.369 27.369 0 01-.058-1.803c0-5.735 1.533-8.065 3.83-8.065 2.154 0 3.64 2.102 3.788 7.215a90.722 90.722 0 00-7.56 2.653z" fill="#72A4EC"/><path d="M144.374 26.531a22.826 22.826 0 01-.159-2.785c0-6.564 2.355-10.08 6.282-10.08 3.576 0 5.857 2.965 6.207 8.536-.812.223-1.623.451-2.419.694-.149-5.113-1.634-7.215-3.788-7.215-2.298 0-3.831 2.33-3.831 8.065 0 .642.021 1.241.058 1.803-.79.32-1.575.649-2.35.982z" fill="#597496"/><path d="M185.817 18.752a45.796 45.796 0 00-2.292-.06h-.217v-1.596h-3.412V15.45c1.709-.313 2.956-.795 3.99-1.425h1.931v4.727z" fill="#6D809A"/><path d="M179.897 17.098h-.149v-1.619c.048-.01.101-.02.149-.027v1.646zm-67.858 35.695c.594-1.83 1.533-3.133 2.759-3.882a61.127 61.127 0 00-2.759 3.882zm-93.164 49.801h-3.607v-2.089h4.143a17.414 17.414 0 00-.536 2.089zm.865-3.024V86.1h-3.555v-1.623c1.778-.308 3.067-.802 4.134-1.442h1.936v11.798c-1.056 1.538-1.905 3.126-2.515 4.738zm65.156 3.274a18.57 18.57 0 00.934-2.87c1.061-1.19 1.703-3.524 1.703-7.224 0-5.728-1.538-8.057-3.804-8.057-.764 0-1.443.255-2.01.81a20.535 20.535 0 00-1.613-1.463c.976-.912 2.196-1.38 3.623-1.38 3.894 0 6.255 3.53 6.255 10.09 0 5.874-1.894 9.414-5.088 10.094zm38.517-.25h-11.03v-2.089h4.472v-4.267c.812.288 1.65.526 2.515.723v3.544h4.043v2.089zm27.084.367c-3.927 0-6.282-3.656-6.282-10.209 0-.609.021-1.194.064-1.75.795-.35 1.639-.689 2.53-1.023a24.161 24.161 0 00-.143 2.773c0 5.73 1.533 8.182 3.831 8.182 2.27 0 3.798-2.451 3.798-8.182 0-2.068-.201-3.697-.562-4.928.743-.19 1.501-.382 2.276-.558.488 1.486.743 3.322.743 5.486 0 6.553-2.361 10.209-6.255 10.209z" fill="#597496"/><path d="M189.866 102.594h-9.97v-2.089h3.412V86.099h-3.412v-1.65c.621-.006 1.242-.01 1.868-.01 1.342 0 2.695.02 4.053.068v15.998h4.049v2.089z" fill="#6D809A"/><path d="M179.898 102.594h-1.066v-2.089h1.066v2.089zm0-16.495h-.148v-1.623c.042-.01.085-.016.127-.027h.021v1.65zM20.475 137.465c-3.92 0-6.282-3.652-6.282-10.209 0-6.564 2.361-10.081 6.282-10.081 3.89 0 6.25 3.517 6.25 10.081 0 6.557-2.36 10.209-6.25 10.209zm0-18.273c-2.302 0-3.83 2.329-3.83 8.064 0 5.724 1.528 8.182 3.83 8.182 2.266 0 3.804-2.458 3.804-8.182 0-5.735-1.538-8.064-3.804-8.064zm69.08 17.902H78.52v-2.079h4.478v-14.406h-3.56v-1.629c1.783-.3 3.067-.8 4.144-1.447h1.931v17.482h4.043v2.079zm33.858 0h-11.03v-2.079h4.472v-14.406h-3.56v-1.629c1.783-.3 3.072-.8 4.144-1.447h1.931v17.482h4.043v2.079zm-70.994.371c-3.92 0-6.276-3.652-6.276-10.209 0-1.14.069-2.197.206-3.153.812-.01 1.624-.041 2.452-.099-.138.932-.207 2.01-.207 3.252 0 5.724 1.528 8.182 3.825 8.182 2.276 0 3.81-2.458 3.81-8.182 0-1.694-.133-3.088-.383-4.218a53.448 53.448 0 002.303-.53c.345 1.343.525 2.928.525 4.748 0 6.557-2.355 10.209-6.255 10.209zm98.078 0c-3.927 0-6.282-3.652-6.282-10.209 0-6.564 2.355-10.081 6.282-10.081 3.894 0 6.255 3.517 6.255 10.081 0 6.557-2.361 10.209-6.255 10.209zm0-18.273c-2.298 0-3.831 2.329-3.831 8.064 0 5.724 1.533 8.182 3.831 8.182 2.27 0 3.798-2.458 3.798-8.182 0-5.735-1.528-8.064-3.798-8.064z" fill="#597496"/><path d="M184.04 137.465c-1.692 0-3.098-.68-4.144-1.985V119.1c1.046-1.272 2.452-1.925 4.144-1.925 3.894 0 6.25 3.517 6.25 10.081 0 6.557-2.356 10.209-6.25 10.209zm0-18.273c-2.303 0-3.836 2.329-3.836 8.064 0 5.724 1.533 8.182 3.836 8.182 2.266 0 3.804-2.458 3.804-8.182 0-5.735-1.538-8.064-3.804-8.064z" fill="#6D809A"/><path d="M179.896 135.477c-1.379-1.708-2.138-4.494-2.138-8.224 0-3.731.759-6.479 2.138-8.156v16.38zm-90.341 36.115H78.52v-2.075h4.478v-14.404h-3.56v-1.635c1.783-.296 3.067-.796 4.144-1.442h1.931v17.481h4.043v2.075zm28.048.373c-3.926 0-6.292-3.65-6.292-10.213 0-6.552 2.366-10.074 6.292-10.074 3.884 0 6.245 3.522 6.245 10.074 0 6.563-2.361 10.213-6.245 10.213zm0-18.271c-2.308 0-3.836 2.334-3.836 8.058 0 5.74 1.528 8.196 3.836 8.196 2.265 0 3.799-2.456 3.799-8.196 0-5.724-1.534-8.058-3.799-8.058zm-65.184 18.271c-3.92 0-6.276-3.65-6.276-10.213 0-6.552 2.355-10.074 6.276-10.074 3.9 0 6.255 3.522 6.255 10.074 0 6.563-2.355 10.213-6.255 10.213zm0-18.271c-2.297 0-3.825 2.334-3.825 8.058 0 5.74 1.528 8.196 3.825 8.196 2.276 0 3.81-2.456 3.81-8.196 0-5.724-1.534-8.058-3.81-8.058zm98.078 18.271c-3.927 0-6.282-3.65-6.282-10.213 0-6.552 2.355-10.074 6.282-10.074 3.894 0 6.255 3.522 6.255 10.074 0 6.563-2.361 10.213-6.255 10.213zm0-18.271c-2.298 0-3.831 2.334-3.831 8.058 0 5.74 1.533 8.196 3.831 8.196 2.27 0 3.798-2.456 3.798-8.196 0-5.724-1.528-8.058-3.798-8.058z" fill="#597496"/><path d="M189.866 171.592h-9.97v-2.075h3.412v-14.404h-3.412v-1.655c1.709-.303 2.956-.79 3.99-1.422h1.931v17.481h4.049v2.075z" fill="#6D809A"/><path d="M179.898 171.592h-1.066v-2.075h1.066v2.075zm0-16.479h-.148v-1.635c.048-.004.101-.016.148-.02v1.655z" fill="#597496"/><path d="M219.483 33.59h-2.393a63.488 63.488 0 00-4.165-3.83V17.1h-3.56v-1.618c1.778-.313 3.072-.807 4.139-1.453h1.936V31.51h4.043v2.079zM245.6 68.453c-3.921 0-6.282-3.645-6.282-10.202s2.361-10.087 6.282-10.087c3.894 0 6.25 3.53 6.25 10.087s-2.356 10.202-6.25 10.202zm0-18.266c-2.297 0-3.825 2.327-3.825 8.064 0 5.724 1.528 8.18 3.825 8.18 2.271 0 3.804-2.456 3.804-8.18 0-5.737-1.533-8.064-3.804-8.064zm-26.118 52.407h-11.041v-2.089h4.484V89.108c.843.28 1.681.578 2.514.891v10.506h4.043v2.089zm63.133-14.68c-.838-.068-1.671-.133-2.499-.201-.647-2.095-1.783-3.013-3.21-3.013-1.31 0-2.372.758-3.045 2.482-.801-.074-1.592-.153-2.382-.238 1.018-2.808 2.896-4.277 5.427-4.277 2.791 0 4.796 1.81 5.709 5.247zm29.942 4.762a69.263 69.263 0 00-2.515-.748v-5.826h-3.56v-1.623c1.778-.308 3.067-.802 4.139-1.442h1.936v9.639zm-98.9 44.789c-3.926 0-6.282-3.652-6.282-10.209 0-6.564 2.356-10.081 6.282-10.081 3.894 0 6.25 3.517 6.25 10.081 0 6.557-2.356 10.209-6.25 10.209zm0-18.273c-2.303 0-3.836 2.329-3.836 8.064 0 5.724 1.533 8.182 3.836 8.182 2.265 0 3.793-2.458 3.793-8.182 0-5.735-1.528-8.064-3.793-8.064zm31.943 18.273c-3.921 0-6.282-3.652-6.282-10.209 0-6.564 2.361-10.081 6.282-10.081 1.104 0 2.085.282 2.918.833.685.823 1.369 1.633 2.048 2.419.833 1.666 1.284 3.954 1.284 6.829 0 6.557-2.356 10.209-6.25 10.209zm0-18.273c-2.297 0-3.825 2.329-3.825 8.064 0 5.724 1.528 8.182 3.825 8.182 2.271 0 3.804-2.458 3.804-8.182 0-5.735-1.533-8.064-3.804-8.064zm98.069 18.273c-1.262 0-2.366-.384-3.278-1.115.27-.792.514-1.613.726-2.456.653 1.055 1.528 1.544 2.552 1.544 2.271 0 3.804-2.458 3.804-8.182 0-5.735-1.533-8.064-3.804-8.064-.949 0-1.766.402-2.403 1.278a27.165 27.165 0 00-.663-2.37c.87-.616 1.899-.925 3.066-.925 3.9 0 6.256 3.517 6.256 10.081 0 6.557-2.356 10.209-6.256 10.209zm-124.187 34.127h-11.041v-2.075h4.484v-14.404h-3.56v-1.635c1.777-.296 3.071-.796 4.138-1.442h1.936v17.481h4.043v2.075zm63.251 0h-11.03v-2.075h4.473v-14.404h-3.555v-1.635c1.777-.296 3.061-.796 4.138-1.442h1.932v17.481h4.042v2.075zm28.04.373c-3.926 0-6.287-3.65-6.287-10.213 0-3.405.637-5.996 1.804-7.693.987.064 1.958.095 2.902.101-1.39.928-2.249 3.31-2.249 7.592 0 5.74 1.533 8.196 3.83 8.196 2.266 0 3.799-2.456 3.799-8.196 0-4.404-.902-6.796-2.355-7.673a47.04 47.04 0 002.854-.242c1.263 1.691 1.958 4.354 1.958 7.915 0 6.563-2.361 10.213-6.256 10.213zm-65.173 0c-3.921 0-6.282-3.65-6.282-10.213 0-6.552 2.361-10.074 6.282-10.074 3.894 0 6.25 3.522 6.25 10.074 0 6.563-2.356 10.213-6.25 10.213zm0-18.271c-2.297 0-3.825 2.334-3.825 8.058 0 5.74 1.528 8.196 3.825 8.196 2.271 0 3.804-2.456 3.804-8.196 0-5.724-1.533-8.058-3.804-8.058z" fill="#6D809A"/><path d="M309.47 154.16h-.282a2.79 2.79 0 011.581-.466c.526 0 1.008.127 1.444.386-.892.054-1.804.08-2.743.08zm-3.184-.101c-14.617-.933-34.077-8.52-55.724-33.632-.53-1.065-1.22-1.872-2.048-2.419a198.379 198.379 0 01-7.268-9.326c-6.531-8.9-15.646-14.889-25.812-18.681v-6.966h-1.936c-1.067.64-2.361 1.134-4.139 1.443V86.1h3.561v3.01c-8.691-2.898-18.034-4.288-27.106-4.601v-1.474h-1.932c-1.034.626-2.281 1.11-3.989 1.416V66.476c1.045 1.3 2.451 1.98 4.143 1.98 3.894 0 6.25-3.646 6.25-10.203 0-6.557-2.356-10.087-6.25-10.087-1.692 0-3.098.659-4.143 1.931v-16.51h9.969v-2.08h-4.048V18.753c10.95.525 19.736 4.823 27.106 11.003v1.751h-4.484v2.08h8.648c18.411 18.415 27.61 47.782 42.121 51.363 3.772.933 7.91 1.528 12.272 1.99-.557 1.544-.855 3.486-.855 5.813 0 6.553 2.361 10.209 6.282 10.209 3.894 0 6.261-3.656 6.261-10.21 0-1.86-.191-3.478-.552-4.843 9.104.728 18.617 1.566 27.424 4.017v8.58h-4.483v2.089h11.041v-2.089h-4.043v-7.832c7.407 2.377 14.224 6.037 19.753 11.931 4.276 4.558 6.881 9.122 8.297 13.495-2.048 1.436-3.215 4.544-3.215 9.156 0 4.441 1.083 7.55 3.003 9.093-2.011 5.847-5.438 10.05-7.502 11.424-1.825 1.214-8.181 4.945-17.821 6.064-1.061-1.428-2.52-2.159-4.298-2.159-1.888 0-3.411.81-4.483 2.381zm-.732-19.046v2.079h11.041v-2.079h-4.043v-17.482h-1.936c-1.072.647-2.361 1.147-4.139 1.447v1.629h3.56v14.406h-4.483zm-33.855 0v2.079h11.031v-2.079h-4.043v-17.482h-1.931c-1.077.647-2.361 1.147-4.139 1.447v1.629h3.555v14.406h-4.473zm-26.103-52.35c-3.921 0-6.281 3.529-6.281 10.09 0 6.553 2.36 10.209 6.281 10.209 3.894 0 6.25-3.656 6.25-10.21 0-6.56-2.356-10.09-6.25-10.09zm-31.944-34.497c-3.926 0-6.282 3.53-6.282 10.087s2.356 10.202 6.282 10.202c3.894 0 6.25-3.645 6.25-10.202s-2.356-10.087-6.25-10.087zm127.465 85.728c-.806-1.306-1.273-3.472-1.273-6.638 0-3.358.525-5.55 1.422-6.786 1.135 4.877.854 9.449-.149 13.424zm-64.213-32.959c-2.292 0-3.825-2.452-3.825-8.182 0-2.456.281-4.286.78-5.575 2.048.19 4.138.36 6.255.53.382 1.246.594 2.913.594 5.045 0 5.73-1.533 8.182-3.804 8.182zm-31.308 0c-2.297 0-3.825-2.452-3.825-8.182 0-5.728 1.528-8.058 3.825-8.058 2.271 0 3.804 2.33 3.804 8.058 0 5.73-1.533 8.182-3.804 8.182zm-31.944-34.502c-2.303 0-3.836-2.456-3.836-8.18 0-5.737 1.533-8.064 3.836-8.064 2.265 0 3.793 2.327 3.793 8.064 0 5.724-1.528 8.18-3.793 8.18zm-29.616 0c-2.302 0-3.836-2.456-3.836-8.18 0-5.737 1.534-8.064 3.836-8.064 2.266 0 3.804 2.327 3.804 8.064 0 5.724-1.538 8.18-3.804 8.18zm-.732-34.926h-3.411v-12.75c1.124-.037 2.265-.058 3.411-.064v12.814z" fill="#99C7F9"/><path d="M124.521 97.512c-1.804 0-3.528-.19-5.151-.552V83.034h-1.932c-1.071.64-2.361 1.133-4.143 1.442v1.623h3.56v10.138c-7.959-2.8-12.967-9.877-12.993-17.533-.027-8.835 2.854-17.753 8.181-25.914-.483 1.482-.738 3.305-.738 5.46 0 6.558 2.366 10.203 6.293 10.203 3.883 0 6.244-3.645 6.244-10.202s-2.361-10.087-6.244-10.087c-1.051 0-1.985.25-2.796.744 6.992-9.053 17.089-16.93 29.573-22.374.594 4.796 2.79 7.417 6.122 7.417 3.894 0 6.255-3.64 6.255-10.203 0-.534-.016-1.05-.047-1.544 7.183-1.963 14.945-3.173 23.19-3.448v12.75h-1.066v2.078h1.066v16.512c-1.379 1.683-2.138 4.43-2.138 8.155 0 3.728.759 6.513 2.138 8.223V84.45h-.021c-8.685.139-16.93 1.21-23.864 2.816-.982-3.023-2.903-4.605-5.513-4.605-3.56 0-5.831 2.904-6.218 8.342a31.572 31.572 0 00-3.242 1.623c-5.958 3.432-11.555 4.887-16.516 4.887zm20.761-31.51v2.091h11.041v-2.091h-4.049V48.535h-1.925c-1.077.642-2.367 1.131-4.139 1.445v1.612h3.55v14.41h-4.478zm1.528 23.976c.435-3.72 1.804-5.284 3.687-5.284 1.449 0 2.595.949 3.236 3.129a69.899 69.899 0 00-6.923 2.155zm-29.212-23.547c-2.308 0-3.836-2.456-3.836-8.18 0-5.737 1.528-8.064 3.836-8.064 2.265 0 3.798 2.327 3.798 8.064 0 5.724-1.533 8.18-3.798 8.18zm32.899-34.497c-2.037 0-3.475-1.935-3.772-6.383a90.685 90.685 0 017.56-2.652c.006.277.011.557.011.85 0 5.73-1.528 8.185-3.799 8.185z" fill="#82B9F5"/><path d="M150.49 33.945c-3.332 0-5.529-2.621-6.123-7.417.775-.333 1.56-.663 2.351-.982.297 4.447 1.734 6.383 3.772 6.383 2.271 0 3.799-2.456 3.799-8.186 0-.292-.006-.572-.011-.85.796-.243 1.607-.47 2.419-.694.032.493.048 1.009.048 1.544 0 6.563-2.361 10.202-6.255 10.202z" fill="#6B91C4"/><path d="M189.862 33.58h-9.969v-2.079h3.411V18.687h.218c.774 0 1.538.023 2.292.06v12.754h4.048v2.08z" fill="#7E9CC6"/><path d="M178.828 33.58h1.065v-2.079h-1.065v2.08zm-61.235 34.873c-3.926 0-6.292-3.645-6.292-10.202 0-2.156.254-3.98.737-5.461a61.559 61.559 0 012.759-3.882c.812-.493 1.746-.744 2.796-.744 3.884 0 6.245 3.53 6.245 10.087s-2.361 10.202-6.245 10.202zm0-18.266c-2.308 0-3.836 2.327-3.836 8.064 0 5.724 1.528 8.18 3.836 8.18 2.266 0 3.799-2.456 3.799-8.18 0-5.737-1.533-8.064-3.799-8.064zm38.725 17.909h-11.041v-2.092h4.478v-14.41h-3.549v-1.612c1.772-.313 3.061-.802 4.138-1.445h1.926v17.467h4.048v2.092z" fill="#6B91C4"/><path d="M184.036 68.453c-1.692 0-3.098-.68-4.143-1.979V50.095c1.045-1.272 2.451-1.931 4.143-1.931 3.894 0 6.25 3.53 6.25 10.087s-2.356 10.202-6.25 10.202zm0-18.266c-2.302 0-3.836 2.327-3.836 8.064 0 5.724 1.534 8.18 3.836 8.18 2.266 0 3.804-2.456 3.804-8.18 0-5.737-1.538-8.064-3.804-8.064z" fill="#7E9CC6"/><path d="M179.894 66.47c-1.379-1.71-2.138-4.495-2.138-8.223 0-3.724.759-6.472 2.138-8.155v16.379zm-60.53 30.49a22.312 22.312 0 01-2.515-.722v-10.14h-3.56v-1.621c1.783-.31 3.072-.803 4.144-1.443h1.931V96.96zm24.911-5.962c.388-5.438 2.658-8.341 6.218-8.341 2.611 0 4.531 1.58 5.513 4.604-.775.177-1.533.368-2.276.558-.642-2.18-1.788-3.13-3.237-3.13-1.883 0-3.252 1.565-3.687 5.286-.891.333-1.735.673-2.531 1.023z" fill="#6B91C4"/><path d="M185.814 84.51a115.359 115.359 0 00-4.054-.069c-.626 0-1.247.005-1.867.011 1.708-.307 2.955-.79 3.989-1.416h1.932v1.474zm31.273-50.93h-8.648v-2.079h4.484V29.75a63.446 63.446 0 014.164 3.83zm-3.44 34.873c-3.926 0-6.282-3.645-6.282-10.202s2.356-10.087 6.282-10.087c3.894 0 6.25 3.53 6.25 10.087s-2.356 10.202-6.25 10.202zm0-18.266c-2.303 0-3.836 2.327-3.836 8.064 0 5.724 1.533 8.18 3.836 8.18 2.265 0 3.793-2.456 3.793-8.18 0-5.737-1.528-8.064-3.793-8.064zm1.783 39.809a68.114 68.114 0 00-2.514-.891v-3.01h-3.561v-1.622c1.778-.309 3.072-.802 4.139-1.443h1.936v6.966zm61.473 12.963c-3.921 0-6.282-3.656-6.282-10.209 0-2.327.297-4.27.854-5.813.791.085 1.581.164 2.382.238-.498 1.29-.779 3.12-.779 5.575 0 5.73 1.533 8.182 3.825 8.182 2.271 0 3.804-2.451 3.804-8.182 0-2.132-.212-3.799-.594-5.044.827.068 1.66.132 2.499.2.36 1.365.551 2.983.551 4.844 0 6.553-2.366 10.209-6.26 10.209zm39.693-.363h-11.041v-2.089h4.483v-8.58c.843.234 1.682.483 2.515.748v7.832h4.043v2.089zm-70.998.363c-3.921 0-6.282-3.656-6.282-10.209 0-6.561 2.361-10.09 6.282-10.09 3.894 0 6.25 3.529 6.25 10.09 0 6.553-2.356 10.209-6.25 10.209zm0-18.266c-2.297 0-3.825 2.329-3.825 8.057 0 5.73 1.528 8.182 3.825 8.182 2.271 0 3.804-2.451 3.804-8.182 0-5.728-1.533-8.057-3.804-8.057zm37.133 52.393h-11.03v-2.079h4.473v-14.406h-3.555v-1.629c1.777-.3 3.061-.8 4.138-1.446h1.932v17.481h4.042v2.079zm33.865 0h-11.041v-2.079h4.483v-14.406h-3.56v-1.629c1.777-.3 3.066-.8 4.138-1.446h1.937v17.481h4.043v2.079zm-66.036-16.662a166.528 166.528 0 01-2.048-2.418c.827.547 1.517 1.353 2.048 2.418zm89.832 15.924c-1.921-1.544-3.003-4.653-3.003-9.094 0-4.612 1.167-7.72 3.215-9.156.26.796.483 1.585.663 2.37-.897 1.236-1.422 3.428-1.422 6.786 0 3.166.467 5.332 1.273 6.638a31.209 31.209 0 01-.726 2.456zm-31.205 17.812a49.776 49.776 0 01-2.902-.101c1.072-1.571 2.595-2.381 4.483-2.381 1.778 0 3.237.731 4.298 2.159-.918.106-1.873.191-2.855.243a2.768 2.768 0 00-1.443-.386 2.79 2.79 0 00-1.581.466z" fill="#7E9CC6"/><path d="M48.799 123.998c.488-3.38 1.814-4.813 3.618-4.813 1.602 0 2.839 1.157 3.427 3.847a51.873 51.873 0 01-7.045.966z" fill="#82B9F5"/><path d="M45.596 124.107c-13.391 0-24.315-5.719-26.586-14.998-.53-2.149-.557-4.34-.138-6.516h7.422v-2.089h-4.043v-5.672c4.744-6.914 13.742-12.856 24.862-15.583 4.154-1.014 8.25-1.496 12.14-1.496 8.446 0 15.916 2.277 20.85 6.287-1.708 1.592-2.663 4.537-2.663 8.71 0 6.554 2.366 10.21 6.287 10.21a5.66 5.66 0 001.167-.116c-3.534 8.54-13.625 16.339-26.745 19.661-.902-3.496-2.913-5.332-5.73-5.332-3.242 0-5.412 2.398-6.07 6.928-.25.006-.504.006-.753.006zm6.823-41.447c-3.921 0-6.277 3.53-6.277 10.09 0 6.554 2.356 10.21 6.277 10.21 3.9 0 6.255-3.656 6.255-10.21 0-6.56-2.356-10.09-6.255-10.09zm31.308 18.273c-2.298 0-3.83-2.452-3.83-8.182 0-3.82.678-6.133 1.819-7.248 2.027 2.07 3.454 4.506 4.128 7.248.578 2.377.551 4.812-.016 7.223-.584.65-1.295.959-2.101.959zm-31.308 0c-2.298 0-3.825-2.452-3.825-8.182 0-5.729 1.527-8.058 3.825-8.058 2.276 0 3.81 2.33 3.81 8.058 0 5.73-1.534 8.182-3.81 8.182zm-32.682-.429h-.33c.102-.313.213-.628.33-.935v.935z" fill="#82B9F5"/><path d="M26.292 102.596h-7.423c.133-.701.313-1.395.536-2.089h.329v-.935c.61-1.612 1.459-3.2 2.515-4.738v5.673h4.043v2.089zm57.433.363c-3.921 0-6.287-3.656-6.287-10.209 0-4.174.954-7.119 2.663-8.71.573.466 1.109.955 1.613 1.463-1.141 1.115-1.82 3.428-1.82 7.247 0 5.73 1.533 8.182 3.83 8.182.807 0 1.518-.309 2.102-.959a18.549 18.549 0 01-.934 2.87 5.586 5.586 0 01-1.167.116zm-31.308 0c-3.92 0-6.276-3.656-6.276-10.209 0-6.561 2.355-10.09 6.276-10.09 3.9 0 6.255 3.529 6.255 10.09 0 6.553-2.355 10.209-6.255 10.209zm0-18.266c-2.297 0-3.825 2.329-3.825 8.057 0 5.73 1.528 8.182 3.825 8.182 2.276 0 3.81-2.451 3.81-8.182 0-5.728-1.534-8.057-3.81-8.057zm-6.073 39.405c.658-4.531 2.828-6.928 6.07-6.928 2.816 0 4.827 1.835 5.73 5.332a53.549 53.549 0 01-2.303.53c-.59-2.69-1.825-3.846-3.428-3.846-1.804 0-3.13 1.432-3.618 4.812-.828.058-1.64.09-2.451.1z" fill="#6B91C4"/><path d="M175.432 269.088h8.913v-85.351h-8.913v85.351z" fill="#57667F"/><path d="M276.656 220.686H83.136c-9.825 0-17.816 7.995-17.816 17.821v30.581h8.908v-30.581c0-4.912 3.995-8.908 8.908-8.908h193.52c4.907 0 8.907 3.996 8.907 8.908v30.581h8.914v-30.581c0-9.826-7.996-17.821-17.821-17.821z" fill="#57667F"/><path d="M290.07 269.088h-4.51v-30.581c0-4.912-4-8.908-8.908-8.908h-59.968v-4.207h56.254c9.455 0 17.132 7.996 17.132 17.811v25.885zm-215.846 0h-4.456v-25.885c0-9.815 7.687-17.811 17.131-17.811h56.196v4.207H83.132c-4.913 0-8.908 3.996-8.908 8.908v30.581zm105.754 0h-4.546v-34.772h4.546v34.772zm0-50.587h-4.546v-34.764h4.546v34.764z" fill="#465877"/><path d="M143.102 234.318h73.587v-15.815h-73.587v15.815z" fill="#57667F"/><path d="M216.689 234.318h-73.587v-7.9h73.587v7.9z" fill="#465877"/></svg>