<svg width="316" height="316" fill="none" xmlns="http://www.w3.org/2000/svg"><g clip-path="url(#clip0)"><path d="M54.596 283.213h196.07v21.786H54.596v-21.786z" fill="#898890"/><path d="M272.452 92.588v87.142H119.953V81.695h152.499v10.893z" fill="#A78966"/><path d="M250.666 272.32a21.841 21.841 0 11-18.844 10.893 21.786 21.786 0 0118.844-10.893z" fill="#E0E0E2"/><path d="M179.862 304.998v5.446h-54.464v-32.678h54.464v27.232z" fill="#D8D7DA"/><path d="M136.291 261.428h32.678v16.339h-32.678v-16.339z" fill="#E0E0E2"/><path d="M136.291 239.641h32.678v21.785h-32.678v-21.785z" fill="#898890"/><path d="M136.291 217.855h32.678v21.786h-32.678v-21.786zM73.44 283.213a21.786 21.786 0 11-18.845-10.893 21.73 21.73 0 0118.845 10.893z" fill="#E0E0E2"/><path d="M81.827 38.125V179.73H245.22v38.125H70.934c-18.049 0-32.678-14.632-32.678-32.678v-152.5C38.256 14.632 52.886 0 70.934 0H245.22v38.125H81.827z" fill="#898890"/><path d="M283.343 179.732v16.34H109.059v-16.34h174.284z" fill="#E0E0E2"/><path d="M125.398 234.195h54.464v10.893h-54.464v-10.893zm0 21.785h54.464v10.893h-54.464V255.98z" fill="#57565C"/><path d="M136.291 98.035h21.786v10.893h-21.786V98.035zm0 21.785h65.357v10.893h-65.357V119.82z" fill="#FFCD00"/><path d="M283.343 21.785v16.34H109.059v-16.34h174.284z" fill="#E0E0E2"/><path d="M136.291 217.855h32.678v5.447h-32.678v-5.447z" fill="#C6C5CA"/><path d="M114.506 196.07h130.713v5.447H114.506v-5.447z" fill="#787680"/><path d="M57.318 16.34a8.17 8.17 0 018.17 8.17v43.57a8.17 8.17 0 01-16.34 0V24.51a8.168 8.168 0 018.17-8.17z" fill="#C6C5CA"/><path d="M272.452 38.125v43.571H119.953V59.911h76.25l9.531-21.786h66.718z" fill="#C0AB91"/><path d="M272.451 43.571v-5.446h-66.718l-2.385 5.446h69.103z" fill="#B39A7C"/></g><defs><clipPath id="clip0"><path fill="#fff" d="M0 0h316v316H0z"/></clipPath></defs></svg>