<svg width="20" height="20" fill="none" xmlns="http://www.w3.org/2000/svg"><path d="M15.307 10.604V1.611H1.884v16.778H8.06c.443 0 .805.363.805.806A.808.808 0 018.06 20H1.08a.808.808 0 01-.806-.805V.805A.807.807 0 011.08 0h15.033c.443 0 .806.362.806.805v9.799a.808.808 0 01-.806.805.808.808 0 01-.805-.805zm4.148 1.96a.807.807 0 00-1.141.067l-4.416 4.913-2.215-2.135a.806.806 0 10-1.114 1.168l2.818 2.712a.792.792 0 00.564.228h.027a.805.805 0 00.564-.269l4.966-5.53a.81.81 0 00-.053-1.154zm-7.101-7.866H5.106a.808.808 0 00-.806.805c0 .443.363.806.806.806h7.248a.808.808 0 00.805-.806.808.808 0 00-.805-.805zm.805 5.235a.808.808 0 00-.805-.805H5.106a.808.808 0 00-.806.805c0 .443.363.805.806.805h7.248a.808.808 0 00.805-.805zm-8.053 3.49a.808.808 0 00-.806.805c0 .443.363.806.806.806h2.147a.808.808 0 00.806-.806.808.808 0 00-.806-.805H5.106z" fill="#9D9D9D"/></svg>