<svg width="1360" height="362" fill="none" xmlns="http://www.w3.org/2000/svg"><path opacity=".3" d="M56.61 93.554c-1.94 2.546-4.011 5.69-6.331 8.816-2.105-4.769-3.704-9.805-4.843-14.907 3.328 2.834 6.889 4.745 11.174 6.091zm66.636-13.175c-.833 1.482-2.616 4.714-4.535 7.596-.248.327-.502.658-.758.991l-1.702-1.636a78.615 78.615 0 01-2.098-2.198c3.734-.656 6.751-2.55 9.093-4.754zm14.902 28.163l-.1-.42.351.31-.251.11zm10.341-3.79c-.22 1.271-1.007 2.574-1.972 3.774-.37-.387-.738-.789-1.11-1.201 1.306-.616 2.413-1.439 3.082-2.573zm16.836 7.029a157.95 157.95 0 01-3.313 4.337c-.998-2.201-1.758-4.456-2.23-6.734a10.06 10.06 0 005.543 2.397zm2.261-3.114c-.676.946-1.364 1.895-2.059 2.84-2.791-1.731-3.253-3.261-4.809-5.711 1.752 1.993 4.174 2.82 6.868 2.871zm24.773 49.906a64.1 64.1 0 01-.979 1.268 89.416 89.416 0 01-.459-2.729c.366.399.862.899 1.438 1.461zm4.306-6.001c-.482.65-.975 1.342-1.484 2.065-1.103-2.571-1.873-5.027-2.217-7.037.531 1.606 2.057 3.393 3.701 4.972zm6.346-9.127c-1.422 2.316-2.854 4.584-4.448 6.655a64.542 64.542 0 01-2.174-4.047c2.256-.745 4.531-1.575 6.622-2.608zm37.672-11.053c-.14.457-.299.893-.503 1.26l-.113.245c-2.278 2.285-4.983 4.064-8.006 5.575a50.666 50.666 0 01-1.525-2.416c3.537-.393 7.554-2.709 10.147-4.664zm26.177 6.402c-.427-1.494-.802-3-1.139-4.513a28.85 28.85 0 003.323 2.449 18.685 18.685 0 01-2.184 2.064zm45.84-21.717c-.165.531-.358 1.043-.633 1.477l-.145.289c-2.873 2.477-6.302 4.533-10.159 6.345a36.748 36.748 0 01-1.918-2.374c4.741-1.117 9.599-3.621 12.855-5.737zm55.372 31.248a37.86 37.86 0 01-1.918 2.923c-2.356-2.955-4.08-5.837-4.916-8.177 1.066 1.76 3.889 3.648 6.834 5.254zm6.236-13.326c-1.432 3.254-2.764 6.571-4.33 9.759-1.818-1.824-3.456-3.687-4.863-5.367 3.163-.754 6.385-2.373 9.193-4.392zm36.821 8.801c-1.758-2.563-3.232-5.417-4.713-8.304 2.602 1.542 5.51 2.801 8.343 3.958a25.924 25.924 0 01-3.63 4.346zm30.539-11.382c-1.034.847-2.115 1.733-3.075 2.517 1.803-.223 3.654-.739 5.484-1.449.981.367 2.011.695 3.134.969a33.824 33.824 0 01-1.697-1.572 35.447 35.447 0 006.193-3.62c-2.707 6.216-5.09 12.638-8.844 18.274-.68-1.486-1.266-2.916-1.741-4.069-1.94-4.604-3.33-9.659-4.248-14.786 1.487 1.58 3.043 2.799 4.794 3.736zm48.637-1.249l-.672-1.316c.503.301 1.012.594 1.532.878a9.862 9.862 0 01-.86.438zm13.391-4.237c-.15.487-.319.954-.537 1.344l-.12.262c-1.511 1.517-3.206 2.817-5.04 3.978a54.966 54.966 0 01-1.393-1.571c2.642-1.012 5.212-2.598 7.09-4.013zm32.707 5.996a33.437 33.437 0 004.122 1.738c-.137.213-.273.418-.414.627a258.266 258.266 0 01-5.486 6.98c-1.78-4.294-3.163-8.782-4.178-13.324a30.012 30.012 0 004.8 3.364c-.651.409-1.201.698-1.581.825.964.029 1.871-.056 2.737-.21zm7.455-3.901c-.403.718-1.08 1.94-1.891 3.306-.37-.329-.746-.679-1.126-1.038a16.59 16.59 0 003.017-2.268zm12.348.975c-.265.232-.527.457-.79.673-.424-1.241-.796-2.431-1.186-3.513.35 1.114 1.071 2.032 1.976 2.84zm39.939 4.275a135.87 135.87 0 01-2.298 2.881c-3.171-1.702-5.942-3.658-8.137-6.202l-.088-.227c-.154-.326-.259-.715-.351-1.114 2.703 2.365 7.381 5.377 10.874 4.662zm51.806 13.48a178.016 178.016 0 01-2.413-4.627c1.579.944 3.261 1.792 4.975 2.582a51.687 51.687 0 01-2.562 2.045zm7.891-1.716c-.259.435-.546.846-.826 1.265l-.26-.269c.361-.328.723-.659 1.086-.996zm46.538-24.566a58.152 58.152 0 01-4.697 8.192c-2.339-3.91-4.335-8.055-5.983-12.306 3.352 2.077 6.78 3.381 10.68 4.114zm18.415-15.483a66.28 66.28 0 01-1.501 1.201c-.92-1.468-1.67-3.063-1.881-4.619.716 1.552 1.94 2.643 3.382 3.418zm14.027-3.014c-2.392 8.463-5.743 16.724-10.084 24.149l-.054.094c-1.92-3.927-3.588-8.021-5.091-11.955a105.878 105.878 0 01-1.827-4.823 50.713 50.713 0 002.946-.654c.25.12.502.254.745.36l-.366-.453a39.453 39.453 0 005.976-2.057c.385.03.768.061 1.131.073-.184-.095-.383-.218-.572-.322 2.519-1.158 4.886-2.61 7.196-4.412zm83.777 40.184c-1.665-3.262-3.067-6.89-4.475-10.56 2.609 2.066 5.534 3.736 8.367 5.276a43.092 43.092 0 01-3.892 5.284zm58.133-24.966a54.427 54.427 0 01-6.091-3.996c5.123-.35 8.874-2.962 11.531-5.952-.683 1.521-2.142 4.826-3.765 7.808-3.209 5.085-7.16 11.169-10.902 15.98-3.664-6.03-6.677-12.701-9.011-19.611 5.379 3.827 10.916 5.418 18.238 5.771zm35.062 44.976c-.477.957-.962 2-1.464 3.109-1.962-3.022-3.423-6.028-4.1-8.43.857 1.822 3.254 3.766 5.564 5.321zm4.752-10.712c-1.077 2.762-2.165 5.475-3.396 7.999a57.926 57.926 0 01-2.961-3.988c2.174-1.181 4.371-2.473 6.357-4.011zm36.405 4.301l-.03.016.079-.006.362.074-.095-.096c3.523-.223 6.243-.856 8.494-1.911-.35.819-.702 1.625-1.059 2.409-2.317 5.131-5.538 9.207-9.522 12.623-3.217-5.477-5.123-11.931-7.307-18.159 2.771 2.526 6.005 4.47 9.078 5.05zm46.987-6.328c-1.076 1.951-2.248 3.814-3.541 5.54 2.364-1.407 4.813-2.915 6.983-4.686l.23.044c-1.06 3.169-2.11 6.298-3.5 9.096-.378.82-.762 1.731-1.153 2.698-3.233-5.257-5.791-11.02-7.677-16.943a29.47 29.47 0 008.658 4.251zm80.102-19.979c-2.26 3.918-4.81 7.723-7.7 11.192-2.85-5.467-5.15-11.353-6.88-17.405 4.32 3.405 8.86 5.256 14.58 6.213zm44.23 14.204a35.157 35.157 0 01-4.79 4.839c-1.44-3.092-2.75-6.262-4.14-9.381 2.75 1.961 5.83 3.584 8.93 4.542zm44.62-12.739a31.978 31.978 0 01-7.09 6.351c-1.83-3.589-3.35-7.347-4.58-11.184 3.52 2.495 7.22 3.979 11.67 4.833zm-3.36 12.856c-.16-.265-.33-.527-.48-.774-.63-.975-1.21-1.995-1.78-3.011a21.702 21.702 0 0010.1-6.151c-1.8 2.912-4.59 6.81-7.84 9.936zm114.83-69.01c-1.89 3.641-2.2 5.751-6.36 8.618 3.44-.436 6.1-2.018 8.01-3.991-.4 3.447-1.28 6.895-2.55 10.28-3.44-2.582-7.26-5.971-10.72-10.21 4.73.141 8.99-1.113 11.62-4.697zm36.07 33.329a56.792 56.792 0 01-2.72 3.883c-1.53-2.119-2.96-4.388-4.38-6.675 2.25 1.088 4.67 1.986 7.1 2.792zm-127.49 57.093c-.04.544 0 1.102.06 1.665l-.53.143c.16-.605.32-1.22.47-1.808zm-22.71 1.712c2.09-1.19 3.97-2.414 5.47-3.525.62.35 1.2.66 1.74.925.23 2.193-.16 3.932-1.16 7.262l-2.48.913c-1.45-1.798-2.58-3.638-3.57-5.575zM51.439 113.841c-.104.188-.217.372-.32.558-.046-.157-.068-.294-.11-.45l.43-.108zm59.807-16.41c-1.73-4.4-3.109-8.962-4.643-13.443 3.105 2.66 6.685 4.94 10.32 6.319a276.255 276.255 0 01-5.677 7.123zm35.792 16.01c-.269.542-.534 1.085-.813 1.619-1.139 2.33-2.373 4.73-3.727 7.098-1.818-4.271-3.215-8.751-4.269-13.283.221-.014.436-.021.664-.037 2.493 1.982 5.153 3.455 8.145 4.603zm1.408-3.004c-.31-.293-.62-.584-.935-.895a23.094 23.094 0 001.7-.951 59.855 59.855 0 01-.765 1.846zm44.754 56.225l-.107-.333.347-.085-.24.418zm42.662-24.485c-.26.465-.545.892-.822 1.334a53.982 53.982 0 01-1.995-2.602c1.494-.177 2.821-.487 4.023-.925-.399.746-.802 1.48-1.206 2.193zm36.227-3.794c-.99 1.598-2.297 3.417-3.781 4.952-.296-.83-.553-1.672-.819-2.514a12.864 12.864 0 004.255-2.603l.345.165zm26.621-11.845c-.411-.77-.812-1.551-1.213-2.338a32.056 32.056 0 002.984 1.568c-.584.262-1.17.52-1.771.77zm7.695 2.081c-1.066 1.679-2.27 3.232-3.563 4.712-.647-1.101-1.255-2.137-1.848-3.004-.587-.824-1.117-1.708-1.629-2.614 3.374-.312 6.197-.872 8.641-1.685a128.69 128.69 0 01-1.601 2.591zm53.925 28.698a58.266 58.266 0 01-1.372-3.792c.835.527 2.044 1.227 3.469 2.013a27.502 27.502 0 01-2.097 1.779zm7.053.826c-1.163 1.698-2.524 3.459-4.016 5.048a62.74 62.74 0 01-1.778-3.197 19.22 19.22 0 004.644-2.436c.38.195.763.389 1.15.585zm2.297-3.66l-.271.455-.092-.094.391-.413-.028.052zm76.56-1.971c-.094.169-.199.349-.3.524l-.085-.115c.142-.155.286-.312.419-.469l-.034.06zm116.219-19.362a44.13 44.13 0 01-1.88-1.586 24.858 24.858 0 003.016-1.9 70.47 70.47 0 01-1.136 3.486zm27.854 7.962a29.946 29.946 0 01-1.508-2.774c-.297-.626-.581-1.297-.873-1.948 1.513.675 3.279 1.118 5.441 1.334-1.037 1.234-2.074 2.401-3.06 3.388zm18.956 3.099c-.368.867-.738 1.736-1.104 2.603a42.268 42.268 0 01-.767-2.538c.331-.199.659-.398.983-.608.289.194.589.37.888.543zm41.49 8.208a45.373 45.373 0 01-.941-1.445c1.574-.997 3.064-2.245 4.548-3.585l.469.194c-1.205 1.745-2.588 3.337-4.076 4.836zm65.961-45.116c.406.317.819.617 1.241.901-.258.189-.521.39-.768.569a80.9 80.9 0 01-.473-1.47zm9.35 28.203c-.133.463-.285.938-.452 1.429-.095-.23-.186-.46-.277-.688.206-.284.395-.567.56-.849l.169.108zm94.668 12.079l-.128-.288.735-.777c-.19.365-.406.71-.607 1.065zm51.456-11.805l-.094.269c-.395.475-.821.923-1.246 1.368-.228-.349-.448-.688-.664-1.027a32.017 32.017 0 002.413-1.974c-.105.489-.228.964-.409 1.364zm34.621 37.912a94.236 94.236 0 01-.578-1.443c-.517-1.415-.969-3.026-1.415-4.732.819.671 2.155 1.658 3.7 2.727a78.2 78.2 0 01-1.707 3.448zm44.043 2.631c-.277.28-.551.563-.835.833a75.616 75.616 0 01-.653-1.232c.213-.137.425-.276.637-.42.268.281.557.548.851.819zm2.632-3.04l-.199-.259c.329-.265.66-.534.993-.804-.252.368-.527.712-.794 1.063zm121.94-26.014a653.62 653.62 0 01-1.47-2.582c-.18-.307-.33-.637-.51-.95 1.82-.848 3.6-1.761 5.27-2.777-1.07 2.145-2.14 4.272-3.29 6.309zm45.91 5.957c-.09-.171-.19-.34-.28-.511.57-.448 1.13-.908 1.7-1.374-.44.656-.92 1.28-1.42 1.885zm94.87-36.208c-.29-.619-.58-1.241-.86-1.863.57.373 1.15.732 1.75 1.083-.29.267-.6.521-.89.78zm55.89-12.885c-2.7-5.12-4.93-10.543-6.69-16.07 3.93 2.793 8.01 4.629 12.72 5.817-1.63 3.557-3.68 7.004-6.03 10.253zm-53.57 17.64l-.22-.414c.44-.354.88-.71 1.32-1.07-.35.512-.73.995-1.1 1.484zm-39.13 48.65c.89-1.074 1.65-2.13 2.2-3.048.19.754.34 1.538.47 2.333l-2.67.715zm-6.29-7.129c.04.2.08.387.11.575l-.36-.379.25-.196zm-9.19-14.044c.13.277.32.559.52.842l-.16.202c-.12-.351-.26-.716-.36-1.044zm-25.47 33.89c.13-.28.26-.561.38-.833.06.277.08.561.12.843l-.5-.01zm-17.69-20.679l.28.314-.04.112-.22-.379-.02-.047zm-123.148 19.181a96.624 96.624 0 01-.547-2.001c.252.206.561.448.902.707-.118.434-.238.863-.355 1.294zm75.118-30.614l.17.308-.02.037-.03.041-.12-.386zm-419.595 5.102a39.26 39.26 0 002.32-1.582c-.052 1.328-.336 2.76-.766 4.217-.534-.907-1.049-1.793-1.554-2.635zm200.039 27.93l.126.294-.123-.012-.003-.282zm16.058-41.22l.156.179c-.149.35-.302.688-.454 1.034-.136-.301-.293-.612-.414-.904.246-.095.476-.205.712-.309zm83.893 39.308a48.253 48.253 0 01-.689-.991c.352-.213.667-.41.955-.598a13.937 13.937 0 01-.266 1.589zm-171.907-45.563c.169.14.336.279.501.419l-.061.188c-.143-.207-.3-.398-.44-.607zm-282.672.799c-.75 1.331-1.576 2.555-2.437 3.73-.118-.176-.235-.366-.351-.535-.988-1.382-1.891-2.855-2.758-4.368 2.687-.074 4.906-.465 6.833-1.166-.428.794-.858 1.579-1.287 2.339zm94.867 4.889l-.064.135c-.424.425-.882.81-1.358 1.174-.153-.203-.309-.408-.459-.616a16.32 16.32 0 002.148-1.364 3.61 3.61 0 01-.267.671zm-37.037 11.083c-.128-.524-.258-1.046-.376-1.571.268.229.538.459.809.672-.135.295-.281.595-.433.899zm2.081 6.865a69.815 69.815 0 01-.654-1.883c.598-.453 1.11-.856 1.485-1.175a54.276 54.276 0 01-.831 3.058zm-116.379-1.287a50.8 50.8 0 01-2.168 2.719 78.712 78.712 0 01-.652-2.597c-.066-.309-.125-.637-.186-.967.492-.243.959-.504 1.414-.772.494.52 1.036 1.071 1.592 1.617zm2.833-5.02l.338.296a63.794 63.794 0 01-1.93 2.98 35.069 35.069 0 01-.643-1.344c.815-.62 1.562-1.27 2.235-1.932zm-212.328-6.926c-.182-.546-.364-1.092-.55-1.633.363.311.734.614 1.114.906-.187.245-.372.49-.564.727zm59.718 12.734l.245.387-.109.18c-.046-.19-.092-.379-.136-.567zm-19.132 10.829l.019.016c-.912 1.093-1.984 2.011-3.129 2.831-.098-.299-.196-.597-.291-.899 1.159-.462 2.266-1.182 3.401-1.948zm.254-16.433c.087.327.155.626.207.911l-.397-.748.19-.163zm-.982 20.514h-.271l.298-.154-.027.154zm6.721-15.87l.073.362-.026.057-.062.13a13.408 13.408 0 01-1.969 1.601 34.09 34.09 0 01-.498-.722c.91-.412 1.776-.924 2.482-1.428zm-8.634-1.362c.38 1.037 1.245 2.158 2.302 3.24l-.26.1.309.062c-.125.479-.262 1.003-.411 1.588.468-.169.939-.44 1.404-.749.26.237.523.46.788.686-.457.218-.907.443-1.391.643.765.025 1.435-.011 2.067-.075.478.389.942.746 1.395 1.085a17.243 17.243 0 01-2.314 3.043c-1.992-3.465-3.384-6.959-3.889-9.623zm-1.254 13.41c-.345-1.332-.625-2.815-.892-4.388.724.711 1.918 1.771 3.308 2.926a22.524 22.524 0 01-2.416 1.462zm290.215-32.173c-1.385-1.738-2.332-3.555-3.079-5.333a25.359 25.359 0 003.016-1.158c.937.483 1.92.931 2.891 1.364-1.388 3.783-3.111 7.446-5.191 10.834-1.685-2.994-3.021-6.422-3.661-10.28l.08-.015c1.668 1.843 3.691 3.379 5.944 4.588zm-66.159-6.794a83.023 83.023 0 003.277 1.513 46.323 46.323 0 01-4.061 2.061 122.472 122.472 0 01-1.874-3.528c.842.121 1.736.096 2.658-.046zm-53.275 15.948c.198.676.606 1.395 1.108 2.106-.157.203-.33.396-.49.595-.272-.963-.495-1.888-.618-2.701zM1435 165.477c-12.55-2.279-20.16-5.599-25.92-10.148 3.28 1.256 13.22 2.223 15.97 2.278-21.46-8.503-28.49-17.636-35.76-30.249-1.15-2.103-2.25-4.53-3.36-7.11 4.92 2.923 20.05 10.16 24.23 9.979-10.95-6.256-20.76-17.696-24.31-25.529 2.76 4.131 11.43 7.859 15.97 9.573 3.82 1.587 7.85 1.465 11.89 1.345-10.28-.152-21.26-13.087-27.31-20.069-6.96-7.904-12.84-17.013-17.55-26.564 8.57 4.326 17.12 5.677 28.23 5.156-9.59-3.655-31.43-14.295-40.99-37.038l.15.11c3.94 2.701 8.42 4.647 13.17 5.884-7.44-5.768-11.17-13.246-14.88-18.845 3.7 6.118 13.14 7.154 21.08 8.71-4.69-1.693-16.39-7.782-22.36-14.059-5.2-5.462-8.5-12.168-10.63-19.266a84.298 84.298 0 01-2.32-8.664L1338.35-16c1.4 6.608 1.09 13.24 1.32 19.95.57 16.373-15.79 37.688-20.46 40.604 8.13-1.722 13.48-6.785 16.99-12.19-.71 2.565-2.23 8.136-4.08 13.223-7.19 16.398-17.62 38.925-25.05 42.617 7.13 1.009 15.67-6.733 20.3-12.38-.05.797-.14 1.57-.32 2.245l-.09.448c-3.86 6.357-9.37 11.496-15.93 16.26 5.77-1.203 10.05-2.89 13.45-5.157-.35 1.37-.72 2.724-1.09 4.042a56.863 56.863 0 01-6.23 14.259c-6.75-6.158-12.07-14.157-16.58-21.62a91.476 91.476 0 01-4.69-8.176 33.798 33.798 0 006.76 2.458c-2.55-1.99-5.51-4.779-6.27-7.632 2.9 4.047 10.07 4.517 15.29 4.19-6.79-2.03-15.51-6.674-19.67-11.436-3.4-4.001-4.25-9.755-6.17-14.167l.05.554c.34 3.856-.31 7.94-1.52 11.517-2.61 6.894-7.48 11.215-14.04 15.688-.53.395-1.18.613-1.75.948-3.97-4.906-7.41-10.948-9.25-18.164l.08.08c2.72 2.532 5.94 4.552 9.45 6.056-5.06-5.301-7.06-11.49-9.25-16.223 2.13 5.136 9.27 7.029 15.19 9.15-3.4-1.847-11.7-7.892-15.56-13.415-3.37-4.806-5.13-10.347-5.94-16.055-.38-2.3-.64-4.61-.77-6.932l-.69-5.585c.3 5.242-.7 10.306-1.31 15.496-1.46 12.657-16.52 27.146-20.45 28.845 6.45-.38 11.16-3.652 14.49-7.398-.85 1.887-2.66 5.98-4.67 9.673-7.43 11.776-18.08 27.903-24.22 29.88 5.36 1.606 12.83-3.353 17.04-7.157-.13.607-.28 1.192-.51 1.69l-.11.335c-3.71 4.44-8.54 7.75-14.14 10.65 4.58-.253 8.07-1.053 10.94-2.399-.43 1.011-.87 2.01-1.31 2.982a43.876 43.876 0 01-7.81 11.835c-4.33-6.165-7.69-13.119-10.55-19.653a92.813 92.813 0 01-3.63-8.814c2.05 1.378 4.33 2.524 6.46 3.356-2.3-2.335-4.9-5.527-5.29-8.487 2.38 4.445 9.5 5.86 14.79 6.226-6.54-2.934-14.68-8.741-18.22-14.07-2.89-4.464-2.99-10.348-4.33-15.026l-.02.565c-.17 3.911-1.36 7.916-3.04 11.351-3.53 6.57-8.98 10.265-16.15 13.884-.7.392-1.56.494-2.26.886 4.92.904 9.57.26 12.79-3.104-2.38 3.4-2.97 5.477-7.51 7.803 3.51.017 6.37-1.219 8.56-2.941-2.81 11.162-10.83 21.727-20.58 29.365-1.25.938-2.75 2.069-4 3.006 4.21-.345 8.75-2.266 12.64-4.847-2.91 5.983-5.51 12.18-9.51 17.49-5.82-3.91-14.34-11.425-17.29-23.028l.05.054c2.05 1.905 4.47 3.425 7.12 4.556-3.81-3.986-5.32-8.643-6.97-12.204 1.61 3.863 6.98 5.287 11.44 6.886-2.57-1.392-8.81-5.939-11.71-10.094-2.53-3.612-3.86-7.785-4.47-12.078a48.35 48.35 0 01-.58-5.216l-.52-4.205c.22 3.945-.53 7.757-.99 11.662-1.1 9.523-12.42 20.424-15.38 21.702 4.86-.287 8.4-2.748 10.9-5.565-.64 1.425-2.02 4.531-3.55 7.325-5.59 8.855-13.58 20.948-18.19 22.433 4.04 1.208 9.65-2.523 12.82-5.385-.1.457-.21.898-.38 1.273l-.09.247c-2.78 3.341-6.42 5.829-10.63 8.015 3.45-.191 6.07-.793 8.23-1.807a94.58 94.58 0 01-.98 2.246 33.827 33.827 0 01-3.44 5.893c-.42-.338-.85-.684-1.23-.992-9.66-8.116-17.46-19.153-19.93-30.614 2.17 1.83 5.04 3.188 8.62 3.293-4.55-2.526-5.08-4.659-7.38-8.197 3.17 3.534 7.87 4.351 12.91 3.604-.7-.428-1.57-.557-2.27-.983-7.16-3.935-12.59-7.884-15.94-14.691-1.6-3.55-2.67-7.678-2.7-11.663l-.01-.571c-1.53 4.713-1.83 10.695-4.93 15.14-3.79 5.296-12.27 10.923-19.03 13.675 5.39-.179 12.69-1.376 15.26-5.813-.5 2.999-3.26 6.15-5.67 8.451 2.19-.773 4.55-1.858 6.69-3.187a100.725 100.725 0 01-4 8.845c-1.55 3.235-3.24 6.572-5.09 9.86-6.25-4.382-16.71-13.757-20.15-28.838l.07.068c2.22 2.307 4.84 4.148 7.71 5.518-4.13-4.823-5.76-10.461-7.56-14.761 1.74 4.67 7.58 6.39 12.43 8.323-2.79-1.683-9.57-7.177-12.73-12.205-2.75-4.373-4.19-9.41-4.86-14.602a66.916 66.916 0 01-.63-6.309l-.56-5.08c.25 4.767-.57 9.377-1.07 14.102-1.19 11.51-13.5 24.691-16.72 26.24 5.28-.349 9.13-3.326 11.85-6.73-.69 1.716-2.18 5.46-3.83 8.827-6.08 10.713-14.78 25.357-19.8 27.154 4.39 1.458 10.5-3.053 13.94-6.51-.1.551-.23 1.084-.42 1.535l-.09.31c-3.03 4.033-6.98 7.037-11.56 9.683 3.74-.232 6.59-.959 8.95-2.183-.36.92-.71 1.828-1.08 2.71a41.295 41.295 0 01-3.33 6.507c-4.87-5.589-8.75-12.227-10.63-19.216 1.74 1.469 3.98 2.48 6.64 2.36-3.56-1.93-4.11-3.754-6.07-6.709 2.61 2.894 6.17 3.325 9.86 2.375-.55-.328-1.21-.396-1.76-.722-5.61-3.001-9.92-6.12-12.91-11.855-1.45-2.998-2.54-6.521-2.84-9.996l-.05-.499c-.8 4.201-.6 9.433-2.58 13.485-2.44 4.842-8.35 10.248-13.186 13.05 3.996-.48 9.346-1.955 10.946-5.974-.16 2.641-1.99 5.554-3.62 7.7a24.245 24.245 0 004.75-3.195 94.08 94.08 0 01-2.34 7.961c-1.61 5.086-3.48 10.467-5.89 15.452-5.793-4.593-12.523-11.9-15.149-22.221l.067.064c2.192 2.044 4.793 3.676 7.628 4.893-4.083-4.282-5.699-9.281-7.472-13.107 1.72 4.149 7.492 5.679 12.273 7.393-2.749-1.493-9.448-6.375-12.572-10.838-2.714-3.881-4.141-8.356-4.799-12.967a53.658 53.658 0 01-.623-5.596l-.558-4.515c.249 4.233-.567 8.326-1.053 12.516-1.182 10.224-13.342 21.931-16.519 23.298 5.213-.302 9.013-2.945 11.703-5.972-.686 1.525-2.15 4.843-3.778 7.83-6.001 9.511-14.6 22.524-19.558 24.12 4.332 1.298 10.362-2.708 13.766-5.782-.106.491-.229.966-.412 1.368l-.094.27c-2.935 3.52-6.76 6.157-11.174 8.47-.888-.908-1.905-1.958-2.771-2.845-7.216-7.736-13.055-18.246-14.912-29.149 1.616 1.744 3.764 3.041 6.432 3.146-3.396-2.409-3.8-4.441-5.51-7.812 2.355 3.366 5.871 4.152 9.631 3.449-.521-.408-1.175-.534-1.695-.937-5.355-3.754-9.404-7.517-11.92-14.002-1.197-3.376-2.006-7.303-2.036-11.093l-.004-.544c-1.136 4.485-1.347 10.171-3.652 14.389-2.822 5.036-9.141 10.376-14.183 12.983 4.02-.162 9.468-1.287 11.383-5.506-.368 2.854-2.422 5.844-4.222 8.025a23.745 23.745 0 004.994-3.043 104.95 104.95 0 01-2.979 8.429c-3.05 8.154-6.77 16.967-11.907 23.778-.9-1.348-1.707-2.624-2.384-3.699-3.588-5.565-6.366-11.784-8.398-18.159 4.916 3.484 10.097 5.144 17.037 5.864-5.611-3.169-18.158-11.833-21.974-26.848l.071.069c2.192 2.046 4.792 3.674 7.627 4.893-4.086-4.282-5.702-9.281-7.472-13.107 1.721 4.151 7.489 5.682 12.275 7.393-2.751-1.493-9.453-6.373-12.574-10.836-2.717-3.881-4.14-8.356-4.797-12.97a52.571 52.571 0 01-.625-5.596l-.557-4.516c.245 4.238-.568 8.328-1.054 12.52-1.17 10.119-13.083 21.672-16.407 23.237-6.609-4.988-14.976-13.6-18.63-26.694l.076.074c2.431 2.304 5.267 4.078 8.316 5.332-4.557-4.858-6.575-10.763-8.683-15.243 2.072 4.874 8.226 6.29 13.354 8.003-2.982-1.596-10.328-6.987-13.887-12.134-3.101-4.477-4.882-9.766-5.872-15.275a74.116 74.116 0 01-1.011-6.703l-.875-5.4c.529 5.089-.059 10.08-.302 15.17-.581 12.41-12.587 27.418-15.828 29.308 5.448-.757 9.264-4.222 11.888-8.07-.62 1.888-1.94 5.991-3.453 9.708-5.687 11.911-13.87 28.243-18.97 30.534 4.627 1.242 10.699-4.034 14.071-7.99-.079.599-.179 1.18-.344 1.677l-.083.333c-2.906 4.543-6.834 8.056-11.425 11.217 3.865-.521 6.78-1.508 9.15-2.994a170.28 170.28 0 01-.957 2.984 45.52 45.52 0 01-4.532 9.737c-6.292-8.045-10.791-18.888-14.468-28.858a126.065 126.065 0 01-3.422-9.814 26.686 26.686 0 005.645 3.495c-2.045-2.534-4.387-6.018-4.826-9.35 2.194 4.916 8.332 6.178 12.868 6.339-5.701-3.007-12.868-9.196-16.084-15.06-2.631-4.918-2.924-11.572-4.241-16.805v.637c0 4.438-.876 9.034-2.193 12.995-2.776 7.61-7.312 12.05-13.305 16.489-.586.478-1.32.63-1.903 1.112 4.245.788 8.19-.157 10.826-4.125-1.905 3.968-2.339 6.344-6.145 9.195 3.001-.149 5.412-1.686 7.215-3.74-1.611 10.307-6.148 20.325-12.077 28.599-2.972-3.433-5.498-7.338-7.516-11.899a176.254 176.254 0 01-1.363-3.161c2.908 1.391 6.416 2.184 11.007 2.38-5.659-3.005-10.559-6.457-14.34-11.133l-.123-.345c-.231-.531-.395-1.155-.535-1.802 4.282 3.988 11.847 9.156 17.198 7.354-6.187-2.009-17.117-19.037-24.757-31.474-2.072-3.904-3.949-8.242-4.828-10.237 3.398 3.939 8.16 7.35 14.637 7.64-3.968-1.74-19.287-16.946-20.955-30.426-.689-5.526-1.775-10.913-1.552-16.51l-.605 5.974a74.505 74.505 0 01-.66 7.404c-.735 6.104-2.411 12.05-5.701 17.229-3.786 5.962-12.008 12.552-15.393 14.577 5.908-2.362 13.034-4.502 15.089-10.02-2.127 5.089-4.032 11.725-9.015 17.466 3.493-1.666 6.687-3.872 9.37-6.621l.077-.083c-2.956 13.251-10.751 22.874-17.683 29.086-3.267-2.515-6.376-5.671-8.112-8.726-2.207-3.978-2.45-9.374-3.555-13.608v.515c0 3.594-.736 7.315-1.842 10.523-2.327 6.167-6.128 9.761-11.153 13.355-.49.387-1.103.514-1.593.898 3.557.64 6.866-.125 9.073-3.334-1.594 3.209-1.96 5.134-5.152 7.438 2.518-.118 4.539-1.362 6.052-3.026-.587 3.625-1.636 7.203-3.044 10.647-6.398-4.181-14.556-11.434-18.107-22.507l.072.06c2.349 1.938 5.086 3.427 8.031 4.482-4.402-4.084-6.349-9.045-8.382-12.81 2.001 4.094 7.94 5.286 12.894 6.725-2.88-1.341-9.973-5.871-13.411-10.196-2.992-3.763-4.713-8.209-5.667-12.837a54.323 54.323 0 01-.979-5.633l-.845-4.539c.51 4.277-.055 8.471-.29 12.747-.562 10.43-12.153 23.044-15.285 24.631 5.261-.634 8.946-3.548 11.481-6.78-.598 1.585-1.873 5.03-3.332 8.155-5.492 10.009-13.396 23.736-18.318 25.663 4.464 1.043 10.324-3.388 13.581-6.711-.076.502-.169.987-.327 1.404l-.08.279c-2.808 3.819-6.599 6.772-11.033 9.426 3.732-.438 6.547-1.268 8.835-2.513a132.1 132.1 0 01-.924 2.505c-2.101 5.528-5.241 9.979-9.26 13.774-5.652-6.526-9.953-14.44-13.56-21.822a94.576 94.576 0 01-3.952-8.564c2.086 1.276 4.387 2.314 6.524 3.049-2.364-2.211-5.068-5.25-5.575-8.16 2.533 4.289 9.626 5.391 14.864 5.532-6.586-2.622-14.864-8.023-18.584-13.137-3.037-4.292-3.375-10.099-4.895-14.665v.558c0 3.868-1.013 7.88-2.535 11.338-3.208 6.637-8.45 10.511-15.371 14.386-.676.417-1.525.551-2.197.968 4.902.688 9.46-.137 12.503-3.597-2.202 3.46-2.701 5.535-7.096 8.023 3.467-.128 6.251-1.471 8.337-3.264-1.748 8.444-6.475 16.669-12.717 23.619-1.139-1.919-2.042-4.155-2.451-6.689l.031.039c1.013 1.127 2.249 2.065 3.624 2.804-1.865-2.338-2.456-4.926-3.177-6.931.679 2.166 3.516 3.194 5.848 4.272-1.319-.876-4.473-3.633-5.844-6.018-1.194-2.076-1.709-4.392-1.836-6.742a27.037 27.037 0 01-.064-2.845l-.078-2.297c-.066 2.142-.657 4.167-1.091 6.253-1.053 5.093-7.693 10.439-9.355 10.986 2.64.08 4.669-1.082 6.157-2.483-.414.737-1.302 2.341-2.254 3.773-.351.46-.715.933-1.093 1.42-4.123-1.646-11.092-11.838-16.015-19.366-1.379-2.436-2.634-5.152-3.22-6.4 2.244 2.446 5.392 4.563 9.671 4.744-2.623-1.082-12.743-10.519-13.844-18.883-.456-3.43-1.173-6.774-1.026-10.248l-.399 3.708a43.866 43.866 0 01-.435 4.596c-.485 3.788-1.593 7.477-3.766 10.692-2.501 3.699-7.933 7.788-10.169 9.046 3.902-1.466 8.612-2.794 9.968-6.218-1.407 3.158-2.663 7.276-5.956 10.84 2.307-1.033 4.418-2.404 6.189-4.11l.052-.051c-1.678 7.067-5.714 12.461-9.724 16.286-1.338-1.433-2.576-2.968-3.41-4.422-1.976-3.433-2.83-7.269-3.039-11.162a44.64 44.64 0 01-.105-4.71l-.13-3.805c-.11 3.548-1.086 6.901-1.805 10.356-1.12 5.411-6.042 10.983-10.157 14.529-4.978-5.155-10.105-12.587-11.659-22.18l.061.073c2.035 2.263 4.517 4.146 7.273 5.632-3.744-4.698-4.927-9.896-6.376-13.923 1.366 4.348 7.062 6.416 11.746 8.578-2.65-1.757-8.985-7.294-11.738-12.087-2.398-4.167-3.436-8.82-3.688-13.54a54.27 54.27 0 01-.126-5.716l-.159-4.613c-.132 4.304-1.319 8.366-2.19 12.558-2.113 10.23-15.456 20.969-18.791 22.067 5.299.161 9.377-2.168 12.364-4.985-.828 1.478-2.601 4.691-4.509 7.56-5.017 6.576-11.575 14.885-16.771 19.413-4.941-6.373-8.852-13.676-12.206-20.539a100.362 100.362 0 01-4.213-9.13c2.224 1.361 4.678 2.468 6.956 3.251-2.523-2.358-5.406-5.6-5.946-8.703 2.703 4.575 10.267 5.751 15.853 5.898-7.025-2.796-15.853-8.553-19.82-14.01-3.238-4.573-3.598-10.767-5.219-15.637v.595c0 4.126-1.083 8.402-2.704 12.092-3.421 7.078-9.01 11.211-16.393 15.343-.721.442-1.624.586-2.342 1.032 5.228.734 10.088-.148 13.335-3.837-2.349 3.689-2.882 5.901-7.57 8.554 3.698-.139 6.667-1.567 8.891-3.48-2.387 11.525-9.979 22.663-19.491 31.058-3.455-3.974-7.509-10.31-8.617-18.869l.037.052a17.7 17.7 0 004.507 4.36c-2.318-3.633-3.053-7.656-3.949-10.771.844 3.364 4.372 4.961 7.274 6.638-1.641-1.361-5.565-5.643-7.271-9.352-1.486-3.225-2.126-6.824-2.285-10.477a52.586 52.586 0 01-.077-4.419l-.098-3.572c-.081 3.329-.816 6.475-1.356 9.719-1.311 7.911-9.571 16.221-11.638 17.072 3.282.123 5.809-1.681 7.658-3.858-.515 1.148-1.623 3.648-2.814 5.878-4.287 7.018-10.385 16.581-13.573 17.484 2.639 1.315 6.636-1.398 8.938-3.562a6.297 6.297 0 01-.331 1.04l-.079.213c-2.072 2.59-4.663 4.405-7.621 5.922 2.32.098 4.11-.217 5.625-.903-.262.607-.517 1.231-.78 1.812a29.596 29.596 0 01-2.179 3.988c-6.403-6.245-11.011-14.545-14.79-22.198a82.778 82.778 0 01-3.567-7.651c1.881 1.14 3.958 2.068 5.887 2.724-2.135-1.973-4.576-4.695-5.031-7.293 2.285 3.834 8.692 4.82 13.418 4.945-5.945-2.347-13.418-7.168-16.776-11.74-2.744-3.83-3.048-9.026-4.421-13.1v.495c0 3.459-.914 7.041-2.288 10.133-2.896 5.937-7.623 9.394-13.877 12.852-.61.374-1.373.496-1.981.864 4.422.619 8.541-.12 11.285-3.206-1.983 3.086-2.439 4.941-6.407 7.16 3.133-.113 5.645-1.311 7.528-2.916-2.084 9.959-8.847 19.584-17.253 26.689-.668.541-1.408 1.138-2.139 1.731-.498-.601-.973-1.178-1.403-1.704-5.108-6.094-9.05-12.878-11.865-19.827 7.103 3.873 14.632 5.742 24.754 6.643-8.119-3.536-26.26-13.145-31.473-29.507l.124.092c3.152 2.256 6.913 4.067 11.021 5.436-5.864-4.713-8.105-10.163-10.606-14.342 2.416 4.53 10.802 6.289 17.749 8.226-3.983-1.662-13.654-7.073-18.105-11.967-3.872-4.255-5.846-9.132-6.704-14.145a43.322 43.322 0 01-.779-6.08l-.712-4.905c.263 4.596-1.017 9.02-1.826 13.559-1.96 11.066-19.98 23.55-24.649 24.978 7.619-.24 13.224-3.04 17.219-6.275-1.033 1.638-3.239 5.195-5.674 8.4-6.972 7.923-16.278 18.115-23.498 23.057-1.834-2.815-3.4-5.795-4.793-8.645a56.78 56.78 0 01-2.399-5.202 20.339 20.339 0 003.956 1.861c-1.432-1.342-3.07-3.186-3.379-4.951 1.537 2.603 5.839 3.273 9.012 3.355-3.992-1.59-9.012-4.865-11.265-7.963-1.843-2.602-2.046-6.125-2.968-8.889v.337c0 2.344-.616 4.775-1.538 6.871-1.946 4.027-5.12 6.375-9.318 8.723-.409.25-.922.335-1.333.587 2.971.417 5.737-.085 7.581-2.181-1.333 2.096-1.638 3.357-4.303 4.863 2.112-.079 3.793-.906 5.059-1.999-1.393 6.763-5.939 13.304-11.591 18.128-.726.593-1.595 1.307-2.322 1.899 2.522-.313 5.191-1.59 7.463-3.241-1.302 2.989-2.469 6.062-4.087 8.878-4.026-4.676-7.8-10.947-9.059-18.739l.055.065c1.905 2.119 4.227 3.884 6.811 5.272-3.504-4.395-4.614-9.262-5.97-13.028 1.277 4.069 6.608 6.001 10.993 8.026-2.479-1.643-8.408-6.828-10.988-11.311-2.242-3.9-3.213-8.256-3.45-12.675a50.814 50.814 0 01-.119-5.347l-.149-4.32c-.122 4.028-1.231 7.833-2.048 11.758-1.981 9.572-14.465 19.623-17.587 20.654 4.959.147 8.775-2.033 11.572-4.669-.779 1.391-2.456 4.423-4.257 7.12-5.487 7.192-12.93 16.576-18.007 19.946-2.325-4.309-3.922-8.868-4.486-13.422a10.9 10.9 0 006.579 3.21c-3.417-2.316-3.69-4.043-5.253-7.003 2.251 3.017 5.914 3.994 9.951 3.759-.524-.385-1.203-.553-1.725-.938-5.388-3.614-9.401-7.119-11.578-12.739-1.012-2.918-1.572-6.257-1.315-9.413l.035-.451c-1.542 3.621-2.199 8.33-4.961 11.627-3.368 3.92-10.47 7.774-16.012 9.475 4.276.235 10.132-.196 12.48-3.525-.604 2.338-3.008 4.637-5.081 6.282a27.372 27.372 0 005.521-2.066 77.065 77.065 0 01-3.79 6.73c-3.765 6.344-8.248 13.155-14.005 18.299-.572-1.178-1.084-2.285-1.529-3.24-2.789-5.875-4.793-12.314-6.114-18.854 4.151 3.908 8.687 6.023 14.879 7.358-4.801-3.658-15.415-13.412-17.65-28.724l.055.071c1.814 2.237 4.026 4.089 6.484 5.557-3.337-4.632-4.393-9.763-5.687-13.727 1.219 4.284 6.297 6.317 10.475 8.456-2.363-1.731-8.01-7.193-10.467-11.921-2.136-4.112-3.061-8.705-3.287-13.36a59.948 59.948 0 01-.112-5.638l-.142-4.547c-.119 4.241-1.172 8.253-1.951 12.388-1.886 10.093-13.781 20.682-16.751 21.773 4.724.155 8.356-2.145 11.022-4.925-.742 1.47-2.347 4.675-4.066 7.525a398.503 398.503 0 01-2.893 4.141c-5.123-2.884-9.009-5.793-11.398-10.736-1.148-2.608-1.91-5.63-1.91-8.552v-.42c-1.149 3.444-1.404 7.824-3.697 11.058-1.629 2.243-4.428 4.544-7.455 6.478-4.008-4.902-7.643-11.297-8.912-19.13l.063.074c2.043 2.273 4.537 4.165 7.307 5.657-3.762-4.718-4.951-9.941-6.409-13.988 1.374 4.37 7.097 6.446 11.806 8.62-2.663-1.765-9.031-7.33-11.798-12.146-2.407-4.19-3.45-8.864-3.706-13.609a55.058 55.058 0 01-.126-5.742l-.159-4.637c-.132 4.326-1.325 8.408-2.199 12.623-1.775 8.585-11.408 17.51-16.491 20.863-8.578-9.642-14.935-21.513-16.402-33.35 2.26 2.286 5.375 4.11 9.404 4.589-4.884-3.312-5.275-5.78-7.505-10.011 3.214 4.31 8.449 5.708 14.219 5.374-.744-.555-1.718-.793-2.463-1.34-7.7-5.167-13.437-10.176-16.548-18.209-1.447-4.174-2.248-8.944-1.882-13.45l.053-.65c-2.204 5.174-3.144 11.908-7.091 16.619-4.815 5.604-14.967 11.11-22.886 13.542 6.111.338 14.48-.275 17.836-5.036-.864 3.336-4.3 6.627-7.261 8.978 2.556-.654 5.333-1.643 7.881-2.93a110.089 110.089 0 01-5.41 9.594c-5.851 9.862-12.89 20.548-22.197 28.062 4.08-1.295 8.332-2.715 12.157-4.6-2.256 3.669-4.496 7.295-7.089 10.491-5.89-4.988-13.727-13.758-15.715-26.046l.062.072c2.043 2.276 4.538 4.167 7.308 5.662-3.763-4.722-4.952-9.945-6.41-13.992 1.375 4.37 7.097 6.447 11.806 8.62-2.663-1.764-9.03-7.33-11.797-12.147-2.408-4.185-3.45-8.863-3.707-13.608a54.47 54.47 0 01-.124-5.74l-.16-4.638c-.133 4.323-1.326 8.407-2.2 12.623-2.124 10.278-15.533 21.068-18.885 22.172 5.325.163 9.421-2.179 12.427-5.009-.831 1.484-2.615 4.715-4.534 7.597-6.958 9.12-16.873 21.576-22.055 22.749 4.285 1.71 10.774-1.816 14.508-4.629-.151.489-.32.959-.542 1.353l-.12.263c-3.362 3.373-7.572 5.734-12.375 7.707 3.772.127 6.692-.275 9.153-1.17-.429.8-.862 1.588-1.293 2.352-3.99 7.08-9.595 11.884-16.607 15.498-2.712 1.418-5.246 2.558-8.218 3.496 6.595 2.588 11.61-.749 16.952-4.366-3.935 4.806-9.384 7.953-14.535 11.13 3.22 1.764 9.844-1.136 12.875-2.737-.88 4.586-4.807 10.039-7.26 13.234C-8.699 139.009-16.26 144.19-23 149.245c7.993 1.137 16.065-2.981 21.984-7.91-4.023 6.321-10.451 10.19-15.95 14.947 8.137 1.767 15.667-5.245 20.435-10.885-.824 4.585-4.225 8.529-6.58 12.161 3.345-1.068 7.237-3.091 10.5-5.602v3.975c-1.446 1.925-3.015 3.773-4.593 5.617 1.611-.228 3.14-.781 4.593-1.545V362H1363.93V177.957c2.45 3.675 5.56 6.913 8.49 9.535-.84-7.837-2.66-15.842-3.2-23.724 4.01 7.683 12.89 14.007 20.22 18.333-5.14-6.039-6.2-13.438-8.98-20.443 4.04 7.005 17.16 17.151 27.08 18.634-7.36-4.635-16.65-17.353-20.11-24.637 8.1 9.622 25.29 16.152 47.57 9.822z" fill="#282E32"/></svg>