<svg width="15" height="6" fill="none" xmlns="http://www.w3.org/2000/svg"><path opacity=".7" d="M1.85.055l1.087.738c-.635.869-.963 1.805-.984 2.81v1.395H.066v-1.19c0-.697.164-1.388.493-2.071C.894 1.053 1.324.493 1.85.055zm3.23 0l1.087.738c-.635.869-.963 1.805-.984 2.81v1.395H3.296v-1.19c0-.697.164-1.388.493-2.071.335-.684.765-1.244 1.292-1.682zm4.716 5.22l-1.077-.739c.636-.889.964-1.825.984-2.81V.25h1.877v1.333c-.007.684-.178 1.367-.513 2.05-.328.678-.752 1.224-1.271 1.641zm3.148 0l-1.077-.739c.636-.889.964-1.825.984-2.81V.25h1.877v1.333c-.007.684-.178 1.367-.513 2.05-.328.678-.752 1.224-1.271 1.641z" fill="#000"/></svg>