<svg width="50" height="50" fill="none" xmlns="http://www.w3.org/2000/svg"><g clip-path="url(#clip0)"><path d="M42.174 8.49a4.427 4.427 0 00-5.417 3.126 4.397 4.397 0 00-.14 1.398c-.02-.001-.037-.009-.056-.009-9.01-.122-13.236 6.054-13.875 7.08-6.648-1.235-13.9 5.057-16.484 14.446a3.315 3.315 0 00.203 6.343l21.362 5.724a3.315 3.315 0 003.347-5.392c1.461-5.6.945-11.074-1.052-15.07.042-.851.563-6.679 6.863-11.745a4.413 4.413 0 002.96 2.642 4.427 4.427 0 005.416-3.128 4.427 4.427 0 00-3.127-5.416z" fill="#314E55"/><path d="M28.15 45.174L6.786 39.45a1.844 1.844 0 01.954-3.56l21.362 5.724a1.844 1.844 0 011.301 2.257 1.844 1.844 0 01-2.255 1.303z" fill="#EAEAEA"/><path d="M29.488 40.19L8.125 34.466l-.343-.092c2.583-8.633 9.297-14.296 15.221-12.709 5.925 1.587 8.908 9.85 6.828 18.617l-.343-.092zm-.63-16.044c-1.238-1.689-2.814-2.957-4.67-3.643.948-1.334 4.21-5.244 10.282-5.924-3.786 3.604-5.13 7.32-5.612 9.567z" fill="#E65F58"/><path d="M40.267 15.61a2.952 2.952 0 01-2.085-3.612 2.952 2.952 0 013.611-2.085 2.951 2.951 0 012.085 3.611 2.952 2.952 0 01-3.611 2.085z" fill="#E4AD40"/></g><defs><clipPath id="clip0"><path transform="rotate(15 10.492 0)" fill="#fff" d="M10.492 0h40.539v40.539H10.492z"/></clipPath></defs></svg>