<svg width="18" height="17" fill="none" xmlns="http://www.w3.org/2000/svg"><g opacity=".7" fill-rule="evenodd" clip-rule="evenodd" fill="#000"><path d="M6.75 2.833c0-.39.336-.708.75-.708h6.75c.414 0 .75.317.75.708 0 .392-.336.709-.75.709H7.5c-.414 0-.75-.317-.75-.709zM3 14.167c0-.39.336-.708.75-.708h6.75c.414 0 .75.317.75.708 0 .392-.336.709-.75.709H3.75c-.414 0-.75-.317-.75-.709z"/><path d="M11.514 2.17c.387.138.584.546.438.912l-4.5 11.334c-.145.366-.577.551-.965.414-.388-.137-.584-.546-.439-.912l4.5-11.333c.145-.366.578-.552.966-.415z"/></g></svg>