<svg width="45" height="45" fill="none" xmlns="http://www.w3.org/2000/svg"><g clip-path="url(#clip0)"><path d="M24.75 18.75v25.5h7.5V18l-3.75-3-3.75 3.75zm12-6v31.5h7.5V12L40.5 9l-3.75 3.75zm-36 16.5v15h7.5v-15L4.5 33 .75 29.25zm12-4.5v19.5h7.5V24l-3.75-3-3.75 3.75z" fill="#57A4FF"/><path d="M36.75 12.75v31.5h7.5V12L40.5 9l-3.75 3.75zm-24 12v19.5h7.5V24l-3.75-3-3.75 3.75zm-12 4.5v15h7.5v-15L4.5 33 .75 29.25zm24-10.5v25.5h7.5V18l-3.75-3-3.75 3.75z" fill="#57A4FF"/><path d="M.75 29.25v15h7.5v-15L4.5 33 .75 29.25zm12-4.5v19.5h7.5V24l-3.75-3-3.75 3.75zm12-6v25.5h7.5V18l-3.75-3-3.75 3.75zm12-6v31.5h7.5V12L40.5 9l-3.75 3.75z" fill="#57A4FF"/><path d="M8.537 28.557a.745.745 0 00-.817.163L4.5 31.94l-3.22-3.22a.75.75 0 00-1.28.53v15c0 .414.336.75.75.75h7.5a.75.75 0 00.75-.75v-15a.75.75 0 00-.463-.693zM7.5 43.5h-6V31.06l2.47 2.47a.75.75 0 001.06 0l2.47-2.47V43.5zm9.469-23.085a.75.75 0 00-1 .055l-3.75 3.75a.75.75 0 00-.219.53v19.5c0 .414.336.75.75.75h7.5a.75.75 0 00.75-.75V24a.75.75 0 00-.281-.585l-3.75-3zM19.5 43.5h-6V25.06l3.056-3.055L19.5 24.36V43.5zm9.469-29.085a.75.75 0 00-1 .055l-3.75 3.75a.75.75 0 00-.219.53v25.5c0 .414.336.75.75.75h7.5a.75.75 0 00.75-.75V18a.75.75 0 00-.281-.585l-3.75-3zM31.5 43.5h-6V19.06l3.056-3.055L31.5 18.36V43.5zm9.469-35.085a.75.75 0 00-1 .055l-3.75 3.75a.75.75 0 00-.219.53v31.5c0 .414.336.75.75.75h7.5a.75.75 0 00.75-.75V12a.75.75 0 00-.281-.585l-3.75-3zM43.5 43.5h-6V13.06l3.056-3.055L43.5 12.36V43.5z" fill="#1E81CE"/><path d="M44.94.464A.75.75 0 0044.25 0h-6a.75.75 0 000 1.5h4.189l-10.94 10.94-2.47-2.47a.75.75 0 00-1.06 0l-7.72 7.72-2.47-2.47a.75.75 0 00-1.06 0L4.498 27.44l-3.22-3.22a.75.75 0 00-1.06 1.06l3.75 3.75a.75.75 0 001.06 0l12.22-12.22 2.47 2.47a.75.75 0 001.06 0l7.72-7.72 2.47 2.47a.75.75 0 001.06 0l11.47-11.47v4.19a.75.75 0 001.5 0v-6a.754.754 0 00-.057-.286z" fill="#1E81CE"/></g><defs><clipPath id="clip0"><path fill="#fff" d="M0 0h45v45H0z"/></clipPath></defs></svg>