<svg width="61" height="76" fill="none" xmlns="http://www.w3.org/2000/svg"><path d="M60.05 31.451L66.25 7.6l7.5-6.333v27.866l-12.5 2.116-1.2.202zM37.5 62.066c3.452 0 6.25 2.836 6.25 6.334h-12.5c0-3.498 2.798-6.334 6.25-6.334z" fill="#9BC9FF"/><path d="M16.25 53.2l4.712-1.089 6.95-1.596 10.4-2.394a15.314 15.314 0 005.438-6.561V34.2l1.175-.202 3.713-.62 11.412-1.926 1.2-.203 12.5-2.115v45.6H1.25l15-15.2V53.2zM67.5 68.4l-10-10.133 10-10.133-10 10.133 10 10.133zm-40 0h20l5-5.066-5 5.066h-3.75c0-3.497-2.798-6.333-6.25-6.333s-6.25 2.836-6.25 6.333H27.5l-5 5.067 5-5.067zm-14.178 1.267l7.928-8.034V57.24l19.072-4.386.77-.522a20.313 20.313 0 007.233-8.73l.425-.977v-4.133l13.75-2.109-13.75 2.11v4.132l-.425.977a20.313 20.313 0 01-7.233 8.73l-.77.522L21.25 57.24v4.392l-7.928 8.034z" fill="#9BC9FF"/><path d="M22.5 30.4c0-2.099 1.68-3.8 3.75-3.8h1.25v-2.534H30V26.6h1.24l-.02-2.524 2.5-.02.02 2.544h3.76v2.533H35V41.8h2.5v2.533h-3.76l-.02 2.543-2.5-.02.02-2.523H30v2.534h-2.5v-2.534h-1.25c-2.07 0-3.75-1.701-3.75-3.8V38c.003-.938.351-1.84.975-2.533a3.806 3.806 0 01-.975-2.534V30.4zm10-1.267h-6.25c-.69 0-1.25.567-1.25 1.267v2.533c0 .7.56 1.267 1.25 1.267h6.25v-5.067zm-7.5 11.4c0 .7.56 1.267 1.25 1.267h6.25v-5.067h-6.25c-.69 0-1.25.567-1.25 1.267v2.533zm5-27.867c.69 0 1.25-.567 1.25-1.266V6.333c0-.7-.56-1.267-1.25-1.267s-1.25.568-1.25 1.267V11.4c0 .7.56 1.266 1.25 1.266zM18.355 15.49c.446 0 .859-.242 1.081-.634a1.281 1.281 0 000-1.266l-2.5-4.388a1.248 1.248 0 00-1.084-.64 1.247 1.247 0 00-1.087.635c-.223.394-.22.88.006 1.272l2.5 4.388c.223.392.637.634 1.084.633zM9.66 23.835c.566 0 1.06-.384 1.207-.939a1.273 1.273 0 00-.582-1.424l-4.33-2.533a1.242 1.242 0 00-1.708.463 1.277 1.277 0 00.458 1.732l4.33 2.533c.19.11.406.169.625.168zM1.25 35.467h5c.69 0 1.25-.567 1.25-1.267s-.56-1.266-1.25-1.266h-5C.56 32.934 0 33.5 0 34.2c0 .7.56 1.267 1.25 1.267zm3.458 14.334c.22 0 .435-.058.625-.168l4.33-2.534c.598-.35.803-1.125.459-1.73a1.242 1.242 0 00-1.709-.465l-4.33 2.534c-.49.286-.728.87-.582 1.424.147.554.642.939 1.207.939z" fill="#1E81CE"/><path d="M0 74.733c0-.028.014-.05.015-.078a1.32 1.32 0 01.067-.335c.012-.04.026-.08.042-.119.058-.132.14-.254.239-.36L15 59.01V53.2c0-.59.403-1.103.971-1.235l1.862-.428c-7.097-5.51-9.72-15.123-6.427-23.545 3.294-8.422 11.705-13.604 20.6-12.69C40.9 16.213 48.115 23 49.676 31.92l9.374-1.582 5.992-23.06c.065-.256.208-.483.408-.652l7.5-6.333c.094-.079.198-.143.31-.192h.024c.13-.05.27-.08.411-.083C73.714.01 73.73 0 73.75 0c.02 0 .041.011.062.012.123.007.244.032.36.074.027.01.056.014.083.027a.118.118 0 01.025.008c.12.058.232.136.328.23.026.026.045.055.069.083a1.291 1.291 0 01.236.393c.055.14.084.289.087.44v73.466c0 .7-.56 1.267-1.25 1.267H1.25a1.245 1.245 0 01-.562-.146c-.13-.07-.25-.16-.355-.266a1.232 1.232 0 01-.223-.335c0-.012-.014-.02-.018-.03a1.3 1.3 0 01-.087-.439c.004-.02-.005-.034-.005-.05zm30-57c-7.899.003-14.816 5.367-16.883 13.092-2.068 7.725 1.227 15.895 8.041 19.942l1.896-.436C16.107 47 12.414 39.193 14.205 31.62c1.791-7.573 8.575-12.837 16.256-12.615 7.682.223 14.159 5.87 15.52 13.534l1.25-.211C45.746 23.869 38.478 17.714 30 17.733zM42.578 33.76c.01-.03.034-.054.047-.083.044-.104.1-.203.169-.292a.974.974 0 01.097-.084 1.22 1.22 0 01.23-.194 1.22 1.22 0 01.142-.054 1.14 1.14 0 01.26-.098c-1.259-6.975-7.486-11.879-14.467-11.393-6.98.486-12.488 6.207-12.794 13.29-.307 7.084 4.685 13.271 11.597 14.374l9.946-2.287a14.654 14.654 0 004.695-5.653V34.2c0-.15.026-.299.078-.44zM72.5 3.97l-5.142 4.343-5.608 21.562L72.5 28.06V3.97zM21.25 73.468c0-.336.132-.658.366-.896l5-5.067c.235-.237.553-.37.884-.37h2.612c.607-3.656 3.73-6.333 7.388-6.333s6.781 2.677 7.388 6.332h2.094l4.634-4.695c.49-.48 1.27-.473 1.752.015.483.489.49 1.279.016 1.776l-5 5.067a1.242 1.242 0 01-.884.37H28.018l-3.75 3.8H72.5V30.63l-3.75.633v16.87c0 .336-.132.658-.366.896l-9.116 9.238 9.116 9.237c.325.318.455.79.34 1.233a1.257 1.257 0 01-.892.904 1.239 1.239 0 01-1.216-.345l-10-10.134a1.28 1.28 0 010-1.79l9.634-9.763V31.685L45 35.269v6.29c0 .175-.037.347-.106.507a16.518 16.518 0 01-5.886 7.103 1.24 1.24 0 01-.418.184l-21.09 4.86v5.32c0 .336-.132.658-.366.896L4.268 73.467H21.25zm11.428-6.334h9.644c-.56-2.234-2.547-3.798-4.822-3.798s-4.261 1.564-4.822 3.798z" fill="#1E81CE"/><path d="M20 57.24c0-.591.404-1.104.973-1.235L39.82 51.67l.577-.39a19.049 19.049 0 006.784-8.187l.319-.734v-3.865c0-.627.451-1.16 1.062-1.254l13.75-2.108c.446-.078.898.095 1.183.451.285.356.357.84.19 1.266a1.251 1.251 0 01-.998.787L50 39.582v3.04a1.276 1.276 0 01-.107.506l-.424.975a21.572 21.572 0 01-7.683 9.274l-.77.522a1.266 1.266 0 01-.418.18L22.5 58.253v3.38c0 .336-.132.658-.367.895l-7.929 8.035a1.238 1.238 0 01-1.215.345 1.258 1.258 0 01-.893-.904 1.278 1.278 0 01.341-1.232L20 61.108V57.24z" fill="#1E81CE"/></svg>