<svg width="70" height="50" fill="none" xmlns="http://www.w3.org/2000/svg"><g clip-path="url(#clip0)"><path d="M24.17 17.288c2.615.003 5.203-.54 7.597-1.594a19.005 19.005 0 009.771-9.77A18.961 18.961 0 1024.17 17.287zM16.584-9.258h11.377A2.527 2.527 0 0130.49-6.73v2.528a2.528 2.528 0 01-2.528 2.528A2.527 2.527 0 0130.49.855v2.528a2.528 2.528 0 01-2.528 2.528h-7.585V-9.258h-3.792z" fill="#9BC9FF"/><path d="M20.377 5.91h7.584a2.528 2.528 0 002.529-2.528V.854a2.527 2.527 0 00-2.529-2.528h-7.584v7.585z" fill="#9BC9FF"/><path d="M24.17 21.08a22.64 22.64 0 005.814-.759 21.769 21.769 0 004.627-1.782 22.792 22.792 0 009.771-9.772 21.752 21.752 0 001.783-4.626A22.754 22.754 0 1024.17 21.08zm0-41.714c10.472 0 18.96 8.488 18.96 18.96 0 10.472-8.488 18.962-18.96 18.962-10.472 0-18.961-8.49-18.961-18.961.003-10.471 8.49-18.958 18.96-18.962z" fill="#9BC9FF"/><path d="M31.755-6.73a3.792 3.792 0 00-3.792-3.792h-1.265v-2.528H24.17v2.528h-1.264v-2.528h-2.528v2.528h-3.792v2.528h2.528V4.647h-2.528v2.528h3.792v2.528h2.528V7.175h1.264v2.528h2.528V7.175h1.265a3.792 3.792 0 003.792-3.792V.855a3.765 3.765 0 00-.986-2.528 3.767 3.767 0 00.986-2.528V-6.73zM21.642-7.993h6.32c.699 0 1.265.566 1.265 1.265V-4.2c0 .698-.566 1.264-1.264 1.264h-6.32v-5.057zm7.585 11.377c0 .698-.566 1.264-1.264 1.264h-6.32V-.409h6.32c.698 0 1.264.566 1.264 1.264v2.528z" fill="#1E81CE"/><path d="M28.51 18.074a19.472 19.472 0 001.814-.48 20.1 20.1 0 006.37-3.413c.127-.103.268-.193.394-.298.22-.183.423-.386.632-.579.253-.226.506-.443.75-.682.18-.18.341-.38.514-.565a20.216 20.216 0 003.71-5.63 19.997 19.997 0 001.702-8.1 20.211 20.211 0 00-35.227-13.52 20.211 20.211 0 0019.15 33.317c.065-.012.127-.036.191-.05zm-4.34-2.05c-9.773 0-17.696-7.923-17.696-17.697S14.397-19.37 24.17-19.37c9.773 0 17.697 7.923 17.697 17.697a17.503 17.503 0 01-1.487 7.09 17.677 17.677 0 01-9.122 9.121 17.506 17.506 0 01-7.088 1.486z" fill="#1E81CE"/><path d="M51.979 2.119a23.996 23.996 0 00-4.172.379A24.093 24.093 0 007.055-18.788a24.094 24.094 0 0021.286 40.752A24.011 24.011 0 1051.979 2.12zM35.598 19.447c.236-.127.462-.275.694-.41.23-.135.433-.253.644-.38.31-.194.608-.404.908-.613.192-.134.388-.26.577-.399.324-.24.632-.497.948-.758.15-.126.308-.24.456-.368a24.26 24.26 0 002.537-2.535c.126-.155.253-.317.38-.474.252-.305.505-.611.738-.93.143-.195.275-.397.414-.597.203-.292.408-.582.598-.884.137-.22.263-.444.394-.668.132-.223.274-.446.4-.676a17.485 17.485 0 016.693-1.316c9.773 0 17.697 7.924 17.697 17.697 0 9.774-7.924 17.697-17.697 17.697-9.774 0-17.697-7.923-17.697-17.697a17.497 17.497 0 011.316-6.69zM2.68-1.673A21.49 21.49 0 0137.952-18.17 21.49 21.49 0 0144.94 3.826a20.556 20.556 0 01-1.684 4.36c-.253.49-.526.97-.818 1.44a21.708 21.708 0 01-8.41 7.788 20.562 20.562 0 01-4.365 1.68A21.481 21.481 0 012.68-1.672zm49.299 49.298a21.481 21.481 0 01-20.946-26.282c.056-.017.109-.04.164-.058.432-.13.86-.272 1.284-.43a20.034 20.034 0 00-.728 5.281c0 11.17 9.056 20.225 20.226 20.225s20.225-9.055 20.225-20.225c0-11.17-9.055-20.225-20.225-20.225-1.785.006-3.56.25-5.28.727.157-.421.3-.85.43-1.285.016-.054.04-.107.056-.163a21.49 21.49 0 114.794 42.435z" fill="#1E81CE"/><path d="M53.244 25.395l6.78-6.78-1.787-1.788-6.257 6.257-6.257-6.257-1.788 1.788 6.78 6.78v.741h-3.792v2.528h3.793v1.264h-3.793v2.528h3.793v7.585h2.528v-7.585h3.792v-2.528h-3.792v-1.264h3.792v-2.528h-3.792v-.74z" fill="#1E81CE"/></g><defs><clipPath id="clip0"><path fill="#fff" d="M0-26h76v76H0z"/></clipPath></defs></svg>