<svg width="45" height="41" fill="none" xmlns="http://www.w3.org/2000/svg"><path d="M22.5 28.344c-5.385 0-9.75-4.365-9.75-9.75s4.365-9.75 9.75-9.75 9.75 4.365 9.75 9.75a9.76 9.76 0 01-9.75 9.75zm0-18a8.25 8.25 0 108.25 8.25 8.26 8.26 0 00-8.25-8.25z" fill="#1E81CE"/><path d="M27 15.594a2.25 2.25 0 00-2.25-2.25H24v-1.5h-1.5v1.5h-.75v-1.5h-1.5v1.5H18v1.5h1.5v7.5H18v1.5h2.25v1.5h1.5v-1.5h.75v1.5H24v-1.5h.75a2.25 2.25 0 002.25-2.25v-1.5a2.236 2.236 0 00-.585-1.5c.375-.41.583-.945.585-1.5v-1.5zm-6-.75h3.75a.75.75 0 01.75.75v1.5a.75.75 0 01-.75.75H21v-3zm4.5 6.75a.75.75 0 01-.75.75H21v-3h3.75a.75.75 0 01.75.75v1.5z" fill="#1E81CE"/><path d="M22.5 30.594c-6.627 0-12-5.373-12-12 0-6.628 5.373-12 12-12 6.628 0 12 5.372 12 12-.007 6.624-5.375 11.992-12 12zm0-22.5c-5.799 0-10.5 4.7-10.5 10.5s4.701 10.5 10.5 10.5c5.8 0 10.5-4.7 10.5-10.5-.006-5.797-4.703-10.494-10.5-10.5zM8.363 32.73a2.25 2.25 0 10-3.182 3.182 2.25 2.25 0 003.182-3.181zm-1.06 2.122a.75.75 0 11-1.06-1.06.75.75 0 011.06 1.06z" fill="#1E81CE"/><path d="M31.928 37.364a20.977 20.977 0 01-21.019-1.275 4.5 4.5 0 10-.956 1.413c.05-.05.094-.104.14-.155a22.473 22.473 0 0022.51 1.354.75.75 0 00-.675-1.34v.003zm-25.157-.042a3 3 0 11.003-6 3 3 0 01-.003 6zm29.867-4.591a2.25 2.25 0 103.181 3.184 2.25 2.25 0 00-3.18-3.184zm2.122 2.122a.75.75 0 11-1.06-1.062.75.75 0 011.06 1.062z" fill="#1E81CE"/><path d="M41.256 31a22.473 22.473 0 001.356-22.5.75.75 0 10-1.34.674 20.98 20.98 0 01-1.275 21.016 4.5 4.5 0 101.259.81zm-.906 5.444a3 3 0 11-4.244-4.243 3 3 0 014.244 4.243zM8.364 1.274a2.25 2.25 0 10-3.181 3.181 2.25 2.25 0 003.181-3.18zm-1.06 2.121a.75.75 0 11-1.06-1.06.75.75 0 011.06 1.06z" fill="#1E81CE"/><path d="M6.772-1.634A4.5 4.5 0 003.59 6.048c.05.05.104.094.156.141A22.47 22.47 0 002.39 28.695a.75.75 0 001.34-.675A20.976 20.976 0 015.003 7.004a4.5 4.5 0 101.768-8.638zm2.122 6.621a3.075 3.075 0 01-4.243 0 3 3 0 114.243 0zm27.744-3.713a2.25 2.25 0 103.182 3.183 2.25 2.25 0 00-3.182-3.183zm2.122 2.122a.75.75 0 11-1.06-1.061.75.75 0 011.06 1.061z" fill="#1E81CE"/><path d="M41.41-.317a4.5 4.5 0 00-6.363 0c-.05.05-.093.104-.14.155a22.475 22.475 0 00-22.519-1.35.75.75 0 10.675 1.34 20.978 20.978 0 0121.028 1.268 4.5 4.5 0 107.32-1.413zm-1.06 5.304a3.075 3.075 0 01-4.242 0 3 3 0 114.243 0z" fill="#1E81CE"/></svg>