<svg width="52" height="52" fill="none" xmlns="http://www.w3.org/2000/svg"><g clip-path="url(#clip0)"><path d="M36.078 26.532c.083-.396.144-.796.182-1.198a11.24 11.24 0 00-1.46-6.766c-3.134-5.43-10.076-7.29-15.505-4.155-5.429 3.134-7.29 10.076-4.155 15.505a11.236 11.236 0 004.72 4.455c.498.25 1.013.463 1.541.639 1.949.65 4.037.758 6.043.313a11.552 11.552 0 001.526-.46 11.34 11.34 0 003.2-1.847 11.265 11.265 0 003.908-6.486zm-7.01 4.81a8.198 8.198 0 11-8.197-14.198 8.198 8.198 0 018.198 14.198z" fill="#9BC9FF"/><path d="M32.07 20.144a8.198 8.198 0 10-14.2 8.198 8.198 8.198 0 0014.2-8.198zm-5 1.43a1.26 1.26 0 01-.462 1.723 1.265 1.265 0 011.723.462l.63 1.092a1.065 1.065 0 01.139.385c.007.034.017.068.02.103l.005.022-.003.05c.005.087 0 .174-.013.26-.004.025-.007.051-.013.077a1.3 1.3 0 01-.102.299l-.014.021a1.254 1.254 0 01-.167.243c-.018.02-.035.04-.054.059a1.25 1.25 0 01-.26.204l-2.73 1.576.96 1.63-.96-1.63-.546.316-3.783-6.553.546-.316-.932-1.646.932 1.646 2.73-1.576a1.261 1.261 0 011.723.461l.63 1.093z" fill="#9BC9FF"/><path d="M24.716 20.02l-3.277 1.893 1.892 3.276 3.277-1.892c.603-.348.81-1.12.462-1.722l-.631-1.092a1.261 1.261 0 00-1.723-.462zm4.385 5.216c.007.034.017.069.021.103-.004-.035-.014-.069-.021-.103zm-.005.511zm-.134-.897zm.018 1.219zm-.222.299zm.366-.955zm0-.053c0-.007-.003-.014-.004-.021.002.024 0 .048.001.072 0-.017.005-.034.003-.05zm-.312.95zm.184-.264c-.004.007-.01.014-.013.021a.086.086 0 01.013-.021zm.114-.376c-.005.026-.008.052-.014.077l.014-.077zm-.043-.584z" fill="#9BC9FF"/><path d="M25.186 28.4h.152l3.162-1.826a1.234 1.234 0 00.313-.265c.065-.074.122-.155.168-.242.003-.007.009-.014.013-.021a1.3 1.3 0 00.102-.3 1.28 1.28 0 00.026-.336c-.001-.024.001-.048-.001-.072-.002-.023-.012-.066-.02-.103-.009-.05-.02-.1-.034-.15a1.3 1.3 0 00-.105-.234l-.63-1.092a1.265 1.265 0 00-1.723-.462l-3.277 1.892 1.854 3.211z" fill="#9BC9FF"/><path d="M25.223 28.465l.115-.066h-.152l.037.066z" fill="#9BC9FF"/><path d="M18.348 12.775a.63.63 0 01-.861-.23l-1.261-2.185a.63.63 0 111.092-.63l1.26 2.184a.63.63 0 01-.23.861zm-5.078 5.078a.63.63 0 01-.63 0l-2.185-1.261a.63.63 0 01.63-1.092l2.185 1.26a.63.63 0 010 1.093zm-1.858 6.937a.626.626 0 01-.316.084H8.575a.63.63 0 010-1.261h2.522a.631.631 0 01.316 1.177zm1.859 6.936l-2.184 1.26a.63.63 0 01-.63-1.091l2.184-1.261a.63.63 0 01.63 1.092zm3.817 7.262a.631.631 0 01-.862-.862l1.261-2.184a.631.631 0 111.093.63l-1.261 2.185a.628.628 0 01-.231.23zM41.682 24.79a.627.627 0 01-.316.084h-2.522a.631.631 0 110-1.261h2.522a.63.63 0 01.316 1.177zm-2.198-8.199L37.3 17.853a.63.63 0 01-.63-1.093l2.184-1.26a.63.63 0 01.63 1.091zm-7.262-3.816a.63.63 0 01-.861-.862l1.26-2.184a.63.63 0 011.093.63l-1.26 2.185a.626.626 0 01-.232.23zm-6.936-1.859a.63.63 0 01-.945-.547V7.847a.63.63 0 011.261 0v2.522a.63.63 0 01-.316.547z" fill="#1E81CE"/><path d="M45.417 31.196l-8.639-4.988a11.862 11.862 0 00-1.431-7.955c-3.309-5.73-10.636-7.694-16.367-4.386-5.73 3.309-7.694 10.636-4.385 16.367a11.867 11.867 0 004.986 4.704c.387.192.785.362 1.19.512l-.002 9.976a.63.63 0 001.035.484l3.382-2.818 3.382 2.816a.63.63 0 001.033-.487l-.001-10.14c.938-.38 1.818-.887 2.616-1.51l8.782 5.073a.63.63 0 00.938-.651l-.747-4.337 4.131-1.52a.63.63 0 00.098-1.138l-.001-.002zM28.34 44.078l-2.753-2.29a.63.63 0 00-.806 0l-2.754 2.293v-8.228c.236.058.474.11.713.158.068.013.136.02.204.033.182.032.365.061.548.084.092.011.185.02.278.029.16.016.32.033.48.041a11.184 11.184 0 001.065.017c.159-.004.317-.013.476-.024l.284-.018c.175-.016.349-.038.522-.062.078-.01.156-.017.233-.03a11.42 11.42 0 001.509-.34v8.337zm.408-9.803c-.47.178-.952.323-1.442.435a10.688 10.688 0 01-5.706-.296c-.5-.166-.987-.368-1.457-.604a10.616 10.616 0 01-4.457-4.207c-2.96-5.127-1.203-11.683 3.924-14.644 5.127-2.96 11.684-1.203 14.644 3.924a10.6 10.6 0 011.378 6.392c-.036.38-.094.758-.173 1.132a10.593 10.593 0 01-3.691 6.125 10.736 10.736 0 01-3.02 1.743zm11.51-1.424a.631.631 0 00-.404.7l.609 3.528-7.217-4.167a12.151 12.151 0 00.746-.783c.06-.07.118-.141.177-.214.118-.141.235-.282.345-.429.065-.087.128-.175.191-.263a9.866 9.866 0 00.466-.702 10.885 10.885 0 00.626-1.158 6.17 6.17 0 00.142-.308c.069-.158.132-.318.194-.477.038-.094.077-.19.11-.286.077-.215.145-.433.207-.652.013-.044.028-.089.042-.131v-.006l7.126 4.115-3.36 1.233z" fill="#1E81CE"/><path d="M26.986 20.167a1.892 1.892 0 00-2.585-.692l-.546.315-.63-1.092-1.092.63.63 1.093-.541.312-.62-1.093-1.097.622.624 1.102-1.642.948.63 1.092 1.092-.63 3.153 5.461-1.092.63.63 1.093 1.644-.949.641 1.092 1.088-.64-.637-1.082.541-.313.63 1.092 1.093-.63-.63-1.093.546-.315a1.85 1.85 0 00.273-.197c.028-.024.054-.049.081-.074.056-.053.108-.11.156-.169.023-.028.048-.055.07-.085a1.84 1.84 0 00.159-.26c.015-.03.027-.063.04-.096a1.991 1.991 0 00.154-.587c.001-.017.006-.033.007-.05a1.994 1.994 0 00-.002-.29c-.002-.011-.006-.022-.007-.033a1.9 1.9 0 00-.04-.21 1.574 1.574 0 00-.04-.176 1.879 1.879 0 00-.159-.357l-.63-1.092a1.879 1.879 0 00-1.057-.847 1.88 1.88 0 00-.205-1.338l-.63-1.092zm-1.093.63l.631 1.093a.63.63 0 01-.23.861l-2.731 1.577-1.261-2.185 2.73-1.576a.63.63 0 01.861.23zm-.439 6.807l-1.26-2.184 2.73-1.577a.63.63 0 01.861.231l.63 1.092a.58.58 0 01.081.245.648.648 0 01-.015.212.688.688 0 01-.024.07.624.624 0 01-.107.19.63.63 0 01-.165.145l-2.73 1.576z" fill="#1E81CE"/><path d="M29.384 31.889a8.828 8.828 0 113.231-12.06 8.838 8.838 0 01-3.231 12.06zm-8.198-14.2a7.567 7.567 0 1010.337 2.77 7.575 7.575 0 00-10.337-2.77z" fill="#1E81CE"/></g><defs><clipPath id="clip0"><path transform="rotate(-30 0 19)" fill="#fff" d="M0 19h38v38H0z"/></clipPath></defs></svg>