<svg width="17" height="17" fill="none" xmlns="http://www.w3.org/2000/svg"><g opacity=".7" fill="#000"><path fill-rule="evenodd" clip-rule="evenodd" d="M8.499 2.126a6.375 6.375 0 100 12.75 6.375 6.375 0 000-12.75zM.707 8.5a7.792 7.792 0 1115.583 0 7.792 7.792 0 01-15.583 0z"/><path fill-rule="evenodd" clip-rule="evenodd" d="M8.499 7.792c.39 0 .708.317.708.709v2.833a.708.708 0 01-1.417 0V8.501c0-.392.317-.709.709-.709z"/><path d="M9.207 5.667a.708.708 0 11-1.417 0 .708.708 0 011.417 0z"/></g></svg>