<svg width="82" height="82" fill="none" xmlns="http://www.w3.org/2000/svg"><g clip-path="url(#clip0)"><path d="M41 82c22.644 0 41-18.356 41-41S63.644 0 41 0 0 18.356 0 41s18.356 41 41 41z" fill="#324A5E"/><path d="M5.05 60.713C12.018 73.394 25.51 82 41 82c15.492 0 28.985-8.606 35.951-21.287h-71.9z" fill="#2B3B4E"/><path d="M64.965 51.878H17.032a.43.43 0 01-.423-.422V17.844a.43.43 0 01.423-.422h47.933a.43.43 0 01.422.422v33.628a.416.416 0 01-.422.406z" fill="#E6E9EE"/><path d="M62.742 20.832H19.273v27.636h43.469V20.832z" fill="#fff"/><path d="M72.92 57.205H9.075l6.09-4.352a5.191 5.191 0 013.02-.974h45.611c1.088 0 2.143.34 3.02.974l6.106 4.352z" fill="#CED5E0"/><path d="M9.074 57.205a3.59 3.59 0 003.589 3.589H69.3a3.59 3.59 0 003.588-3.589H9.074z" fill="#ACB3BA"/><path d="M45.711 58.309h-9.434v1.217h9.434V58.31z" fill="#324A5E"/><path d="M24.86 23.156h-3.313v3.313h3.312v-3.313z" fill="#4CDBC4"/><path d="M24.86 28.025h-3.313v3.313h3.312v-3.313z" fill="#FF7058"/><path d="M32.102 34.327h2.11a7.374 7.374 0 016.382-6.09v-2.11c-4.4.406-7.924 3.832-8.492 8.2z" fill="#84DBFF"/><path d="M34.146 36.129h-2.11c.275 4.676 3.945 8.427 8.556 8.866v-2.111c-3.458-.422-6.186-3.248-6.446-6.755z" fill="#4CDBC4"/><path d="M48.857 36.129c-.26 3.507-2.988 6.333-6.462 6.755v2.11a9.47 9.47 0 008.557-8.865h-2.095z" fill="#84DBFF"/><path d="M50.887 34.327c-.569-4.352-4.092-7.794-8.492-8.2v8.2h8.492z" fill="#FF7058"/><path d="M52.544 24.324l-3.247 3.264.893.893 2.89-2.874h4.336v-1.283h-4.872zM29.325 45.043h-4.466v1.282h4.985l2.712-2.711-.91-.893-2.321 2.322zm3.803-17.118l-2.112-2.113-.907.907 2.112 2.113.907-.907zm18.57 16.914l-2.124-2.124-.907.907 2.124 2.124.907-.907z" fill="#324A5E"/></g><defs><clipPath id="clip0"><path fill="#fff" d="M0 0h82v82H0z"/></clipPath></defs></svg>