<svg width="15" height="15" fill="none" xmlns="http://www.w3.org/2000/svg"><path fill-rule="evenodd" clip-rule="evenodd" d="M2.543 1.833a.708.708 0 00-.708.708v9.917c0 .39.317.708.708.708h9.917a.708.708 0 00.708-.708V2.54a.708.708 0 00-.708-.708H2.543zM.418 2.54c0-1.174.951-2.125 2.125-2.125h9.917c1.173 0 2.125.951 2.125 2.125v9.917a2.125 2.125 0 01-2.125 2.125H2.543a2.125 2.125 0 01-2.125-2.125V2.54z" fill="#000"/><path fill-rule="evenodd" clip-rule="evenodd" d="M.418 5.374c0-.39.317-.708.708-.708h12.75a.708.708 0 010 1.417H1.126a.708.708 0 01-.708-.709z" fill="#000"/><path fill-rule="evenodd" clip-rule="evenodd" d="M5.376 4.666c.391 0 .709.317.709.708v8.5a.708.708 0 11-1.417 0v-8.5c0-.39.317-.708.708-.708z" fill="#000"/></svg>