<svg width="16" height="11" fill="none" xmlns="http://www.w3.org/2000/svg"><path d="M14.75 1.959H5c-.45 0-.75-.284-.75-.709s.3-.708.75-.708h9.75c.45 0 .75.283.75.708s-.3.709-.75.709zm0 4.25H5c-.45 0-.75-.284-.75-.709s.3-.708.75-.708h9.75c.45 0 .75.283.75.708s-.3.709-.75.709zm0 4.25H5c-.45 0-.75-.284-.75-.709s.3-.708.75-.708h9.75c.45 0 .75.283.75.708s-.3.709-.75.709zm-13.5-8.5H1.1c-.075 0-.075 0-.15-.071-.075 0-.075-.071-.15-.071s-.075-.07-.075-.07c-.075-.072-.15-.143-.15-.213C.5 1.463.5 1.32.5 1.25c0-.07 0-.212.075-.283C.65.897.65.825.725.754.95.542 1.25.471 1.55.613c.075.07.15.07.225.141.15.142.225.284.225.496a.627.627 0 01-.225.496.7.7 0 01-.525.213zm0 4.25a.7.7 0 01-.525-.213A.627.627 0 01.5 5.5v-.14c0-.071 0-.071.075-.142 0-.07.075-.07.075-.142 0-.07.075-.07.075-.07.075-.071.15-.142.225-.142.3-.142.6-.071.825.141l.075.071c0 .071.075.071.075.142 0 .07 0 .07.075.142v.14a.627.627 0 01-.225.496.7.7 0 01-.525.213zm0 4.25a.7.7 0 01-.525-.213A.627.627 0 01.5 9.75c0-.07 0-.212.075-.283.075-.07.075-.142.15-.213a.755.755 0 011.05 0c.15.142.225.284.225.496a.627.627 0 01-.225.496.7.7 0 01-.525.213z" fill="#000"/></svg>