<svg width="17" height="16" fill="none" xmlns="http://www.w3.org/2000/svg"><path fill-rule="evenodd" clip-rule="evenodd" d="M9.05 1.834A4.396 4.396 0 0112.04.71c1.115.01 2.18.43 2.969 1.172a3.886 3.886 0 011.244 2.793A3.878 3.878 0 0115.06 7.49l-.008.008-2.125 2c-.431.406-.95.72-1.52.92a4.494 4.494 0 01-3.524-.238c-.534-.275-1-.655-1.365-1.114a.641.641 0 01.143-.933.738.738 0 01.991.134c.244.307.554.56.91.743a2.996 2.996 0 002.349.158 2.838 2.838 0 001.014-.613l2.12-1.995a2.585 2.585 0 00.792-1.872 2.59 2.59 0 00-.83-1.863 2.924 2.924 0 00-1.979-.78 2.93 2.93 0 00-1.99.745L8.825 3.926a.74.74 0 01-1.002-.003.64.64 0 01.003-.942l1.219-1.14.007-.007z" fill="#000"/><path fill-rule="evenodd" clip-rule="evenodd" d="M5.597 5.582a4.494 4.494 0 013.523.238 4.2 4.2 0 011.366 1.114.641.641 0 01-.143.933.738.738 0 01-.992-.134 2.791 2.791 0 00-.91-.743 2.996 2.996 0 00-2.349-.158 2.86 2.86 0 00-1.014.613L2.958 9.44a2.585 2.585 0 00-.791 1.872c.006.7.304 1.368.83 1.863a2.924 2.924 0 001.978.78 2.93 2.93 0 001.99-.744l1.206-1.136a.74.74 0 011.002 0 .64.64 0 010 .943l-1.212 1.14-.008.008a4.396 4.396 0 01-2.99 1.123 4.386 4.386 0 01-2.968-1.172A3.886 3.886 0 01.75 11.324 3.878 3.878 0 011.943 8.51l.009-.008 2.125-2c.43-.406.949-.72 1.52-.92z" fill="#000"/></svg>