<svg width="259" height="53" fill="none" xmlns="http://www.w3.org/2000/svg"><path d="M11.97 43.501c-2.067.052-3.808-.172-5.222-.672a9.503 9.503 0 01-3.076-2.042c-1.31-1.655-2.025-4.266-2.146-7.834-.052-2.964.733-6.351 2.353-10.16a44.517 44.517 0 015.558-9.333c2.827-3.292 5.86-5.955 9.1-7.988 2.293-1.43 4.447-2.379 6.464-2.844-.328.155-.655.319-.983.491-2.068 1.069-4.36 2.852-6.877 5.352-3.36 3.395-6.618 7.652-9.772 12.77-3.137 5.102-4.817 9.575-5.041 13.419.069 2.637.879 4.688 2.43 6.153 1.551 1.464 3.421 2.214 5.61 2.249a13.767 13.767 0 003.438-.853 10.907 10.907 0 003-1.06c1.895-1.017 3.86-2.81 5.894-5.378a56.423 56.423 0 002.585-3.826c.483-.776.965-1.543 1.448-2.301-.638 2.672-2.051 5.36-4.24 8.066-1.913 2.344-4.154 4.007-6.722 4.99-.62.241-1.24.43-1.861.569a17.51 17.51 0 01-2.896.439c-1.568-.035-2.99-.328-4.266-.879-1.223-.414-2.206-1.043-2.947-1.887a1.027 1.027 0 00-.129-.155l-.31-.31C1.397 38.39.38 35.572.312 32.022c.43-6.946 3.696-13.737 9.797-20.373C16.211 4.998 22.527 1.43 29.06.947c2.362.052 4.146.69 5.352 1.913 1.206 1.207 1.81 2.74 1.81 4.602-.12 2.827-1.18 5.257-3.18 7.29-.172.173-.353.345-.543.518-.672 1.293-1.551 2.628-2.637 4.007-1.172 1.465-2.37 2.671-3.594 3.62.552 1.068.845 2.326.88 3.774-.035 1-.173 1.99-.414 2.973.413-.638.818-1.267 1.215-1.887.086-.138.224-.12.413.051.207.173.268.328.181.466-.603 1.275-1.085 2.206-1.447 2.792-.88 1.5-2.069 3.232-3.568 5.196-1.5 1.965-3.12 3.577-4.86 4.835A15.163 15.163 0 0115.77 42.7c-.603.224-1.224.413-1.861.569-.655.137-1.302.215-1.94.232zM22.7 8.6c1.24-1.224 2.671-1.87 4.291-1.94.552 0 1.095.104 1.629.311.552.19.845.457.879.801a.423.423 0 01-.052.233c-.017.052-.077.078-.18.078-.225-.035-.423-.19-.595-.466-.173-.293-.552-.456-1.138-.49-1.258.085-2.508.792-3.748 2.12a2.821 2.821 0 00-.207.232 6.895 6.895 0 011.55-.233c.656 0 1.156.078 1.5.233.362.138.69.422.983.853-.086.103-.13.18-.13.233-.12.19-.206.258-.258.206-.259-.19-.414-.293-.465-.31-.431-.19-.836-.284-1.215-.284-1.035.034-2.129.482-3.284 1.344a6.627 6.627 0 00-.44 2.068c.018 1.103.337 1.982.957 2.637.62.638 1.43.966 2.43.983 1.224-.086 2.422-.526 3.594-1.319 2.034-3.481 3.016-6.55 2.947-9.203-.034-1.276-.474-2.206-1.318-2.792-.828-.586-1.913-.862-3.258-.828-1.361.035-3.352 1.06-5.972 3.077-3.516 2.688-6.85 6.403-10.005 11.142C9.42 19.872 7.8 22.94 6.335 26.49c-1.465 3.533-2.155 6.472-2.068 8.816.137 4.877 2.714 7.247 7.73 7.11a10.38 10.38 0 001.81-.207c2.774-1.104 5.187-3.198 7.238-6.283 2.861-4.309 4.352-8.014 4.473-11.117 0-.448-.043-.879-.13-1.292-1.861 1.224-3.774 1.861-5.739 1.913-1.396.052-2.62-.37-3.671-1.267a5.81 5.81 0 01-.776-.827 17.73 17.73 0 00-.723.827c-2.017 2.482-3.086 4.998-3.206 7.55.017 1.12.293 2.007.827 2.662.552.638 1.301.965 2.25.983.55 0 1.05-.104 1.499-.31a4.09 4.09 0 001.24-.906c.673-.74 1.095-1.396 1.267-1.964.173-.57.354-.87.543-.905.104 0 .181.026.233.077.052.052.078.138.078.259-.018.465-.449 1.24-1.293 2.327-.827 1.085-2 1.697-3.516 1.835-1.224-.034-2.267-.551-3.128-1.551-.845-1.017-1.284-2.335-1.319-3.955.12-2.724 1.267-5.145 3.439-7.265a19.78 19.78 0 011.137-1.008 4.69 4.69 0 01-.18-1.319c-.104-3.137 1.249-5.894 4.058-8.273 1.034-.879 2.043-1.577 3.025-2.094A6.847 6.847 0 0122.7 8.6zm3.567 9.333c-1.55-.018-2.852-.483-3.903-1.396-1.035-.914-1.569-2.12-1.603-3.62-.414.414-.828.888-1.241 1.422-1.879 2.361-2.939 4.524-3.18 6.49a10.6 10.6 0 014.472-1.19c1.707.034 3.103.569 4.189 1.603.81-.896 1.646-1.99 2.507-3.284l.13-.18a9.03 9.03 0 01-1.37.155zm-1.784 3.62c-.672-.897-1.723-1.363-3.154-1.397-1.792.138-3.447.836-4.963 2.094.12.655.44 1.19.956 1.603.638.517 1.414.75 2.327.698 1.534-.034 3.18-.982 4.938-2.844l-.104-.155zm10.29-15.435c-.017-1.362-.465-2.465-1.344-3.31-.862-.844-2.086-1.275-3.672-1.292-1.465-.017-3.05.353-4.756 1.112a13.95 13.95 0 012.482-.336c1.792-.07 3.3.422 4.524 1.473 1.396 1.207 2.137 2.887 2.223 5.042v.077c.293-.913.474-1.835.543-2.766zm17.632 24.224h-2.973l-2.844 7.782H45.01c-.07.12-.13.241-.181.362a7.075 7.075 0 01-.181.336h-.259a1.167 1.167 0 00-.336-.543c-.155-.155-.396-.233-.724-.233-.362 0-.69.078-.982.233-.293.155-.638.353-1.034.594h-.207a477.037 477.037 0 003.076-5.015 103.616 103.616 0 002.637-4.524h-.129c-.017 0-.034-.009-.052-.026a3.52 3.52 0 00-1.034.465 4.09 4.09 0 00-.853.698.175.175 0 01-.13.052c-.171 0-.258-.13-.258-.388 0-.207.095-.379.285-.517.207-.155.44-.284.698-.388.276-.103.56-.18.853-.232.293-.052.543-.095.75-.13l.129.026a1.6 1.6 0 01.103-.18l.104-.207.543-1.035c.19-.344.362-.672.517-.982l.026-.052c.103-.258.163-.517.18-.775.035-.276.052-.517.052-.724 0-.914-.241-1.37-.724-1.37-.517 0-1.154.603-1.913 1.81-.637 1.033-1.051 1.904-1.24 2.61-.052.173-.138.259-.26.259-.258 0-.361-.146-.31-.44.173-.878.612-1.852 1.32-2.92.844-1.294 1.645-1.94 2.403-1.94.638 0 1.146.362 1.526 1.086l.026.052c.327-.776.5-1.38.517-1.81 0-.672-.32-1.008-.957-1.008-.258 0-.526.095-.801.284a4.067 4.067 0 00-.724.569c-.5.551-.931 1.086-1.293 1.603-.345.5-.646.948-.905 1.344-.241.38-.456.698-.646.957-.172.24-.336.37-.491.387-.086 0-.138-.017-.155-.051a.36.36 0 01-.026-.155c.034-.224.207-.57.517-1.034.31-.466.74-1.07 1.292-1.81 1.155-1.5 2.284-2.336 3.387-2.508.345.017.63.104.853.259.242.137.423.318.543.543.138.224.233.482.285.775.051.293.077.595.077.905 0 .603-.095 1.284-.284 2.042a22.601 22.601 0 01-.672 2.301 12.783 12.783 0 01-.181 1.5l2.973.31 2.3-6.23h2.095l.543-1.035c.206-.362.43-.767.672-1.215h.258c.07.224.181.414.336.569.155.138.397.207.724.207.362 0 .69-.078.983-.233.293-.155.637-.353 1.034-.595h.207c-1.035 1.638-2 3.198-2.896 4.68a410.811 410.811 0 00-2.482 4.24c.242 0 .457-.009.647-.026.206-.017.405-.06.594-.13a3.32 3.32 0 00.62-.284c.225-.138.466-.319.724-.543a.287.287 0 01.13-.026c.034 0 .069-.017.103-.051.052-.052.078-.009.078.129 0 .293-.086.526-.259.698-.172.172-.405.31-.698.414a4.211 4.211 0 01-1.008.207c-.38.034-.776.051-1.19.051l-.542 1.009c-1.586 2.878-2.465 4.877-2.637 5.997.103.414.319.62.646.62.758 0 1.474-.62 2.146-1.86.38-.707.724-1.586 1.034-2.638.086-.206.19-.31.31-.31.207 0 .285.112.233.336a10.751 10.751 0 01-1.086 2.973c-.741 1.345-1.577 2.051-2.508 2.12h.156c.258 0 .525-.086.801-.258.276-.19.517-.388.724-.595.5-.551.922-1.077 1.267-1.577.362-.517.663-.965.905-1.344.258-.397.473-.715.646-.957.19-.241.362-.379.517-.413.086 0 .138.017.155.051a.361.361 0 01.026.155c-.035.224-.207.57-.517 1.035a45.06 45.06 0 01-1.293 1.81c-1.155 1.499-2.283 2.334-3.387 2.507-.517-.035-.904-.19-1.163-.465a2.102 2.102 0 01-.517-1.035c-.38-.723-.569-1.568-.569-2.533 0-.776.078-1.577.233-2.405.155-.827.345-1.56.569-2.197zm15.02 8.842a5.448 5.448 0 01-1.551-.207c-1.172-.017-2.06-.483-2.663-1.396-.603-.914-.905-2.224-.905-3.93.259-4.136 1.767-7.368 4.525-9.695 2.774-2.326 5.222-3.507 7.342-3.541 1.258 0 2.197.448 2.818 1.344.62.896.93 2.197.93 3.904-.24 4.17-1.732 7.42-4.472 9.746-.276.242-.552.474-.827.698-1.448 2.051-3.18 3.077-5.197 3.077zm2.094-2.637c.603-.965 1.215-2.284 1.836-3.956 1.275-3.378 1.913-5.644 1.913-6.8 0-.568-.069-.964-.207-1.188-.276-.5-.784-.75-1.525-.75-1.345 0-2.775 1.827-4.292 5.48-1.327 3.19-1.99 5.447-1.99 6.774 0 .724.137 1.319.413 1.784.207.328.5.534.88.62 1.016-.327 2.007-.982 2.972-1.964zm4.757-15.745c-1.413.293-2.766 1.155-4.059 2.586a6.655 6.655 0 011.448-.155c1.293 0 2.258.396 2.895 1.189.414.5.699 1.094.854 1.784.586-1.483.913-2.629.982-3.439-.017-.603-.224-1.077-.62-1.422-.38-.362-.88-.543-1.5-.543zm21.225 3.646c-.12 1.982-.517 3.817-1.189 5.506-.655 1.672-1.689 3.215-3.102 4.628-2.827 2.81-5.455 4.274-7.885 4.395-1.293-.086-2.232-.491-2.818-1.215-.586-.741-.88-1.543-.88-2.404.052-.897.285-1.957.699-3.18a39.21 39.21 0 011.577-3.904 59.82 59.82 0 012.223-4.266 119.925 119.925 0 012.508-4.24 94.028 94.028 0 012.533-3.852 54.476 54.476 0 012.25-3.076c.361-.466.767-.931 1.215-1.396.465-.466.939-.888 1.422-1.267.482-.397.956-.741 1.421-1.034a8.23 8.23 0 011.293-.698c1.224-.535 2.422-.698 3.594-.492.603.121 1.077.328 1.422.62.344.294.586.647.723 1.06.138.415.181.871.13 1.371a5.479 5.479 0 01-.31 1.448 6.628 6.628 0 01-.647 1.37c-.258.43-.543.802-.853 1.112-.483.569-1.094 1.129-1.835 1.68-.742.534-1.5 1.06-2.276 1.577-.413.293-1.016.62-1.81.983a77.27 77.27 0 00-2.43 1.189c.897-.052 1.63.25 2.198.905.569.637.845 1.697.827 3.18zM81.308 36.883c.017.637.172 1.094.465 1.37.31.258.69.388 1.138.388 2.396-.535 4.852-2.939 7.368-7.213 1.276-2.155 2.198-3.973 2.766-5.455.586-1.482.931-2.646 1.034-3.49 0-.724-.215-1.224-.646-1.5-.43-.293-.956-.405-1.577-.336-.62.07-1.275.302-1.965.698a6.28 6.28 0 00-1.81 1.5 206.825 206.825 0 00-2.87 4.808 74.43 74.43 0 00-2.3 4.214c-.62 1.259-1.086 2.327-1.396 3.206-.293.88-.362 1.482-.207 1.81zm7.834-15.719c.379-.155.81-.327 1.292-.517.5-.19 1.017-.405 1.551-.646.552-.241 1.112-.5 1.68-.776a41.58 41.58 0 001.707-.93 10.23 10.23 0 001.836-1.396 15.158 15.158 0 001.654-1.836c.5-.655.922-1.327 1.267-2.017.345-.689.577-1.335.698-1.938.121-.604.103-1.138-.052-1.603-.155-.466-.482-.802-.982-1.009-.914-.172-2.103.423-3.568 1.784a22.549 22.549 0 00-4.007 5.274l-3.516 5.817.207-.103c.069-.035.146-.07.233-.104zm-6.205 18.252c-1.81-.206-2.939-.698-3.387-1.473-.448-.776-.586-1.922-.413-3.439.206-1.775 1.163-4.343 2.87-7.704 1.257-2.447 3.153-5.74 5.687-9.876 1.103-1.775 2.232-3.335 3.386-4.679 1.483-1.74 2.87-3.025 4.163-3.852 1.896-1.172 2.913-1.784 3.05-1.836 1.62-.723 3.284-.982 4.99-.775a3.147 3.147 0 012.172 1.137c.586.655.836 1.38.749 2.172-.206 1.793-1.034 3.516-2.481 5.17-1.224 1.414-2.896 2.793-5.016 4.137-1.327.879-3.343 2-6.05 3.36.897.104 1.509.707 1.836 1.81.259.845.319 1.862.181 3.051-.31 2.654-1.689 5.464-4.136 8.428-2.637 3.206-5.171 4.662-7.601 4.37zm9.359-23.94l-4.24 7.136c5.567-1.861 9.729-4.309 12.487-7.342 1.947-2.19 3.059-4.464 3.335-6.825a1.963 1.963 0 00-.311-1.319c-.241-.413-.586-.646-1.034-.698-1.275-.138-2.904.672-4.886 2.43-1.982 1.758-3.766 3.964-5.351 6.619zm-9.54 23.19c1.069.121 2.206-.594 3.412-2.145.638-.827 1.509-2.24 2.612-4.24a46.543 46.543 0 002.404-4.834c.655-1.552 1.034-2.715 1.138-3.49a1.57 1.57 0 00-.337-1.138c-.258-.328-.611-.517-1.06-.569l-3.464 1.344-4.317 8.196c-1.138 2.206-1.758 3.731-1.862 4.576-.069.603.035 1.129.31 1.577.293.43.681.672 1.164.724zm20.062-8.117l-.181.233.077.103a3.14 3.14 0 01.259-.233c-.379.5-.75.991-1.112 1.474-.362.483-.698.948-1.008 1.396-.379.534-.715 1.06-1.008 1.577-.414.793-.681 1.465-.802 2.017a1.474 1.474 0 000 .672 3.165 3.165 0 01-.672-1.164 4.145 4.145 0 01-.207-1.267c0-.689.112-1.378.336-2.068.224-.706.517-1.396.88-2.068a20.08 20.08 0 011.214-2.017c.466-.654.931-1.292 1.396-1.913.276-.448.457-.835.543-1.163.138-.69-.163-1.034-.905-1.034-.654 0-1.43.345-2.326 1.034a.3.3 0 01-.052.078c-.017 0-.034.008-.052.025-.172.138-.344.285-.517.44-.982.896-1.689 1.758-2.12 2.585a.438.438 0 01-.413.233c-.397 0-.5-.138-.31-.414.913-1.327 1.749-2.326 2.507-2.999.242-.207.483-.396.724-.568.172-.259.397-.578.672-.957a32.2 32.2 0 011.086-1.318c1.258-1.517 2.482-2.379 3.671-2.586.379.018.698.12.957.31.258.19.465.44.62.75.155.293.267.62.336.983.069.361.104.715.104 1.06-.035.81-.25 1.62-.647 2.43a19.71 19.71 0 01-1.396 2.43c.431-.259.914-.5 1.448-.724a5.818 5.818 0 011.629-.414 3.324 3.324 0 011.551.155c.483.156.888.492 1.215 1.009.362.603.586 1.198.672 1.784a4.325 4.325 0 01-.051 1.758c0 .155-.018.318-.052.49-.379 1.776-1.594 3.31-3.645 4.603-2.051 1.275-4.275 1.913-6.67 1.913-1.397 0-2.362-.164-2.896-.491-.862-.5-1.138-1.491-.827-2.974.12-.534.43-1.275.93-2.223a23.386 23.386 0 011.733-2.715l.853-1.163 1.422-1.99c.069-.121.137-.233.206-.337.328-.43.638-.844.931-1.24.31-.397.595-.785.853-1.164.207.12.371.259.491.414.397.517.509 1.18.337 1.99a7.294 7.294 0 01-.621 1.63 2.77 2.77 0 00.233-.156l.258-.155c-.138.207-.284.413-.439.62-.138.207-.285.414-.44.62-.207.19-.379.345-.517.466-.12.12-.207.198-.258.233zm11.323-1.526c.328-.758.629-1.421.905-1.99l.879-1.758c.31-.586.646-1.207 1.008-1.861l1.293-2.405h.259c.069.224.181.414.336.569.155.138.396.207.724.207.361 0 .689-.078.982-.233.293-.155.638-.353 1.034-.595h.207a173.59 173.59 0 00-1.241 1.965c-.396.638-.784 1.267-1.163 1.887h1.654l-7.342 10.342c-.483 1.085-.733 1.887-.75 2.404 0 .62.267.956.802 1.008.517-.103 1.051-.362 1.603-.775l.077-.078c.5-.551.922-1.077 1.267-1.577.362-.517.663-.965.905-1.344.258-.397.474-.715.646-.957.19-.241.362-.379.517-.413.086 0 .138.017.155.051a.364.364 0 01.026.155c-.034.156-.095.31-.181.466.259 0 .336.103.233.31-.5 1-1.164 1.93-1.991 2.792-1.31 1.327-2.611 1.99-3.904 1.99-.844 0-1.447-.335-1.809-1.008-.362-.689-.44-1.482-.233-2.378.138-.707.37-1.422.698-2.146a9.924 9.924 0 011.215-1.99l.259-.362c.137-.397.284-.785.439-1.164.172-.379.336-.75.491-1.112zm-13.185 9.23c.362.155.828.112 1.396-.13a6.995 6.995 0 001.319-.749c.465-.345.931-.741 1.396-1.19.465-.447.922-.93 1.37-1.447.448-.534.862-1.069 1.241-1.603.155-.362.276-.732.362-1.111.138-.604.078-1.112-.181-1.526-.258-.413-.62-.62-1.086-.62-.793 0-1.697.284-2.714.853-1.017.551-1.87 1.223-2.56 2.016-.224.259-.439.517-.646.776-.483.741-.845 1.448-1.086 2.12-.224.655-.241 1.267-.052 1.835.121.328.293.518.517.57.242.05.483.12.724.206zm4.188-16.236c0-.275-.077-.49-.232-.646-.138-.172-.345-.258-.621-.258-.344 0-.724.146-1.137.44a8.22 8.22 0 00-1.164 1.059c-.379.396-.732.81-1.06 1.241-.31.414-.551.758-.723 1.034a4.709 4.709 0 011.809-.362c.759 0 1.345.12 1.758.362a11.45 11.45 0 00.957-1.551c.258-.483.396-.922.413-1.319zm2.431 5.947a4.34 4.34 0 00-1.267.232 5.8 5.8 0 00-1.112.466 5.48 5.48 0 00-.905.594c-.258.207-.491.405-.698.595l-.31.414a7.71 7.71 0 00-.31.387 6.659 6.659 0 011.784-1.008c.81-.293 1.697-.44 2.663-.44.706 0 1.327.156 1.861.466.086-.534 0-.957-.259-1.267-.258-.327-.741-.474-1.447-.44zm-3.749 1.24l-1.008 1.345.207-.776c.051-.086.163-.198.336-.336.172-.155.379-.327.62-.517a4.245 4.245 0 01-.155.284zm-3.438 9.411h.129a2.95 2.95 0 01-.828-.31 3.384 3.384 0 01-.62-.492c.052.121.13.242.233.362.258.294.62.44 1.086.44zm22.853-.62c.173 0 .302-.01.388-.026.983-.466 2.146-1.733 3.49-3.8 1.483-2.259 3.568-5.999 6.257-11.22.379-.777 1.198-1.423 2.456-1.94 1.258-.534 2.611-.801 4.059-.801l-.207.724c-.207 0-.397.103-.569.31.086.017.224.026.414.026.482-.018.862-.13 1.137-.336.276-.224.552-.431.828-.62h.258a69.74 69.74 0 00-1.861 2.869 107.832 107.832 0 00-1.888 3.128 302.05 302.05 0 00-1.835 3.154 113.802 113.802 0 00-1.603 2.973c-.448 1.19-.784 2.215-1.008 3.077-.259.948-.388 1.594-.388 1.939 0 .155.017.284.052.387.31-.293.715-.758 1.215-1.396a49.586 49.586 0 001.706-2.249 84.284 84.284 0 001.991-2.818 201.558 201.558 0 002.094-3.076l3.516-7.73h1.008l.078-.155h.103v.155h2.094l-.258.62c.206-.103.387-.224.542-.362a14.8 14.8 0 01.543-.413h.259c-.586.93-1.155 1.86-1.706 2.792-.552.913-1.103 1.835-1.655 2.766l-3.645 8.738a3.17 3.17 0 00-.259.957c-.034.31-.051.586-.051.827 0 .965.249 1.508.749 1.629.121-.07.233-.147.336-.233l.311-.31c.982-1.086 1.663-2.103 2.042-3.05.414-.949.75-1.466 1.008-1.552.19 0 .285.069.285.207-.052.327-.405 1.017-1.06 2.068-.328.5-.638.957-.931 1.37a8.204 8.204 0 01-.879 1.06 1.499 1.499 0 01-.233.233c-.086.052-.172.12-.258.207.879-.155 1.723-.888 2.533-2.198.535-.844 1.017-1.904 1.448-3.18.104-.24.241-.362.414-.362.276 0 .379.138.31.414a12.1 12.1 0 01-1.474 3.542c-1.068 1.689-2.266 2.533-3.593 2.533a2.19 2.19 0 01-.983-.206h-.025c-.552 0-1.026-.233-1.422-.698-.397-.466-.604-1.198-.621-2.198a10 10 0 01.233-2.094c.155-.724.362-1.456.62-2.197-1.671 2.93-2.637 4.567-2.895 4.912-1.172 1.654-2.249 2.481-3.232 2.481-.327 0-.629-.069-.905-.206-.413-.018-.749-.293-1.008-.828-.258-.551-.37-1.24-.336-2.068.017-.224.069-.465.155-.724.035-.758.129-1.585.285-2.482.224-1.258.491-2.292.801-3.102l1.293-3.36c-.5.792-.983 1.568-1.448 2.326-.448.741-.871 1.43-1.267 2.068-.379.638-.724 1.207-1.034 1.706-.31.483-.56.862-.75 1.138-2.275 3.275-4.119 5.05-5.532 5.326-.311.137-.595.206-.853.206-.914 0-1.681-.353-2.301-1.06-.604-.723-.905-1.62-.905-2.688 0-.983.267-1.801.801-2.456.552-.655 1.233-.983 2.043-.983.637 0 1.163.199 1.577.595.43.38.646.87.646 1.474 0 .465-.112.87-.336 1.215-.052.327-.181.577-.388.75a1.215 1.215 0 01-.75.232c-.344 0-.612-.043-.801-.13a9.633 9.633 0 01-.491-.284.656.656 0 00-.388.13.853.853 0 00-.284.362c0 .603.137 1.111.413 1.525.293.396.664.595 1.112.595.241 0 .508-.06.801-.181 1.172-.276 2.586-1.543 4.24-3.8-1.637 2.464-3.016 3.963-4.136 4.498h-.207a.575.575 0 01-.181.026 4.41 4.41 0 01-1.344-.233c-.483-.155-.871-.38-1.164-.672-.551-.638-.827-1.405-.827-2.301 0-.845.215-1.517.646-2.017.448-.5 1.034-.75 1.758-.75.569 0 1.043.199 1.422.595.396.38.595.819.595 1.319a.58.58 0 01-.026.18v.156a1.104 1.104 0 01-.129.155c-.293.362-.63.543-1.009.543-.396 0-.698-.052-.905-.155a10.83 10.83 0 01-.542-.337c-.345 0-.517.285-.517.854a.796.796 0 00-.078.362c0 .24.06.465.181.672.138.19.31.353.517.491a3.3 3.3 0 00.646.336c.242.069.466.104.672.104zm4.706-3.93c.775-1.051 1.732-2.465 2.869-4.24a741.78 741.78 0 003.852-6.05l.621-1.577a6.743 6.743 0 00-1.06.957 6.11 6.11 0 00-.853 1.215c-2.499 4.67-4.18 7.696-5.042 9.074l-.465.724c.017-.017.026-.034.026-.051a2.31 2.31 0 01.052-.052zm5.739 3.981a.278.278 0 01-.052.078c-.017 0-.034.008-.051.026h.155c.465 0 1.258-.87 2.378-2.611a59.322 59.322 0 002.198-3.62 174.85 174.85 0 01-1.241 1.784 48.635 48.635 0 01-1.241 1.68 85.665 85.665 0 01-1.138 1.5c-.362.448-.698.836-1.008 1.163zm6.412.026c-.069-.12-.147-.25-.233-.388a1.946 1.946 0 00-.129-.258c.086.293.206.508.362.646zm26.163 1.112c-.862 0-1.603-.336-2.224-1.008-.62-.69-.93-1.483-.93-2.379 0-2.223 1.37-4.309 4.11-6.256.741-.845 1.491-1.69 2.249-2.534.776-.862 1.379-1.767 1.81-2.715a2.312 2.312 0 00-.336-.723c-.259-.38-.689-.57-1.293-.57-.706 0-1.275.13-1.706.389-.414.24-.62.594-.62 1.06 0 .517.129.775.387.775.311 0 .466.362.466 1.086 0 .43-.155.767-.466 1.008-.293.242-.723.362-1.292.362-.707 0-1.06-.517-1.06-1.551 0-1.034.413-1.922 1.241-2.663.827-.758 1.93-1.137 3.309-1.137.672 0 1.284.163 1.835.49l.052-.387c.017-.138.026-.276.026-.414 0-.327-.086-.62-.259-.879-.172-.258-.439-.387-.801-.387-.241 0-.638.137-1.189.413-.534.259-1.258.759-2.172 1.5a28.789 28.789 0 00-1.577 1.5c-.413.43-.758.8-1.034 1.11a73.41 73.41 0 01-.62.699c-.138.155-.259.241-.362.258a.28.28 0 01-.207-.077.274.274 0 01-.052-.155c.172-.448 1.06-1.465 2.663-3.05 1.637-1.638 3.266-2.56 4.886-2.767.465-.104.879-.112 1.241-.026.362.069.672.216.931.44.258.224.465.508.62.853.155.327.259.69.31 1.085a5.902 5.902 0 01-.051 1.733 5.24 5.24 0 01-.569 1.706c-.103.19-.215.388-.336.595-.121.19-.25.387-.388.594-.362.914-.982 1.784-1.861 2.611l-.285.233c-.551.672-1.103 1.353-1.654 2.042a56.956 56.956 0 00-1.526 1.94c-.448.62-.827 1.197-1.137 1.731-.31.535-.491.992-.543 1.37-.034.38.078.664.336.854.276.19.758.258 1.448.207.172-.018.457-.104.853-.259.414-.155.922-.457 1.525-.905.155-.224.233-.44.233-.646 0-.362-.147-.543-.44-.543-.224 0-.439-.12-.646-.362a1.304 1.304 0 01-.31-.879c0-.534.172-.974.517-1.318.362-.362.845-.543 1.448-.543.362 0 .672.129.93.387.259.259.388.56.388.905 0 .5-.077.974-.232 1.422.43-.413.792-.784 1.085-1.111.293-.328.535-.612.724-.854.207-.24.379-.422.517-.543.138-.137.259-.215.362-.232.086 0 .147.026.181.077.052.052.078.104.078.155-.173.449-1.06 1.465-2.663 3.051-.224.224-.44.431-.646.62-.207.19-.423.362-.647.518a4.516 4.516 0 01-.724.672c-1.206.948-2.507 1.422-3.903 1.422zm15.744 0a5.444 5.444 0 01-1.551-.207c-1.172-.017-2.06-.483-2.663-1.396-.603-.914-.905-2.224-.905-3.93.259-4.136 1.767-7.368 4.524-9.695 2.775-2.326 5.223-3.507 7.343-3.541 1.258 0 2.197.448 2.818 1.344.62.896.93 2.197.93 3.904-.241 4.17-1.732 7.42-4.472 9.746-.276.242-.552.474-.828.698-1.447 2.051-3.179 3.077-5.196 3.077zm2.094-2.637c.603-.965 1.215-2.284 1.836-3.956 1.275-3.378 1.913-5.644 1.913-6.8 0-.568-.069-.964-.207-1.188-.276-.5-.784-.75-1.525-.75-1.345 0-2.775 1.827-4.292 5.48-1.327 3.19-1.991 5.447-1.991 6.774 0 .724.138 1.319.414 1.784.207.328.5.534.879.62 1.017-.327 2.008-.982 2.973-1.964zm4.757-15.745c-1.413.293-2.766 1.155-4.059 2.586a6.661 6.661 0 011.448-.155c1.293 0 2.258.396 2.895 1.189a4.2 4.2 0 01.854 1.784c.586-1.483.913-2.629.982-3.439-.017-.603-.224-1.077-.62-1.422-.38-.362-.879-.543-1.5-.543zm20.476 3.284l2.352-3.439c.172.052.379.12.621.207.241.086.525.138.853.155a9.559 9.559 0 001.499-.155c.466-.086.81-.138 1.034-.155.155 0 .276.026.362.077.086.035.13.113.13.233 0 .172-.078.276-.233.31-.138.035-.31.052-.517.052a1.82 1.82 0 00-.983.259c-.258.155-.551.405-.879.75-.844.878-1.87 2.455-3.076 4.73a775.895 775.895 0 00-3.93 7.575 182.382 182.382 0 01-3.748 6.929l-.854 2.197c-.982 2.465-2.232 4.352-3.748 5.662-1.5 1.276-3.335 2.086-5.507 2.43-1.206.38-2.482.578-3.826.595-2.172-.069-3.749-.474-4.731-1.215-.983-.741-1.474-1.543-1.474-2.404.035-.604.216-1.078.543-1.422a1.568 1.568 0 011.215-.466h.233c.103-.241.25-.482.439-.724.586-.724 1.259-1.085 2.017-1.085.465 0 .905.155 1.318.465.414.327.621.793.621 1.396 0 1.138-.431 1.706-1.293 1.706a1.61 1.61 0 01-.724-.18 12.57 12.57 0 00-.698-.26c-.207 0-.31.182-.31.544 0 .603.284 1.137.853 1.603.776.672 1.844 1.008 3.206 1.008a7.29 7.29 0 001.965-.259c.93-.448 1.87-1.129 2.818-2.042.81-.862 1.654-1.93 2.533-3.206a44.615 44.615 0 002.275-3.62l3.93-9.125c-1.758 2.688-2.689 4.084-2.792 4.188-1.62 2.085-3.008 3.128-4.162 3.128-.793 0-1.414-.396-1.862-1.19-.448-.792-.672-1.74-.672-2.843 0-.5.043-1 .129-1.5v-.232c.224-3.792 1.741-7.032 4.55-9.72 2.81-2.707 5.559-4.12 8.247-4.24 1 .034 1.664.275 1.991.723.345.448.5.914.465 1.396l-.18 1.164zm-4.059 2.43c0-.758-.104-1.293-.311-1.603-.206-.328-.465-.491-.775-.491-.466 0-.983.37-1.551 1.111-.655.862-1.862 2.879-3.62 6.05-.586 1.12-1.223 2.5-1.913 4.136-.448 1.086-.75 1.905-.905 2.456.242.207.543.31.905.31 1.258-.327 2.749-1.473 4.473-3.438.241-.362.491-.732.749-1.111a29.925 29.925 0 002.172-4.576c.517-1.328.776-2.275.776-2.844zm.749-.465l.492-1.267c.172-.448.439-.672.801-.672h1.267a7.94 7.94 0 00.388-1.397c0-.448-.121-.792-.362-1.034-.242-.241-.578-.362-1.009-.362-1.275.259-2.628 1.086-4.059 2.482a4.22 4.22 0 01.466-.026c.706 0 1.215.225 1.525.673.328.43.491.965.491 1.602zm-9.074 12.77a3.265 3.265 0 01-.853-.154v.155c0 .19.06.413.181.672.138.258.301.388.491.388.534 0 1.301-.543 2.301-1.629l.439-.491c-.879.672-1.732 1.025-2.559 1.06zm-11.944 11.324c.017.431.302.836.853 1.215.534.397 1.344.612 2.43.647h.336c-1.189-.207-2.154-.647-2.895-1.319a4.662 4.662 0 01-.672-.775 3.995 3.995 0 00-.052.232zm34.488-10.961a5.444 5.444 0 01-1.551-.207c-1.172-.017-2.06-.483-2.663-1.396-.604-.914-.905-2.224-.905-3.93.258-4.136 1.766-7.368 4.524-9.695 2.775-2.326 5.222-3.507 7.342-3.541 1.258 0 2.198.448 2.818 1.344.621.896.931 2.197.931 3.904-.241 4.17-1.732 7.42-4.473 9.746a27.11 27.11 0 01-.827.698c-1.448 2.051-3.18 3.077-5.196 3.077zm2.094-2.637c.603-.965 1.215-2.284 1.835-3.956 1.276-3.378 1.913-5.644 1.913-6.8 0-.568-.069-.964-.206-1.188-.276-.5-.785-.75-1.526-.75-1.344 0-2.775 1.827-4.291 5.48-1.327 3.19-1.991 5.447-1.991 6.774 0 .724.138 1.319.414 1.784.207.328.5.534.879.62 1.017-.327 2.008-.982 2.973-1.964zm4.757-15.745c-1.414.293-2.767 1.155-4.059 2.586a6.654 6.654 0 011.448-.155c1.292 0 2.257.396 2.895 1.189.414.5.698 1.094.853 1.784.586-1.483.914-2.629.983-3.439-.018-.603-.224-1.077-.621-1.422-.379-.362-.879-.543-1.499-.543zm6.877 17.193c.172 0 .301-.01.387-.026.983-.466 2.146-1.733 3.49-3.8 1.483-2.259 3.568-5.999 6.257-11.22.379-.777 1.198-1.423 2.456-1.94 1.258-.534 2.611-.801 4.059-.801l-.207.724c-.207 0-.396.103-.569.31.086.017.224.026.414.026.482-.018.862-.13 1.137-.336.276-.224.552-.431.828-.62h.258a69.74 69.74 0 00-1.861 2.869 105.632 105.632 0 00-1.887 3.128 285.388 285.388 0 00-1.836 3.154 113.802 113.802 0 00-1.603 2.973c-.448 1.19-.784 2.215-1.008 3.077-.259.948-.388 1.594-.388 1.939 0 .155.017.284.052.387.31-.293.715-.758 1.215-1.396a49.586 49.586 0 001.706-2.249 84.284 84.284 0 001.991-2.818 201.558 201.558 0 002.094-3.076l3.516-7.73h1.008l.078-.155h.103v.155h2.094l-.258.62c.206-.103.387-.224.543-.362.172-.138.353-.276.542-.413h.259c-.586.93-1.155 1.86-1.706 2.792-.552.913-1.103 1.835-1.655 2.766l-3.645 8.738a3.17 3.17 0 00-.259.957c-.034.31-.051.586-.051.827 0 .965.25 1.508.749 1.629.121-.07.233-.147.336-.233l.311-.31c.982-1.086 1.663-2.103 2.042-3.05.414-.949.75-1.466 1.008-1.552.19 0 .285.069.285.207-.052.327-.405 1.017-1.06 2.068-.328.5-.638.957-.931 1.37a8.204 8.204 0 01-.879 1.06 1.456 1.456 0 01-.233.233c-.086.052-.172.12-.258.207.879-.155 1.723-.888 2.533-2.198.535-.844 1.017-1.904 1.448-3.18.104-.24.241-.362.414-.362.276 0 .379.138.31.414a12.1 12.1 0 01-1.474 3.542c-1.068 1.689-2.266 2.533-3.593 2.533a2.19 2.19 0 01-.983-.206h-.025c-.552 0-1.026-.233-1.422-.698-.397-.466-.603-1.198-.621-2.198a10 10 0 01.233-2.094c.155-.724.362-1.456.62-2.197-1.671 2.93-2.637 4.567-2.895 4.912-1.172 1.654-2.249 2.481-3.232 2.481-.327 0-.629-.069-.905-.206-.413-.018-.749-.293-1.008-.828-.258-.551-.37-1.24-.336-2.068.017-.224.069-.465.155-.724.035-.758.129-1.585.285-2.482.224-1.258.491-2.292.801-3.102l1.293-3.36c-.5.792-.983 1.568-1.448 2.326-.448.741-.87 1.43-1.267 2.068-.379.638-.724 1.207-1.034 1.706-.31.483-.56.862-.75 1.138-2.275 3.275-4.119 5.05-5.532 5.326-.31.137-.595.206-.853.206-.914 0-1.681-.353-2.301-1.06-.604-.723-.905-1.62-.905-2.688 0-.983.267-1.801.801-2.456.552-.655 1.233-.983 2.043-.983.637 0 1.163.199 1.577.595.431.38.646.87.646 1.474 0 .465-.112.87-.336 1.215-.052.327-.181.577-.388.75a1.215 1.215 0 01-.75.232c-.344 0-.611-.043-.801-.13a9.633 9.633 0 01-.491-.284.656.656 0 00-.388.13.86.86 0 00-.284.362c0 .603.137 1.111.413 1.525.293.396.664.595 1.112.595.241 0 .508-.06.801-.181 1.172-.276 2.586-1.543 4.24-3.8-1.637 2.464-3.016 3.963-4.136 4.498h-.207a.575.575 0 01-.181.026 4.41 4.41 0 01-1.344-.233c-.483-.155-.871-.38-1.164-.672-.551-.638-.827-1.405-.827-2.301 0-.845.215-1.517.646-2.017.448-.5 1.034-.75 1.758-.75.569 0 1.043.199 1.422.595.397.38.595.819.595 1.319a.58.58 0 01-.026.18v.156a1.104 1.104 0 01-.129.155c-.293.362-.629.543-1.009.543-.396 0-.698-.052-.904-.155a10.453 10.453 0 01-.543-.337c-.345 0-.517.285-.517.854a.796.796 0 00-.078.362c0 .24.06.465.181.672.138.19.31.353.517.491a3.3 3.3 0 00.646.336c.242.069.466.104.673.104zm4.705-3.93c.775-1.051 1.732-2.465 2.869-4.24a767.97 767.97 0 003.853-6.05l.62-1.577a6.743 6.743 0 00-1.06.957 6.152 6.152 0 00-.853 1.215c-2.499 4.67-4.18 7.696-5.041 9.074l-.466.724c.017-.017.026-.034.026-.051l.052-.052zm5.739 3.981a.278.278 0 01-.052.078c-.017 0-.034.008-.051.026h.155c.465 0 1.258-.87 2.378-2.611a59.322 59.322 0 002.198-3.62 174.85 174.85 0 01-1.241 1.784 47.361 47.361 0 01-1.241 1.68 85.665 85.665 0 01-1.138 1.5c-.362.448-.698.836-1.008 1.163zm6.412.026c-.069-.12-.147-.25-.233-.388a1.946 1.946 0 00-.129-.258c.086.293.206.508.362.646z" fill="#fff"/></svg>