<svg width="59" height="35" fill="none" xmlns="http://www.w3.org/2000/svg"><path d="M16.896.112c4.288 0 7.792 1.392 10.512 4.176l-3.552 3.456c-1.024-.96-2.08-1.664-3.168-2.112-1.088-.448-2.304-.672-3.648-.672-1.728 0-3.136.4-4.224 1.2-1.056.8-1.584 1.888-1.584 3.264 0 .768.176 1.408.528 1.92.352.512.928.992 1.728 1.44.832.448 2.032.928 3.6 1.44 2.784.864 4.912 2 6.384 3.408 1.472 1.408 2.208 3.36 2.208 5.856 0 1.888-.48 3.696-1.44 5.424-.96 1.696-2.464 3.088-4.512 4.176C17.68 34.176 15.104 34.72 12 34.72c-4.8 0-8.608-1.552-11.424-4.656l3.744-3.648c1.056 1.088 2.208 1.92 3.456 2.496 1.28.544 2.736.816 4.368.816 2.144 0 3.824-.48 5.04-1.44 1.248-.992 1.872-2.336 1.872-4.032 0-1.216-.416-2.192-1.248-2.928-.8-.768-2.256-1.52-4.368-2.256-3.04-1.024-5.264-2.224-6.672-3.6-1.376-1.408-2.064-3.216-2.064-5.424 0-1.664.464-3.248 1.392-4.752.928-1.536 2.304-2.784 4.128-3.744 1.856-.96 4.08-1.44 6.672-1.44zm40.612 12.624h-3.456l-2.64 9.744h2.976l-.624 4.224H50.26L48.292 34h-5.04l1.968-7.296h-5.904L37.348 34h-5.04l1.968-7.296h-2.88l.624-4.224h3.408l2.592-9.744h-2.88l.624-4.272h3.408l1.824-6.768h5.088L44.26 8.464h5.904l1.824-6.768h5.04l-1.824 6.768h2.928l-.624 4.272zM46.372 22.48l2.64-9.744h-5.904l-2.64 9.744h5.904z" fill="#2D9CDB"/></svg>