<svg width="61" height="75" fill="none" xmlns="http://www.w3.org/2000/svg"><g clip-path="url(#clip0)"><path d="M7.952 17.289a45.242 45.242 0 0016.099 0l.125-.025 5.575-1.012 6.875-13.75H-4.623l6.875 13.75 5.574 1.012.126.025zm18.11-7.34l-3.416 6.83 3.416-6.83zm-15.457 6.83l-3.388-6.777 3.388 6.777zM29.75 66.25v-7.5h-2.5v-1.325a15 15 0 113.276-13.674h12.887A57.9 57.9 0 0029.6 21.276l-5.55 1.013c-2.64.477-5.317.718-7.999.72l-.05 4.492.054-4.492a45.15 45.15 0 01-8.104-.72l-5.55-1.013c-7.424 7-15.149 21.025-15.149 29.974 0 13.813 14.937 22.5 28.749 22.5a35.013 35.013 0 0011.25-1.888V66.25h2.5zm-.978-37.454zm-20.12-6.27z" fill="#9BC9FF"/><path d="M16.055 23.01a45.24 45.24 0 008-.72l5.55-1.013.146-.025v-5l-5.575 1.013-.125.024a45.242 45.242 0 01-16.1 0l-.124-.024-5.575-1.013v5l.15.025 5.55 1.012a45.15 45.15 0 008.103.72zM29.75 66.25h-2.5v7.5h7.5v-7.5h-5zm20 0v7.5h7.5v-7.5h-7.5zm0 0h-7.5v7.5h7.5v-7.5zm-12.5 0h-2.5v7.5h7.5v-7.5h-5zm-2.5-7.5h-5v7.5h7.5v-7.5h-2.5zm7.5 0h-5v7.5h7.5v-7.5h-2.5zm10 0h-7.5v7.5h7.5v-7.5zm0 7.5h7.5v-7.5h-7.5v7.5zm-2.5-15v7.5h7.5v-7.5h-7.5zm-5 7.5h5v-7.5h-7.5v7.5h2.5zm-10 0h7.5v-7.5h-7.5v7.5zm0-7.5h-7.5v7.5h7.5v-7.5z" fill="#9BC9FF"/><path d="M49.75 51.25h2.5v-7.499h-7.5v7.5h5zm-20 0h7.5v-7.499h-7.5v7.5zm27.5 0h2.5v-7.499h-7.5v7.5h5zm-20 0h7.5v-7.499h-7.5v7.5z" fill="#9BC9FF"/><path d="M23.501 42.5a3.75 3.75 0 00-3.75-3.75h-1.25v-2.499h-2.5v2.5h-1.25v-2.5h-2.5v2.5H8.503v2.5h2.5v12.5h-2.5v2.5h3.75v2.5h2.5v-2.5h1.25v2.5h2.5v-2.5h1.25a3.75 3.75 0 003.75-3.75V50a3.727 3.727 0 00-.975-2.5A3.725 3.725 0 0023.5 45v-2.5zm-10-1.25h6.25c.69 0 1.25.56 1.25 1.25V45c0 .691-.56 1.25-1.25 1.25h-6.25v-5zm7.5 11.25c0 .69-.56 1.25-1.25 1.25h-6.25v-5h6.25c.69 0 1.25.56 1.25 1.25v2.5z" fill="#1E81CE"/><path d="M59.75 52.5c.69 0 1.25-.559 1.25-1.25v-7.499c0-.69-.56-1.25-1.25-1.25H44.311A59.997 59.997 0 0031 20.902v-4.355l7.375-14.735c0-.012 0-.025.01-.038.03-.077.051-.157.064-.239.026-.081.042-.165.05-.25 0-.014.007-.023.007-.037a1.135 1.135 0 00-.035-.174 1.262 1.262 0 00-.053-.265 1.294 1.294 0 00-.116-.206 1.114 1.114 0 00-.135-.198 1.216 1.216 0 00-.21-.164 1.254 1.254 0 00-.142-.112c-.011 0-.025 0-.037-.01a1.353 1.353 0 00-.24-.065 1.289 1.289 0 00-.25-.049c-.013.006-.024-.002-.038-.002a12.053 12.053 0 00-5.846 1.375 9.535 9.535 0 01-4.779 1.125 9.535 9.535 0 01-4.78-1.125A12.063 12.063 0 0016 .003a12.04 12.04 0 00-5.842 1.375 9.522 9.522 0 01-4.783 1.125A9.525 9.525 0 01.598 1.377 12.057 12.057 0 00-5.248.003c-.014 0-.025.008-.039.008a1.177 1.177 0 00-.25.049 1.23 1.23 0 00-.237.064c-.013 0-.027 0-.038.01-.05.035-.099.072-.144.113a1.153 1.153 0 00-.208.163 1.07 1.07 0 00-.134.2 1.187 1.187 0 00-.117.204 1.272 1.272 0 00-.053.265 1.182 1.182 0 00-.03.174c0 .014.007.023.007.037.008.085.025.169.05.25.013.081.035.161.064.237.006.013 0 .027.01.038L1 16.547v4.362c-7.207 7.11-14.999 21.011-14.999 30.342C-13.998 65.92 1.574 75 16.001 75a36.278 36.278 0 0010-1.464v.214c0 .69.56 1.25 1.25 1.25h29.998c.69 0 1.25-.56 1.25-1.25V67.5h1.25c.69 0 1.25-.56 1.25-1.25v-7.5c0-.69-.56-1.25-1.25-1.25H58.5v-5h1.25zM58.5 50h-5v-4.999h5v5zM26 51.25v5.69a13.75 13.75 0 112.93-14.131c-.012.008-.016.024-.026.033-.078.08-.145.169-.2.266a1.177 1.177 0 00-.093.137c-.072.16-.11.332-.11.506v6.25h-1.25c-.69 0-1.25.56-1.25 1.25zM38.5 65v-5h5v5h-5zM36 57.5v-5h5v5h-5zm0-12.499v5h-5v-5h5zm7.5 5h-5v-5h5v5zm-15 2.5h5v5h-5v-5zM31 60h5v5h-5v-5zm10 7.5v5h-5v-5h5zm2.5 0h5v5h-5v-5zM46 65v-5h5v5h-5zm-2.5-7.5v-5h5v5h-5zM46 50v-5h5v5h-5zM-3.136 2.684a10.39 10.39 0 012.668.95 12.047 12.047 0 005.844 1.368 12.036 12.036 0 005.842-1.368 9.525 9.525 0 014.783-1.131 9.538 9.538 0 014.782 1.131 12.058 12.058 0 005.842 1.368 12.054 12.054 0 005.847-1.368c.842-.436 1.74-.756 2.668-.95l-6.226 12.45-4.448.808 2.716-5.433a1.25 1.25 0 00-2.236-1.119l-3.416 6.83c-.022.064-.04.128-.052.193a43.79 43.79 0 01-9.662.145 1.157 1.157 0 00-.091-.337L8.338 9.444A1.25 1.25 0 106.1 10.56l2.807 5.615c-.237-.039-.473-.069-.708-.111l-5.108-.932-6.228-12.45zM28.5 17.752v2.457l-4.67.853a43.998 43.998 0 01-7.75.703h-.047a44.028 44.028 0 01-7.86-.704L3.5 20.207v-2.455l.44.08 3.787.69a46.476 46.476 0 0016.576-.009l4.197-.76zM16 72.5c-16.985 0-27.498-11.03-27.498-21.25 0-8.484 7.457-21.9 14.303-28.623l3.414.625a40.733 40.733 0 00-1.805 2.179 1.25 1.25 0 001.982 1.523 31.05 31.05 0 012.795-3.202 46.67 46.67 0 005.599.486l-.04 3.249a1.25 1.25 0 001.236 1.265h.015a1.25 1.25 0 001.25-1.235l.039-3.282a45.855 45.855 0 004.115-.3c.468-.054.936-.114 1.403-.184a45.16 45.16 0 014.953 5.782 1.25 1.25 0 102.02-1.471 50.277 50.277 0 00-3.967-4.824l3.375-.616a57.355 57.355 0 0112.484 19.88h-10.22a16.269 16.269 0 00-31.147.587 16.267 16.267 0 0026.296 16.704c.192.13.417.202.648.208h1.25v5h-1.25c-.69 0-1.25.559-1.25 1.25v4.707A33.898 33.898 0 0116 72.5zm12.5-5h5v5h-5v-5zm27.5 5h-5v-5h5v5zm2.5-7.5h-5v-5h5v5zM56 57.5h-5v-5h5v5z" fill="#1E81CE"/></g><defs><clipPath id="clip0"><path fill="#fff" d="M-14 0h75v75h-75z"/></clipPath></defs></svg>