<svg width="22" height="22" fill="none" xmlns="http://www.w3.org/2000/svg"><path fill-rule="evenodd" clip-rule="evenodd" d="M11 9.167a1.833 1.833 0 100 3.666 1.833 1.833 0 000-3.666zM7.333 11a3.667 3.667 0 117.334 0 3.667 3.667 0 01-7.334 0z" fill="url(#paint0_linear)"/><path fill-rule="evenodd" clip-rule="evenodd" d="M11 1.833a.917.917 0 00-.917.917v.16a2.43 2.43 0 01-1.472 2.223.917.917 0 01-.242.066 2.43 2.43 0 01-2.502-.556l-.007-.007-.055-.055a.92.92 0 00-1.297 0h-.001a.917.917 0 000 1.297l.063.063a2.43 2.43 0 01.497 2.653 2.43 2.43 0 01-2.213 1.562H2.75a.916.916 0 100 1.834h.16a2.43 2.43 0 012.22 1.468 2.429 2.429 0 01-.487 2.675l-.007.007-.055.055a.92.92 0 000 1.297v.001a.917.917 0 001.297 0l.063-.063a2.43 2.43 0 012.653-.497 2.43 2.43 0 011.562 2.213v.104a.916.916 0 101.834 0v-.16a2.43 2.43 0 011.468-2.22 2.429 2.429 0 012.675.487l.007.007.055.055a.922.922 0 001 .2.918.918 0 00.297-.2h.001a.918.918 0 000-1.297l-.063-.063a2.43 2.43 0 01-.487-2.675 2.428 2.428 0 012.22-1.467h.087a.917.917 0 000-1.834h-.16a2.43 2.43 0 01-2.223-1.472.91.91 0 01-.066-.242 2.43 2.43 0 01.556-2.502l.007-.007.055-.055a.92.92 0 00.2-1 .918.918 0 00-.2-.297v-.001a.918.918 0 00-1.297 0l-.063.063a2.43 2.43 0 01-2.675.487 2.43 2.43 0 01-1.467-2.22V2.75A.917.917 0 0011 1.833zm6.783 11.917l.839.37a.595.595 0 00.116.655l.05.05a2.753 2.753 0 01.598 2.998 2.752 2.752 0 01-.597.893l-.648-.649.648.648a2.75 2.75 0 01-3.89 0l-.051-.05a.595.595 0 00-.655-.116l-.008.004a.596.596 0 00-.362.543v.154a2.75 2.75 0 11-5.5 0v-.07a.596.596 0 00-.39-.536.941.941 0 01-.053-.022.595.595 0 00-.655.116l-.05.05a2.754 2.754 0 01-2.998.598 2.751 2.751 0 01-.892-4.488l.05-.05a.596.596 0 00.116-.655l-.004-.008a.596.596 0 00-.543-.362H2.75a2.75 2.75 0 110-5.5h.07a.596.596 0 00.536-.39.927.927 0 01.022-.053.596.596 0 00-.116-.655l-.05-.05a2.75 2.75 0 113.89-3.89l.05.05a.596.596 0 00.655.116.917.917 0 01.182-.058.596.596 0 00.261-.49V2.75a2.75 2.75 0 115.5 0v.08a.596.596 0 00.361.544l.01.004a.596.596 0 00.653-.116l.05-.05a2.75 2.75 0 113.892 3.89l-.05.05a.595.595 0 00-.117.655c.026.058.045.12.058.182a.596.596 0 00.49.261h.153a2.75 2.75 0 010 5.5h-.08a.596.596 0 00-.544.361l-.843-.361z" fill="url(#paint1_linear)"/><defs><linearGradient id="paint0_linear" x1="11" y1="0" x2="11" y2="22" gradientUnits="userSpaceOnUse"><stop stop-color="#0075FF"/><stop offset="1" stop-color="#8000FF"/></linearGradient><linearGradient id="paint1_linear" x1="11" y1="0" x2="11" y2="22" gradientUnits="userSpaceOnUse"><stop stop-color="#0075FF"/><stop offset="1" stop-color="#8000FF"/></linearGradient></defs></svg>