<svg width="21" height="15" fill="none" xmlns="http://www.w3.org/2000/svg"><path d="M10.526 8.9h.005a.808.808 0 00.441-.129l.035-.022.023-.014.4-.331 9.548-7.88a.112.112 0 00-.09-.045H.112a.105.105 0 00-.07.025l9.99 8.233a.783.783 0 00.494.164zM0 1.596v11.68l7.156-5.782L0 1.595zm13.851 5.938L21 13.277V1.634l-7.149 5.899zm-2.273 1.875a1.654 1.654 0 01-1.049.362c-.393 0-.765-.128-1.05-.36L7.842 8.058 0 14.39v.02c0 .06.052.111.112.111H20.89c.06 0 .111-.05.111-.111v-.02l-7.834-6.294-1.588 1.31z" fill="#9D9D9D"/></svg>