<svg width="26" height="26" fill="none" xmlns="http://www.w3.org/2000/svg"><g clip-path="url(#clip0)" fill-rule="evenodd" clip-rule="evenodd" fill="#000" opacity=".7"><path d="M11.709 7.35a.701.701 0 01-.727.726l-2.42-.062.063 2.42a.701.701 0 01-.727.726.794.794 0 01-.765-.765L7.052 7.23a.701.701 0 01.727-.727l3.165.081a.796.796 0 01.765.766zm6.617-.576c.412.01.755.353.765.765l.082 3.165a.702.702 0 01-.727.727.794.794 0 01-.765-.765l-.062-2.42-2.42-.061a.794.794 0 01-.764-.765.701.701 0 01.726-.727l3.165.08zM7.969 13.89c.412.01.754.352.765.764l.062 2.42 2.419.061c.412.01.755.353.765.765a.702.702 0 01-.727.727l-3.165-.081a.794.794 0 01-.765-.765l-.081-3.165a.701.701 0 01.727-.727zm10.547.269c.412.01.754.353.765.765l.081 3.165a.702.702 0 01-.727.727l-3.165-.082a.794.794 0 01-.765-.765.701.701 0 01.727-.727l2.419.062-.062-2.418a.701.701 0 01.727-.727z"/><path d="M7.256 6.71c.283-.285.756-.272 1.055.026l10.82 10.82c.299.3.31.772.027 1.056-.284.284-.756.272-1.055-.027L7.283 7.765c-.3-.3-.311-.772-.027-1.056z"/><path d="M18.861 7.006c.3.299.311.771.027 1.055L8.61 18.34c-.284.283-.756.271-1.055-.028-.299-.299-.31-.77-.027-1.055l10.28-10.28c.283-.283.756-.27 1.054.028z"/></g><defs><clipPath id="clip0"><path d="M12.883 0l12.984 12.985L13.532 25.32.548 12.335 12.883 0z" fill="#fff"/></clipPath></defs></svg>