<svg width="82" height="82" fill="none" xmlns="http://www.w3.org/2000/svg"><path d="M41 82c22.644 0 41-18.356 41-41S63.644 0 41 0 0 18.356 0 41s18.356 41 41 41z" fill="#54C0EB"/><path d="M49.022 59.382h-1.721v-17.18c0-.47.39-.86.86-.86h14.874v1.721H49.022v16.319z" fill="#324A5E"/><path d="M61.006 42.203h-1.72v20.054h1.72V42.203z" fill="#324A5E"/><path d="M64.043 66.542H56.28a.402.402 0 01-.406-.406v-7.761c0-.228.179-.406.406-.406h7.762c.227 0 .405.178.405.406v7.761c-.016.228-.194.406-.405.406zm-12.001-2.875h-7.761a.402.402 0 01-.406-.406V55.5c0-.228.179-.406.406-.406h7.761c.228 0 .407.178.407.406v7.761a.402.402 0 01-.407.406z" fill="#fff"/><path d="M34.7 59.382h-1.722V43.063H18.965v-1.721h14.874c.47 0 .86.39.86.86v17.18z" fill="#324A5E"/><path d="M22.698 42.203h-1.721v20.054h1.72V42.203z" fill="#324A5E"/><path d="M17.96 66.542h7.762a.402.402 0 00.406-.406v-7.761a.402.402 0 00-.406-.406h-7.761a.402.402 0 00-.406.406v7.761c.016.228.195.406.406.406zm12-2.875h7.762a.402.402 0 00.406-.406V55.5a.402.402 0 00-.406-.406h-7.761a.402.402 0 00-.406.406v7.761c0 .228.178.406.406.406z" fill="#fff"/><path d="M61.022 42.201H59.3V23.106H22.717v19.095h-1.72V22.245c0-.47.389-.86.86-.86H60.16c.471 0 .86.39.86.86v19.956z" fill="#324A5E"/><path d="M47.152 29.034H34.844a.624.624 0 01-.633-.634V16.092c0-.357.276-.633.633-.633h12.308c.358 0 .634.276.634.633V28.4a.645.645 0 01-.634.634zM66.313 48.99H54.004a.624.624 0 01-.633-.633V36.05c0-.357.276-.633.633-.633h12.309c.357 0 .633.276.633.633v12.308a.645.645 0 01-.633.634zm-38.321 0H15.684a.624.624 0 01-.633-.633V36.05c0-.357.276-.633.633-.633h12.308c.357 0 .633.276.633.633v12.308a.634.634 0 01-.633.634z" fill="#fff"/></svg>