<svg viewBox="0 0 28 28" xmlns="http://www.w3.org/2000/svg">
   <g clip-path="url(#clip0)">
      <path d="M11.9584 13.125H0.875C0.391998 13.125 0 12.733 0 12.25C0 11.767 0.391998 11.375 0.875 11.375H11.9584C12.4414 11.375 12.8334 11.767 12.8334 12.25C12.8334 12.733 12.4414 13.125 11.9584 13.125Z"></path>
      <path d="M7.58377 17.5009C7.35968 17.5009 7.1358 17.4156 6.96533 17.2443C6.62354 16.9023 6.62354 16.3481 6.96533 16.0063L10.7221 12.2498L6.96533 8.49429C6.62354 8.15228 6.62354 7.59814 6.96533 7.25635C7.30713 6.91455 7.86127 6.91455 8.20328 7.25635L12.5783 11.6313C12.9201 11.9731 12.9201 12.5273 12.5783 12.8693L8.20328 17.2443C8.03174 17.4156 7.80765 17.5009 7.58377 17.5009Z"></path>
      <path d="M18.6662 27.9994C17.3793 27.9994 16.333 26.9528 16.333 25.666V4.66597C16.333 3.66856 16.9677 2.7784 17.9125 2.45049L24.9219 0.113663C26.4899 -0.366989 27.9996 0.796188 27.9996 2.33278V23.3328C27.9996 24.3291 27.3649 25.218 26.4211 25.547L19.4094 27.8851C19.1539 27.9643 18.9172 27.9994 18.6662 27.9994ZM25.6662 1.74937C25.5904 1.74937 25.5263 1.75877 25.4575 1.77971L18.4774 4.10713C18.2486 4.1866 18.083 4.41753 18.083 4.66597V25.666C18.083 26.0639 18.5145 26.3323 18.8751 26.219L25.8553 23.8916C26.0828 23.8121 26.2496 23.5812 26.2496 23.3328V2.33278C26.2496 2.01192 25.9883 1.74937 25.6662 1.74937Z"></path>
      <path d="M10.208 5.8334C9.72501 5.8334 9.33301 5.44141 9.33301 4.9584V3.2084C9.33301 1.43854 10.7713 0 12.5412 0H25.6662C26.1492 0 26.5412 0.391998 26.5412 0.875C26.5412 1.358 26.1492 1.75 25.6662 1.75H12.5412C11.7373 1.75 11.083 2.40454 11.083 3.2084V4.9584C11.083 5.44141 10.691 5.8334 10.208 5.8334Z"></path>
      <path d="M17.208 24.4994H12.5412C10.7713 24.4994 9.33301 23.0609 9.33301 21.291V19.541C9.33301 19.058 9.72501 18.666 10.208 18.666C10.691 18.666 11.083 19.058 11.083 19.541V21.291C11.083 22.0949 11.7373 22.7494 12.5412 22.7494H17.208C17.691 22.7494 18.083 23.1414 18.083 23.6244C18.083 24.1074 17.691 24.4994 17.208 24.4994Z"></path>
   </g>
   <defs>
      <clippath id="clip0">
         <rect width="28" height="28"></rect>
      </clippath>
   </defs>
</svg>