<svg width="41" height="28" viewBox="0 0 41 28" fill="none" xmlns="http://www.w3.org/2000/svg">
<path d="M40.1433 4.38105C39.6717 2.65657 38.2824 1.29843 36.5184 0.837521C33.3211 0 20.5 0 20.5 0C20.5 0 7.67901 0 4.48157 0.837521C2.71757 1.2985 1.32827 2.65657 0.856735 4.38105C0 7.50677 0 14.0283 0 14.0283C0 14.0283 0 20.5498 0.856735 23.6755C1.32827 25.4 2.71757 26.7016 4.48157 27.1625C7.67901 28 20.5 28 20.5 28C20.5 28 33.321 28 36.5184 27.1625C38.2824 26.7016 39.6717 25.4 40.1433 23.6755C41 20.5498 41 14.0283 41 14.0283C41 14.0283 41 7.50677 40.1433 4.38105ZM16.3068 19.9493V8.10724L27.0227 14.0284L16.3068 19.9493Z" fill="white"/>
</svg>
