<svg width="134" height="134" fill="none" xmlns="http://www.w3.org/2000/svg"><path d="M42.026 88.337a8.162 8.162 0 00.045 3.305l-2.832 1.206 1.225 2.876 2.832-1.206a8.055 8.055 0 002.35 2.32l-1.143 2.848 2.903 1.167 1.146-2.844a8.12 8.12 0 003.305-.04l1.206 2.827 2.879-1.226-1.206-2.828a8.202 8.202 0 002.316-2.353L59.9 95.53l1.168-2.898-2.841-1.153a8.27 8.27 0 00-.045-3.305l2.826-1.203-1.228-2.878-2.824 1.203a8.416 8.416 0 00-2.353-2.32l1.14-2.842-2.899-1.168-1.147 2.845a8.22 8.22 0 00-3.305.038l-1.203-2.825-2.88 1.225 1.206 2.828a8.27 8.27 0 00-2.322 2.356l-2.84-1.142-1.173 2.9 2.846 1.145zm6.758-1.568a3.414 3.414 0 112.68 6.279 3.414 3.414 0 01-2.68-6.279zm-12.33-35.194a11.048 11.048 0 00.057 4.473l-3.832 1.633 1.658 3.894 3.833-1.632a10.902 10.902 0 003.18 3.14l-1.547 3.855 3.93 1.578 1.551-3.849c1.479.289 3 .27 4.471-.054l1.63 3.825 3.896-1.659-1.63-3.827a11.1 11.1 0 003.136-3.185l3.854 1.546 1.58-3.922-3.844-1.56c.281-1.48.261-3.002-.06-4.474l3.825-1.628-1.662-3.896-3.822 1.629a11.39 11.39 0 00-3.184-3.14l1.542-3.847-3.922-1.58-1.553 3.85c-1.479-.286-3-.268-4.472.051l-1.629-3.824-3.895 1.659 1.63 3.827a11.19 11.19 0 00-3.14 3.19L34.194 46.1l-1.59 3.926 3.85 1.548zm9.146-2.122a4.62 4.62 0 113.627 8.498 4.62 4.62 0 01-3.627-8.497zm53.798 28.58a10.88 10.88 0 00.217-4.4l3.866-1.371-1.391-3.927-3.868 1.369a10.76 10.76 0 00-2.933-3.28l1.756-3.694-3.767-1.792-1.76 3.688a10.825 10.825 0 00-4.398-.22l-1.367-3.86-3.93 1.394 1.367 3.86a10.932 10.932 0 00-3.276 2.94l-3.694-1.756-1.793 3.759 3.684 1.768a11.013 11.013 0 00-.216 4.4l-3.858 1.367 1.395 3.93 3.856-1.366a11.207 11.207 0 002.938 3.28l-1.751 3.686 3.759 1.794 1.76-3.69c1.437.372 2.934.448 4.4.223l1.367 3.858 3.93-1.391-1.367-3.862a11.019 11.019 0 003.282-2.943l3.682 1.755 1.801-3.761-3.69-1.758zm-9.119 1.526a4.55 4.55 0 11-3.044-8.573 4.55 4.55 0 013.044 8.573z" fill="#BFE0E9"/><path d="M67 110.64a43.364 43.364 0 01-16.986-3.43A43.79 43.79 0 0126.79 83.987a43.368 43.368 0 01-3.43-16.986 43.364 43.364 0 013.43-16.987 43.792 43.792 0 0123.223-23.223A43.36 43.36 0 0167 23.361a43.364 43.364 0 0116.986 3.43 43.79 43.79 0 0123.223 23.223A43.36 43.36 0 01110.64 67a43.36 43.36 0 01-3.43 16.987 43.793 43.793 0 01-23.223 23.223A43.36 43.36 0 0167 110.64zm0-86.653c-23.717 0-43.013 19.296-43.013 43.014 0 23.718 19.296 43.014 43.014 43.014 23.718 0 43.014-19.296 43.014-43.014 0-23.718-19.296-43.014-43.014-43.014z" fill="#BFE0E9"/><path d="M23.98 46.209l-7.25 11.845 8.59 5.257 6.37-10.407-.467-2.262-7.243-4.433z" fill="#F9FCFF"/><path d="M73.535 61.61s7.083-5.126 9.157-7.2 2.113-4.93 2.113-4.93V38.993l-17.53-1.29v-.04l-.274.02-.274-.02v.04l-17.532 1.29V49.48s.04 2.86 2.114 4.931c2.073 2.072 9.156 7.2 9.156 7.2s2.1 1.522 2.26 5.818c-.16 4.295-2.26 5.816-2.26 5.816s-7.083 5.127-9.157 7.2c-2.073 2.075-2.113 4.931-2.113 4.931v10.488l17.532 1.285v.04l.273-.02.274.02v-.04l17.53-1.29V85.375s-.038-2.858-2.112-4.93c-2.075-2.073-9.157-7.2-9.157-7.2s-2.1-1.522-2.26-5.818c.16-4.295 2.26-5.817 2.26-5.817z" fill="#EFF7FA"/><path d="M47.955 33.506a1.05 1.05 0 00-1.05 1.05v4.568a1.05 1.05 0 001.05 1.05H67v-6.668H47.955z" fill="#535967"/><path d="M87.096 39.124v-4.568a1.05 1.05 0 00-1.05-1.05H67v6.669h19.045a1.052 1.052 0 001.051-1.051zm-1.051 62.224a1.05 1.05 0 001.05-1.05V95.73a1.05 1.05 0 00-1.05-1.05H67v6.668h19.045z" fill="#373F4D"/><path d="M46.904 95.73v4.567a1.05 1.05 0 001.05 1.051H67V94.68H47.955a1.05 1.05 0 00-1.05 1.05z" fill="#535967"/><path d="M52.478 46.611c.038.71.402 5.113 3.994 7.985C60.47 57.795 67 62.059 67 62.059V46.61H52.478z" fill="#D1A149"/><path d="M81.522 46.611c-.038.71-.402 5.113-3.994 7.985C73.53 57.795 67 62.059 67 62.059V46.61h14.522zm0 43.751c-.038-.71-.402-5.113-3.994-7.985C73.53 79.178 67 74.914 67 74.914v15.448h14.522z" fill="#BB924A"/><path d="M52.478 90.362c.038-.71.402-5.113 3.994-7.985C60.47 79.178 67 74.914 67 74.914v15.448H52.478z" fill="#D1A149"/><path d="M67.454 63.993a.447.447 0 00-.446-.446v.893a.447.447 0 00.447-.447z" fill="#BB924A"/><path d="M66.559 63.993a.447.447 0 00.446.447v-.893a.447.447 0 00-.446.447zm0 3.961a.447.447 0 00.446.447v-.893a.447.447 0 00-.446.447z" fill="#D1A149"/><path d="M67.454 67.954a.447.447 0 00-.446-.446v.893a.447.447 0 00.447-.447zm0 3.961a.447.447 0 00-.446-.446v.893a.447.447 0 00.447-.447z" fill="#BB924A"/><path d="M66.559 71.915a.447.447 0 00.446.447v-.893a.447.447 0 00-.446.446z" fill="#D1A149"/><path d="M67 120.22c-7.185 0-14.155-1.407-20.716-4.183a53.405 53.405 0 01-28.322-28.321C15.186 81.154 13.779 74.184 13.779 67c0-7.185 1.407-14.155 4.183-20.716a53.407 53.407 0 0128.322-28.322c6.561-2.776 13.531-4.183 20.716-4.183 7.184 0 14.154 1.407 20.716 4.183a53.406 53.406 0 0128.321 28.322c2.776 6.561 4.183 13.531 4.183 20.716 0 7.184-1.407 14.154-4.183 20.716a53.404 53.404 0 01-28.321 28.321c-6.562 2.776-13.532 4.183-20.716 4.183zm0-105.678c-28.926 0-52.458 23.532-52.458 52.458 0 28.925 23.532 52.457 52.458 52.457 28.925 0 52.457-23.532 52.457-52.457 0-28.926-23.532-52.458-52.457-52.458z" fill="#BFE0E9"/><path d="M112.841 61.062l-3.693.498 2.186 16.214 3.693-.498a2.58 2.58 0 002.152-1.9 2.58 2.58 0 00.063-1.005l-1.496-11.095a2.583 2.583 0 00-2.905-2.214z" fill="#fff"/><path d="M105.588 62.04a2.584 2.584 0 00-2.216 2.903l1.496 11.095a2.585 2.585 0 002.906 2.215l3.562-.48-2.186-16.214-3.562.48z" fill="#E7E7E8"/><path d="M114.37 63.957a.214.214 0 01-.186.244l-9.242 1.246a.218.218 0 01-.245-.186.22.22 0 01.043-.16.216.216 0 01.143-.083l9.243-1.247a.22.22 0 01.161.043.22.22 0 01.083.143zm.227 1.682a.22.22 0 01-.186.244l-9.243 1.246a.218.218 0 01-.161-.042.219.219 0 01-.041-.304.218.218 0 01.144-.084l9.243-1.246a.217.217 0 01.244.186zm.224 1.68a.217.217 0 01-.185.244l-9.243 1.246a.219.219 0 01-.245-.186.218.218 0 01.187-.244l9.243-1.246a.217.217 0 01.243.186zm.229 1.679a.215.215 0 01-.043.16.214.214 0 01-.143.084l-9.243 1.246a.218.218 0 01-.244-.186.215.215 0 01.043-.16.213.213 0 01.143-.083l9.243-1.246a.217.217 0 01.244.186zm.225 1.68a.22.22 0 01-.186.244l-9.243 1.246a.218.218 0 01-.161-.042.213.213 0 01-.083-.144.215.215 0 01.186-.244l9.243-1.246a.216.216 0 01.244.186zm.228 1.682a.22.22 0 01-.186.243l-9.243 1.247a.218.218 0 01-.244-.186.215.215 0 01.043-.16.215.215 0 01.143-.084l9.243-1.246a.219.219 0 01.161.042.221.221 0 01.083.144zm.225 1.678a.22.22 0 01-.186.244l-9.243 1.246a.22.22 0 01-.161-.043.208.208 0 01-.083-.144.215.215 0 01.186-.243l9.243-1.246a.217.217 0 01.244.185zm.226 1.681a.214.214 0 01-.042.16.219.219 0 01-.144.084l-9.242 1.246a.217.217 0 01-.202-.346.215.215 0 01.143-.084l9.243-1.246a.218.218 0 01.161.043.22.22 0 01.083.143z" fill="#C1C1C3"/><path d="M105.969 62.851a.38.38 0 10-.103-.754.38.38 0 00.103.754zm1.292-.176a.38.38 0 10-.1-.752.38.38 0 00.1.752zm1.27-.168a.38.38 0 10-.102-.753.38.38 0 00.102.753zm1.324-.177a.38.38 0 10-.102-.754.38.38 0 00.102.754zm1.25-.172a.38.38 0 10-.102-.754.38.38 0 00.102.754zm.948.172a.38.38 0 10-.099-.753.38.38 0 00.099.753z" fill="#666769"/><path d="M106.181 62.306a.277.277 0 01-.056.211.28.28 0 01-.188.11.284.284 0 01-.321-.244l-.094-.699a.277.277 0 01.056-.21.28.28 0 01.188-.11.284.284 0 01.32.244l.095.698zm1.293-.176a.277.277 0 01-.056.211.29.29 0 01-.188.11.286.286 0 01-.321-.244l-.094-.699a.277.277 0 01.056-.21.28.28 0 01.188-.11.284.284 0 01.32.244l.095.699zm1.269-.17a.276.276 0 01-.056.211.28.28 0 01-.188.11.283.283 0 01-.32-.244l-.094-.698a.296.296 0 01.006-.111.283.283 0 01.238-.21.284.284 0 01.32.245l.094.698zm1.325-.177a.288.288 0 01-.245.32.286.286 0 01-.32-.244l-.094-.698a.286.286 0 01.139-.284.283.283 0 01.315.02c.06.045.1.113.11.188l.095.698zm1.25-.168a.287.287 0 01-.356.313.285.285 0 01-.209-.237l-.094-.698a.277.277 0 01.056-.211.28.28 0 01.188-.11.286.286 0 01.32.245l.095.698zm1.287-.174a.286.286 0 01-.455.265.285.285 0 01-.11-.189l-.094-.698a.276.276 0 01.056-.21.283.283 0 01.399-.054.297.297 0 01.109.188l.095.698z" fill="#C1C1C3"/><path d="M116.457 67.096a.52.52 0 01-.733.04l-.282-.253a.52.52 0 01-.04-.733l.253-.282a.53.53 0 01.359-.172.515.515 0 01.374.132l.282.253a.525.525 0 01.172.358.507.507 0 01-.132.375l-.253.282z" fill="#738E98"/><path d="M109.236 74.1l.459-.21-.303-.273-.156.482z" fill="#262929"/><path d="M109.799 72.352l-.408 1.264.302.272 1.204-.552-1.098-.984z" fill="#EDBC62"/><path d="M115.635 66.959l-5.25 5.855c.153-.092.357-.127.479-.018.143.128.144.357.018.531l.012.01 5.284-5.891-.543-.487z" fill="#BB6A60"/><path d="M115.082 66.465l-5.283 5.892.003.003c.161-.156.397-.183.544-.051.129.116.113.348.023.515a.184.184 0 01.015-.008l5.251-5.856-.553-.495z" fill="#D77568"/><path d="M110.878 72.8c-.126-.113-.318-.108-.472-.008.089-.168.079-.367-.052-.484-.148-.134-.386-.106-.549.052l.536.482.02.018.534.479c.129-.176.128-.408-.017-.538z" fill="#EDBC62"/><path d="M115.338 66.176l-.254.283 1.084.972.254-.283-1.084-.972z" fill="#B7924B"/><path d="M116.327 67.325a.057.057 0 01-.038.018.055.055 0 01-.04-.014l-1.053-.946a.055.055 0 01-.004-.078.042.042 0 01.017-.013.055.055 0 01.06.009l1.055.946c.006.005.01.011.013.017a.074.074 0 01.006.021.077.077 0 01-.003.022.064.064 0 01-.011.018h-.002zm-.119.142a.056.056 0 01-.018.013.05.05 0 01-.02.006.078.078 0 01-.022-.003.058.058 0 01-.018-.011l-1.055-.946a.045.045 0 01-.013-.018.05.05 0 01-.005-.02.039.039 0 01.003-.022.055.055 0 01.088-.023l1.056.947a.06.06 0 01.018.037.063.063 0 01-.014.04z" fill="#E0B14B"/><path d="M32.523 77.026a1.55 1.55 0 00-.732-.406l-18.659-4.199a1.574 1.574 0 00-1.085.16l7.833 9.37.032.017-.04.014.687.82.992-.476-.029-.03h.036l10.965-5.27z" fill="#BB6A60"/><path d="M12.04 72.613s11.008-6.715 12.334-6.418c1.327.297 8.143 10.86 8.143 10.86l-20.478-4.442z" fill="#BB6A60"/><path d="M16.474 71.003l-3.449 15.34 13.15 2.957 3.448-15.34-13.149-2.957z" fill="#fff"/><path d="M17.105 72.542l-.154.686 11.29 2.539.155-.687-11.29-2.538zm-.707 3.157l-.154.686 11.29 2.54.155-.686-11.29-2.54zm.354-1.585l-.154.687 11.29 2.538.154-.686-11.29-2.539zm-.705 3.157l-.154.686 11.29 2.54.154-.686-11.29-2.54zm-.332 1.457l-.155.686 11.291 2.538.154-.686-11.29-2.538zm-.354 1.585l-.154.685 11.29 2.54.154-.685-11.29-2.54z" fill="#F4CA6E"/><path d="M19.433 81.458l-.236-.282.235.28.001.002z" fill="#84B8C6"/><path d="M17 78.547l2.198 2.628L17 78.547z" fill="#7498AE"/><path d="M19.434 81.457l-.234-.28-2.198-2.628-4.958-5.934a2.042 2.042 0 00-1.016 1.367l-2.33 10.363a2.072 2.072 0 00.213 1.493l8.493-2.983 2.473-.868-.443-.53zm13.084-4.4L24.318 81l-1.735.834-.883.424-.147.07 2.26 2.273 5.967 6.003a2.052 2.052 0 00.924-1.313l2.33-10.363c.162-.726-.062-1.431-.516-1.871z" fill="#E6B147"/><path d="M23.81 84.602l-2.26-2.273.147-.07c-.009.003-.793.276-1.134.199-.341-.077-1.125-.993-1.13-.999l.44.526-2.473.868-8.494 2.982c.226.393.586.686 1.033.787l18.659 4.196c.413.093.824 0 1.18-.213l-5.968-6.003z" fill="#CF9C51"/><path d="M65.157 28.537c0 8.928-7.236 16.164-16.163 16.164-8.928 0-16.164-7.236-16.164-16.164s7.236-16.164 16.164-16.164c8.927 0 16.163 7.236 16.163 16.164z" fill="#BB6A60"/><path d="M62.449 28.538c0 7.43-6.024 13.456-13.457 13.456-7.432 0-13.455-6.026-13.455-13.456s6.024-13.456 13.455-13.456c7.43 0 13.457 6.024 13.457 13.456z" fill="#F2F2F4"/><path d="M48.993 42.19c-7.529 0-13.653-6.126-13.653-13.653 0-7.528 6.124-13.652 13.653-13.652 7.53 0 13.653 6.124 13.653 13.652 0 7.527-6.125 13.653-13.653 13.653zm0-26.443c-7.051.002-12.788 5.738-12.788 12.79 0 7.051 5.737 12.788 12.788 12.788 7.052 0 12.79-5.737 12.79-12.788 0-7.052-5.738-12.787-12.79-12.787v-.003z" fill="#535967"/><path d="M49.546 15.469H48.44v3.255h1.106V15.47zm0 22.881H48.44v3.256h1.106V38.35zM62.06 27.984h-3.255v1.107h3.256v-1.107zm-22.88 0h-3.256v1.107h3.256v-1.107zm17.085-.319l-6.295.207a1.168 1.168 0 00-1.389-.442l-5.806-6.615a.42.42 0 00-.632.555l5.809 6.616a1.177 1.177 0 002.054 1.147l6.298-.209a.63.63 0 00.611-.65c-.01-.347-.286-.6-.65-.609z" fill="#535967"/><path d="M16.08 43.126l12.354.973 1.34-17.035-12.353-.972" fill="#F9FCFF"/><path d="M22.838 38.468l-.027.37 5.31.397.027-.37-5.31-.397zm-.043.574l-.027.37 5.31.398.028-.37-5.31-.398zm-.043.575l-.027.37 5.31.397.028-.37-5.31-.397zm-.042.572l-.028.37 5.31.397.028-.37-5.31-.397zm-.044.574l-.027.37 5.31.397.028-.37-5.31-.397zm-.043.574l-.027.37 5.31.397.028-.37-5.31-.397zm-.043.573l-.027.37 5.31.397.028-.37-5.31-.397zm-.043.574l-.027.37 5.31.397.028-.37-5.31-.397zm-5.586-4.455l-.027.37 5.31.397.028-.37-5.31-.397zm-.044.572l-.028.37 5.31.397.028-.37-5.31-.397zm-.043.574l-.028.37 5.31.397.028-.37-5.31-.397z" fill="#848186"/><path d="M16.834 39.52l-.025.37 5.325.373.026-.37-5.326-.373zm-.056.804l-.028.37 5.31.397.028-.37-5.31-.397zm-.041.572l-.028.37 5.31.397.028-.37-5.31-.397z" fill="#848186"/><path d="M16.712 41.235l-.026.37 5.325.373.026-.37-5.325-.373zm-.063.809l-.028.37 5.31.398.028-.37-5.31-.398z" fill="#848186"/><path d="M21.632 35.961l-.064.846.978.073.063-.846-.977-.073z" fill="#CADA67"/><path d="M21.538 37.19l-.063.845.977.073.063-.845-.977-.073z" fill="#E5B665"/><path d="M25.653 36.526l-.026.343 1.15.086.025-.343-1.15-.086zm-.096 1.268l-.024.317 1.15.086.023-.317-1.15-.086zm-5.506-1.686l-.026.343 1.15.086.025-.343-1.149-.086zm-.096 1.268l-.023.317 1.149.086.024-.317-1.15-.086z" fill="#BCBCBE"/><path d="M17.348 31.816l-.028.37 11.265.843.028-.37-11.265-.843zm-.045.597l-.028.37 11.266.843.027-.37-11.265-.843zm-.045.6l-.027.37 11.265.843.027-.37-11.265-.843zm-.045.599l-.027.37 11.265.843.027-.37-11.265-.843zm-.045.6l-.027.37 11.265.843.027-.37-11.265-.843z" fill="#848186"/><path d="M17.1 34.61l-.026.37 11.297.791.026-.37L17.1 34.61zm1.216-4.959l9.413.721.027-.37-9.412-.72-.028.37zm-.043.574l9.413.722.027-.37-9.412-.722-.028.37zm-.043.575l9.413.72.028-.37-9.413-.72-.027.37zm-.042.572l9.412.72.028-.369-9.413-.721-.027.37zm-.444-4.042l-.027.37 11.265.842.028-.37-11.266-.843zm-.044.6l-.028.369 11.265.843.028-.37L17.7 27.93zm5.642 29.236l-.156.258 3.7 2.244.156-.258-3.7-2.244zm-.242.399l-.157.257 3.7 2.245.157-.258-3.7-2.244zm-.244.4l-.157.258 3.7 2.244.157-.258-3.7-2.244zm-.241.398l-.156.258 3.7 2.245.157-.258-3.7-2.245zm-.242.401l-.156.258 3.7 2.244.156-.258-3.7-2.244zm-.244.402l-.156.258 3.7 2.244.156-.258-3.7-2.244zm-.242.397l-.157.257 3.7 2.245.157-.258-3.7-2.245zm-.506.599l-.156.256 3.678 2.25.157-.256-3.679-2.25zm-2.141-5.486l-.156.258 3.7 2.244.157-.258-3.7-2.244zm-.244.4l-.156.258 3.7 2.245.157-.258-3.7-2.245zm-.242.401l-.156.257 3.7 2.245.157-.258-3.701-2.244zm-.242.398l-.157.258 3.701 2.244.156-.257-3.7-2.245zm-.244.4l-.157.258 3.7 2.245.157-.258-3.7-2.245zm-.241.401l-.156.258 3.7 2.244.157-.258-3.7-2.244zm-.242.398l-.156.258 3.7 2.245.156-.258-3.7-2.245zm-.242.401l-.156.257 3.7 2.245.157-.258-3.7-2.244z" fill="#848186"/><path d="M23.393 54.905l-.358.59.681.412.358-.589-.681-.413z" fill="#CADA67"/><path d="M22.871 55.77l-.357.59.68.413.358-.59-.681-.413z" fill="#E5B665"/><path d="M26.096 56.796l-.145.24.801.485.145-.24-.8-.485zm-.536.891l-.134.221.8.486.135-.221-.801-.486zm-3.366-3.26l-.145.239.8.486.146-.24-.8-.485zm-.782 1.07l-.135.22.796.487.135-.22-.796-.487z" fill="#BCBCBE"/><path d="M21.817 50.322l-.157.258 7.85 4.762.156-.258-7.85-4.762zm-.254.418l-.157.258 7.85 4.762.157-.258-7.85-4.762zm-.465.611l-.157.256 7.805 4.775.156-.257-7.804-4.774zm-.256.419l-.156.255L28.49 56.8l.156-.257-7.804-4.774z" fill="#848186"/><path d="M20.803 51.992l-.157.258 7.85 4.762.157-.258-7.85-4.762zm-.47.609l-.157.256 7.804 4.775.157-.257-7.804-4.774zm2.983-3.484l6.553 3.992.156-.258-6.552-3.992-.157.258zm-.242.4l6.552 3.992.157-.258-6.552-3.991-.157.258zm-.244.399l6.552 3.991.157-.257-6.553-3.992-.156.258zm-.242.4l6.552 3.992.156-.258-6.552-3.991-.156.257zm1.17-3.096l-.156.258 6.728 4.074.156-.258-6.728-4.073zm-.254.42l-.156.258 6.735 4.078.157-.258-6.736-4.078z" fill="#848186"/><path d="M82.599 9.37l-12.185 3.976 5.445 16.686 12.185-3.976L82.599 9.37z" fill="#fff"/><path d="M80.212 23.42l-5.247 1.685.116.363 5.248-1.686-.117-.362zm.18.562l-5.248 1.686.117.363 5.247-1.686-.116-.363zm.181.563l-5.247 1.685.117.364 5.247-1.686-.117-.363zm.182.565l-5.247 1.685.117.363 5.247-1.686-.117-.363zm.18.562l-5.248 1.685.117.364 5.248-1.686-.117-.363zm.181.562L75.87 27.92l.117.363 5.247-1.686-.117-.363zm.182.565l-5.247 1.685.117.363 5.247-1.685-.117-.363zm.18.562l-5.247 1.686.116.363 5.247-1.686-.116-.363zm4.551-5.811l-5.248 1.686.117.363 5.248-1.686-.117-.363zm.181.563l-5.247 1.686.116.363 5.248-1.686-.116-.363zm.182.563l-5.248 1.685.117.363 5.248-1.685-.117-.363zm.18.564l-5.248 1.686.117.363 5.247-1.686-.116-.363zm.182.562l-5.248 1.686.117.364 5.247-1.686-.116-.364zm.181.563l-5.248 1.686.117.363 5.248-1.686-.117-.363zm.18.562l-5.248 1.686.117.364 5.248-1.686-.117-.364zm.181.565l-5.247 1.686.116.363 5.248-1.686-.117-.363z" fill="#848186"/><path d="M75.171 22.434l-.966.31.267.83.966-.31-.267-.83z" fill="#DAA19D"/><path d="M75.56 23.64l-.966.311.266.83.966-.31-.266-.83z" fill="#99CDF0"/><path d="M80.823 20.616l-.966.31.267.83.966-.31-.267-.83z" fill="#CADA67"/><path d="M81.212 21.826l-.966.31.267.83.965-.31-.266-.83z" fill="#E5B665"/><path d="M76.913 22.165l-1.136.364.108.337 1.136-.365-.108-.337zm.401 1.24l-1.136.364.1.312 1.136-.365-.1-.311zm5.134-3.024l-1.135.365.108.337 1.135-.365-.108-.337zm.401 1.249l-1.136.364.1.311 1.136-.364-.1-.312z" fill="#BCBCBE"/><path d="M75.576 13.346a1.92 1.92 0 01.268-.106c.17-.055.29-.06.397-.023.115.039.208.129.258.286.055.17.03.308-.033.408-.069.108-.2.19-.375.247a1.851 1.851 0 01-.234.06l-.28-.872zm.436.66a.4.4 0 00.072-.019c.183-.058.27-.196.202-.408-.057-.185-.198-.248-.372-.192a.444.444 0 00-.089.037l.187.582zm.88-.368l.01.248-.21.068-.012-.976.265-.085.563.799-.218.07-.142-.206-.256.082zm.179-.223l-.116-.17c-.033-.049-.07-.11-.1-.158h-.003c.004.058.012.129.014.185l.008.205.197-.062zm.389-.502l-.24.078-.054-.169.687-.22.055.168-.244.079.231.72-.203.064-.232-.72zm.824.277l.01.25-.21.067-.012-.976.266-.086.562.8-.217.07-.142-.206-.257.082zm.18-.223l-.117-.17c-.033-.048-.07-.109-.1-.157h-.003c.004.057.012.129.014.184l.008.206.197-.063zm-6.482 3.316l1.933 6.015 1.384-.447 9.413-3.023.402-.129-1.932-6.014-11.2 3.598zm7-1.942l1.744-.56.364 1.131-1.744.56-.364-1.131zm-4.288 1.377l1.742-.56.364 1.132-1.742.56-.364-1.132zm1.35 5.584h-.004l-.49.158-.469.15-.733.235-.145.045-.08-.247-.133-.413-.078-.244-.05-.152v-.005l1.248-.402-.005.007.587-.189.006-.007h.006l.34 1.064zm-.467-1.45l-.035.045.027.082-.124.04-1.62.519-.052.017-.39-1.211.054-.017v-.004l1.742-.56v.003l.044-.014.354 1.1zm-.442-1.381l-1.842.592-.39-1.213 1.842-.591.39 1.212zm-.48-1.492l-1.841.592-.364-1.134 1.842-.59.363 1.132zm3.535 3.635l-1.742.56-.341-1.06 1.742-.56.34 1.06zm-.426-1.34h-.005l-1.728.555-.01.004-.123-.38-.004.004-.268-.835h.005v-.003l1.742-.56.39 1.215zm-.48-1.497l-.07.023v.003l-1.675.536-.389-1.212 1.742-.56.026.08h.005l.361 1.13zm3.051 2.148l-1.742.56-.34-1.061 1.741-.56.341 1.06zm-.43-1.34l-1.743.56-.383-1.193-.007-.022 1.742-.56.16.5.23.715zm-.48-1.493l-1.734.557h-.01l-.39-1.211 1.743-.56.391 1.214zm-.479-1.491l-1.742.56-.364-1.132 1.742-.56.364 1.132zm3.533 3.635l-1.744.56-.34-1.06 1.743-.56.341 1.06zm-.447-1.424l-.009.003.026.081-1.744.56-.195-.605h.012l-.096-.3h-.012l-.098-.306.01-.004 1.742-.56.364 1.131zm-.463-1.408l-.305.097-1.439.463-.39-1.213 1.745-.56.02.064.37 1.149zm3.054 2.144l-1.742.56-.342-1.063 1.742-.56.342 1.063zm-.43-1.34l-1.742.56-.39-1.213 1.742-.56.39 1.213zm-.477-1.579l.026.078-.029.008-1.742.56-.39-1.213.338-.108-.002.005.47-.15.002-.006.935-.3v.004l.028-.009.364 1.131zm-.454-1.415l-.028.01-.693.223-.472.152-.552.178-.027.01-.363-1.132.027-.01 1.527-.49.216-.07.365 1.13z" fill="#848186"/><path d="M74.166 21.83l-.205-.142 1.631-2.347 1.398.197 1.614-2.162 1.333.574.763-2.927 3.574 1.637-.105.226-3.302-1.512-.76 2.92-1.421-.61-1.585 2.12-1.391-.195-1.544 2.22z" fill="#DAA19D"/><path d="M80.977 17.543l-2.83-.823-1.309 1.135-.93.18-1.355 1.24-1.124.669-.128-.214 1.102-.656 1.388-1.27.934-.18 1.361-1.181 2.818.82 2.642-2.677.178.174-2.747 2.783z" fill="#99CDF0"/><path d="M77.113 20.373l-2.453-.516-1.006.986-.175-.177 1.102-1.081 2.453.517 1.83-1.772 2.038.343 1.861-2.08 1.204-.78.136.208-1.175.762-1.932 2.158-2.05-.344-1.833 1.776z" fill="#CADA67"/><path d="M73.838 21.225l-.172-.18 2.692-2.534.765.036 2.344-3.58 1.535.854 2.08-2.64.197.154-2.213 2.808-1.517-.845-2.295 3.504-.802-.037-2.614 2.46z" fill="#E5B665"/><path d="M72.508 16.617l-.38.121 1.721 5.355.379-.122-1.72-5.354zm10.674-3.937l-.409.13 1.933 6.016.409-.131-1.933-6.016z" fill="#848186"/><path d="M118.913 45.552l-14.552-2.49c-.874-.149-1.725.565-1.901 1.594l-1.647 9.632c-.176 1.028.39 1.985 1.264 2.134l14.552 2.489c.874.15 1.725-.564 1.901-1.592l1.648-9.633c.174-1.03-.392-1.985-1.265-2.134zm-1.13 12.54l-16.523-2.825 1.716-10.03 16.522 2.825-1.715 10.03z" fill="#676D78"/><path d="M102.982 45.24l-1.716 10.03 16.524 2.827 1.716-10.03-16.524-2.827z" fill="#fff"/><path d="M105.922 44.45a.52.52 0 01-.939.214.511.511 0 01-.089-.39l.289-1.684a.521.521 0 011.028.177l-.289 1.684zm1.505.257a.522.522 0 11-1.027-.176l.288-1.685a.52.52 0 011.028.175l-.289 1.686zm9.073 1.553a.52.52 0 01-.792.353.51.51 0 01-.23-.326.535.535 0 01-.006-.203l.288-1.686a.528.528 0 01.399-.42.52.52 0 01.629.596l-.288 1.686zm1.506.257a.523.523 0 01-.94.214.527.527 0 01-.088-.39l.288-1.685a.528.528 0 01.399-.42.52.52 0 01.629.596l-.288 1.685z" fill="#DAA19D"/><path d="M103.306 46.421l-.147.858a.4.4 0 00.326.46l.858.147a.399.399 0 00.46-.326l.147-.858a.398.398 0 00-.326-.46l-.858-.147a.398.398 0 00-.46.326zm3.801 1.529a.401.401 0 01-.461.326l-.858-.147a.399.399 0 01-.325-.46l.147-.859a.4.4 0 01.46-.326l.858.147a.397.397 0 01.326.46l-.147.86zm2.309.394a.4.4 0 01-.461.326l-.858-.147a.399.399 0 01-.326-.46l.147-.858a.402.402 0 01.461-.326l.857.146a.404.404 0 01.259.163.392.392 0 01.067.298l-.146.858zm2.31.396a.402.402 0 01-.46.327l-.858-.147a.39.39 0 01-.258-.163.395.395 0 01-.068-.298l.147-.858a.4.4 0 01.46-.326l.858.147a.392.392 0 01.258.163.395.395 0 01.068.298l-.147.858zm2.309.393a.401.401 0 01-.46.326l-.858-.147a.399.399 0 01-.327-.46l.147-.858a.4.4 0 01.461-.326l.858.147a.4.4 0 01.326.46l-.147.858zm2.308.397a.397.397 0 01-.46.325l-.858-.146a.392.392 0 01-.258-.163.394.394 0 01-.068-.298l.147-.858a.4.4 0 01.461-.326l.857.147a.402.402 0 01.322.305.388.388 0 01.004.155l-.147.859zm2.308.394a.396.396 0 01-.46.326l-.858-.147a.4.4 0 01-.325-.46l.147-.858a.396.396 0 01.46-.326l.858.147a.399.399 0 01.325.46l-.147.858zm-14.274.096a.401.401 0 01-.461.326l-.858-.147a.397.397 0 01-.326-.46l.147-.858a.401.401 0 01.461-.326l.858.147a.399.399 0 01.326.46l-.147.858zm2.308.397a.397.397 0 01-.46.325l-.858-.146a.399.399 0 01-.326-.46l.147-.859a.4.4 0 01.46-.326l.858.147a.392.392 0 01.258.163.395.395 0 01.068.297l-.147.859z" fill="#BFD8EC"/><path d="M108.994 50.812a.4.4 0 01-.461.325l-.857-.147a.397.397 0 01-.327-.46l.147-.858a.402.402 0 01.461-.326l.858.146a.399.399 0 01.326.46l-.147.86z" fill="#DAA19D"/><path d="M111.302 51.206a.397.397 0 01-.46.325l-.858-.147a.397.397 0 01-.326-.46l.147-.858a.4.4 0 01.46-.326l.859.147a.399.399 0 01.326.46l-.148.859zm2.311.394a.4.4 0 01-.46.326l-.858-.147a.406.406 0 01-.259-.162.393.393 0 01-.067-.298l.147-.858a.396.396 0 01.46-.326l.858.147a.4.4 0 01.326.46l-.147.859zm2.308.397a.4.4 0 01-.46.325l-.858-.146a.399.399 0 01-.326-.46l.147-.859a.4.4 0 01.461-.326l.857.147a.402.402 0 01.322.305.388.388 0 01.004.155l-.147.859zm2.308.393a.396.396 0 01-.46.327l-.858-.147a.4.4 0 01-.325-.46l.147-.858a.396.396 0 01.46-.326l.858.146a.399.399 0 01.325.461l-.147.858zm-14.274.096a.4.4 0 01-.46.327l-.859-.148a.399.399 0 01-.326-.46l.147-.858a.4.4 0 01.461-.326l.858.147a.399.399 0 01.326.46l-.147.858zm2.306.397a.4.4 0 01-.162.258.405.405 0 01-.298.068l-.858-.147a.396.396 0 01-.258-.163.394.394 0 01-.068-.298l.147-.858a.397.397 0 01.46-.325l.858.147a.399.399 0 01.326.46l-.147.858zm.82-.739l-.147.857a.4.4 0 00.326.46l.858.148a.399.399 0 00.46-.326l.147-.858a.4.4 0 00-.326-.46l-.857-.147a.4.4 0 00-.461.326zm3.799 1.528a.382.382 0 01-.055.145.41.41 0 01-.249.177.402.402 0 01-.156.004l-.858-.147a.399.399 0 01-.326-.46l.147-.858a.4.4 0 01.46-.326l.858.147a.398.398 0 01.326.46l-.147.858zm2.311.394a.398.398 0 01-.46.327l-.858-.147a.404.404 0 01-.259-.163.41.41 0 01-.067-.298l.147-.858a.397.397 0 01.46-.326l.858.147a.399.399 0 01.326.46l-.147.858zm2.309.397a.4.4 0 01-.461.326l-.858-.146a.401.401 0 01-.326-.461l.147-.858a.4.4 0 01.461-.326l.857.146a.398.398 0 01.327.46l-.147.859zm2.308.395a.401.401 0 01-.46.326l-.858-.147a.399.399 0 01-.326-.46l.147-.859a.397.397 0 01.46-.326l.858.147a.399.399 0 01.326.46l-.147.858zm-14.275.095a.4.4 0 01-.46.326l-.858-.147a.404.404 0 01-.259-.162.392.392 0 01-.067-.298l.146-.858a.401.401 0 01.461-.326l.858.147a.392.392 0 01.259.163.41.41 0 01.067.298l-.147.857zm2.308.395a.399.399 0 01-.46.326l-.858-.147a.399.399 0 01-.326-.46l.147-.858a.397.397 0 01.46-.326l.858.147a.399.399 0 01.326.46l-.147.858zm2.309.396a.4.4 0 01-.461.326l-.857-.147a.404.404 0 01-.259-.162.41.41 0 01-.067-.298l.147-.858a.383.383 0 01.162-.258.397.397 0 01.298-.068l.858.147a.399.399 0 01.326.46l-.147.858zm2.31.394a.383.383 0 01-.162.259.4.4 0 01-.298.067l-.858-.146a.399.399 0 01-.326-.46l.147-.858a.398.398 0 01.46-.326l.858.146a.402.402 0 01.322.305.388.388 0 01.004.156l-.147.857zm.815-.74l-.147.857a.4.4 0 00.326.46l.857.147a.4.4 0 00.461-.325l.147-.858a.4.4 0 00-.326-.46l-.858-.147a.399.399 0 00-.46.326zm3.803 1.53a.4.4 0 01-.461.326l-.857-.147a.395.395 0 01-.322-.304.408.408 0 01-.005-.156l.147-.858a.402.402 0 01.461-.326l.858.146a.399.399 0 01.326.46l-.147.859zm2.31.394a.398.398 0 01-.46.326l-.858-.147a.398.398 0 01-.326-.46l.147-.858a.397.397 0 01.46-.326l.858.147a.399.399 0 01.326.46l-.147.858z" fill="#BFD8EC"/><path d="M26.049 100.09l3.123 9.817a.76.76 0 00.95.491l11.12-3.536a.76.76 0 00.49-.951l-3.122-9.817-12.561 3.996z" fill="#5C6679"/><path d="M37.356 92.153a.76.76 0 00-.951-.49l-11.119 3.536a.76.76 0 00-.491.951l1.253 3.941 12.562-3.996-1.254-3.942z" fill="#3F495B"/><path d="M38.569 101.693l-1.087-3.416c-.115-.362-.532-.554-.93-.427l-3.724 1.184 1.295 4.073 4.446-1.414zm-9.137 3.303l1.086 3.416c.116.363.532.554.93.427l3.724-1.184-1.295-4.073-4.445 1.414z" fill="#F9FCFF"/><path d="M26.428 97.484c-.142-.447.03-.903.385-1.016l9.441-3.003a.615.615 0 01.54.1c-.15-.432-.543-.69-.89-.58l-9.442 3.003c-.355.113-.527.568-.385 1.016l.284.894a.974.974 0 00.362.506l-.01-.026-.285-.894z" fill="#6D8E9C"/><path d="M27.261 98.503l9.441-3.003c.355-.113.527-.568.385-1.016l-.284-.893a.31.31 0 00-.01-.027.615.615 0 00-.54-.1l-9.441 3.002c-.356.113-.527.568-.385 1.016l.284.894.01.026a.614.614 0 00.54.101z" fill="#BFD8EC"/><path d="M32.467 99.148l-3.723 1.185c-.399.127-.629.523-.513.887l1.086 3.415 4.446-1.414-1.296-4.073z" fill="#F9FCFF"/><path d="M30.716 100.5l.342 1.078 1.034-.329.147.465-1.033.328.346 1.088-.485.154-.345-1.087-1.033.329-.148-.464 1.033-.329-.342-1.078.484-.155zm5.771-.662l.16.499-1.74.553-.157-.499 1.737-.553zm-3.326 5.38l-.52 1.005.963.498-.223.432-.963-.498-.526 1.014-.452-.234.524-1.013-.962-.498.223-.434.963.498.52-1.004.453.234z" fill="#3F495B"/><path d="M34.238 103.469l1.296 4.073 3.723-1.185c.399-.127.629-.524.513-.887l-1.088-3.415-4.444 1.414z" fill="#F9FCFF"/><path d="M35.751 104.923l-.145-.458 2.537-.807.146.458-2.538.807zm.324 1.018l-.146-.458 2.538-.807.145.458-2.537.807z" fill="#3F495B"/><path d="M102.287 111.903l-19.215-3.483 15.487 5.632 3.728-2.149z" fill="#fff"/><path d="M98.56 114.052l-2.394 5.767-13.094-11.399" fill="#EEE5DC"/><path d="M96.166 119.819l.39-4.754-13.484-6.645 13.094 11.399z" fill="#CECFC2"/><path d="M83.072 108.42l7.401 10.334 6.083-3.689-13.484-6.645z" fill="#fff"/><path d="M82.23 112.816l-21.697-8.031 16.905 9.769 4.793-1.738z" fill="#E2917E"/><path d="M77.438 114.554l-3.982 6.233-12.923-16.002" fill="#D47A6E"/><path d="M73.456 120.787l1.437-5.465-14.36-10.537 12.923 16.002z" fill="#D06C5C"/><path d="M60.533 104.785l6.502 13.585 7.858-3.048-14.36-10.537z" fill="#E2917E"/><path d="M58.697 110.68l-14.3-2.592 11.526 4.191 2.774-1.599z" fill="#fff"/><path d="M55.923 112.279l-1.78 4.292-9.746-8.483" fill="#EEE5DC"/><path d="M54.142 116.571l.29-3.538-10.035-4.945 9.745 8.483z" fill="#CECFC2"/><path d="M44.397 108.088l5.508 7.691 4.527-2.746-10.035-4.945z" fill="#fff"/><path d="M31.697 52.903l-.472-2.262-.877 1.44 1.349.822z" fill="#80939F"/><path d="M115.584 82.242h-17.31v23.573h17.31V82.242z" fill="#676D78"/><path d="M114.161 84.48H99.699v19.941h14.462v-19.94z" fill="#FFFDF6"/><path d="M106.742 98.383h-6.215v.433h6.215v-.433zm0 .672h-6.215v.433h6.215v-.433zm0 .672h-6.215v.433h6.215v-.433zm0 .671h-6.215v.433h6.215v-.433zm0 .67h-6.215v.433h6.215v-.433zm0 .672h-6.215v.433h6.215v-.433zm0 .672h-6.215v.433h6.215v-.433zm0 .672h-6.215v.433h6.215v-.433zm6.89-4.701h-6.214v.433h6.214v-.433zm0 .672h-6.214v.433h6.214v-.433zm0 .672h-6.214v.433h6.214v-.433zm0 .671h-6.214v.433h6.214v-.433zm0 .67h-6.214v.433h6.214v-.433zm0 .672h-6.214v.433h6.214v-.433zm0 .672h-6.214v.433h6.214v-.433z" fill="#848186"/><path d="M101.672 95.57h-1.145v.99h1.145v-.99z" fill="#DAA19D"/><path d="M101.672 97.01h-1.145V98h1.145v-.99z" fill="#99CDF0"/><path d="M108.365 95.57h-1.144v.99h1.144v-.99z" fill="#CADA67"/><path d="M108.365 97.01h-1.144V98h1.144v-.99z" fill="#E5B665"/><path d="M103.634 95.879h-1.345v.402h1.345v-.402zm0 1.484h-1.345v.371h1.345v-.37zm6.557-1.484h-1.345v.402h1.345v-.402zm0 1.484h-1.345v.371h1.345v-.37z" fill="#BCBCBE"/><path d="M113.53 90.459h-13.003v.433h13.003v-.433zm0 .671h-13.003v.434h13.003v-.433zm0 .673h-13.003v.433h13.003v-.433zm0 .672h-13.003v.432h13.003v-.432zm0 .669h-13.003v.433h13.003v-.433zm0 .672h-13.003v.433h13.003v-.433zm0 .672h-13.003v.433h13.003v-.433zm-1.185-9.048h-6.247v2.044h6.247V85.44z" fill="#848186"/><path d="M112.282 87.96h-6.122v.516h6.122v-.515zm0 1.565h-6.122v.516h6.122v-.516zm0-.781h-6.122v.516h6.122v-.516zm-6.579-3.115h-5.176v.515h5.176v-.515zm0 1.564h-5.176v.516h5.176v-.516zm0-.783h-5.176v.516h5.176v-.516zm0 1.582h-5.176v.516h5.176v-.516zm0 1.565h-5.176v.515h5.176v-.515zm0-.784h-5.176v.516h5.176v-.516z" fill="#BCBCBE"/><path d="M110.798 84.104h-7.735a.282.282 0 01-.2-.083.282.282 0 01-.084-.2v-1.3a.28.28 0 01.084-.201.282.282 0 01.2-.084h7.735a.285.285 0 01.284.284v1.3a.285.285 0 01-.284.284zm-7.734-1.668a.081.081 0 00-.032.007.08.08 0 00-.046.046.09.09 0 00-.007.032v1.3a.09.09 0 00.025.06.08.08 0 00.028.018c.01.004.021.006.032.006h7.734a.086.086 0 00.085-.085v-1.3a.073.073 0 00-.007-.031.086.086 0 00-.078-.052h-7.734z" fill="#fff"/><path d="M103.837 83.25c.236.171.446.376.625.607h4.942c.178-.231.389-.436.625-.607a.561.561 0 00.549-.56v-.561a.561.561 0 00-.56-.56h-6.164a.561.561 0 00-.561.56v.56a.562.562 0 00.544.56z" fill="#535967"/><path d="M97.08 21.698l-3.113 14.015 10.234 2.273 3.112-14.016-10.234-2.272z" fill="#fff"/><path d="M95.497 31.598l-.067.304 4.398.977.067-.304-4.398-.977zm-.105.472l-.068.305 4.398.977.068-.305-4.398-.976zm-.104.473l-.067.305 4.398.976.067-.304-4.398-.977zm-.118.463l-.068.304 4.398.976.067-.304-4.398-.976zm-.093.481l-.067.304 4.398.977.067-.305-4.398-.976zm-.103.47l-.068.305 4.398.976.068-.304-4.398-.977zm-.119.465l-.068.305 4.398.975.068-.304-4.398-.976zm-.105.471l-.068.304 4.398.976.067-.304-4.398-.976zm5.624-2.211l-.067.304 4.398.977.067-.304-4.398-.977zm-.105.473l-.068.304 4.398.977.068-.304-4.398-.977zm-.119.461l-.068.304 4.398.976.068-.305-4.398-.975zm-.106.472l-.067.305 4.398.975.067-.304-4.398-.976zm-.104.472l-.067.305 4.398.976.068-.304-4.398-.976zm-.091.482l-.068.304 4.398.976.068-.304-4.398-.976zm-.117.462l-.068.305 4.398.975.068-.304-4.398-.976zm-.106.471l-.067.304 4.398.976.067-.304-4.398-.976z" fill="#848186"/><path d="M95.922 29.613l-.154.696.81.18.154-.696-.81-.18z" fill="#DAA19D"/><path d="M95.711 30.633l-.154.695.81.18.154-.695-.81-.18z" fill="#99CDF0"/><path d="M100.668 30.67l-.154.695.809.18.154-.696-.809-.18z" fill="#CADA67"/><path d="M100.447 31.683l-.154.696.81.18.154-.696-.81-.18z" fill="#E5B665"/><path d="M97.123 30.108l-.063.283.953.21.062-.282-.952-.21zm-.223 1.049l-.058.261.952.211.058-.26-.952-.212zm4.872-.014l-.063.283.952.211.063-.282-.952-.212zm-.23 1.045l-.058.261.952.212.058-.261-.952-.212z" fill="#BCBCBE"/><path d="M100.773 23.549c.079.006.157.018.233.035.143.032.229.078.29.148a.334.334 0 01.064.309.384.384 0 01-.192.273c-.093.048-.22.053-.367.02a1.527 1.527 0 01-.19-.054l.162-.731zm.036.645a.334.334 0 00.058.017c.153.035.272-.027.312-.205.036-.154-.037-.256-.183-.288a.366.366 0 00-.078-.01l-.109.486zm.775.104l-.096.179-.176-.04.395-.693.223.05.067.796-.182-.041-.016-.204-.215-.047zm.218-.084l-.012-.168c-.003-.047-.004-.106-.005-.152h-.003c-.021.042-.044.095-.066.134l-.08.148.166.038zm.481-.192l-.201-.045.031-.141.577.128-.032.14-.204-.044-.134.603-.171-.038.134-.603zm.468.536l-.096.178-.176-.038.394-.694.223.049.068.796-.183-.04-.015-.204-.215-.047zm.218-.084l-.012-.169c-.004-.046-.005-.105-.006-.151-.021.041-.045.095-.066.134l-.08.147.164.039zm-5.942-.335l-1.119 5.041 1.162.258 7.889 1.75.336.075 1.119-5.041-9.387-2.083zm5.74 1.518l1.462.325-.21.948-1.462-.325.21-.948zm-3.593-.797l1.461.324-.211.946-1.461-.324.21-.946zm-1.355 4.497l-.412-.09-.392-.086-.615-.137-.12-.026.044-.207.077-.347.044-.204.029-.128v-.004l1.045.233-.007.002.491.11.007-.003h.005l-.195.887zm.269-1.217l-.043.017-.015.068-.103-.023-1.358-.301-.045-.01.224-1.016.044.01v-.003l1.461.325v.002l.037.009-.203.922zm.258-1.157l-1.544-.343.226-1.016 1.543.342-.225 1.017zm.277-1.25l-1.544-.343.21-.948 1.544.342-.21.948zm.993 4.023l-1.46-.324.2-.89 1.46.325-.2.889zm.253-1.122h-.004l-1.447-.322h-.01l.07-.319h-.003l.155-.699h.003v-.002l1.461.324-.225 1.018zm.278-1.251l-.059-.013h-.003l-1.403-.313.223-1.015 1.461.324-.015.065h.004l-.208.952zm1.267 2.774l-1.462-.325.198-.889 1.462.324-.198.89zm.249-1.124l-1.461-.324.223-1 .004-.018 1.461.324-.093.42-.134.598zm.278-1.25l-1.454-.323-.008-.003.224-1.015 1.462.324-.224 1.017zm.277-1.251l-1.462-.324.211-.949 1.462.325-.211.948zm.996 4.02l-1.464-.322.198-.89 1.462.325-.196.887zm.272-1.189h-.008l-.015.068-1.462-.324.113-.507.008.004.056-.251-.008-.005.057-.256h.009l1.461.324-.211.947zm.255-1.185l-.256-.056-1.206-.268.226-1.017 1.462.325-.012.053-.214.963zm1.27 2.776l-1.461-.324.198-.89 1.46.325-.197.89zm.249-1.123l-1.461-.324.224-1.016 1.46.324-.223 1.016zm.315-1.31l-.014.066-.024-.007-1.46-.324.225-1.017.284.063-.004.003.394.09.004-.003.783.174v.004l.024.005-.212.946zm.264-1.186l-.024-.005-.581-.128-.396-.089-.461-.103-.023-.005.21-.948.023.005 1.28.284.181.04-.209.949z" fill="#848186"/><path d="M96.28 28.953l-.087-.184 2.12-.983.905.715 2.031-.858.704.954 1.746-1.75 1.846 2.63-.168.116-1.705-2.43-1.742 1.747-.75-1.017-1.994.843-.9-.713-2.006.93z" fill="#DAA19D"/><path d="M102.856 28.739l-1.657-1.75-1.392.262-.73-.257-1.468.315-1.07.008-.002-.203 1.048-.008 1.504-.323.734.258 1.447-.271 1.65 1.74 2.968-.798.054.197-3.086.83z" fill="#99CDF0"/><path d="M98.96 29.142l-1.517-1.377-1.117.28-.05-.196 1.223-.308 1.518 1.378 2.022-.496 1.297 1.083 2.171-.7 1.172-.053.01.203-1.144.052-2.253.726-1.305-1.089-2.027.497z" fill="#CADA67"/><path d="M96.299 28.391l-.047-.198 2.945-.677.525.341 3.131-1.558.731 1.236 2.556-1.004.076.189-2.72 1.068-.722-1.222-3.065 1.525-.55-.357-2.86.657z" fill="#E5B665"/><path d="M96.95 24.524l-.997 4.488.318.07.996-4.488-.317-.07zm9.129 1.624l-1.12 5.041.342.076 1.12-5.041-.342-.076z" fill="#848186"/></svg>