<svg width="138" height="122" fill="none" xmlns="http://www.w3.org/2000/svg"><path d="M54.989 97.058a5.042 5.042 0 01-9.854 2.134 5.041 5.041 0 019.854-2.134z" fill="#fff"/><path d="M49.193 94.126a4.1 4.1 0 00-3.137 4.869 4.101 4.101 0 004.87 3.137 4.1 4.1 0 003.136-4.87 4.1 4.1 0 00-4.87-3.136zm2.133 9.853a5.993 5.993 0 01-7.118-4.584 5.994 5.994 0 014.584-7.117 5.994 5.994 0 017.118 4.584 5.992 5.992 0 01-4.584 7.117z" fill="#E6F4FF"/><path d="M87.487 60.318a5.042 5.042 0 11-9.855 2.134 5.042 5.042 0 019.855-2.134z" fill="#fff"/><path d="M81.679 57.377a4.101 4.101 0 00-3.136 4.87 4.1 4.1 0 004.87 3.137 4.102 4.102 0 003.136-4.87 4.1 4.1 0 00-4.87-3.137zm2.133 9.854a5.993 5.993 0 01-7.117-4.583 5.994 5.994 0 014.584-7.118 5.994 5.994 0 017.118 4.584 5.993 5.993 0 01-4.585 7.117z" fill="#E6F4FF"/><path d="M115.559 61.43a5.04 5.04 0 11-9.854 2.134 5.04 5.04 0 019.854-2.134z" fill="#fff"/><path d="M109.765 58.51a4.1 4.1 0 00-3.136 4.87 4.1 4.1 0 004.87 3.136 4.1 4.1 0 003.136-4.87 4.1 4.1 0 00-4.87-3.136zm2.133 9.854a5.993 5.993 0 01-7.117-4.584 5.992 5.992 0 014.584-7.118 5.994 5.994 0 017.118 4.584 5.995 5.995 0 01-4.585 7.118z" fill="#E6F4FF"/><path d="M20.946 90.153a5.04 5.04 0 11-9.853 2.134 5.04 5.04 0 019.853-2.134z" fill="#fff"/><path d="M15.152 87.219a4.101 4.101 0 00-3.137 4.87 4.1 4.1 0 004.87 3.136 4.1 4.1 0 003.136-4.87 4.1 4.1 0 00-4.87-3.136zm2.133 9.854a5.993 5.993 0 01-7.117-4.584 5.992 5.992 0 014.583-7.118 5.993 5.993 0 017.118 4.584 5.993 5.993 0 01-4.584 7.118z" fill="#E6F4FF"/><path d="M31.614 113.932H10.977v-3.974h20.637v3.974zM45.972 73.15H25.334v-3.974h20.638v3.974zm42.798 28.422H68.133v-3.974H88.77v3.974zm18.512-55.806H86.644v-3.974h20.638v3.974zm29.977 33.25h-20.638V75.04h20.638v3.975z" fill="#E0E0E0"/><path d="M114.568 116.816h-16.07V79.659h16.07v37.157z" fill="url(#paint0_linear)"/><path d="M34.863 58.466s.137-.652 1.089-.65c1.321.005 1.428 1.884 1.205 3.051-.296 1.55-.857 2.182.212 6.2 0 0-2.365-4.967-1.994-6.443.273-1.084-.512-2.158-.512-2.158z" fill="#3A3F47"/><path d="M27.428 70.99s-.564-.283-.557-.591c.006-.309-.136-.724-.187-.853-.069-.171-.093-.786-.299-.692-.206.094-.006 1.016 0 1.219.005.203-.667-.347-.865-.343-.2.004-1.011 1.254-.509 1.573.503.32 1.221.343 1.322.38l.484.18.61-.872z" fill="#EEA886"/><path d="M25.652 69.775s-1.602-.869-1.756-.83c-.154.038-.195.134-.048.222.146.088 1.524.886 1.524.886s-2.064-.685-2.196-.683c-.077 0-.166.181-.092.236.074.056 2.082.86 2.082.86s-1.929-.636-2.04-.6c-.096.032-.14.22 0 .277.14.058 1.897.757 1.897.757s-1.432-.369-1.51-.28c-.047.055-.13.207.242.29.373.083 1.231.377 1.231.377l.666-1.512zm6.628 2.426s-2.622-.581-3.128-.735c-.58-.177-1.717-.476-1.717-.476l-.61.872s3.383 1.735 4.007 1.982c.582.23 2.16.799 2.16.799L32.28 72.2z" fill="#EEA886"/><path d="M20.915 83.078s-.766 3.266-.792 3.905c-.025.64-2.236 9.15-2.396 9.572-.161.424.828.783 1.11.505.282-.279 2.472-5.026 2.973-5.907.5-.881 1.727-2.93 1.796-4.977.07-2.047-2.691-3.098-2.691-3.098z" fill="#DE9673"/><path d="M20.352 84.065s1.191 3.135 1.528 3.68c.337.544 3.265 8.834 3.369 9.275.103.44 1.119.147 1.197-.242.077-.388-.757-5.51-.835-6.52-.077-1.011-.207-3.395-1.295-5.13-1.088-1.737-3.964-1.063-3.964-1.063z" fill="#EEA886"/><path d="M26.5 96.783s-1.328-.307-1.37-.342c-.04-.034-.052-.113-.23-.032-.177.082-.238.36-.41.454-.174.096-1.24.467-1.817.788-.209.116-1.097.506-1.213.801-.116.296-.054.727 1.497.546 1.55-.18 3.264-.046 3.597-.233.332-.187.058-1.536-.054-1.982zm-7.596.307s-1.232-.585-1.265-.627c-.032-.043-.027-.123-.218-.082-.19.042-.31.3-.499.356-.19.057-1.31.189-1.943.38-.228.067-1.18.258-1.357.522-.177.263-.208.698 1.345.854 1.554.157 3.199.656 3.564.543.364-.111.386-1.487.373-1.946z" fill="#E0E0E0"/><path d="M31.557 78.506s-10.28 2.259-11.205 5.552c0 0 1.816-.27 3.656.74 0 0 4.794-.335 9.59-.223.598.014 4.79-1.192 4.14-4.72-.658-3.574-6.181-1.349-6.181-1.349z" fill="#2F4563"/><path d="M33.302 64.222c.15.143.284.34.403.559.113.206.211.428.293.636.175.451.274.837.274.837s2.432-1.285 1.839-1.77c-.593-.486-.853-2.384-.853-2.384s-2.448 1.65-1.956 2.122z" fill="#EEA987"/><path d="M30.456 59.639s-.502.76.256 2.334c0 0 .221 1.361.083 1.648-.138.286.63.164.755.308s.489.879 1.139 1.202c.649.323 2.827-1.803 2.73-2.635-.096-.83.734-4.741-2.129-4.113-2.863.63-2.834 1.256-2.834 1.256z" fill="#EEA886"/><path d="M30.478 61.394s-1.276-3.354 2.233-3.67c3.508-.314 2.835 3.927 2.727 5.278 0 0-.475-1.92-2.1-1.534-1.623.385-2.059.106-2.86-.074z" fill="#3A3F47"/><path d="M33.472 60.915c.103-.405.844-.411.914.143.069.554-.335 1.24-.59 1.033-.254-.206-.477-.58-.324-1.176z" fill="#EEA886"/><path d="M33.71 64.776c.114.206.212.428.293.636.75-.631 1.06-2.008 1.06-2.008-.473.71-1.351 1.372-1.351 1.372h-.001z" fill="#A77860"/><path d="M33.919 65.835s-2.144 2.452-2.416 2.646c-.272.195-1.088 1.943 0 2.993 0 0 .099 1.117.293 1.543.195.428.056 4.83-.254 5.336-.311.504 4.1 2.18 6.198 1.5 0 0-.595-2.822-.79-4.26-.193-1.438.674-5.627.693-6.754.02-1.127-.762-3.99-1.528-4.301-.765-.312-2.196 1.297-2.196 1.297z" fill="#5F8CC9"/><path d="M30.666 78.8l-7.776 2.593-.16-.48 7.776-2.593.16.48z" fill="#6E6760"/><path d="M22.888 81.393l-6.55-4.928.304-.403 6.55 4.927-.304.404z" fill="#6E6760"/><path d="M24.85 80.24c-.064-.168-.077-.441.428-.816.505-.376 1.606-1.412 2.02-1.49.416-.078.726.104.895.077.168-.026.388.985.388.985l-3.73 1.244z" fill="#EEA886"/><path d="M28.19 78.009s2.205-.906 2.58-1.088c.376-.182 2.19-.816 2.345-.894.156-.078.972-4.327 1.037-5.428.065-1.101.13-3.433 1.373-3.33 1.244.104 1.542.92 1.386 2.527-.155 1.606-1.075 7.358-1.463 7.553-.39.193-4.992 1.11-7.195 1.759-2.202.648-.063-1.1-.063-1.1z" fill="#EEA886"/><path d="M42.426 116.814H28.008V84.563h14.418v32.251z" fill="url(#paint1_linear)"/><path d="M34.996 58.635s.526.948.473 1.66c0 0 .483-1.08-.473-1.66z" fill="#5F8CC9"/><path d="M72.167 116.816H55.94V67.29h16.227v49.526z" fill="url(#paint2_linear)"/><path d="M83.069 78.3s1.3.588 1.882.792c.581.203 2.71-.026 2.947.157.236.182.246.873-.096.994-.342.12-2.886.748-3.772.659-.887-.09-2.447.508-2.82.43-.371-.077-.404-2.168-.325-2.65.078-.482 2.184-.381 2.184-.381z" fill="#484E7D"/><path d="M82.769 77.474l.3.838s-1.57.56-2.184.382l-.205-.855 2.089-.365z" fill="#EEA886"/><path d="M79.56 79.056s1.228.748 1.783 1.025c.555.276 2.693.319 2.908.53.214.211.147.899-.204.975-.354.077-2.948.376-3.82.175-.87-.201-2.485.194-2.846.07-.36-.125-.163-2.205-.031-2.674.131-.469 2.21-.101 2.21-.101z" fill="#5B639E"/><path d="M79.387 78.178l.183.871s-1.62.356-2.21.102l-.11-.875 2.137-.098z" fill="#EEA886"/><path d="M67.079 62.504s5.596.05 6.283.147c.743.105 3.655.2 4.006.732 3.55 5.386 5.866 14.206 5.866 14.206l-2.805.552s-2.712-5.257-3.85-7.988c-1.019-2.452-1.892-3.082-4.034-3.028-2.142.054-8.993-.418-12.943-.907l7.477-3.714z" fill="#292C47"/><path d="M66.49 49.521s1.661 3.575 1.527 4.901c-.135 1.328-1.563 5.008-1.664 5.748-.1.739.622 2.2.622 2.2l-7.478 3.462s-.3-2.188 0-4.708c.301-2.52.523-5.23.856-6.654 1.135-4.86 4.135-6.875 4.135-6.875l2.003 1.926z" fill="#EB4747"/><path d="M66.976 62.37s5.597.05 6.282.147c.744.105 3.723.156 4.008.733 2.033 4.107 2.49 15.069 2.49 15.069l-2.617.316s-1.284-5.563-1.688-8.213c-.403-2.65-.907-3.035-3.05-2.98-2.142.053-10.532 2.198-12.903-1.61l7.478-3.461z" fill="#323657"/><path d="M62.135 52.896c.017-.692.42-3.679 2.104-3.474 1.685.204 1.49 2.225 1.334 3.75-.164 1.594-.99 5.506-.728 5.707.264.201 2.262.802 2.692.888.43.085 3.021.721 3.234.78.207.059-.21 1.066-.21 1.066s-7.175-.21-8.376-.779c-1.2-.569-.05-7.938-.05-7.938z" fill="#EEA886"/><path d="M70.77 60.559s.533.134.79.154c.257.021 1.474-.462 1.852-.392.379.07 2.814 1.245 2.923 1.327.109.082-.065.245-.065.245l-5.71-.207.21-1.127z" fill="#EEA886"/><path d="M77.883 62.775l-9.494-.384.035-.87 9.494.385-.035.87z" fill="#807066"/><path d="M81.105 53.832l-3.211 8.943-.82-.294 3.212-8.943.82.294z" fill="#807066"/><path d="M70.831 43.903s.18 1.468-.219 1.53c-.328.05-.212 1.467-.212 1.69 0 .225-.617.147-.785.225-.168.078-1.123 1.478-1.603 1.344-.48-.134-2.278-1.673-2.614-2.484-.336-.81.242-3.655 1.059-4.629.818-.975 4.05-.244 4.374 2.324z" fill="#EEA886"/><path d="M67.09 47.645l-.118.328c-.053.147-.118.332-.186.534-.183.547-.382 1.209-.398 1.533-.028.605-1.91-2.443-1.91-2.443s.678-1.835 1.099-3.98c.422-2.147 1.514 4.028 1.514 4.028z" fill="#EEA886"/><path d="M70.862 44.209s1.18-1.048.348-2.494c-.832-1.445-3.734-.615-4.011-.65-.278-.033-1.725-.492-2.005 2.298-.28 2.789-.104 2.37-.104 2.37s.711-1.197 1.219-1.004c.507.194 1.395.286 1.395.286s.016-1.302.747-1.202c.73.101 1.833-.12 2.41.395z" fill="#D88A51"/><path d="M62.01 53.027l3.846.139s.598-4.003-1.613-3.925c-2.211.076-2.233 3.786-2.233 3.786z" fill="#D13F3F"/><path d="M67.254 44.091c.002-.178.074-.922-.654-.754-.728.169-.29 1.794-.196 1.85.094.055.834.408.85-1.096zm-2.776 3.503s3.3 5.965 3.215 5.119c-.067-.661-1.497-3.854-1.497-3.854l-1.718-1.265z" fill="#EEA886"/><path d="M66.976 47.968c-.053.147-.118.332-.185.534-.666-.828-1.127-1.765-1.264-2.057.272.495 1.45 1.523 1.45 1.523z" fill="#A77860"/><path d="M86.94 46.629l3.653-2.11-3.654-2.109v1.25h-5.068v1.719h5.068v1.25zm-1.415.722l-3.654 2.11 3.654 2.11v-1.25h5.068V48.6h-5.069v-1.25zM45.203 57.496l3.229-1.864-3.229-1.863v1.105h-4.476v1.518h4.476v1.104zm-1.249.638l-3.227 1.864 3.227 1.863v-1.105h4.478V59.24h-4.478v-1.105z" fill="#6EA2E8"/><path d="M106.121 41.797h-4.7c-.259-.409-.437-.84-.457-1.266 0 0-.196-.863.935-1.267.209-.075.405-.106.586-.106.795 0 1.289.59 1.289.59s.493-.575 1.277-.575c.185 0 .388.032.603.111 1.127.417.921 1.278.921 1.278-.024.416-.2.837-.454 1.235z" fill="url(#paint3_linear)"/><path d="M103.741 44.06s-1.537-1.038-2.329-2.289h4.7c-.8 1.254-2.371 2.29-2.371 2.29z" fill="url(#paint4_linear)"/><path d="M95.855 15.111s-2.707-1.83-2.785-3.555c0 0-.198-.863.933-1.267.21-.075.407-.105.588-.105.795 0 1.288.588 1.288.588s.492-.575 1.276-.575c.186 0 .388.033.605.112 1.126.417.919 1.278.919 1.278-.097 1.726-2.824 3.524-2.824 3.524z" fill="url(#paint5_linear)"/><path d="M39.05 39.96s-2.707-1.828-2.785-3.555c0 0-.197-.863.934-1.267a1.73 1.73 0 01.587-.105c.795 0 1.288.588 1.288.588s.493-.575 1.277-.575c.186 0 .388.033.604.113 1.127.417.92 1.278.92 1.278-.097 1.725-2.824 3.524-2.824 3.524z" fill="url(#paint6_linear)"/><path d="M30.033 11.85s-2.707-1.83-2.785-3.556c0 0-.198-.863.934-1.267.21-.075.405-.105.587-.105.794 0 1.289.588 1.289.588s.491-.575 1.276-.575c.186 0 .387.033.603.112 1.126.417.92 1.278.92 1.278-.097 1.725-2.824 3.525-2.824 3.525z" fill="url(#paint7_linear)"/><path d="M94.67 36.115h-8.127v-.648h8.127v.648z" fill="url(#paint8_linear)"/><path d="M93.819 34.99h-6.45v-.649h6.45v.65z" fill="url(#paint9_linear)"/><path d="M90.606 26.77a1.36 1.36 0 110-2.72 1.36 1.36 0 010 2.72z" fill="url(#paint10_linear)"/><path d="M90.6 32.803a5.75 5.75 0 01-2.398-.517l-.067-.032v-2.408a2.466 2.466 0 014.93 0v2.409l-.066.03a5.75 5.75 0 01-2.398.518z" fill="url(#paint11_linear)"/><path d="M90.582 33.14a6.067 6.067 0 01-2.532-.546 6.142 6.142 0 01-3.595-5.582 6.134 6.134 0 016.127-6.127 6.135 6.135 0 016.129 6.127 6.144 6.144 0 01-3.596 5.582 6.07 6.07 0 01-2.532.547zm-2.465-.871l.067.031a5.752 5.752 0 002.398.517c.838 0 1.645-.174 2.4-.517l.066-.031a5.82 5.82 0 003.34-5.257c0-3.2-2.605-5.804-5.806-5.804a5.81 5.81 0 00-5.804 5.804 5.82 5.82 0 003.339 5.257z" fill="url(#paint12_linear)"/><path d="M48.235 25.31h-7.311v-.583h7.31v.584z" fill="url(#paint13_linear)"/><path d="M47.48 24.268h-5.802v-.584h5.802v.584z" fill="url(#paint14_linear)"/><path d="M45.813 15.655a1.224 1.224 0 11-2.447 0 1.224 1.224 0 012.447 0z" fill="url(#paint15_linear)"/><path d="M46.791 19.654v2.326a5.339 5.339 0 01-2.217.479c-.791 0-1.543-.17-2.218-.479v-2.326a2.218 2.218 0 114.435 0z" fill="url(#paint16_linear)"/><path d="M44.583 11.879a5.227 5.227 0 00-5.222 5.222 5.237 5.237 0 003.064 4.756 5.183 5.183 0 002.158.465 5.17 5.17 0 002.158-.465 5.236 5.236 0 003.064-4.756 5.227 5.227 0 00-5.222-5.222zm0 10.734a5.463 5.463 0 01-2.278-.491 5.528 5.528 0 01-3.235-5.021 5.52 5.52 0 015.513-5.513 5.519 5.519 0 015.513 5.513 5.528 5.528 0 01-3.234 5.021 5.467 5.467 0 01-2.279.491z" fill="url(#paint17_linear)"/><path d="M77.54 19.701H62.222a2.19 2.19 0 01-2.19-2.192V2.192c0-1.21.98-2.19 2.19-2.19H77.54c1.21 0 2.191.98 2.191 2.19v15.317a2.19 2.19 0 01-2.19 2.192z" fill="url(#paint18_linear)"/><path d="M72.078 10.17a.56.56 0 00.28-.07.865.865 0 00.384-.456.941.941 0 00.056-.325.97.97 0 00-.218-.613.692.692 0 00-.228-.181.598.598 0 00-.552.004.856.856 0 00-.385.461.983.983 0 00-.056.33c0 .236.07.437.213.602.142.166.31.249.506.249zm0 .68a1.75 1.75 0 01-1.185-.447 1.503 1.503 0 01-.354-.48 1.39 1.39 0 01-.132-.604c0-.216.044-.417.132-.603.087-.185.205-.347.354-.486.149-.138.324-.248.527-.329a1.75 1.75 0 01.658-.122 1.75 1.75 0 011.19.451 1.459 1.459 0 01.482 1.089 1.432 1.432 0 01-.481 1.084 1.78 1.78 0 01-1.191.447zm-3.91-5.006a.557.557 0 00.278-.07.845.845 0 00.385-.46.984.984 0 00.056-.33.892.892 0 00-.213-.603.648.648 0 00-.506-.248.56.56 0 00-.279.07.844.844 0 00-.385.457.94.94 0 00-.056.323c0 .237.072.44.213.608a.643.643 0 00.507.253zm-1.104 4.427L69.92 6.94l2.633-3.465.618.547-2.765 3.272-2.725 3.526-.618-.548zm1.104-3.748a1.77 1.77 0 01-.659-.121 1.681 1.681 0 01-.527-.33 1.592 1.592 0 01-.354-.486 1.385 1.385 0 01-.132-.603c0-.21.044-.408.132-.597a1.52 1.52 0 01.354-.487 1.755 1.755 0 011.186-.446c.23 0 .448.041.653.123.206.08.384.189.532.323.149.136.268.298.355.487.087.19.132.388.132.597a1.4 1.4 0 01-.132.603 1.577 1.577 0 01-.355.486 1.664 1.664 0 01-.532.33c-.205.08-.424.121-.653.121zm-2.457 6.53h-1.777v-1.777h.327v1.45h1.45v.327zm10.591-.01h-1.779v-.328h1.45v-1.449h.329v1.777zM64.251 3.885h-.327V2.108H65.7v.328h-1.45v1.449zm12.051 0h-.328V2.436h-1.45v-.328h1.778v1.777z" fill="#4BADCC"/><path d="M73.866 15.76h-9.12v-.634h9.12v.634zm-2.88 1.521h-6.24v-.634h6.24v.634z" fill="#3F8BC0"/><path d="M120.509 33.553h-13.767a1.97 1.97 0 01-1.969-1.97V17.819a1.97 1.97 0 011.969-1.969h13.767c1.087 0 1.968.881 1.968 1.969v13.765c0 1.088-.881 1.97-1.968 1.97z" fill="url(#paint19_linear)"/><path d="M114.698 29.834h-4.136v-.57h4.136v.57zm1.988 1.369h-6.124v-.57h6.124v.57z" fill="#3F8BC0"/><path d="M111.108 21.495a.804.804 0 00-.115-.085 1.427 1.427 0 00-.204-.107 1.883 1.883 0 00-.261-.088 1.127 1.127 0 00-.286-.037c-.172 0-.3.032-.385.095a.315.315 0 00-.127.268.28.28 0 00.047.165.426.426 0 00.138.116c.061.034.138.063.229.09.093.028.2.057.32.087.158.042.3.088.429.136.128.049.237.109.327.181a.76.76 0 01.206.262.868.868 0 01.073.374.92.92 0 01-.099.442.817.817 0 01-.263.296c-.11.076-.237.13-.38.166a1.94 1.94 0 01-.452.052c-.241 0-.48-.036-.716-.109a2.214 2.214 0 01-.634-.308l.276-.54a.98.98 0 00.147.107c.072.044.155.087.252.131.097.045.204.08.322.111.118.03.238.046.363.046.345 0 .517-.11.517-.331a.27.27 0 00-.059-.177.498.498 0 00-.168-.127 1.626 1.626 0 00-.263-.1l-.345-.1a3.005 3.005 0 01-.401-.138 1.044 1.044 0 01-.283-.177.66.66 0 01-.17-.235.817.817 0 01-.057-.32c0-.163.03-.309.09-.435a.88.88 0 01.252-.317c.107-.086.232-.15.375-.194a1.56 1.56 0 01.457-.066c.227 0 .435.037.627.107.189.071.355.155.498.252l-.277.507zm1.62 1.968a.789.789 0 00.292-.054.542.542 0 00.216-.145c.066-.051.1-.11.1-.172v-.272a1.591 1.591 0 00-.236-.066 1.312 1.312 0 00-.244-.025.65.65 0 00-.386.106.32.32 0 00-.15.27c0 .103.039.189.118.256a.428.428 0 00.29.102zm-.173.445a.9.9 0 01-.321-.057.769.769 0 01-.258-.158.719.719 0 01-.232-.538c0-.112.025-.215.075-.31a.724.724 0 01.209-.243 1.01 1.01 0 01.32-.157 1.38 1.38 0 01.407-.057c.106 0 .21.01.311.028.101.018.191.044.27.077v-.136c0-.157-.045-.278-.134-.363-.09-.085-.221-.127-.397-.127a1.05 1.05 0 00-.371.068 1.73 1.73 0 00-.373.2l-.185-.385c.305-.203.635-.305.988-.305.342 0 .608.084.796.252.189.168.284.41.284.728v.739c0 .064.011.108.034.136.022.027.058.042.11.045v.517a1.351 1.351 0 01-.267.032.41.41 0 01-.266-.077.336.336 0 01-.114-.204l-.014-.132c-.106.14-.235.246-.386.318a1.117 1.117 0 01-.486.11zm1.947-3.354h.608v2.548c0 .088.021.157.063.205.042.048.103.072.181.072a.457.457 0 00.121-.018.782.782 0 00.124-.045l.082.463a1.17 1.17 0 01-.285.09 1.561 1.561 0 01-.295.031c-.191 0-.338-.05-.443-.152-.104-.1-.156-.245-.156-.432v-2.762zm3.163 1.922a.632.632 0 00-.197-.43.603.603 0 00-.424-.16.611.611 0 00-.418.163.65.65 0 00-.194.427h1.233zm-.616 1.432c-.192 0-.364-.032-.518-.097a1.173 1.173 0 01-.646-.656 1.331 1.331 0 01-.002-.945 1.157 1.157 0 01.646-.664c.155-.066.329-.1.524-.1.193 0 .366.034.519.1a1.154 1.154 0 01.635.657 1.3 1.3 0 01.084.463l-.002.113a.5.5 0 01-.012.09h-1.836a.731.731 0 00.067.25.6.6 0 00.142.186.632.632 0 00.42.159.698.698 0 00.343-.088.463.463 0 00.22-.234l.521.145c-.088.182-.227.33-.419.447a1.3 1.3 0 01-.686.174z" fill="#4BADCC"/><path d="M24.747 45.748H2.26A2.26 2.26 0 010 43.488V21a2.26 2.26 0 012.26-2.26h22.487A2.261 2.261 0 0127.008 21v22.486a2.261 2.261 0 01-2.261 2.261z" fill="url(#paint20_linear)"/><path d="M8.963 33.633H7.13V31.8h.338v1.494h1.496v.339zm10.928 0h-1.834v-.339h1.496V31.8h.338v1.833zM7.467 22.705h-.338v-1.833h1.834v.338H7.467v1.495zm12.424 0h-.338V21.21h-1.496v-.338h1.834v1.833zM9.724 31.038h7.572v-7.572H9.724v7.572zm8.439.866H8.857V22.6h9.306v9.305z" fill="#4BADCC"/><path d="M16.121 25.7h-5.236v-1.023h5.236V25.7zm-1.702 9.312h-1.825v-.339h1.825v.339z" fill="#4BADCC"/><path d="M21.017 39.55H5.997v-.925h15.02v.926zm-7.9 2.223h-7.12v-.925h7.12v.925z" fill="#3F8BC0"/><path d="M46.646 46.951h-1.39v-1.39h-.78v1.39h-1.39v.78h1.39v1.39h.78v-1.39h1.39v-.78z" fill="url(#paint21_linear)"/><path d="M77.412 39.45h-1.391v-1.392h-.778v1.392h-1.391v.779h1.39v1.39h.779v-1.39h1.391v-.78z" fill="url(#paint22_linear)"/><path d="M122.269 51.17h-1.39v-1.39h-.779v1.39h-1.391v.779h1.391v1.39h.779v-1.39h1.39v-.779z" fill="url(#paint23_linear)"/><path d="M123.951 39.85l-10.601.05.035 7.684.007 1.62 1.611-1.627 8.984-.041-.036-7.685z" fill="#FFCA55"/><path d="M119.489 44.02a.81.81 0 11-1.621.003.81.81 0 011.621-.003zm2.664-.014a.81.81 0 11-1.619.006.81.81 0 011.619-.006zm-5.26.014a.81.81 0 11-1.621.003.81.81 0 011.621-.003z" fill="#fff"/><path d="M54.815 70.513l-6.84.032.023 4.957.005 1.045 1.039-1.05 5.795-.026-.022-4.958z" fill="url(#paint24_linear)"/><path d="M51.93 73.193a.523.523 0 11-1.045.003.523.523 0 011.045-.003zm1.718 0a.522.522 0 11-1.044.003.522.522 0 011.044-.003zm-3.396.01a.523.523 0 11-1.045.002.523.523 0 011.045-.002z" fill="#fff"/><path d="M53.33 30.804l10.603.049-.036 7.685-.007 1.618-1.611-1.626-8.984-.04.035-7.686z" fill="url(#paint25_linear)"/><path d="M57.799 34.98a.81.81 0 101.62.006.81.81 0 00-1.62-.005zm-2.654-.007a.81.81 0 101.62.005.81.81 0 00-1.62-.005zm5.257.007a.81.81 0 101.62.006.81.81 0 00-1.62-.005z" fill="#fff"/><path d="M18.85 51.352l8.285.038-.027 6.006-.006 1.264-1.26-1.27-7.02-.033.028-6.005z" fill="url(#paint26_linear)"/><path d="M22.35 54.61a.633.633 0 101.266.003.633.633 0 00-1.266-.004zm-2.08 0a.633.633 0 101.266.003.633.633 0 00-1.267-.004zm4.107.009a.633.633 0 101.265.005.633.633 0 00-1.265-.005z" fill="#fff"/><path d="M58.554 72.688l6.823.032-.022 4.946-.005 1.041-1.037-1.046-5.782-.027.023-4.946z" fill="#FFCA55"/><path d="M61.434 75.364a.521.521 0 101.042.003.521.521 0 00-1.042-.003zm-1.707 0a.52.52 0 101.04.005.52.52 0 00-1.04-.005zm3.383.012a.52.52 0 101.041.003.52.52 0 00-1.042-.003z" fill="#fff"/><path d="M70.733 117.051l-.237.646-1.664-.623.128-.774 1.773.751zm3.4-31.898s.693 4.585.742 4.997c.101.864-.994 7.596-.994 7.596l-1.056-1.168s.559-6.024.5-6.428c-.138-.954-1.065-4.104-1.065-4.104s1.16-1.286 1.873-.893z" fill="#EEA987"/><path d="M70.57 117.473s.502 1.347 1.036 1.576c.535.23 2.16.911 2.13 1.227-.03.315.17 1.317-2.941.333-3.112-.984-3.258-1.382-2.977-1.915.28-.533.755-1.36 1.076-1.861l1.675.64z" fill="#6797D9"/><path d="M72.988 95.793l1.163 1.115-.023 1.26-1.52-1.509.38-.866z" fill="#323657"/><path d="M68.829 118.237v.759h-1.761l-.162-.855 1.922.096z" fill="#EEA987"/><path d="M68.83 118.577s.95.843 1.532.875c.58.032 2.316.432 2.396.739.08.306.69 1.077-2.615 1.089-3.263.012-3.543-.072-3.462-.669.081-.597.187-1.408.316-1.989l1.832-.045z" fill="#6EA2E8"/><path d="M72.893 94.936s3.376 7.299 3.667 8.97c.29 1.67-5.628 13.69-5.628 13.69l-2.107-1.343s3.922-10.423 4.031-10.967c.109-.545-4.21-8.196-4.21-8.196s.87-1.936 4.247-2.154z" fill="#323657"/><path d="M70.43 97.26l-.644 10.23-.669 10.752h-2.375s-.451-9.187-.56-10.422c-.109-1.235-.987-9.114-.842-10.458.146-1.344 5.09-.102 5.09-.102z" fill="#323657"/><path d="M73.086 96.199l-8.19 3.02s-.175-2.999 0-3.424l8.19.404z" fill="#6EA2E8"/><path d="M70.882 80.846s2.502.86 2.814 1.373c.312.513.785 2.772.785 2.772s-1.196.43-1.4.489c-.205.06-.278 1.42-.509 2.955-.231 1.534.853 7.651.947 7.876 0 0-2.063 1.978-8.974 1.202 0 0 .273-3.935.248-5.136-.02-.984-.484-4.39-.484-4.39l-.942-6.044s1.064-1.09 3.947-1.5c1.831-.261 3.569.403 3.569.403z" fill="#DBDFF0"/><path d="M64.715 85.903s-.622 3.055-.524 3.226c.098.171 5.253 1.159 5.373 1.276.12.117-.047 1.197-.047 1.197s-7.276-.36-7.455-.955c-.178-.595-.002-4.815.283-5.506.284-.692 2.37.762 2.37.762zm4.813-12.436s-1.895.072-2.441 3.08c-.634 3.483 1.673 3.893 2.902 2.816 1.23-1.076 2.303-2.996 2.03-4.152-.272-1.156-1.665-1.633-2.49-1.744z" fill="#EEA987"/><path d="M67.606 74.968s-.557-1.82 1.458-2.126c2.016-.306 2.844 1.375 3.178 1.53.333.155.929 1.457-.163 2.673l-1.09 1.217s-.126.008-.385-.93c-.25-.905-.099-.395-.099-.395l-.633-.267s.147-.366-.668-.844c-.832-.488-1.598-.858-1.598-.858z" fill="#FCCCA2"/><path d="M70.387 76.424c.097-.268.676-.43.826.195.15.625-.712 1.147-.898.99-.187-.159-.09-.742.072-1.185z" fill="#EEA987"/><path d="M63.366 81.937s-.783.958-1.346 3.482l3.026.532.96-2.341-2.64-1.673z" fill="#DBDFF0"/><path d="M70.88 80.843s-.113 2.48-1.429 2.596c0 0-1.75.09-3.027-2.844 0 0 .54-.138.817-.27a.554.554 0 00.2-.193c.09-.135.173-.334.209-.602h.003a2.901 2.901 0 00-.054-1.013c-.236-1.11 2.67.463 2.67.463s-.114 1.207.025 1.65l.585.213z" fill="#EEA987"/><path d="M71.32 88.054l2.147.204-1.194 3.96-1.98-.097 1.027-4.067z" fill="#353D4A"/><path d="M70.457 90.293s.404-.916.398-1.105c-.006-.188.39-.295.35.16-.042.455-.074.743-.074.743l-.674.202z" fill="#EEA886"/><path d="M70.501 90.184s.077-.106.573-.234c.774-.2 1.772-.337 1.915-.216.205.175.05.327-.427.383-.476.056-.634.072-.634.072s.891.096 1.065.24c.175.146.137.389-.015.4-.151.01-.494-.036-.494-.036s.368.09.374.246c.005.116-.013.277-.377.27 0 0 .184.313-.208.41-.392.095-1.069.117-1.404.104-.697-.028-2.203-.422-2.203-.422l.64-1.089s.52.067.777.034c.346-.044.418-.162.418-.162z" fill="#EEA886"/><path d="M69.91 79.438s-.465 1.08-1.804.868a3.648 3.648 0 01-.663-.163c.09-.136.174-.335.21-.603h.003s.52.483 1.206.345c.682-.139 1.048-.447 1.048-.447z" fill="#A77860"/><path d="M49.477 118.697s1.205 2.042 1.714 2.376c.69.453.257.91-.07.911-.329 0-2.003.12-2.372-.299-.369-.418-.552-1.673-.895-2.002-.343-.328-.657-1.539.167-1.95.904-.45 1.456.964 1.456.964z" fill="#E55353"/><path d="M49.017 117.627s1.31 2.564 1.548 2.917c.238.353-.448.352-.873.185-.425-.168-1.526-1.869-1.647-2.196-.12-.326-.032-.8-.032-.8l1.004-.106z" fill="#3B3B40"/><path d="M47.55 119.087l.319 2.452.169.008-.052-1.764-.435-.696zm-8.406-2.386s.288 2.353.622 2.862c.452.691-.128.939-.429.808-.3-.131-1.883-.69-2.054-1.221-.171-.531.162-1.755-.022-2.193-.183-.438.013-1.674.933-1.721 1.008-.052.95 1.465.95 1.465z" fill="#E55353"/><path d="M39.162 115.541s.177 2.874.253 3.293c.078.419-.551.144-.873-.179-.323-.323-.654-2.323-.633-2.67.02-.348.29-.747.29-.747l.963.303z" fill="#3B3B40"/><path d="M37.227 116.299l-.688 2.375.152.074.657-1.638-.121-.811z" fill="#E55353"/><path d="M49.284 95.795c-.039-.19-1.494-3.01-1.757-3.859-.261-.85-.488-1.628-.62-1.964a5.433 5.433 0 01-.04-.112c-.09-.25-.284-.807-.484-1.327l-.042-.108-.02-.2c-.142-.36-.002-.567.001-.854 0-.086-.01-.18-.046-.287l-.004-.011c-.165-.483-.29-.906-.314-1.143-.08-.789-.507-4.296-.507-4.296s1.379.714 1.533 1.265c.232.836.47 2.08.528 2.463.059.382.658 3.568.783 4.215.125.648.268 1.196.449 1.624.18.429 1.378 4.248 1.452 4.59.074.342-.873.194-.912.004z" fill="#EEA886"/><path d="M49.263 95.392s-.024.446-.119.913c-.047.227.144 1.639.182 1.819.032.152.118.044.153-.064.02-.063.033-.563.08-.836.04-.23.092-.322.142-.257.05.064.267.955.248 1.354-.02.4.213 1.274.394 1.112.183-.162.394-1.847.254-2.445-.139-.599-.48-1.323-.48-1.323l-.854-.273z" fill="#EEA886"/><path d="M44.172 98.842c.06.29.444 1.503.874 2.851.393 1.229.822 2.569 1.08 3.424.097.32.17.571.207.724.247 1.012-.031 2.602-.121 3.929-.09 1.328 1.837 8.767 1.837 8.767.337.157.972-.907.972-.907-.248-.473-.212-8.863-.078-9.381.135-.517.225-1.958.09-2.52a2.263 2.263 0 01-.044-.452c-.011-.71.135-1.884.224-3.171.112-1.621-.517-5.649-.607-6.009a4.145 4.145 0 00-.038-.137c-.166-.565-.7-2.169-.7-2.169-1.083-.322-1.897-.38-2.506-.256-.805.164-1.248.648-1.47 1.261-.53 1.465.203 3.67.28 4.046z" fill="#3B3B40"/><path d="M38.082 115.441l1.096.385c.186-.899 4.637-7.198 4.908-7.895.272-.698.562-2.048.562-2.543 0-.088.006-.238.02-.431.047-.751.184-2.166.381-3.267.037-.206.076-.401.117-.578.218-.95.256-4.196.258-6.105.001-.85-.005-1.433-.005-1.433l-.054-.042c-.41-.31-3.043-2.204-3.96-.434-.243.467-.4.97-.497 1.493-.294 1.604-.005 3.41.232 5.056.203 1.409.592 3.398.704 4.875.062.812.04 1.469-.144 1.788-.518.901-1.023 1.662-2.07 4.839-.34 1.033-1.548 4.292-1.548 4.292z" fill="#3B3B40"/><path d="M46.062 77.187s.572-3.703-2.495-3.635c-3.067.069-3.026 1.9-2.971 3.717.054 1.817 1.229 1.68-.096 4.209-1.325 2.528 1.148 2.528 1.148 2.528l1.92-2.638 2.494-4.181z" fill="#FCCCA2"/><path d="M43.906 73.904s2.077.329 2.16 3.28c.081 2.951-.56 3.58-2.379 2.966-1.817-.615-2.391-3.704-2.432-4.183-.04-.477-.15-2.418 2.651-2.063z" fill="#EEA886"/><path d="M40.254 84.18c-.009 1.016 1.16 3.445 1.34 4.195.18.75.465.991.225 1.951-.24.96-.984 4.208-.954 4.494.03.284 6.695 1.336 7.7 1.14 0 0-1.229-4.584-1.319-5.11-.09-.525.11-2.493.154-3.048.046-.556.608-1.75.588-2.306-.019-.567-.297-1.057-.687-1.662-.12-.189-.247-.38-.374-.565-.413-.605-.825-1.155-1.027-1.345a3.241 3.241 0 00-.414-.33 1.896 1.896 0 00-.426-.225l-1.786-.285s-1.113.403-1.753.553c0 0-1.25.181-1.267 2.543z" fill="#E55353"/><path d="M45.492 81.59l1.035 1.631.955 1.506c-.002-.009-.066-.236-.174-.897l-.066-.424a1.17 1.17 0 00-.03-.138c-.409-.943-1.673-1.654-1.72-1.677z" fill="#E55353"/><path d="M40.316 83.322s.286-1.936 1.704-1.617c1.362.307.085 2.843-.015 3.143-.1.3-1.109 2.754-1.196 3.075-.277 1.016-.017 1.04.399 1.28 1.229.708 3.755.66 4.046.855.29.195.274.8-.216.821-.636.028-4.275-.314-4.783-.365-.492-.047-1.472-.089-1.215-1.838.174-1.179 1.276-5.354 1.276-5.354zm2.202-4.501c.18.34.37 2.451.37 2.451s2.54.96 2.281.417c-.118-.246-.153-.566-.155-.842a4.207 4.207 0 01.04-.6s-2.715-1.766-2.536-1.426z" fill="#EEA886"/><path d="M44.756 76.027s-1.066 1.736-2.036 2.419-.479 1.23-.479 1.23-2.531-5.33-.125-5.698c2.407-.37 3.883-.397 3.951 3.21 0 0-1.093-1.188-1.311-1.16z" fill="#FCCCA2"/><path d="M43.588 80.118c.39.575 1.42.73 1.42.73a4.183 4.183 0 01.028-.513c-.661.127-1.448-.217-1.448-.217z" fill="#A77860"/><path d="M47.206 83.258s.055.114.1.574l-.373-.565s-.669-.958-.897-1.207c-.23-.249-.544-.467-.544-.467s1.315.631 1.714 1.665z" fill="#BD4444"/><path d="M46.797 85.329l-4.004-.331a.308.308 0 00-.333.283l-.496 6.633a.307.307 0 00.275.33l3.844.395a.307.307 0 00.338-.276l.657-6.697a.308.308 0 00-.281-.337z" fill="#2F4563"/><path d="M43.026 89.781s.758.128.83.116c.07-.012.37-.502.717-.59.348-.089.782-.157.89-.223.106-.067.135.273-.198.413-.334.139-.418.325.207.45.346.07 1.638-.075 1.53.144-.062.128-1.308.22-1.308.22s1.343-.007 1.39.075c.09.16-1.258.217-1.314.21 0 0 1.154.067 1.164.171.013.129-1.157.074-1.146.095 0 0 .918.063.91.142-.013.102-.821.115-.978.096-.156-.018-1.739-.198-2.004-.25-.267-.054-.714-.085-.714-.085l.024-.984z" fill="#EEA886"/><path d="M41.576 89.373s.75.263 1.448.411c.697.148-.024.984-.024.984s-1.208-.112-1.788-.168c-.282-.028.364-1.227.364-1.227z" fill="#EEA886"/><path d="M42.152 84.686s-1.63-.64-2.113-.677c0 0 .328-2.618 1.93-2.34 1.602.277.183 3.017.183 3.017zM41.136 99.65c.203 1.409.592 3.398.704 4.875 0 0 1.149.229 2.823.435.453.056.945.11 1.463.157a38.49 38.49 0 002.862.16c-.011-.71.135-1.884.224-3.171.112-1.621-.518-5.649-.607-6.009a3.91 3.91 0 00-.039-.137c-.81-.446-1.97-.746-3.146-.95a26.097 26.097 0 00-1.53-.214 34.38 34.38 0 00-2.986-.202c-.294 1.604-.005 3.41.232 5.056z" fill="#E55353"/><path d="M45.062 81.365s1.197 1.84.792 2.002c-.405.16-2.6-.215-3.532-1.963 0 0 1.395-.715 2.74-.039z" fill="#EEA886"/><path d="M97.8 95.091s-.593.52-1.126 1.321c-.534.8-1.95.843-2.01 1.935-.06 1.092 1.925 1.125 2.968.77 1.042-.356 1.199-1.423 1.83-1.69.63-.266.958-.482.909-1.003-.048-.52-.397-1.365-.397-1.365s-.392.124-.622.15c-.23.025-1.006.035-1.551-.118z" fill="#163F75"/><path d="M104.948 65.513s-.399 2.375-.721 3.945c-.131.637-.249 1.14-.322 1.299-.093.2-.842 1.005-1.76 1.95-1.61 1.658-3.74 3.746-3.74 3.746l-.83-1.579s1.89-2.215 3.171-3.694c.593-.684 1.055-1.21 1.14-1.286.268-.24.579-2.601 1.016-4.547.437-1.945 1.313-3.02 1.313-3.02l.733 3.186z" fill="#FFB56B"/><path d="M102.145 72.707a268.275 268.275 0 01-3.739 3.746l-.832-1.579s1.89-2.215 3.172-3.694c.393.193 1.113.652 1.399 1.527z" fill="#EEA886"/><path d="M112.487 94.45s.546.605.87.972c.323.366 1.562 1.022 1.569 2.11.007 1.181-.914 1.078-1.733 1.035-.82-.043-1.487-.61-1.832-1.278s-1.263-.844-1.328-1.383c-.064-.54.426-1.51.426-1.51l2.028.054z" fill="#163F75"/><path d="M110.565 93.387l-.106 1.005s1.71.746 2.027.055l-.074-.896-1.847-.164zm-12.671.978l-.093.728s1.033.365 2.173-.032l.023-.648-2.103-.048z" fill="#5F8CC9"/><path d="M112.567 76.132c.059.212-10.95 0-10.95 0s3.046-2.217 3.243-2.809c.198-.592-.775-4.145-.902-5.3-.101-.926-.356-5.064.255-5.696.636-.661 2.931-1.353 2.931-1.353l3.346.123s.552.116.947.3c.395.182 2.653.987 3.019 2.115.367 1.127-2.252 4.754-2.252 4.754l-.014.43c-.01.356-.025.897-.038 1.484-.018.76-.033 1.598-.033 2.21 0 1.438.389 3.53.448 3.742z" fill="#FFB56B"/><path d="M112.568 76.126s1.498 2.199 1.519 3.7c.021 1.502-.555 5.665-.598 6.49-.042.824-.817 7.698-.817 7.698s-.599.556-2.397-.141l-.439-7.216c-.042-.698-.042-3.913-.444-4.377-.401-.466-2.834-1.925-3.151-2.2-.317-.275-5.843 1.044-6.422 1.195-1.5.388-.816 2.997-.485 4.167.555 1.957 1.041 9.023 1.041 9.023s-1.069.455-2.857.07c0 0-3.513-12.759-3.625-14.028-.113-1.269-.168-3.36 8.487-4.951l10.188.57z" fill="#1B4D8F"/><path d="M108.064 53.7s-2.905-.656-2.241 3c.664 3.655 1.363 3.942 3.115 3.186 1.752-.757 1.595-3.099 1.683-4.247.089-1.149-1.63-1.9-2.557-1.94z" fill="#EEA886"/><path d="M107.309 61.906s1.286 1.364 3.32.125c0 0-.455-2.956-.216-4.396.239-1.44-2.652 2.23-2.652 2.23.038.02.062.158.068.353.005.166-.003.373-.03.586-.06.48-.208.984-.49 1.102z" fill="#EEA886"/><path d="M109.632 56.211c.039-.322.676-.441.728.042.051.484-.29 1.333-.532 1.25-.242-.084-.249-.848-.196-1.292z" fill="#EEA886"/><path d="M110.492 57.52s-.075-1.152-.496-1.188c-.42-.036-.484.428-.484.428l-.425.08s.133-1.01-.287-1.186c-.419-.176-2.72.556-3.058.26-.337-.297-.179-2.344.432-2.624.609-.28 2.293-.909 3.527-.073 0 0 .961-.11 1.104.666.143.776-.052 3.06-.313 3.636z" fill="#3A3F47"/><path d="M107.793 60.81c2.096-.646 2.255-1.909 2.257-1.928-.69 1.186-2.236 1.343-2.236 1.343.004.166.005.373-.021.585z" fill="#A77860"/><path d="M111.474 61.402s-1.536 3.058-4.017 2.86c-2.482-.197-.424-3.27-.311-3.299.124-.031 2.546-.634 4.328.439z" fill="#EEA886"/><path d="M100.375 75.965s7.603.937 12.209.155l-8.801-1.1s-.053.225-3.408.945z" fill="#FFB56B"/><path d="M106.055 74.676l-.567.287s.13.9.44 1.172l.635-.162s-.132-.987-.508-1.297z" fill="#EEA886"/><path d="M114.853 72.835c-.114.13-1.608.732-3.296 1.382l-.001.001c-2.307.888-4.908 1.73-4.908 1.73l-.593-1.27s2.725-1.481 4.566-2.52c.87-.49 1.542-.882 1.638-.972.296-.283.372-.735.155-1.524-.218-.788-.72-4.412-.776-4.835-.056-.423.141-1.55 1.198-1.607 1.058-.057 1.596.242 1.596.242s.265.11.463 2.676c.198 2.566.226 6.387-.042 6.697z" fill="#FFB56B"/><path d="M112.191 68.691c-.009.356-.024.898-.038 1.485-1.032-2.53-.436-4.549-.426-4.582-.112.686.457 3.063.464 3.097zm-7.965.762c-.131.637-.248 1.14-.321 1.299-.353-1.706-.036-3.89-.036-3.89.048 1.044.357 2.591.357 2.591z" fill="#BD864F"/><path d="M111.556 74.221l-.001.001c-2.306.888-4.992 1.757-4.992 1.757l-.508-1.298s2.725-1.48 4.566-2.519c0 0 .67.326.935 2.06z" fill="#EEA886"/><path d="M105.89 76.057l-10.806-.159 5.455 2.77 5.351-2.611z" fill="#5E5853"/><path d="M100.54 78.668l5.35-2.073v-.538l-5.773 2.082.423.529z" fill="#91887F"/><path d="M105.612 74.978s-.674-.105-1.141-.214c-.362-.084-1.26.032-1.489.263-.227.232-.954 1.847-1.092 1.945-.138.099.07.327.311.212 0 0 .222.707.769.442.548-.264.92-.842 1.206-.943a120.43 120.43 0 011.956-.615s-.09-1.262-.52-1.09z" fill="#EEA886"/><path d="M103.139 74.928s-.434.21-.548.303c-.113.093-.572.436-.683.517-.111.082.168.311.988-.044.82-.356.243-.776.243-.776z" fill="#EEA886"/><path d="M100.539 78.668l-3.214-8.776-10.362.17 3.064 8.087 10.512.519z" fill="#6E6760"/><defs><linearGradient id="paint0_linear" x1="168.517" y1="56.404" x2="168.517" y2="121.041" gradientUnits="userSpaceOnUse"><stop stop-color="#EB4747"/><stop offset="1" stop-color="#C93D69"/></linearGradient><linearGradient id="paint1_linear" x1="35.217" y1="88.002" x2="35.217" y2="127.554" gradientUnits="userSpaceOnUse"><stop stop-color="#FAB46C"/><stop offset="1" stop-color="#FA8A52"/></linearGradient><linearGradient id="paint2_linear" x1="68.072" y1="70.678" x2="68.072" y2="119.702" gradientUnits="userSpaceOnUse"><stop stop-color="#6EA2E8"/><stop offset="1" stop-color="#5278E9"/></linearGradient><linearGradient id="paint3_linear" x1="154.212" y1="21.795" x2="154.212" y2="8.037" gradientUnits="userSpaceOnUse"><stop stop-color="#CAD9F1"/><stop offset="1" stop-color="#EEFFFE"/></linearGradient><linearGradient id="paint4_linear" x1="153.583" y1="22.088" x2="153.583" y2="8.372" gradientUnits="userSpaceOnUse"><stop stop-color="#C8D7EF"/><stop offset="1" stop-color="#ECFDFC"/></linearGradient><linearGradient id="paint5_linear" x1="133.919" y1="-10.739" x2="133.919" y2="-21.24" gradientUnits="userSpaceOnUse"><stop stop-color="#CAD9F1"/><stop offset="1" stop-color="#EEFFFE"/></linearGradient><linearGradient id="paint6_linear" x1="39.071" y1="44.907" x2="39.071" y2="32.556" gradientUnits="userSpaceOnUse"><stop stop-color="#CAD9F1"/><stop offset="1" stop-color="#EEFFFE"/></linearGradient><linearGradient id="paint7_linear" x1="31.838" y1="12.31" x2="31.838" y2="3.587" gradientUnits="userSpaceOnUse"><stop stop-color="#CAD9F1"/><stop offset="1" stop-color="#EEFFFE"/></linearGradient><linearGradient id="paint8_linear" x1="122.44" y1="16.401" x2="122.44" y2="-7.093" gradientUnits="userSpaceOnUse"><stop stop-color="#CAD9F1"/><stop offset="1" stop-color="#EEFFFE"/></linearGradient><linearGradient id="paint9_linear" x1="121.426" y1="17.074" x2="121.426" y2="-6.283" gradientUnits="userSpaceOnUse"><stop stop-color="#CAD9F1"/><stop offset="1" stop-color="#EEFFFE"/></linearGradient><linearGradient id="paint10_linear" x1="119.228" y1="18.472" x2="119.228" y2="-4.582" gradientUnits="userSpaceOnUse"><stop stop-color="#CAD9F1"/><stop offset="1" stop-color="#EEFFFE"/></linearGradient><linearGradient id="paint11_linear" x1="120.525" y1="17.636" x2="120.525" y2="-5.597" gradientUnits="userSpaceOnUse"><stop stop-color="#CAD9F1"/><stop offset="1" stop-color="#EEFFFE"/></linearGradient><linearGradient id="paint12_linear" x1="124.881" y1="14.844" x2="124.881" y2="-8.99" gradientUnits="userSpaceOnUse"><stop stop-color="#CAD9F1"/><stop offset="1" stop-color="#EEFFFE"/></linearGradient><linearGradient id="paint13_linear" x1="44.58" y1="28.133" x2="44.58" y2="9.776" gradientUnits="userSpaceOnUse"><stop stop-color="#C7D7F0"/><stop offset="1" stop-color="#EDFFFE"/></linearGradient><linearGradient id="paint14_linear" x1="44.579" y1="28.13" x2="44.579" y2="9.773" gradientUnits="userSpaceOnUse"><stop stop-color="#C7D7F0"/><stop offset="1" stop-color="#EDFFFE"/></linearGradient><linearGradient id="paint15_linear" x1="44.59" y1="28.117" x2="44.59" y2="9.76" gradientUnits="userSpaceOnUse"><stop stop-color="#C7D7F0"/><stop offset="1" stop-color="#EDFFFE"/></linearGradient><linearGradient id="paint16_linear" x1="44.574" y1="28.125" x2="44.574" y2="9.768" gradientUnits="userSpaceOnUse"><stop stop-color="#C7D7F0"/><stop offset="1" stop-color="#EDFFFE"/></linearGradient><linearGradient id="paint17_linear" x1="44.583" y1="28.134" x2="44.583" y2="9.778" gradientUnits="userSpaceOnUse"><stop stop-color="#C7D7F0"/><stop offset="1" stop-color="#EDFFFE"/></linearGradient><linearGradient id="paint18_linear" x1="97.741" y1="-1.873" x2="59.266" y2="-1.873" gradientUnits="userSpaceOnUse"><stop stop-color="#EEF4FF"/><stop offset="1" stop-color="#EEFFFE"/></linearGradient><linearGradient id="paint19_linear" x1="209.353" y1="-22.699" x2="163.843" y2="-22.699" gradientUnits="userSpaceOnUse"><stop stop-color="#EEF4FF"/><stop offset="1" stop-color="#EEFFFE"/></linearGradient><linearGradient id="paint20_linear" x1="38.622" y1="32.245" x2="-9.375" y2="32.245" gradientUnits="userSpaceOnUse"><stop stop-color="#EEF4FF"/><stop offset="1" stop-color="#EEFFFE"/></linearGradient><linearGradient id="paint21_linear" x1="44.866" y1="50.581" x2="44.866" y2="40.957" gradientUnits="userSpaceOnUse"><stop stop-color="#C7D7F0"/><stop offset="1" stop-color="#EDFFFE"/></linearGradient><linearGradient id="paint22_linear" x1="85.657" y1="36.776" x2="85.657" y2="29.1" gradientUnits="userSpaceOnUse"><stop stop-color="#C7D7F0"/><stop offset="1" stop-color="#EDFFFE"/></linearGradient><linearGradient id="paint23_linear" x1="199.192" y1="21.724" x2="199.192" y2="8.462" gradientUnits="userSpaceOnUse"><stop stop-color="#C7D7F0"/><stop offset="1" stop-color="#EDFFFE"/></linearGradient><linearGradient id="paint24_linear" x1="47.975" y1="73.53" x2="54.837" y2="73.53" gradientUnits="userSpaceOnUse"><stop stop-color="#EB4747"/><stop offset="1" stop-color="#E4454E"/></linearGradient><linearGradient id="paint25_linear" x1="53.295" y1="35.48" x2="63.933" y2="35.48" gradientUnits="userSpaceOnUse"><stop stop-color="#EB4747"/><stop offset="1" stop-color="#E4454E"/></linearGradient><linearGradient id="paint26_linear" x1="18.822" y1="55.007" x2="27.135" y2="55.007" gradientUnits="userSpaceOnUse"><stop stop-color="#6EA2E8"/><stop offset="1" stop-color="#5C88E9"/></linearGradient></defs></svg>