<svg width="12" height="17" fill="none" xmlns="http://www.w3.org/2000/svg"><path opacity=".7" d="M6.132 9.345c-1.689-.485-2.92-1.08-3.692-1.784-.765-.71-1.148-1.586-1.148-2.625 0-1.176.468-2.146 1.405-2.912C3.64 1.25 4.864.865 6.367.865c1.026 0 1.939.198 2.738.595.807.396 1.43.943 1.867 1.64.444.698.666 1.46.666 2.287H9.66c0-.902-.287-1.61-.861-2.122-.574-.52-1.384-.78-2.43-.78-.971 0-1.73.216-2.277.646-.54.424-.81 1.015-.81 1.774 0 .609.257 1.125.77 1.549.519.417 1.397.8 2.635 1.148 1.244.349 2.214.735 2.912 1.159.704.417 1.223.905 1.558 1.466.342.56.513 1.22.513 1.98 0 1.209-.472 2.18-1.415 2.911-.943.725-2.205 1.087-3.784 1.087a7.07 7.07 0 01-2.87-.584c-.89-.397-1.577-.937-2.062-1.62a3.96 3.96 0 01-.718-2.328H2.8c0 .902.33 1.617.994 2.143.67.52 1.562.78 2.676.78 1.04 0 1.836-.213 2.39-.636.553-.424.83-1.002.83-1.733 0-.732-.256-1.296-.77-1.692-.512-.404-1.441-.8-2.788-1.19z" fill="#000"/></svg>