<svg width="20" height="20" fill="none" xmlns="http://www.w3.org/2000/svg"><path d="M19.165 11.448A9.279 9.279 0 008.552.835 5.607 5.607 0 00.834 8.552a9.278 9.278 0 0010.613 10.613 5.608 5.608 0 007.717-7.718zm-4.76 2.772c-.393.565-.97 1.006-1.723 1.324-.755.318-1.647.477-2.678.477-1.235 0-2.257-.216-3.064-.653a3.971 3.971 0 01-1.396-1.254c-.358-.524-.54-1.036-.54-1.536 0-.294.113-.55.331-.76.221-.21.506-.316.842-.316.275 0 .512.083.704.248.191.164.352.403.483.718.157.365.328.67.51.913.18.24.434.441.762.599.326.157.759.236 1.3.236.742 0 1.341-.16 1.8-.477.46-.32.682-.708.682-1.177 0-.374-.12-.671-.364-.903-.247-.235-.566-.414-.962-.539a17.3 17.3 0 00-1.6-.4c-.897-.196-1.648-.424-2.256-.686-.61-.263-1.094-.623-1.453-1.077-.36-.458-.54-1.028-.54-1.703 0-.643.19-1.219.569-1.72.38-.502.928-.886 1.644-1.154.713-.268 1.552-.402 2.514-.402.77 0 1.435.09 1.998.266.561.179 1.03.414 1.404.71.372.294.645.605.819.931.173.327.26.647.26.959 0 .29-.112.553-.331.783a1.1 1.1 0 01-.826.347c-.295 0-.527-.068-.687-.212-.156-.139-.32-.36-.498-.67-.224-.431-.493-.767-.805-1.008-.305-.235-.806-.358-1.505-.357-.646 0-1.163.132-1.554.39-.392.263-.58.567-.58.924 0 .224.064.412.193.573.132.163.314.304.55.423.234.12.473.214.713.28.243.07.646.17 1.207.301.702.151 1.34.32 1.912.505.572.185 1.06.409 1.463.675.406.266.723.604.95 1.013.228.41.342.91.342 1.498 0 .709-.196 1.346-.59 1.91z" fill="#989898"/></svg>