<svg style="fill:#fff;" viewBox="0 0 27 31" xmlns="http://www.w3.org/2000/svg">
	<path d="M3.04426 15.0105C3.04426 14.7246 3.05621 14.4404 3.07885 14.1582H1.889C0.927694 14.1582 0.148438 14.9375 0.148438 15.8988V19.2813C0.148438 20.2426 0.927694 21.0218 1.889 21.0218H3.04426V15.0105Z"></path>
	<path d="M25.1118 14.1582H23.9219C23.9445 14.4404 23.9565 14.7246 23.9565 15.0105V21.0217H25.1117C26.073 21.0217 26.8523 20.2425 26.8523 19.2812V15.8988C26.8523 14.9375 26.073 14.1582 25.1118 14.1582Z"></path>
	<path d="M22.6262 25.1281V21.0112V15.0103C22.6262 14.7281 22.6127 14.449 22.5876 14.1733C22.1987 9.89828 18.8613 6.47551 14.6255 5.95555V5.28429V4.61384V4.25146C15.3129 3.86027 15.7768 3.12158 15.7768 2.27415C15.7767 1.01819 14.7586 0 13.5025 0C12.2466 0 11.2284 1.01819 11.2284 2.2742C11.2284 3.12168 11.6923 3.86027 12.3796 4.25151V4.61389V5.28434V5.9556C8.14268 6.47572 4.80465 9.90026 4.4172 14.1768C4.39233 14.4514 4.37891 14.7293 4.37891 15.0104V21.0076V25.1281H9.41758V23.1896C9.41758 22.6375 9.8651 22.19 10.4172 22.19H16.5878C17.1399 22.19 17.5874 22.6376 17.5874 23.1896V25.1281L22.6262 25.1281ZM9.10307 19.6058C7.73203 19.6058 6.62063 18.4943 6.62063 17.1233C6.62063 15.7522 7.73208 14.6408 9.10307 14.6408C10.4741 14.6408 11.5855 15.7522 11.5855 17.1233C11.5855 18.4943 10.4741 19.6058 9.10307 19.6058ZM15.7767 17.1233C15.7767 15.7523 16.8882 14.6409 18.2592 14.6409C19.6302 14.6409 20.7417 15.7523 20.7417 17.1233C20.7417 18.4944 19.6302 19.6058 18.2592 19.6058C16.8881 19.6058 15.7767 18.4943 15.7767 17.1233Z"></path>
	<path d="M24.0849 26.4609H23.9571H17.5856H9.41576H3.04424H2.91644C2.45134 26.4609 2.07422 26.838 2.07422 27.3032V30.1588C2.07422 30.624 2.45128 31.001 2.91644 31.001H24.0848C24.5499 31.001 24.927 30.624 24.927 30.1588V27.3032C24.9271 26.838 24.55 26.4609 24.0849 26.4609Z"></path>
</svg>