<svg style="fill:#fff;" class="slider-nav__icon" width="26" height="26" viewBox="0 0 26 26" xmlns="http://www.w3.org/2000/svg">
	<path d="M1.85742 24.6069C1.85778 24.8632 2.06542 25.0708 2.32171 25.0712H7.42884V24.1426H2.32171C2.06547 24.1429 1.85778 24.3506 1.85742 24.6069Z"></path>
	<path d="M17.1789 23.2148H8.82172C8.56542 23.2152 8.35778 23.4228 8.35742 23.6791V25.5363C8.35778 25.7926 8.56542 26.0002 8.82172 26.0006H17.1788C17.4351 26.0002 17.6428 25.7926 17.6431 25.5363V23.6791C17.6428 23.4228 17.4351 23.2152 17.1789 23.2148Z"></path>
	<path d="M13.9284 20.8926H12.0713V22.2855H13.9284V20.8926Z"></path>
	<path d="M24.1438 14.3929C24.5769 14.3932 25.0038 14.4953 25.3902 14.6908L21.8314 1.63409C21.8111 1.59504 21.7966 1.55315 21.7884 1.50988C21.624 0.632942 20.8574 -0.00187475 19.9652 4.1598e-06H6.03665C5.14452 -0.0017224 4.37803 0.633043 4.2135 1.50988C4.20781 1.5404 4.19908 1.57021 4.18745 1.599L0.620117 14.6867C1.00433 14.4938 1.4282 14.3932 1.85811 14.3928H24.1438V14.3929Z"></path>
	<path d="M24.143 15.3223H1.85717C1.01837 15.3249 0.285797 15.8902 0.0704337 16.7009L0.0354454 16.8291C0.012543 16.9445 0.000710938 17.0618 0 17.1794V18.108C0.00116797 19.1331 0.83195 19.9639 1.85712 19.9651H15.7857V17.6437C15.7857 17.3873 15.9936 17.1794 16.25 17.1794C16.5064 17.1794 16.7143 17.3872 16.7143 17.6437V19.9651H17.6429V17.6437C17.6429 17.3873 17.8507 17.1794 18.1072 17.1794C18.3636 17.1794 18.5715 17.3872 18.5715 17.6437V19.9651H19.5001V17.6437C19.5001 17.3873 19.7079 17.1794 19.9644 17.1794C20.2208 17.1794 20.4287 17.3872 20.4287 17.6437V19.9651H21.3572V17.6437C21.3572 17.3873 21.5651 17.1794 21.8215 17.1794C22.078 17.1794 22.2858 17.3872 22.2858 17.6437V19.9651H24.143C25.1682 19.964 25.999 19.1331 26.0001 18.108V17.1794C25.999 16.1542 25.1682 15.3234 24.143 15.3223ZM3.25005 19.0366C2.48082 19.0366 1.85717 18.413 1.85717 17.6437C1.85717 16.8744 2.48082 16.2509 3.25005 16.2509C4.01929 16.2509 4.64294 16.8744 4.64294 17.6437C4.64207 18.4126 4.01899 19.0357 3.25005 19.0366Z"></path>
	<path d="M3.24945 18.1063C3.50587 18.1063 3.71374 17.8984 3.71374 17.642C3.71374 17.3856 3.50587 17.1777 3.24945 17.1777C2.99303 17.1777 2.78516 17.3856 2.78516 17.642C2.78516 17.8984 2.99303 18.1063 3.24945 18.1063Z"></path>
	<path d="M23.6785 24.1426H18.5713V25.0712H23.6784C23.9348 25.0712 24.1427 24.8633 24.1427 24.6069C24.1428 24.3504 23.9349 24.1426 23.6785 24.1426Z"></path>
</svg>