<svg style="fill:#fff;" width="34" height="34" viewBox="0 0 34 34" xmlns="http://www.w3.org/2000/svg">
      <path d="M19.1936 28.6823C19.1875 28.6802 18.6589 28.518 18.6589 28.518C18.4657 28.4587 18.2574 28.4739 18.0749 28.5606L16.9995 29.072L15.9241 28.5606C15.7416 28.4739 15.5333 28.4588 15.3401 28.518C15.3401 28.518 14.8116 28.6803 14.8054 28.6823C13.8837 28.9894 13.2646 29.8484 13.2646 30.8197V33.1927C13.2646 33.639 13.6263 34.0006 14.0725 34.0006H19.9264C20.3726 34.0006 20.7342 33.639 20.7342 33.1927V30.8197C20.7342 29.8484 20.1151 28.9894 19.1936 28.6823Z"></path>
      <path d="M14.4619 25.4905C14.4619 26.8897 15.6002 28.028 16.9993 28.028C18.3985 28.028 19.5367 26.8897 19.5367 25.4905C19.5367 24.0914 18.3985 22.9531 16.9993 22.9531C15.6002 22.9531 14.4619 24.0914 14.4619 25.4905Z"></path>
      <path d="M14.0726 11.1472H19.9265C20.3727 11.1472 20.7343 10.7856 20.7343 10.3393V7.9663C20.7343 6.99496 20.1152 6.13603 19.1936 5.82888C19.1875 5.82682 18.6589 5.66461 18.6589 5.66461C18.4657 5.60519 18.2574 5.62042 18.0749 5.70719L16.9995 6.21845L15.9241 5.70708C15.7416 5.62042 15.5333 5.60519 15.3401 5.66449C15.3401 5.66449 14.8116 5.82682 14.8054 5.82877C13.8837 6.13591 13.2646 6.99484 13.2646 7.96619V10.3392C13.2648 10.7856 13.6264 11.1472 14.0726 11.1472Z"></path>
      <path d="M16.9993 5.07482C18.3985 5.07482 19.5367 3.93656 19.5367 2.53741C19.5367 1.13826 18.3985 0 16.9993 0C15.6002 0 14.4619 1.13826 14.4619 2.53741C14.4619 3.93656 15.6002 5.07482 16.9993 5.07482Z"></path>
      <path d="M6.88597 28.6823C6.8799 28.6802 6.35113 28.5179 6.35113 28.5179C6.158 28.4588 5.94965 28.4738 5.76717 28.5607L4.69188 29.072L3.61647 28.5606C3.43399 28.4739 3.22576 28.4588 3.03252 28.518C3.03252 28.518 2.50397 28.6803 2.49779 28.6823C1.57613 28.9894 0.957031 29.8484 0.957031 30.8197V33.1927C0.957031 33.639 1.31867 34.0006 1.7649 34.0006H7.61863C8.06486 34.0006 8.4265 33.639 8.4265 33.1927V30.8197C8.42661 29.8484 7.8074 28.9893 6.88597 28.6823Z"></path>
      <path d="M4.6917 28.028C6.09085 28.028 7.22911 26.8897 7.22911 25.4905C7.22911 24.0914 6.09085 22.9531 4.6917 22.9531C3.29255 22.9531 2.1543 24.0914 2.1543 25.4905C2.1543 26.8897 3.29255 28.028 4.6917 28.028Z"></path>
      <path d="M31.5001 28.6823C31.494 28.6802 30.9654 28.518 30.9654 28.518C30.7721 28.4587 30.5639 28.4739 30.3814 28.5606L29.306 29.072L28.2307 28.5607C28.0483 28.4739 27.8399 28.4589 27.6468 28.5179C27.6468 28.5179 27.1181 28.6803 27.1119 28.6823C26.1904 28.9893 25.5713 29.8484 25.5713 30.8197V33.1927C25.5713 33.639 25.9329 34.0006 26.3792 34.0006H32.2329C32.6791 34.0006 33.0408 33.639 33.0408 33.1927V30.8197C33.0408 29.8484 32.4217 28.9894 31.5001 28.6823Z"></path>
      <path d="M26.7695 25.4905C26.7695 26.8897 27.9078 28.028 29.3069 28.028C30.7061 28.028 31.8443 26.8897 31.8443 25.4905C31.8443 24.0914 30.7061 22.9531 29.3069 22.9531C27.9078 22.9531 26.7695 24.0914 26.7695 25.4905Z"></path>
      <path d="M4.6919 20.8424C5.23373 20.8424 5.67286 20.4031 5.67286 19.8614V17.8979H16.0184V19.8613C16.0184 20.4031 16.4576 20.8422 16.9993 20.8422C17.541 20.8422 17.9803 20.403 17.9803 19.8613V17.8978H28.3258V19.8613C28.3258 20.4031 28.7651 20.8422 29.3068 20.8422C29.8486 20.8422 30.2877 20.403 30.2877 19.8613V16.9168C30.2877 16.375 29.8485 15.9358 29.3068 15.9358H17.9802V13.2251C17.9802 12.6833 17.5409 12.2441 16.9992 12.2441C16.4575 12.2441 16.0183 12.6834 16.0183 13.2251V15.9358H4.6919C4.15008 15.9358 3.71094 16.3751 3.71094 16.9168V19.8613C3.71094 20.4031 4.15008 20.8424 4.6919 20.8424Z"></path>
</svg>