<svg style="fill:#fff;" width="27" height="27" viewBox="0 0 27 27" xmlns="http://www.w3.org/2000/svg">
   <g clip-path="url(#clip0)">
      <path d="M24.6133 12.802V4.54837C24.6133 4.42465 24.5794 4.31143 24.5289 4.20723C24.5593 4.12291 24.6133 4.0485 24.6133 3.9551C24.6133 3.6021 24.3792 3.29155 24.0393 3.1942L12.9651 0.0301377C12.823 -0.0100459 12.6731 -0.0100459 12.531 0.0301377L1.45677 3.1942C1.11685 3.29155 0.882812 3.6021 0.882812 3.9551C0.882812 4.30811 1.11685 4.61866 1.45677 4.71601L5.62891 5.90802V6.84416C5.62891 7.74407 6.12872 8.57142 6.90197 8.95148C10.4476 10.6942 15.0469 10.6934 18.5942 8.95227C19.3674 8.57221 19.8672 7.74486 19.8672 6.84416V5.90802L23.0313 5.00404V12.802C22.1126 13.1296 21.4493 13.9994 21.4493 15.0293V16.6114C21.4493 17.0486 21.8031 17.4024 22.2403 17.4024H25.4044C25.8416 17.4024 26.1954 17.0486 26.1954 16.6114V15.0293C26.1953 13.9994 25.532 13.1297 24.6133 12.802Z"></path>
      <path d="M19.2128 10.4773C17.2244 11.4544 14.9619 11.9704 12.6699 11.9704C10.378 11.9704 8.11462 11.4536 6.12547 10.4765C5.9312 10.381 5.77031 10.2394 5.59766 10.1133C5.76662 12.9604 7.29844 15.3763 9.4633 16.6141C9.4633 16.6141 10.5737 17.1387 10.9207 17.2373L10.922 17.2347C11.4839 17.3949 12.0624 17.5076 12.6699 17.5076C13.2261 17.5076 14.0183 17.3966 14.8099 17.1043C15.1746 16.9744 15.8739 16.6157 15.8739 16.6157C18.0401 15.3784 19.5729 12.9617 19.7421 10.1136C19.569 10.2399 19.4076 10.3815 19.2128 10.4773Z"></path>
      <path d="M12.6696 19.0904C12.0319 19.0904 11.4183 18.992 10.8203 18.8477L12.6696 21.6216L14.5085 18.8503C13.9137 18.9929 13.3036 19.0904 12.6696 19.0904Z"></path>
      <path d="M17.2233 17.6719C17.2092 17.6813 17.1935 17.6878 17.1796 17.6972L16.5143 18.6951C16.5143 18.7319 13.4813 23.2682 13.4609 23.2988V27.0008H23.7441C24.1814 27.0008 24.5352 26.647 24.5352 26.2098C24.5352 21.8901 21.3559 18.3442 17.2233 17.6719ZM18.998 23.8367H17.416C16.9788 23.8367 16.625 23.4829 16.625 23.0457C16.625 22.6085 16.9788 22.2547 17.416 22.2547H18.998C19.4353 22.2547 19.7891 22.6085 19.7891 23.0457C19.7891 23.4829 19.4353 23.8367 18.998 23.8367Z"></path>
      <path d="M8.14589 17.6873C8.13303 17.6787 8.11868 17.6728 8.10581 17.6641C3.97761 18.341 0.804688 21.8921 0.804688 26.2091C0.804688 26.6463 1.15848 27.0001 1.5957 27.0001H11.8789V23.2981C8.29408 17.9116 9.02561 19.0113 8.14589 17.6873Z"></path>
   </g>
   <defs>
      <clippath id="clip0">
         <rect width="27" height="27"></rect>
      </clippath>
   </defs>
</svg>