<svg style="fill:#fff;" viewBox="0 0 29 29" xmlns="http://www.w3.org/2000/svg">
	<path d="M20.7262 18.239H19.408L18.952 17.783C20.5769 15.9011 21.5552 13.4554 21.5552 10.7776C21.5552 4.82504 16.7301 0 10.7776 0C4.82512 0 0 4.82504 0 10.7776C0 16.7302 4.82504 21.5552 10.7776 21.5552C13.4554 21.5552 15.9011 20.5769 17.783 18.9603L18.239 19.4163V20.7262L26.5294 29L29 26.5294L20.7262 18.239ZM10.7776 18.239C6.65729 18.239 3.31621 14.8979 3.31621 10.7776C3.31621 6.65729 6.65729 3.31621 10.7776 3.31621C14.8979 3.31621 18.239 6.65729 18.239 10.7776C18.239 14.8979 14.8979 18.239 10.7776 18.239Z"></path>
</svg>