<svg width="83" height="83" fill="none" xmlns="http://www.w3.org/2000/svg"><path d="M41.5 83C64.42 83 83 64.42 83 41.5S64.42 0 41.5 0 0 18.58 0 41.5 18.58 83 41.5 83z" fill="#84DBFF"/><path d="M50.092 53.705c-.326 0-.67-.131-.915-.376l-7.679-7.68-7.679 7.68a1.292 1.292 0 01-1.83 0 1.292 1.292 0 010-1.83l8.594-8.594c.49-.49 1.34-.49 1.83 0l8.594 8.594a1.292 1.292 0 010 1.83 1.343 1.343 0 01-.915.376z" fill="#324A5E"/><path d="M41.498 45.11c-.72 0-1.291-.587-1.291-1.29v-8.316c0-.72.588-1.291 1.29-1.291.703 0 1.291.588 1.291 1.29v8.317c0 .703-.571 1.29-1.29 1.29z" fill="#324A5E"/><path d="M24.49 65.141c6.686 0 12.107-5.42 12.107-12.106 0-6.687-5.42-12.107-12.107-12.107-6.687 0-12.107 5.42-12.107 12.107 0 6.686 5.42 12.106 12.107 12.106z" fill="#fff"/><path d="M26.273 53.41c0 1.03-.8 1.863-1.781 1.863-.98 0-1.781-.833-1.781-1.862 0-1.03.8-3.007 1.78-3.007.981.017 1.782 1.977 1.782 3.007z" fill="#F9B54C"/><path d="M24.507 61.482l2.712-3.088-.637-3.578-2.091-.13v.686l-.016-.687-2.092.131-.637 3.578 2.712 3.088v.05l.033-.017.016.016v-.049z" fill="#E6E9EE"/><path d="M24.788 55.877v-.588h-.654v.588l-1.193 6.144 1.52 2.058 1.52-2.058-1.193-6.144z" fill="#FF7058"/><path d="M24.837 56.073l-.098-.081s-.13-.098-.26-.098h-.034a.517.517 0 00-.261.098l-.098.081.033-.196v-.588h.67v.588l.048.196z" fill="#F1543F"/><path d="M25.78 54.88s-.915.311-.964 1.014c0 0-.164-.13-.36-.13-.196 0-.36.13-.36.13-.048-.686-.963-1.013-.963-1.013l1.323-.18 1.324.18z" fill="#FF7058"/><path d="M20.49 58.444s-.458 2.973-1.21 3.284c-.196.081-.31.898-.392 2.058a11.496 11.496 0 01-2.058-1.356v-.523c-.05-1.372.996-4.934.964-5.424-.033-.49.31-.457.31-.457l.13-.05s.752.376.883.409c.115.049 1.373 2.059 1.373 2.059z" fill="#2B3B4E"/><path d="M24.898 65.143h-.849a11.943 11.943 0 01-4.444-1.013 32.149 32.149 0 00-.343-2.402c-.017-.082-.017-.114-.017-.114.18-.785-1.143-5.572-1.143-5.572l.13-.049 2.63-.882c.115-.033.23-.05.328-.082.163-.049.31-.114.424-.18a.49.49 0 01.131-.065c.05-.033.082-.05.114-.082.033-.016.05-.049.082-.065l.033-.033a.833.833 0 00.13-.114.29.29 0 00.066-.082c.032-.032.065-.081.098-.114.016-.033.033-.05.049-.082.016-.033.033-.049.049-.065.033-.066.065-.115.098-.18 0-.016.016-.033.016-.049v-.016a.228.228 0 00.033-.098c0-.017 0-.017.016-.033v-.033.54c0 .081 0 .147.017.228 0 .05 0 .082.016.13v.132c0 .065.016.13.016.196v.016c.033.36.082.752.131 1.127l.05.294c0 .017 0 .033.015.05.033.245.082.473.115.718.032.196.065.393.114.589.017.098.033.196.05.277.097.54.212 1.062.326 1.553.016.081.033.146.049.228 0 .033.016.05.016.066.017.049.017.098.033.13 0 .017.016.05.016.066.017.049.017.081.033.13a.581.581 0 01.033.164c0 .032.016.065.016.098 0 .016.016.049.016.065.033.098.05.213.082.31.016.05.016.082.033.115v.016c.016.033.016.066.032.098.05.18.082.36.131.507.016.049.016.081.033.114 0 .017.016.033.016.066a.806.806 0 00.066.212c0 .016.016.033.016.049.016.033.016.065.032.098a.506.506 0 01.033.13c.016.066.033.115.05.164.016.065.032.114.048.163v.066c0 .016.017.032.017.049 0 .016 0 .032.016.032.016.05.016.066.016.082.017.033.033.05.05.082.065.114.114.229.163.343 0 .016.016.033.016.049s.016.033.016.049.017.016.017.033a.232.232 0 01.032.098c.017.032.017.065.033.098a.303.303 0 01.033.114c.016.033.016.05.016.082 0 .016.016.016.016.032.017.05.033.082.033.131.016.05.033.115.049.18.016.033.016.082.033.114 0 .017 0 .033.016.05.016.048.016.097.033.146 0 .033.016.05.016.082 0 .033.016.065.016.098a3.8 3.8 0 01.098.556z" fill="#324A5E"/><path d="M20.816 55.863s2.32 6.552 3.268 7.597c.31.343.556.768.752 1.193-.131-.67-.327-1.274-.588-1.78 0 0-1.7-5.785-1.667-9.101 0 0-.163.882-1.356 1.258l.506.261-.915.572z" fill="#2B3B4E"/><path d="M26.24 53.41s.295.376-1.748 1.29c0 0 .768-.032 1.487 1.52 0 0 .866-2.058.261-2.81zm-3.513 0s-.294.376 1.748 1.29c0 0-.768-.032-1.487 1.52 0 0-.85-2.058-.261-2.81z" fill="#fff"/><path d="M32.12 61.907v.523c-.636.522-1.323.98-2.058 1.356-.065-1.16-.196-1.977-.392-2.059-.735-.31-1.21-3.284-1.21-3.284s1.259-2.01 1.373-2.042c.115-.033.883-.409.883-.409l.13.05s.343-.034.31.457c-.032.473 1.03 4.035.965 5.408z" fill="#324A5E"/><path d="M29.704 61.597s-.016.05-.016.114c-.066.344-.23 1.34-.343 2.402a12.18 12.18 0 01-3.856.98 5.282 5.282 0 01-.507.033c-.033.017-.049.05-.065.082 0-.033 0-.049-.017-.065h-.849c.033-.164.049-.344.082-.507 0-.049.016-.098.032-.13.017-.05.017-.099.033-.148v-.032c.016-.082.049-.18.065-.262.016-.032.016-.081.033-.114 0-.016 0-.033.016-.05v-.015c0-.017 0-.017.016-.033 0-.016.017-.033.017-.05 0-.016.016-.032.016-.048 0-.033.017-.05.033-.082 0-.016.016-.049.016-.065 0-.017.017-.05.017-.066s0-.016.016-.032c0-.017.016-.033.016-.05 0-.016.017-.048.033-.065.033-.065.049-.13.082-.196.016-.049.032-.081.049-.13 0-.017.016-.033.016-.05.016-.032.016-.048.033-.081.016-.033.032-.082.065-.114v-.033c0-.017.016-.05.016-.082 0-.016.017-.049.017-.065 0-.017.016-.05.016-.082.016-.065.049-.163.065-.261.017-.05.033-.082.033-.131l.05-.196c.015-.05.032-.114.048-.163.016-.066.033-.131.05-.213.015-.032.015-.065.032-.114.032-.115.065-.245.098-.376.016-.049.033-.098.033-.147.049-.163.081-.343.13-.507.017-.081.033-.163.066-.245.016-.032.016-.081.032-.13.017-.033.017-.082.033-.131.016-.082.049-.18.065-.262.033-.114.05-.228.082-.326.016-.098.049-.196.065-.294 0-.017.017-.033.017-.066.032-.114.049-.245.081-.36.033-.163.066-.342.098-.506l.05-.228c0-.033.016-.082.016-.115a7.55 7.55 0 00.049-.261c.032-.13.049-.262.065-.376.016-.098.033-.196.05-.278.032-.147.048-.31.08-.457.017-.13.034-.245.05-.376.049-.36.098-.719.114-1.062 0-.082.017-.147.017-.229 0-.098.016-.212.016-.31v-.017c0-.114.016-.212.016-.31v-.376.066c.017.032.033.098.066.163 0 .016.016.033.016.049v.016a.342.342 0 00.065.098c.033.05.05.082.098.131.033.033.05.066.082.098l.049.05c.033.032.065.065.114.097a.896.896 0 00.131.098c.033.017.05.033.082.05a2.703 2.703 0 00.98.391l2.63.883.131.049c.033.049-1.307 4.852-1.127 5.62z" fill="#2B3B4E"/><path d="M28.168 55.863s-2.32 6.552-3.268 7.597c-.31.343-.555.768-.752 1.193.131-.67.327-1.274.589-1.78 0 0 1.699-5.785 1.666-9.101 0 0 .164.882 1.356 1.258l-.506.261.915.572zm-2.681 9.247a5.25 5.25 0 01-.506.033.384.384 0 01.277-.098.293.293 0 01.229.066z" fill="#324A5E"/><path d="M24.475 53.77c1.561 0 2.827-1.675 2.827-3.741 0-2.067-1.266-3.742-2.827-3.742s-2.827 1.675-2.827 3.742c0 2.066 1.266 3.741 2.827 3.741z" fill="#FFD05B"/><path d="M27.268 46.483l.294.066c-.277-.8-.931-.915-.931-.915-4.117-2.255-5.228 1.438-5.228 1.438-.638 1.388.294 3.561.294 3.561-.164-.98.457-2.63.457-2.63-.13.49.49.915.49.915-.163-.768.866-1.062.866-1.062-.18.49.294.637.294.637-.18-.409.164-.735.164-.735-.147.44.065 1.029.065 1.029.163-1.7 1.65-1.487 1.65-1.487-.326 1.389.703 1.896.703 1.896-.18-.148-.114-.703-.114-.703-.017.36.49.474.49.474-.442-.36.065-.8.065-.8.376.391.474 1.91.457 2.4.344-.702.148-1.322.458-2.532.31-1.29-.474-1.552-.474-1.552z" fill="#324A5E"/><path d="M58.51 65.141c6.686 0 12.106-5.42 12.106-12.106 0-6.687-5.42-12.107-12.107-12.107-6.686 0-12.107 5.42-12.107 12.107 0 6.686 5.42 12.106 12.107 12.106z" fill="#fff"/><path d="M60.304 53.41c0 1.03-.8 1.863-1.78 1.863-.981 0-1.782-.833-1.782-1.862 0-1.03.8-3.007 1.781-3.007.98 0 1.781 1.977 1.781 3.007z" fill="#F9B54C"/><path d="M58.542 61.482l2.713-3.088-.638-3.578-2.09-.13-.017.686v-.687l-2.091.131-.638 3.578 2.712 3.088v.05l.017-.017.032.016v-.049z" fill="#E6E9EE"/><path d="M58.819 55.877v-.588h-.67l.016.588-1.192 6.144 1.52 2.058 1.519-2.058-1.193-6.144z" fill="#FF7058"/><path d="M58.85 56.073l-.099-.081s-.13-.098-.261-.098h-.033a.517.517 0 00-.261.098l-.098.081.032-.196v-.588h.67v.588l.05.196z" fill="#F1543F"/><path d="M59.815 54.88s-.915.311-.964 1.014c0 0-.163-.13-.36-.13-.196 0-.36.13-.36.13-.048-.686-.963-1.013-.963-1.013l1.323-.18 1.324.18z" fill="#FF7058"/><path d="M54.52 58.444s-.457 2.973-1.208 3.284c-.196.081-.31.898-.392 2.058a11.503 11.503 0 01-2.059-1.356v-.523c-.049-1.372.997-4.934.964-5.424-.033-.49.31-.457.31-.457l.131-.05s.752.376.866.409c.13.049 1.389 2.059 1.389 2.059z" fill="#2B3B4E"/><path d="M58.934 65.143h-.85a11.943 11.943 0 01-4.444-1.013 32.204 32.204 0 00-.343-2.402c-.017-.082-.017-.114-.017-.114.18-.785-1.143-5.572-1.143-5.572l.13-.049 2.63-.882c.115-.033.23-.05.328-.082.163-.049.31-.114.425-.18a.49.49 0 01.13-.065c.05-.033.082-.05.115-.082.032-.016.049-.049.081-.065l.033-.033a.833.833 0 00.13-.114.287.287 0 00.066-.082c.033-.032.065-.081.098-.114.016-.033.033-.05.05-.082.015-.033.032-.049.048-.065.033-.066.065-.115.098-.18 0-.016.017-.033.017-.049v-.016c.016-.033.032-.066.032-.098 0-.017 0-.017.017-.033v-.033.54c0 .081 0 .147.016.228 0 .05 0 .082.016.13v.132c0 .065.017.13.017.196v.016c.032.36.081.752.13 1.127l.05.294c0 .017 0 .033.016.05.032.245.081.473.114.718.033.196.065.393.114.589.017.098.033.196.05.277.097.54.212 1.062.326 1.553.016.081.033.146.05.228 0 .033.015.05.015.066.017.049.017.098.033.13 0 .017.017.05.017.066.016.049.016.081.032.13a.578.578 0 01.033.164c0 .032.016.065.016.098 0 .016.017.049.017.065.032.098.048.213.081.31.017.05.017.082.033.115v.016c.016.033.016.066.032.098.05.18.082.36.131.507.017.049.017.081.033.114 0 .017.016.033.016.066a.806.806 0 00.066.212c0 .016.016.033.016.049.016.033.016.065.033.098a.502.502 0 01.032.13c.017.066.033.115.05.164.016.065.032.114.048.163v.066c0 .016.017.032.017.049 0 .016 0 .032.016.032.016.05.016.066.016.082.017.033.033.05.05.082.065.114.114.229.163.343 0 .016.016.033.016.049s.016.033.016.049.017.016.017.033a.233.233 0 01.032.098c.017.032.017.065.033.098a.302.302 0 01.033.114c.016.033.016.05.016.082 0 .016.017.016.017.032.016.05.032.082.032.131.017.05.033.115.05.18.015.033.015.082.032.114 0 .017 0 .033.016.05.016.048.016.097.033.146 0 .033.016.05.016.082 0 .033.017.065.017.098.049.212.081.376.098.556z" fill="#324A5E"/><path d="M54.848 55.863s2.32 6.552 3.267 7.597c.31.343.556.768.752 1.193-.13-.67-.327-1.274-.588-1.78 0 0-1.7-5.785-1.667-9.101 0 0-.163.882-1.356 1.258l.507.261-.915.572z" fill="#2B3B4E"/><path d="M60.276 53.41s.294.376-1.749 1.29c0 0 .768-.032 1.487 1.52 0 0 .866-2.058.262-2.81zm-3.514 0s-.294.376 1.748 1.29c0 0-.768-.032-1.486 1.52 0 0-.85-2.058-.262-2.81z" fill="#fff"/><path d="M66.156 61.907v.523c-.637.522-1.324.98-2.059 1.356-.065-1.16-.196-1.977-.392-2.059-.735-.31-1.209-3.284-1.209-3.284s1.258-2.01 1.372-2.042c.115-.033.883-.409.883-.409l.13.05s.344-.034.311.457c-.033.473 1.03 4.035.964 5.408z" fill="#324A5E"/><path d="M63.735 61.597s-.016.05-.016.114c-.066.344-.229 1.34-.343 2.402a12.18 12.18 0 01-3.856.98 5.282 5.282 0 01-.507.033c-.032.017-.049.05-.065.082 0-.033 0-.049-.016-.065h-.85c.033-.164.049-.344.082-.507 0-.049.016-.098.032-.13.017-.05.017-.099.033-.148v-.032c.016-.082.05-.18.065-.262.017-.032.017-.081.033-.114 0-.016 0-.033.016-.05v-.015c0-.017 0-.017.017-.033 0-.016.016-.033.016-.05 0-.016.017-.032.017-.048 0-.033.016-.05.032-.082 0-.016.017-.049.017-.065 0-.017.016-.05.016-.066s0-.016.016-.032c0-.017.017-.033.017-.05 0-.016.016-.048.032-.065.033-.065.05-.13.082-.196.016-.049.033-.081.049-.13 0-.017.016-.033.016-.05.017-.032.017-.048.033-.081s.033-.082.065-.114v-.033c0-.017.017-.05.017-.082 0-.016.016-.049.016-.065 0-.017.016-.05.016-.082.017-.065.05-.163.066-.261.016-.05.032-.082.032-.131l.05-.196c.016-.05.032-.114.048-.163.017-.066.033-.131.05-.213.016-.032.016-.065.032-.114.033-.115.065-.245.098-.376a.478.478 0 00.033-.147c.049-.163.081-.343.13-.507.017-.081.033-.163.066-.245.016-.032.016-.081.033-.13.016-.033.016-.082.032-.131.017-.082.05-.18.066-.262.032-.114.049-.228.081-.326.017-.098.05-.196.066-.294 0-.017.016-.033.016-.066.033-.114.049-.245.082-.36.032-.163.065-.342.098-.506.016-.081.032-.147.049-.228 0-.033.016-.082.016-.115.016-.081.033-.163.049-.261.033-.13.049-.262.065-.376.017-.098.033-.196.05-.278.032-.147.048-.31.081-.457.016-.13.033-.245.05-.376.048-.36.097-.719.113-1.062 0-.082.017-.147.017-.229 0-.098.016-.212.016-.31v-.017c0-.114.016-.212.016-.31v-.376.066c.017.032.033.098.066.163 0 .016.016.033.016.049v.016c.017.033.033.066.066.098.032.05.048.082.097.131.033.033.05.066.082.098l.05.05a.677.677 0 00.114.097.901.901 0 00.13.098c.033.017.05.033.082.05a2.702 2.702 0 00.98.391l2.63.883.132.049c.032.049-1.307 4.852-1.128 5.62z" fill="#2B3B4E"/><path d="M62.183 55.863s-2.32 6.552-3.267 7.597c-.31.343-.556.768-.752 1.193.13-.67.327-1.274.588-1.78 0 0 1.7-5.785 1.667-9.101 0 0 .163.882 1.356 1.258l-.507.261.915.572zm-2.661 9.247a5.25 5.25 0 01-.506.033.385.385 0 01.277-.098.292.292 0 01.23.066z" fill="#324A5E"/><path d="M58.506 53.77c1.561 0 2.827-1.675 2.827-3.741 0-2.067-1.266-3.742-2.827-3.742-1.56 0-2.826 1.675-2.826 3.742 0 2.066 1.265 3.741 2.826 3.741z" fill="#FFD05B"/><path d="M61.303 46.483l.294.066c-.277-.8-.93-.915-.93-.915-4.118-2.255-5.23 1.438-5.23 1.438-.636 1.388.295 3.561.295 3.561-.163-.98.457-2.63.457-2.63-.13.49.49.915.49.915-.163-.768.866-1.062.866-1.062-.18.49.295.637.295.637-.18-.409.163-.735.163-.735-.147.44.065 1.029.065 1.029.164-1.7 1.65-1.487 1.65-1.487-.326 1.389.703 1.896.703 1.896-.18-.148-.114-.703-.114-.703-.017.36.49.474.49.474-.441-.36.065-.8.065-.8.376.391.474 1.91.458 2.4.343-.702.147-1.322.457-2.532.31-1.29-.474-1.552-.474-1.552z" fill="#324A5E"/><path d="M41.501 37.186c6.687 0 12.107-5.42 12.107-12.107 0-6.686-5.42-12.106-12.107-12.106-6.686 0-12.106 5.42-12.106 12.106 0 6.687 5.42 12.107 12.106 12.107z" fill="#fff"/><path d="M43.28 25.456c0 1.029-.8 1.862-1.78 1.862s-1.781-.833-1.781-1.863c0-1.029.8-3.006 1.78-3.006.981 0 1.782 1.977 1.782 3.006z" fill="#F9B54C"/><path d="M41.53 33.527l2.697-3.088-.621-3.578-2.108-.13v.686-.687l-2.108.131-.62 3.578 2.712 3.088v.05l.016-.033.033.032v-.049z" fill="#E6E9EE"/><path d="M41.807 27.922v-.588h-.67v.588l-1.176 6.143 1.503 2.06 1.52-2.06-1.177-6.143z" fill="#FF7058"/><path d="M41.841 28.118l-.098-.081s-.13-.098-.261-.098h-.033a.517.517 0 00-.261.098l-.098.081.032-.196v-.588h.67v.588l.05.196z" fill="#F1543F"/><path d="M42.807 26.91s-.915.31-.964 1.013c0 0-.163-.13-.36-.13a.653.653 0 00-.359.13c-.049-.686-.964-1.013-.964-1.013l1.324-.18 1.323.18z" fill="#FF7058"/><path d="M37.497 30.489s-.457 2.973-1.209 3.284c-.196.081-.31.898-.392 2.058a11.49 11.49 0 01-2.058-1.356v-.523c-.05-1.372.996-4.934.964-5.424-.033-.49.31-.457.31-.457l.13-.05s.752.376.867.409c.13.049 1.388 2.059 1.388 2.059z" fill="#2B3B4E"/><path d="M41.926 37.186h-.85a11.942 11.942 0 01-4.444-1.013 32.124 32.124 0 00-.343-2.402c-.016-.082-.016-.115-.016-.115.18-.784-1.144-5.571-1.144-5.571l.13-.049 2.631-.882c.114-.033.229-.05.327-.082.163-.049.31-.114.425-.18a.49.49 0 01.13-.065c.05-.033.082-.05.115-.082.032-.016.049-.049.081-.065l.033-.033a.936.936 0 00.13-.114c.033-.033.05-.05.066-.082.033-.032.066-.082.098-.114.017-.033.033-.05.05-.082a.225.225 0 01.048-.065c.033-.066.066-.115.098-.18 0-.016.017-.033.017-.049v-.016a.23.23 0 00.032-.098c0-.017 0-.017.017-.033v-.033.539c0 .082 0 .148.016.23 0 .048 0 .08.016.13v.13c0 .066.017.131.017.197v.016c.032.36.081.752.13 1.127l.05.294c0 .017 0 .033.016.05.032.244.081.473.114.718.033.196.066.393.115.588a32.072 32.072 0 00.376 1.83c.016.082.032.148.048.23 0 .032.017.048.017.065.016.049.016.098.032.13 0 .017.017.05.017.066.016.049.016.081.032.13a.578.578 0 01.033.164c0 .032.016.065.016.098 0 .016.017.049.017.065.032.098.049.212.081.31.017.05.017.082.033.115v.016c.016.033.016.066.033.098.049.18.081.36.13.507.017.049.017.081.033.114 0 .017.016.033.016.066a.81.81 0 00.066.212c0 .016.016.033.016.049.017.033.017.065.033.098a.516.516 0 01.032.13c.017.066.033.115.05.164.016.065.032.114.048.163v.066c0 .016.017.032.017.049 0 .016 0 .032.016.032a.219.219 0 01.017.082c.016.033.032.05.049.082.065.114.114.229.163.343 0 .016.016.033.016.049s.017.033.017.049.016.016.016.033a.232.232 0 01.033.098c.016.032.016.065.032.098a.302.302 0 01.033.114.148.148 0 01.016.082c0 .016.017.016.017.033.016.049.032.081.032.13.017.05.033.115.05.18.016.033.016.082.032.114 0 .017 0 .033.016.05.017.048.017.097.033.146 0 .033.016.05.016.082 0 .033.017.065.017.098.049.212.065.376.098.556z" fill="#324A5E"/><path d="M37.824 27.906s2.32 6.552 3.268 7.597c.31.343.556.768.752 1.193-.131-.67-.327-1.274-.589-1.781 0 0-1.699-5.784-1.666-9.1 0 0-.164.882-1.356 1.258l.506.26-.915.573z" fill="#2B3B4E"/><path d="M43.26 25.455s.294.376-1.748 1.29c0 0 .768-.032 1.486 1.52-.016 0 .85-2.058.262-2.81zm-3.51 0s-.294.376 1.748 1.29c0 0-.768-.032-1.487 1.52 0 0-.866-2.058-.262-2.81z" fill="#fff"/><path d="M49.148 33.952v.523a11.52 11.52 0 01-2.059 1.356c-.065-1.16-.196-1.977-.392-2.059-.735-.31-1.209-3.284-1.209-3.284s1.258-2.01 1.373-2.042c.114-.033.882-.409.882-.409l.13.05s.344-.034.311.457c-.032.473 1.013 4.035.964 5.408z" fill="#324A5E"/><path d="M46.731 33.64s-.016.05-.016.114c-.065.344-.229 1.34-.343 2.402a12.18 12.18 0 01-3.856.98 5.282 5.282 0 01-.507.033c-.032.017-.049.05-.065.082 0-.033 0-.05-.016-.065h-.85c.033-.164.05-.343.082-.507 0-.049.016-.098.033-.13.016-.05.016-.099.032-.148v-.032c.017-.082.05-.18.066-.262.016-.032.016-.081.032-.114 0-.017 0-.033.017-.05v-.015c0-.017 0-.017.016-.033 0-.017.016-.033.016-.05 0-.015.017-.032.017-.048 0-.033.016-.05.032-.082 0-.016.017-.049.017-.065 0-.017.016-.05.016-.066s0-.016.016-.032c0-.017.017-.033.017-.05 0-.016.016-.048.032-.065.033-.065.05-.13.082-.196.016-.049.033-.081.049-.13 0-.017.016-.033.016-.05.017-.032.017-.048.033-.081s.033-.082.065-.114v-.033c0-.017.017-.05.017-.082 0-.016.016-.049.016-.065 0-.017.016-.05.016-.082.017-.065.05-.163.066-.261.016-.05.032-.082.032-.131l.05-.196c.016-.05.032-.114.048-.163.017-.066.033-.131.05-.213.016-.033.016-.065.032-.114.033-.115.066-.245.098-.376a.465.465 0 00.033-.147c.049-.163.081-.343.13-.507.017-.081.033-.163.066-.245.016-.032.016-.081.033-.13.016-.033.016-.082.032-.131.017-.082.05-.18.066-.261.032-.115.049-.23.081-.327.017-.098.05-.196.066-.294 0-.017.016-.033.016-.066.033-.114.049-.245.082-.36.032-.163.065-.342.098-.506.016-.081.032-.147.049-.228 0-.033.016-.082.016-.115.016-.081.033-.163.05-.261.032-.13.048-.262.064-.376.017-.098.033-.196.05-.278.032-.147.048-.31.081-.457l.05-.376c.048-.36.097-.719.113-1.062 0-.082.017-.147.017-.229 0-.098.016-.212.016-.31v-.017c0-.114.016-.212.016-.31v-.376.066c.017.032.033.098.066.163 0 .016.016.033.016.049v.016c.017.033.033.066.066.098.032.05.049.082.098.131.032.033.049.065.081.098l.05.05a.727.727 0 00.114.097.8.8 0 00.13.098c.033.017.05.033.082.05a2.7 2.7 0 00.98.391l2.63.883.132.049c.016.049-1.307 4.852-1.128 5.62z" fill="#2B3B4E"/><path d="M45.175 27.906s-2.32 6.552-3.267 7.597c-.31.343-.556.768-.752 1.193.131-.67.327-1.274.588-1.781 0 0 1.7-5.784 1.667-9.1 0 0 .163.882 1.356 1.258l-.506.26.914.573zm-2.661 9.248a5.282 5.282 0 01-.506.032.384.384 0 01.278-.098.293.293 0 01.228.066z" fill="#324A5E"/><path d="M41.483 25.815c1.56 0 2.826-1.675 2.826-3.741 0-2.067-1.265-3.742-2.826-3.742-1.561 0-2.827 1.675-2.827 3.742 0 2.066 1.266 3.741 2.827 3.741z" fill="#FFD05B"/><path d="M44.28 18.528l.294.066c-.278-.801-.931-.915-.931-.915-4.118-2.255-5.229 1.437-5.229 1.437-.637 1.39.294 3.562.294 3.562-.163-.98.458-2.63.458-2.63-.13.49.49.915.49.915-.163-.768.866-1.062.866-1.062-.18.49.294.637.294.637-.18-.409.163-.735.163-.735-.147.44.066 1.029.066 1.029.163-1.7 1.65-1.487 1.65-1.487-.327 1.389.703 1.895.703 1.895-.18-.147-.115-.702-.115-.702-.016.36.49.474.49.474-.44-.36.066-.8.066-.8.376.391.474 1.91.457 2.4.343-.702.147-1.323.458-2.532.31-1.29-.474-1.552-.474-1.552z" fill="#324A5E"/></svg>